<svg width="510" height="510" viewBox="0 0 510 510" fill="none" xmlns="http://www.w3.org/2000/svg">
<path d="M323.224 102.815C323.224 104.256 322.637 105.57 321.68 106.521C320.734 107.479 319.42 108.067 317.978 108.067H205.706C202.822 108.067 200.459 105.704 200.459 102.815C200.459 101.373 201.048 100.059 202.005 99.1067C202.95 98.1506 204.264 97.5624 205.706 97.5624H211.013C213.108 92.6921 217.948 89.2875 223.582 89.2875C227.374 89.2875 230.802 90.8328 233.286 93.322C236.594 87.7126 242.693 83.9451 249.678 83.9451C251.598 83.9451 253.446 84.2346 255.191 84.7626C258.844 77.8933 266.065 73.2166 274.388 73.2166C284.382 73.2166 292.791 79.9646 295.329 89.1478C297.17 88.2273 299.247 87.7004 301.452 87.7004C307.686 87.7004 312.945 91.8623 314.598 97.5624H317.978C320.861 97.5624 323.224 99.9252 323.224 102.815Z" fill="#89EAEE"/>
<path d="M166.818 82.9269C166.818 83.987 166.386 84.9533 165.683 85.6525C164.987 86.3569 164.021 86.7891 162.961 86.7891H80.3944C78.2738 86.7891 76.5361 85.0511 76.5361 82.9269C76.5361 81.8657 76.9689 80.8994 77.6725 80.2001C78.3674 79.4958 79.3341 79.0636 80.3944 79.0636H84.2966C85.8384 75.4827 89.3977 72.9792 93.5402 72.9792C96.3291 72.9792 98.8508 74.1147 100.677 75.9454C103.11 71.8212 107.596 69.0496 112.732 69.0496C114.144 69.0496 115.503 69.2637 116.786 69.651C119.472 64.5992 124.783 61.16 130.903 61.16C138.254 61.16 144.438 66.1231 146.304 72.8762C147.658 72.1994 149.186 71.812 150.807 71.812C155.391 71.812 159.259 74.8721 160.475 79.0636H162.961C165.081 79.0636 166.818 80.8015 166.818 82.9269Z" fill="#89EAEE"/>
<path d="M446.363 78.3153C446.363 79.3765 445.932 80.3428 445.227 81.0421C444.532 81.7464 443.566 82.1786 442.505 82.1786H359.939C357.818 82.1786 356.082 80.4406 356.082 78.3153C356.082 77.2563 356.514 76.2889 357.217 75.5897C357.912 74.8853 358.879 74.4531 359.939 74.4531H363.842C365.383 70.8722 368.942 68.3687 373.086 68.3687C375.874 68.3687 378.396 69.5042 380.222 71.335C382.654 67.2097 387.141 64.4392 392.277 64.4392C393.69 64.4392 395.049 64.6532 396.33 65.0406C399.017 59.9888 404.327 56.5495 410.448 56.5495C417.799 56.5495 423.981 61.5127 425.848 68.2658C427.203 67.5889 428.731 67.2005 430.352 67.2005C434.937 67.2005 438.803 70.2616 440.02 74.4531H442.505C444.625 74.4531 446.363 76.191 446.363 78.3153Z" fill="#89EAEE"/>
<path d="M470.529 260.833C472.903 263.467 472.691 267.54 470.057 269.914C467.423 272.287 463.349 272.075 460.974 269.441C458.601 266.807 458.813 262.734 461.447 260.36C464.081 257.986 468.155 258.199 470.529 260.833ZM462.63 249.686C461.241 249.964 459.888 250.43 458.597 251.085L454.312 246.329L449.1 251.026L453.203 255.578C452.251 256.826 451.509 258.187 450.979 259.614L443.819 259.242L443.454 266.248L450.058 266.59C450.239 268.555 450.782 270.486 451.702 272.289L446.944 276.577L451.64 281.789L456.194 277.686C457.677 278.816 459.32 279.644 461.045 280.18L460.735 286.121L467.741 286.485L468.038 280.746C470.102 280.447 472.116 279.733 473.959 278.609L478.06 283.162L483.271 278.466L478.985 273.709C479.772 272.493 480.375 271.197 480.795 269.845L487.561 270.197L487.927 263.191L481.361 262.85C481.062 260.788 480.347 258.773 479.225 256.931L483.778 252.828L479.081 247.616L474.325 251.903C472.865 250.96 471.288 250.266 469.645 249.849L469.986 243.284L462.98 242.919L462.63 249.686Z" fill="#89EAEE"/>
<path d="M78.9308 173.663C81.3043 176.297 81.0916 180.37 78.4577 182.744C75.8237 185.117 71.7505 184.905 69.3769 182.271C67.0033 179.637 67.2152 175.564 69.8491 173.19C72.4835 170.816 76.5568 171.029 78.9308 173.663ZM71.0313 162.516C69.6433 162.795 68.2891 163.259 66.9994 163.916L62.7138 159.16L57.5016 163.856L61.6057 168.408C60.6525 169.657 59.9114 171.017 59.3807 172.444L52.2211 172.073L51.856 179.079L58.4605 179.421C58.6404 181.384 59.1848 183.317 60.1026 185.119L55.3459 189.406L60.042 194.618L64.5948 190.515C66.0788 191.646 67.7225 192.475 69.4458 193.011L69.136 198.95L76.1423 199.314L76.4401 193.576C78.5027 193.277 80.517 192.562 82.3602 191.44L86.4619 195.991L91.6736 191.295L87.3864 186.539C88.1741 185.324 88.7769 184.026 89.197 182.675L95.9632 183.027L96.3287 176.022L89.7628 175.68C89.4637 173.618 88.7494 171.604 87.6266 169.761L92.1785 165.659L87.482 160.447L82.7257 164.732C81.2677 163.79 79.6897 163.095 78.0464 162.678L78.3885 156.115L71.3821 155.749L71.0313 162.516Z" fill="#89EAEE"/>
<path d="M459.401 225.368C460.698 226.808 460.582 229.034 459.142 230.332C457.702 231.628 455.477 231.513 454.179 230.073C452.882 228.633 452.998 226.407 454.437 225.111C455.876 223.813 458.103 223.929 459.401 225.368ZM455.083 219.277C454.325 219.429 453.585 219.684 452.88 220.041L450.538 217.442L447.69 220.009L449.931 222.497C449.412 223.179 449.006 223.922 448.716 224.703L444.803 224.499L444.604 228.329L448.214 228.515C448.313 229.588 448.609 230.645 449.111 231.629L446.512 233.973L449.078 236.821L451.567 234.578C452.377 235.197 453.276 235.649 454.218 235.942L454.049 239.189L457.876 239.387L458.04 236.251C459.167 236.088 460.267 235.697 461.275 235.084L463.517 237.571L466.365 235.005L464.022 232.406C464.452 231.741 464.781 231.032 465.01 230.294L468.709 230.487L468.908 226.657L465.32 226.471C465.156 225.344 464.766 224.243 464.153 223.236L466.64 220.994L464.074 218.145L461.475 220.488C460.677 219.972 459.816 219.593 458.917 219.366L459.103 215.779L455.276 215.579L455.083 219.277Z" fill="#89EAEE"/>
<path d="M49.4861 214.729C50.7833 216.168 50.6675 218.393 49.2277 219.691C47.7879 220.988 45.5621 220.873 44.2652 219.433C42.9675 217.994 43.0834 215.767 44.5228 214.47C45.9626 213.172 48.1884 213.289 49.4861 214.729ZM45.1694 208.637C44.4105 208.789 43.6703 209.043 42.9659 209.402L40.6238 206.802L37.7753 209.368L40.0182 211.856C39.497 212.539 39.0916 213.282 38.8022 214.062L34.8892 213.859L34.6895 217.688L38.2989 217.875C38.3973 218.948 38.6946 220.005 39.1963 220.989L36.597 223.333L39.1633 226.181L41.6515 223.938C42.4622 224.556 43.3609 225.009 44.3022 225.302L44.1334 228.549L47.9622 228.747L48.1247 225.611C49.2524 225.447 50.3532 225.058 51.3598 224.444L53.6021 226.931L56.4502 224.364L54.1069 221.765C54.5373 221.101 54.867 220.392 55.0964 219.653L58.7938 219.846L58.9941 216.017L55.4058 215.83C55.2421 214.704 54.8519 213.603 54.2379 212.595L56.7261 210.355L54.159 207.506L51.5601 209.848C50.7634 209.332 49.901 208.953 49.0026 208.726L49.1895 205.139L45.361 204.939L45.1694 208.637Z" fill="#89EAEE"/>
<path d="M468.559 443.143C468.559 452.298 368.439 459.719 244.936 459.719C121.432 459.719 21.3125 452.298 21.3125 443.143C21.3125 433.988 121.432 426.567 244.936 426.567C368.439 426.567 468.559 433.988 468.559 443.143Z" fill="#89EAEE"/>
<path d="M392.461 218.768C392.461 216.485 390.603 214.628 388.32 214.628C386.036 214.628 384.179 216.485 384.179 218.768C384.179 221.052 386.036 222.91 388.32 222.91C390.603 222.91 392.461 221.052 392.461 218.768ZM394.354 218.768C394.354 222.095 391.648 224.803 388.32 224.803C384.992 224.803 382.285 222.095 382.285 218.768C382.285 215.441 384.992 212.734 388.32 212.734C391.648 212.734 394.354 215.441 394.354 218.768Z" fill="#7FBED7"/>
<path d="M419.043 201.148C419.043 198.865 417.184 197.008 414.901 197.008C412.618 197.008 410.761 198.865 410.761 201.148C410.761 203.431 412.618 205.29 414.901 205.29C417.184 205.29 419.043 203.431 419.043 201.148ZM420.936 201.148C420.936 204.475 418.228 207.183 414.901 207.183C411.574 207.183 408.867 204.475 408.867 201.148C408.867 197.821 411.574 195.114 414.901 195.114C418.228 195.114 420.936 197.821 420.936 201.148Z" fill="#46CDD3"/>
<path d="M417.566 178.377C417.044 178.377 416.62 178.801 416.62 179.324V183.498C416.62 184.021 417.044 184.444 417.566 184.444C418.089 184.444 418.512 184.021 418.512 183.498V179.324C418.512 178.801 418.089 178.377 417.566 178.377Z" fill="#7FBED7"/>
<path d="M417.566 171.073C417.044 171.073 416.62 171.497 416.62 172.019V176.194C416.62 176.716 417.044 177.14 417.566 177.14C418.089 177.14 418.512 176.716 418.512 176.194V172.019C418.512 171.497 418.089 171.073 417.566 171.073Z" fill="#7FBED7"/>
<path d="M423.425 176.812H419.676C419.153 176.812 418.729 177.237 418.729 177.759C418.729 178.281 419.153 178.705 419.676 178.705H423.425C423.948 178.705 424.371 178.281 424.371 177.759C424.371 177.237 423.948 176.812 423.425 176.812Z" fill="#7FBED7"/>
<path d="M415.457 176.812H411.707C411.185 176.812 410.761 177.237 410.761 177.759C410.761 178.281 411.185 178.705 411.707 178.705H415.457C415.98 178.705 416.403 178.281 416.403 177.759C416.403 177.237 415.98 176.812 415.457 176.812Z" fill="#7FBED7"/>
<path d="M384.879 194.134C384.356 194.134 383.932 194.558 383.932 195.081V199.255C383.932 199.778 384.356 200.201 384.879 200.201C385.402 200.201 385.826 199.778 385.826 199.255V195.081C385.826 194.558 385.402 194.134 384.879 194.134Z" fill="#3AA3A8"/>
<path d="M384.879 186.83C384.356 186.83 383.932 187.254 383.932 187.777V191.951C383.932 192.473 384.356 192.897 384.879 192.897C385.402 192.897 385.826 192.473 385.826 191.951V187.777C385.826 187.254 385.402 186.83 384.879 186.83Z" fill="#3AA3A8"/>
<path d="M390.738 192.569H386.988C386.466 192.569 386.042 192.993 386.042 193.515C386.042 194.038 386.466 194.462 386.988 194.462H390.738C391.261 194.462 391.685 194.038 391.685 193.515C391.685 192.993 391.261 192.569 390.738 192.569Z" fill="#3AA3A8"/>
<path d="M382.77 192.569H379.02C378.497 192.569 378.073 192.993 378.073 193.515C378.073 194.038 378.497 194.462 379.02 194.462H382.77C383.292 194.462 383.716 194.038 383.716 193.515C383.716 192.993 383.292 192.569 382.77 192.569Z" fill="#3AA3A8"/>
<path d="M122.746 112.212C125.03 112.212 126.887 110.354 126.887 108.071C126.887 105.787 125.03 103.93 122.746 103.93C120.462 103.93 118.605 105.787 118.605 108.071C118.605 110.354 120.462 112.212 122.746 112.212ZM122.746 114.105C119.419 114.105 116.712 111.399 116.712 108.071C116.712 104.744 119.419 102.037 122.746 102.037C126.073 102.037 128.78 104.744 128.78 108.071C128.78 111.399 126.073 114.105 122.746 114.105Z" fill="#7FBED7"/>
<path d="M139.999 132.144C142.283 132.144 144.14 130.286 144.14 128.004C144.14 125.719 142.283 123.862 139.999 123.862C137.716 123.862 135.858 125.719 135.858 128.004C135.858 130.286 137.716 132.144 139.999 132.144ZM139.999 134.037C136.672 134.037 133.965 131.33 133.965 128.004C133.965 124.677 136.672 121.969 139.999 121.969C143.326 121.969 146.033 124.677 146.033 128.004C146.033 131.33 143.326 134.037 139.999 134.037Z" fill="#46CDD3"/>
<path d="M155.36 103.687C155.36 103.164 154.936 102.741 154.413 102.741H150.238C149.716 102.741 149.292 103.164 149.292 103.687C149.292 104.208 149.716 104.632 150.238 104.632H154.413C154.936 104.632 155.36 104.208 155.36 103.687Z" fill="#7FBED7"/>
<path d="M162.664 103.687C162.664 103.164 162.24 102.741 161.717 102.741H157.543C157.02 102.741 156.596 103.164 156.596 103.687C156.596 104.208 157.02 104.632 157.543 104.632H161.717C162.24 104.632 162.664 104.208 162.664 103.687Z" fill="#7FBED7"/>
<path d="M156.925 109.546V105.797C156.925 105.274 156.501 104.85 155.979 104.85C155.456 104.85 155.032 105.274 155.032 105.797V109.546C155.032 110.068 155.456 110.492 155.979 110.492C156.501 110.492 156.925 110.068 156.925 109.546Z" fill="#7FBED7"/>
<path d="M156.925 101.577V97.8274C156.925 97.3045 156.501 96.8805 155.979 96.8805C155.456 96.8805 155.032 97.3045 155.032 97.8274V101.577C155.032 102.1 155.456 102.523 155.979 102.523C156.501 102.523 156.925 102.1 156.925 101.577Z" fill="#7FBED7"/>
<path d="M107.957 138.949C107.957 138.427 107.533 138.003 107.01 138.003H102.837C102.314 138.003 101.89 138.427 101.89 138.949C101.89 139.472 102.314 139.896 102.837 139.896H107.01C107.533 139.896 107.957 139.472 107.957 138.949Z" fill="#3AA3A8"/>
<path d="M115.261 138.949C115.261 138.427 114.838 138.003 114.314 138.003H110.141C109.618 138.003 109.194 138.427 109.194 138.949C109.194 139.472 109.618 139.896 110.141 139.896H114.314C114.838 139.896 115.261 139.472 115.261 138.949Z" fill="#3AA3A8"/>
<path d="M109.522 144.81V141.059C109.522 140.537 109.098 140.114 108.575 140.114C108.052 140.114 107.628 140.537 107.628 141.059V144.81C107.628 145.331 108.052 145.755 108.575 145.755C109.098 145.755 109.522 145.331 109.522 144.81Z" fill="#3AA3A8"/>
<path d="M109.522 136.84V133.09C109.522 132.568 109.098 132.144 108.575 132.144C108.052 132.144 107.628 132.568 107.628 133.09V136.84C107.628 137.363 108.052 137.787 108.575 137.787C109.098 137.787 109.522 137.363 109.522 136.84Z" fill="#3AA3A8"/>
<path d="M333.395 160.96L335.805 162.389L337.082 163.145L340.705 165.29C340.705 165.29 409.197 131.024 400.45 99.7255C397.759 90.0908 383.772 87.5791 369.657 114.713C356.571 139.864 333.395 160.96 333.395 160.96Z" fill="#9BC8EA"/>
<path d="M335.806 162.389L337.083 163.145C351.47 153.412 363.679 140.857 371.658 131.661C381.132 120.742 386.86 112.068 386.916 111.981C387.121 111.672 387.034 111.255 386.724 111.052C386.414 110.847 385.998 110.934 385.795 111.243C385.738 111.331 380.051 119.944 370.629 130.797C362.608 140.037 350.291 152.691 335.806 162.389Z" fill="#52A4A8"/>
<path d="M320.854 169.087L323.134 172.215L324.343 173.874L327.77 178.573C327.77 178.573 433.403 172.468 439.387 127.972C441.229 114.273 424.849 103.451 392.122 130.183C361.785 154.962 320.854 169.087 320.854 169.087Z" fill="#89EAEE"/>
<path d="M323.134 172.215L324.343 173.874C347.913 169.373 370.264 160.103 385.411 152.787C403.396 144.101 415.4 136.219 415.518 136.139C415.947 135.858 416.065 135.281 415.781 134.855C415.5 134.426 414.924 134.307 414.498 134.589C414.377 134.668 402.457 142.497 384.575 151.128C369.353 158.478 346.813 167.815 323.134 172.215Z" fill="#9BC8EA"/>
<path d="M192.967 391.813L190.548 393.227L189.265 393.975L185.63 396.099C185.63 396.099 117.348 361.417 126.283 330.172C129.033 320.555 143.035 318.128 156.987 345.346C169.919 370.577 192.967 391.813 192.967 391.813Z" fill="#9BC8EA"/>
<path d="M190.549 393.227L189.265 393.975C174.939 384.155 162.806 371.526 154.882 362.282C145.475 351.306 139.799 342.598 139.745 342.51C139.542 342.199 139.63 341.783 139.943 341.583C140.254 341.38 140.669 341.468 140.87 341.778C140.927 341.867 146.562 350.514 155.918 361.424C163.881 370.713 176.121 383.442 190.549 393.227Z" fill="#52A4A8"/>
<path d="M205.458 400.016L203.16 403.129L201.94 404.78L198.486 409.459C198.486 409.459 92.8914 402.714 87.1775 358.182C85.4184 344.472 101.864 333.75 134.427 360.681C164.613 385.643 205.458 400.016 205.458 400.016Z" fill="#89EAEE"/>
<path d="M203.159 403.129L201.94 404.781C178.398 400.138 156.104 390.731 141.001 383.324C123.069 374.529 111.112 366.574 110.996 366.493C110.568 366.21 110.454 365.633 110.74 365.208C111.024 364.781 111.601 364.666 112.026 364.95C112.146 365.03 124.018 372.93 141.847 381.671C157.024 389.112 179.507 398.586 203.159 403.129Z" fill="#9BC8EA"/>
<path d="M334.598 348.404C347.947 331.222 360.877 312.486 367.981 299.069C377.26 281.543 380.979 267.494 379.035 257.312C378.906 256.637 378.254 256.194 377.579 256.324C376.904 256.452 376.461 257.104 376.59 257.779C379.988 275.578 364.493 306.756 331.761 348.016L334.598 348.404Z" fill="#9BC8EA"/>
<path d="M374.951 282.757C374.951 282.757 383.581 288.56 393.191 272.988C393.191 272.988 377.461 267.85 374.951 282.757Z" fill="#89EAEE"/>
<path d="M370.411 291.041C370.411 291.041 376.686 282.748 361.672 272.284C361.672 272.284 355.667 287.705 370.411 291.041Z" fill="#89EAEE"/>
<path d="M378.163 265.332C378.163 265.332 386.844 259.605 376.177 244.735C376.177 244.735 365.375 257.272 378.163 265.332Z" fill="#89EAEE"/>
<path d="M361.793 307.991C361.793 307.991 367.952 316.371 382.263 304.968C382.263 304.968 369.196 294.813 361.793 307.991Z" fill="#89EAEE"/>
<path d="M355.89 315.731C355.89 315.731 363.505 308.647 350.526 295.746C350.526 295.746 341.946 309.896 355.89 315.731Z" fill="#89EAEE"/>
<path d="M348.861 327.132C348.861 327.132 354.861 335.629 369.386 324.498C369.386 324.498 356.515 314.096 348.861 327.132Z" fill="#89EAEE"/>
<path d="M186.294 241.36C168.631 228.655 150.929 214.34 140.322 203.481C126.464 189.295 118.923 176.871 117.908 166.554C117.841 165.871 118.342 165.261 119.026 165.194C119.71 165.127 120.318 165.627 120.385 166.31C122.159 184.344 145.84 209.866 188.906 240.184L186.294 241.36Z" fill="#9BC8EA"/>
<path d="M129.022 189.805C129.022 189.805 122.385 197.813 108.763 185.593C108.763 185.593 122.398 176.217 129.022 189.805Z" fill="#89EAEE"/>
<path d="M135.72 196.468C135.72 196.468 127.355 190.287 138.798 176.005C138.798 176.005 148.918 189.099 135.72 196.468Z" fill="#89EAEE"/>
<path d="M121.012 174.001C121.012 174.001 111.066 170.962 117.092 153.683C117.092 153.683 130.999 162.652 121.012 174.001Z" fill="#89EAEE"/>
<path d="M148.779 210.287C148.779 210.287 145.242 220.069 128.29 213.177C128.29 213.177 137.951 199.742 148.779 210.287Z" fill="#89EAEE"/>
<path d="M156.63 216.043C156.63 216.043 147.322 211.402 156.123 195.356C156.123 195.356 168.355 206.502 156.63 216.043Z" fill="#89EAEE"/>
<path d="M166.596 224.99C166.596 224.99 163.246 234.836 146.165 228.267C146.165 228.267 155.569 214.651 166.596 224.99Z" fill="#89EAEE"/>
<path d="M354.941 134.783V425.634C354.941 434.751 347.553 442.139 338.435 442.139H193.598C189.017 442.139 184.876 440.275 181.884 437.264C178.923 434.278 177.092 430.17 177.092 425.634V134.783C177.092 125.665 184.48 118.277 193.598 118.277H338.435C341.13 118.277 343.675 118.923 345.922 120.069C351.277 122.798 354.941 128.361 354.941 134.783Z" fill="#036792"/>
<path d="M348.793 134.783V425.634C348.793 434.751 341.405 442.139 332.287 442.139H187.45C182.869 442.139 178.727 440.275 175.736 437.264C172.775 434.278 170.944 430.17 170.944 425.634V134.783C170.944 125.665 178.332 118.277 187.45 118.277H332.287C334.982 118.277 337.526 118.923 339.774 120.069C345.129 122.798 348.793 128.361 348.793 134.783Z" fill="#303060"/>
<path d="M351.922 189.809H354.206C356.337 189.809 358.063 188.083 358.063 185.952V167.4C358.063 165.27 356.337 163.542 354.206 163.542H351.922V189.809Z" fill="#303060"/>
<path d="M170.943 189.809H169.153C167.484 189.809 166.13 188.456 166.13 186.788V166.565C166.13 164.896 167.484 163.542 169.153 163.542H170.943V189.809Z" fill="#303060"/>
<path d="M170.944 224.27H169.154C167.484 224.27 166.131 222.916 166.131 221.247V201.025C166.131 199.356 167.484 198.002 169.154 198.002H170.944V224.27Z" fill="#303060"/>
<path d="M340.556 133.782V426.628C340.556 430.653 337.298 433.9 333.285 433.9H186.451C183.445 433.9 180.868 432.081 179.756 429.476C179.384 428.598 179.179 427.638 179.179 426.628V133.782C179.179 129.769 182.435 126.51 186.451 126.51H333.285C333.763 126.51 334.228 126.555 334.677 126.643C335.186 126.74 335.676 126.891 336.142 127.089C338.383 128.059 340.048 130.114 340.457 132.588C340.523 132.976 340.556 133.376 340.556 133.782Z" fill="#D3F9FB"/>
<path d="M304.158 380.033V406.31C304.158 408.09 302.595 409.533 300.671 409.533H222.907C220.982 409.533 219.42 408.09 219.42 406.31V380.033C219.42 378.252 220.982 376.809 222.907 376.809H300.671C302.595 376.809 304.158 378.252 304.158 380.033Z" fill="#7FBED7"/>
<path d="M179.641 346.838H253.108V216.843H179.641V346.838Z" fill="#AFB6BB"/>
<path d="M276.009 206.72V341.799C276.009 348.037 271.93 353.363 266.305 355.242C264.901 355.712 263.398 355.968 261.842 355.968C254.048 355.968 247.674 349.594 247.674 341.799V206.72C247.674 198.925 254.048 192.552 261.842 192.552C263.398 192.552 264.901 192.808 266.305 193.278C268.413 193.98 270.308 195.172 271.848 196.713C274.418 199.283 276.009 202.823 276.009 206.72Z" fill="#303060"/>
<path d="M276.009 206.72V341.799C276.009 348.037 271.93 353.363 266.305 355.242C260.68 353.363 256.601 348.037 256.601 341.799V206.72C256.601 200.482 260.68 195.156 266.305 193.278C268.413 193.98 270.308 195.172 271.848 196.713C274.418 199.283 276.009 202.823 276.009 206.72Z" fill="#036792"/>
<path d="M270.08 218.461V330.256C270.08 335.282 265.999 339.358 260.973 339.358H71.1204C68.8572 339.358 66.7807 338.527 65.1888 337.161C63.2484 335.492 62.0181 333.015 62.0181 330.256V218.461C62.0181 213.435 66.0935 209.359 71.1204 209.359H260.973C265.999 209.359 270.08 213.435 270.08 218.461Z" fill="#7FBED7"/>
<path d="M62.0181 257.124H270.078V232.346H62.0181V257.124Z" fill="#036792"/>
<path d="M250.724 322.562H210.432C208.044 322.562 206.108 320.626 206.108 318.238V309.742C206.108 307.353 208.044 305.418 210.432 305.418H250.724C253.112 305.418 255.048 307.353 255.048 309.742V318.238C255.048 320.626 253.112 322.562 250.724 322.562Z" fill="#46CDD3"/>
<path d="M88.8985 286.515H75.1833C74.5804 286.515 74.0923 286.028 74.0923 285.425V278.255C74.0923 277.653 74.5804 277.164 75.1833 277.164H88.8985C89.5005 277.164 89.9895 277.653 89.9895 278.255V285.425C89.9895 286.028 89.5005 286.515 88.8985 286.515Z" fill="#46CDD3"/>
<path d="M116.901 286.515H103.186C102.582 286.515 102.094 286.028 102.094 285.425V278.255C102.094 277.653 102.582 277.164 103.186 277.164H116.901C117.502 277.164 117.992 277.653 117.992 278.255V285.425C117.992 286.028 117.502 286.515 116.901 286.515Z" fill="#46CDD3"/>
<path d="M144.904 286.515H131.188C130.585 286.515 130.097 286.028 130.097 285.425V278.256C130.097 277.653 130.585 277.164 131.188 277.164H144.904C145.506 277.164 145.994 277.653 145.994 278.256V285.425C145.994 286.028 145.506 286.515 144.904 286.515Z" fill="#46CDD3"/>
<path d="M172.905 286.515H159.19C158.588 286.515 158.1 286.028 158.1 285.425V278.255C158.1 277.653 158.588 277.164 159.19 277.164H172.905C173.508 277.164 173.996 277.653 173.996 278.255V285.425C173.996 286.028 173.508 286.515 172.905 286.515Z" fill="#46CDD3"/>
<path d="M200.908 286.515H187.192C186.59 286.515 186.102 286.028 186.102 285.425V278.255C186.102 277.653 186.59 277.164 187.192 277.164H200.908C201.51 277.164 201.999 277.653 201.999 278.255V285.425C201.999 286.028 201.51 286.515 200.908 286.515Z" fill="#46CDD3"/>
<path d="M228.911 286.515H215.195C214.592 286.515 214.104 286.028 214.104 285.425V278.256C214.104 277.653 214.592 277.164 215.195 277.164H228.911C229.513 277.164 230.002 277.653 230.002 278.256V285.425C230.002 286.028 229.513 286.515 228.911 286.515Z" fill="#46CDD3"/>
<path d="M256.913 286.515H243.198C242.595 286.515 242.107 286.028 242.107 285.425V278.256C242.107 277.653 242.595 277.164 243.198 277.164H256.913C257.515 277.164 258.003 277.653 258.003 278.256V285.425C258.003 286.028 257.515 286.515 256.913 286.515Z" fill="#46CDD3"/>
<path d="M62.0181 223.967H270.078V219.217H62.0181V223.967Z" fill="#46CDD3"/>
<path d="M95.0316 325.004H81.1547C77.2543 325.004 74.0923 321.841 74.0923 317.941V304.064C74.0923 300.164 77.2543 297.001 81.1547 297.001H95.0316C98.9318 297.001 102.094 300.164 102.094 304.064V317.941C102.094 321.841 98.9318 325.004 95.0316 325.004Z" fill="#46CDD3"/>
<path d="M197.005 317.847H111.197C109.86 317.847 108.775 316.763 108.775 315.424V312.555C108.775 311.217 109.86 310.133 111.197 310.133H197.005C198.343 310.133 199.428 311.217 199.428 312.555V315.424C199.428 316.763 198.343 317.847 197.005 317.847Z" fill="#46CDD3"/>
<path d="M65.1888 337.161C63.2484 335.492 62.0181 333.015 62.0181 330.256V291.036L74.0928 278.961V285.425C74.0928 286.028 74.5809 286.515 75.1838 286.515H88.899C89.501 286.515 89.99 286.028 89.99 285.425V278.255C89.99 277.653 89.501 277.164 88.899 277.164H75.8894L95.9296 257.124H145.226L117.992 284.357V278.255C117.992 277.653 117.503 277.164 116.902 277.164H103.186C102.583 277.164 102.095 277.653 102.095 278.255V285.425C102.095 286.028 102.583 286.515 103.186 286.515H115.834L101.382 300.967C100.234 298.619 97.8217 297.001 95.0321 297.001H81.1552C77.2548 297.001 74.0928 300.164 74.0928 304.064V317.941C74.0928 320.731 75.7102 323.143 78.0586 324.291L65.1888 337.161ZM170.004 232.346H120.708L129.087 223.967H178.383L170.004 232.346Z" fill="#89EAEE"/>
<path d="M145.225 257.124H95.9292L120.707 232.346H170.003L145.225 257.124Z" fill="#005072"/>
<path d="M88.8985 286.515H75.1833C74.5804 286.515 74.0923 286.028 74.0923 285.425V278.961L75.8889 277.164H88.8985C89.5005 277.164 89.9895 277.653 89.9895 278.255V285.425C89.9895 286.028 89.5005 286.515 88.8985 286.515Z" fill="#89EAEE"/>
<path d="M115.834 286.515H103.186C102.582 286.515 102.094 286.028 102.094 285.425V278.255C102.094 277.653 102.582 277.164 103.186 277.164H116.901C117.502 277.164 117.992 277.653 117.992 278.255V284.357L115.834 286.515Z" fill="#89EAEE"/>
<path d="M183.133 219.217H133.836L143.694 209.359H192.99L183.133 219.217Z" fill="#89EAEE"/>
<path d="M178.382 223.967H129.086L133.837 219.217H183.133L178.382 223.967Z" fill="#89EAEE"/>
<path d="M78.0581 324.291C75.7097 323.143 74.0923 320.731 74.0923 317.941V304.064C74.0923 300.164 77.2543 297.001 81.1547 297.001H95.0316C97.8212 297.001 100.234 298.619 101.381 300.967L78.0581 324.291Z" fill="#89EAEE"/>
<path d="M130.586 339.358H106.465L127.976 317.847H152.097L130.586 339.358ZM159.811 310.133H135.691L159.309 286.515H172.905C173.508 286.515 173.996 286.028 173.996 285.424V278.254C173.996 277.653 173.508 277.164 172.905 277.164H168.66L188.7 257.124H212.821L192.78 277.164H187.192C186.59 277.164 186.102 277.653 186.102 278.254V283.842L159.811 310.133ZM237.598 232.346H213.478L221.857 223.967H245.977L237.598 232.346Z" fill="#89EAEE"/>
<path d="M212.821 257.124H188.7L213.478 232.346H237.599L212.821 257.124Z" fill="#005072"/>
<path d="M172.906 286.515H159.309L168.66 277.164H172.906C173.508 277.164 173.997 277.653 173.997 278.255V285.425C173.997 286.028 173.508 286.515 172.906 286.515Z" fill="#89EAEE"/>
<path d="M250.727 219.217H226.607L236.465 209.359H260.585L250.727 219.217Z" fill="#89EAEE"/>
<path d="M186.102 283.842V278.254C186.102 277.653 186.59 277.164 187.192 277.164H192.78L186.102 283.842Z" fill="#89EAEE"/>
<path d="M245.977 223.967H221.857L226.607 219.217H250.728L245.977 223.967Z" fill="#89EAEE"/>
<path d="M152.097 317.847H127.976L135.69 310.133H159.811L152.097 317.847Z" fill="#89EAEE"/>
<path d="M425.16 444.856H406.711C404.201 444.856 401.978 442.014 401.203 437.815L393.379 395.439C393.059 393.705 393.746 391.904 394.779 391.763C409.025 389.821 423.129 389.818 437.095 391.757C438.127 391.901 438.812 393.701 438.493 395.434L430.667 437.815C429.893 442.014 427.669 444.856 425.16 444.856Z" fill="#46CDD3"/>
<path d="M436.291 393.889C436.291 395.138 427.23 396.152 416.053 396.152C404.876 396.152 395.816 395.138 395.816 393.889C395.816 392.639 404.876 391.626 416.053 391.626C427.23 391.626 436.291 392.639 436.291 393.889Z" fill="#303060"/>
<path d="M450.997 337.57C439.916 334.651 422.985 357.653 417.842 380.079V347.404C420.426 342.82 425.355 335.924 434.302 328.636C448.217 317.303 461.027 302.76 449.926 299.835C439.522 297.095 423.962 317.202 417.842 338.228V296.268C419.635 293.485 422.572 289.834 427.267 286.01C436.037 278.867 444.109 269.701 437.113 267.858C431.04 266.259 422.182 277.008 417.842 289.13V275.53C418.56 271.323 419.573 265.315 422.358 259.172C428.807 244.939 432.292 230.274 423.787 231.365C415.274 232.457 409.757 257.807 414.411 277.268V284.265C411.266 270.023 400.479 255.275 393.438 257.129C386.441 258.973 394.514 268.139 403.284 275.281C409.96 280.718 413.083 285.807 414.411 288.543V321.598C409.368 299.059 392.315 275.796 381.175 278.73C370.074 281.655 382.883 296.199 396.797 307.532C407.312 316.096 412.278 324.121 414.411 328.486V368.123C409.022 345.997 392.405 323.667 381.475 326.546C370.375 329.47 379.894 340.098 395.533 352.954C406.16 361.69 411.853 370.911 414.411 375.923V394.593C415.652 394.94 416.813 394.939 417.842 394.593V387.163C420.017 382.764 424.989 374.831 435.375 366.372C449.291 355.039 462.099 340.494 450.997 337.57Z" fill="#7FBED7"/>
<path d="M122.583 437.762L122.585 437.874C122.585 439.267 121.842 440.608 120.472 441.858C120.137 442.163 119.765 442.463 119.358 442.757C118.218 443.579 116.799 444.356 115.139 445.076C114.779 445.232 114.406 445.383 114.025 445.534C112.737 446.042 111.326 446.516 109.805 446.954C109.44 447.059 109.069 447.164 108.691 447.264C107.358 447.621 105.949 447.95 104.47 448.251C104.103 448.326 103.732 448.4 103.356 448.47C102.001 448.726 100.593 448.958 99.1364 449.165C98.768 449.217 98.3973 449.267 98.0222 449.317C96.6529 449.495 95.2454 449.651 93.8031 449.783C93.4332 449.817 93.0621 449.848 92.6891 449.879C91.3101 449.992 89.9014 450.083 88.4695 450.149C88.0996 450.166 87.7286 450.183 87.3558 450.197C85.9698 450.249 84.5618 450.279 83.1356 450.287C82.8887 450.289 82.6391 450.291 82.3905 450.291C82.2679 450.291 82.1445 450.291 82.0214 450.289C80.5956 450.285 79.1884 450.259 77.8008 450.211C77.4277 450.198 77.057 450.183 76.6871 450.166C75.632 450.12 74.5891 450.06 73.5614 449.99C73.1939 449.964 72.8299 449.938 72.4676 449.91C72.0942 449.881 71.7234 449.848 71.3535 449.816C69.9125 449.689 68.5042 449.538 67.1337 449.365C66.7598 449.317 66.3882 449.268 66.02 449.216C65.1471 449.096 64.2919 448.966 63.4529 448.828C62.8943 448.736 62.3435 448.639 61.8004 448.538C61.4254 448.47 61.0535 448.398 60.6864 448.325C59.2107 448.033 57.8008 447.711 56.4656 447.362C56.202 447.295 55.9413 447.223 55.6829 447.153C55.5714 447.123 55.4619 447.091 55.352 447.06C54.7488 446.892 54.1606 446.716 53.592 446.535C52.7304 446.262 51.9101 445.977 51.1321 445.681C50.7498 445.533 50.3791 445.385 50.018 445.234C48.5942 444.638 47.3395 444.001 46.2752 443.33C46.1123 443.226 45.9522 443.124 45.7985 443.017C45.605 442.887 45.4186 442.755 45.2415 442.623C45.0464 442.478 44.8616 442.331 44.6848 442.184C43.075 440.842 42.1958 439.39 42.1958 437.874C42.1958 437.769 42.201 437.662 42.211 437.556L42.2146 428.976L44.6848 428.972L45.7985 428.97L50.018 428.964L51.1321 428.962L54.425 428.957L55.352 428.956L56.4656 428.954L60.6864 428.949L61.8004 428.947L66.02 428.941L67.1337 428.939L71.3535 428.932L72.4676 428.93L76.6871 428.925L77.8008 428.922L82.0214 428.917L83.1356 428.914L87.3558 428.909L88.4695 428.907L92.6891 428.901L93.8031 428.9L98.0222 428.892L99.1364 428.892L103.356 428.886L104.47 428.883L108.691 428.877L109.805 428.875H110.08L114.025 428.869L115.139 428.868L119.358 428.862L120.472 428.861L122.57 428.857L122.585 437.762H122.583Z" fill="#46CDD3"/>
<path d="M45.7988 428.97V443.017C45.6052 442.887 45.4189 442.754 45.2417 442.623C45.0466 442.478 44.8618 442.33 44.6851 442.183V428.972L45.7988 428.97Z" fill="#7FBED7"/>
<path d="M51.1322 428.962V445.681C50.7499 445.533 50.3792 445.385 50.0181 445.234V428.964L51.1322 428.962Z" fill="#7FBED7"/>
<path d="M56.4657 428.954V447.362C56.2021 447.295 55.9413 447.223 55.6829 447.153C55.5714 447.123 55.4619 447.091 55.3521 447.06V428.956L56.4657 428.954Z" fill="#7FBED7"/>
<path d="M61.8005 428.947V448.538C61.4255 448.47 61.0536 448.398 60.6865 448.325V428.949L61.8005 428.947Z" fill="#7FBED7"/>
<path d="M67.1337 428.939V449.365C66.7598 449.317 66.3883 449.268 66.02 449.216V428.94L67.1337 428.939Z" fill="#7FBED7"/>
<path d="M72.4677 428.93V449.909C72.0942 449.881 71.7234 449.848 71.3535 449.815V428.932L72.4677 428.93Z" fill="#7FBED7"/>
<path d="M77.8007 428.922V450.211C77.4277 450.198 77.0569 450.183 76.687 450.166V428.925L77.8007 428.922Z" fill="#7FBED7"/>
<path d="M83.1356 428.914V450.287C82.8887 450.289 82.6391 450.291 82.3906 450.291C82.268 450.291 82.1445 450.291 82.0215 450.289V428.917L83.1356 428.914Z" fill="#7FBED7"/>
<path d="M88.4697 428.907V450.149C88.0998 450.166 87.7287 450.183 87.356 450.196V428.909L88.4697 428.907Z" fill="#7FBED7"/>
<path d="M93.803 428.9V449.783C93.4331 449.817 93.062 449.848 92.689 449.879V428.901L93.803 428.9Z" fill="#7FBED7"/>
<path d="M99.1361 428.892V449.165C98.7677 449.217 98.3971 449.267 98.022 449.317V428.892L99.1361 428.892Z" fill="#7FBED7"/>
<path d="M104.47 428.883V448.251C104.103 448.326 103.732 448.399 103.357 448.47V428.886L104.47 428.883Z" fill="#7FBED7"/>
<path d="M109.805 428.875V446.954C109.44 447.059 109.069 447.164 108.69 447.264V428.877L109.805 428.875Z" fill="#7FBED7"/>
<path d="M115.139 428.868V445.075C114.779 445.232 114.406 445.383 114.025 445.534V428.869L115.139 428.868Z" fill="#7FBED7"/>
<path d="M120.472 428.861V441.857C120.137 442.163 119.765 442.463 119.358 442.756V428.862L120.472 428.861Z" fill="#7FBED7"/>
<path d="M122.575 428.965C122.575 435.268 104.589 440.376 82.3933 440.376C79.3608 440.376 76.4066 440.283 73.5669 440.101C69.9952 439.874 66.6032 439.511 63.4607 439.034C60.6556 438.607 58.0503 438.089 55.6931 437.493C54.9728 437.312 54.2748 437.123 53.603 436.926C50.6482 436.065 48.17 435.071 46.2886 433.979C45.9206 433.766 45.5751 433.55 45.2553 433.329C43.2927 431.985 42.2104 430.511 42.2104 428.965C42.2104 428.823 42.22 428.683 42.2427 428.542C43.0215 422.436 60.7005 417.554 82.3933 417.554C87.7312 417.554 92.8258 417.849 97.4849 418.385C98.3849 418.49 99.2687 418.602 100.136 418.724C103.92 419.254 107.368 419.947 110.364 420.772C111.024 420.955 111.662 421.141 112.278 421.337C114.466 422.027 116.361 422.794 117.908 423.623C119.502 424.476 120.727 425.393 121.521 426.358C122.1 427.064 122.449 427.794 122.545 428.542C122.567 428.683 122.575 428.823 122.575 428.965Z" fill="#3AA3A8"/>
<path d="M63.4604 440.101H80.6438V437.321H63.4604V440.101Z" fill="#26A9AF"/>
<path d="M46.2882 433.979C46.1201 433.882 45.9569 433.784 45.7984 433.686C45.61 433.567 45.4285 433.449 45.2549 433.328L51.5616 431.524C51.8133 431.768 52.0987 432.008 52.4185 432.242L46.2882 433.979Z" fill="#26A9AF"/>
<path d="M55.6931 437.493C54.9728 437.312 54.2748 437.123 53.603 436.926L59.3089 435.302C59.7167 435.421 60.1332 435.536 60.56 435.649C60.7133 435.689 60.8686 435.729 61.0243 435.769C61.0701 435.78 61.1159 435.792 61.1621 435.803C61.2413 435.824 61.3209 435.843 61.4009 435.863L55.6931 437.493Z" fill="#26A9AF"/>
<path d="M114.51 428.966C114.51 429.105 114.497 429.246 114.478 429.384C113.704 434.22 99.6101 438.086 82.3929 438.086C65.1769 438.086 51.0831 434.22 50.3078 429.384C50.2898 429.246 50.2764 429.105 50.2764 428.966C50.2764 423.935 64.6839 419.845 82.3929 419.845C100.103 419.845 114.51 423.935 114.51 428.966Z" fill="#7FBED7"/>
<path d="M114.479 429.384C113.704 434.22 99.6104 438.086 82.3933 438.086C82.0086 438.086 81.6271 438.084 81.2465 438.081C77.4061 438.042 73.7356 437.812 70.3484 437.421C66.9602 437.03 63.8596 436.48 61.1621 435.804C60.476 435.631 59.8174 435.452 59.1811 435.264C56.3042 434.407 54.0008 433.395 52.4639 432.272C52.0919 432.004 51.765 431.727 51.4868 431.448C50.8238 430.786 50.4244 430.097 50.3081 429.384C51.0834 424.548 65.1772 420.681 82.3933 420.681C84.5713 420.681 86.6999 420.743 88.7616 420.861C89.8104 420.92 90.8449 420.997 91.8579 421.085C95.9941 421.448 99.776 422.043 103.016 422.815C103.715 422.981 104.392 423.158 105.042 423.342C107.565 424.055 109.676 424.886 111.258 425.804C112.799 426.697 113.839 427.674 114.277 428.7C114.376 428.925 114.443 429.154 114.479 429.384Z" fill="#46CDD3"/>
<path d="M81.2463 438.081C77.4058 438.042 73.7354 437.812 70.3481 437.421L75.7458 435.888C75.8593 435.896 75.9727 435.905 76.0871 435.913C77.1144 435.983 78.1572 436.042 79.2124 436.089C79.5823 436.105 79.9529 436.121 80.3264 436.133C81.7137 436.182 83.1212 436.209 84.5472 436.211C84.6698 436.213 84.7936 436.213 84.9154 436.213C85.1643 436.213 85.414 436.211 85.6616 436.211C86.4285 436.206 87.1898 436.195 87.9455 436.178L81.2463 438.081Z" fill="#89EAEE"/>
<path d="M52.4635 432.272C52.0915 432.004 51.7646 431.728 51.4863 431.448L52.5287 431.151C52.5335 431.154 52.5387 431.156 52.5435 431.158C52.9042 431.309 53.275 431.455 53.6568 431.603C53.8224 431.666 53.9896 431.728 54.1592 431.791L52.4635 432.272Z" fill="#89EAEE"/>
<path d="M61.1621 435.803C60.476 435.631 59.8174 435.452 59.1812 435.264L62.9467 434.195C63.0352 434.212 63.1235 434.23 63.2123 434.248C63.5794 434.32 63.9513 434.392 64.326 434.462C64.643 434.52 64.9623 434.578 65.284 434.633L61.1621 435.803Z" fill="#89EAEE"/>
<path d="M86.8595 434.14V435.656H80.0813V434.209C75.2742 434.127 70.6111 433.758 67.7275 433.253L71.3808 430.905C74.5531 431.438 78.7837 431.779 82.4851 431.779C85.706 431.779 86.8595 431.588 86.8595 431.26C86.8595 430.058 68.2559 431.028 68.2559 427.465C68.2559 425.922 72.1978 424.625 80.0813 424.312V422.823H86.8595V424.283C90.4169 424.379 93.8782 424.639 96.6181 425.076L93.2053 427.41C89.8885 426.933 86.7636 426.7 83.831 426.7C80.5142 426.7 79.4566 426.973 79.4566 427.301C79.4566 428.447 98.0607 427.492 98.0607 431.014C98.0607 432.489 94.311 433.772 86.8595 434.14Z" fill="#7FBED7"/>
<path d="M86.6622 433.637V435.151H79.8836V433.704C75.0763 433.622 70.4133 433.254 67.5293 432.749L71.1822 430.4C74.3553 430.933 78.5859 431.275 82.287 431.275C85.5082 431.275 86.6622 431.083 86.6622 430.756C86.6622 429.554 68.0581 430.523 68.0581 426.96C68.0581 425.417 71.9997 424.121 79.8836 423.807V422.319H86.6622V423.779C90.219 423.875 93.6804 424.134 96.4202 424.572L93.0075 426.906C89.6899 426.428 86.5657 426.195 83.6328 426.195C80.316 426.195 79.2585 426.469 79.2585 426.796C79.2585 427.944 97.8624 426.988 97.8624 430.51C97.8624 431.984 94.1128 433.268 86.6622 433.637Z" fill="#3AA3A8"/>
<path d="M125.109 423.684L125.11 423.798C125.11 425.191 124.367 426.53 122.998 427.78C122.663 428.086 122.291 428.386 121.883 428.679C120.743 429.502 119.325 430.278 117.664 430.998C117.304 431.155 116.932 431.308 116.55 431.456C115.262 431.965 113.851 432.439 112.331 432.877C111.966 432.981 111.595 433.086 111.217 433.187C109.883 433.544 108.474 433.874 106.996 434.174C106.628 434.249 106.258 434.322 105.881 434.392C104.527 434.649 103.118 434.881 101.662 435.087C101.293 435.14 100.923 435.19 100.548 435.239C99.1783 435.417 97.7707 435.574 96.3281 435.705C95.959 435.74 95.5874 435.772 95.2144 435.802C93.8355 435.915 92.4271 436.004 90.9949 436.073C90.6254 436.089 90.2543 436.106 89.8808 436.12C88.4947 436.171 87.0875 436.203 85.6617 436.211C85.4141 436.211 85.1644 436.213 84.9155 436.213C84.7937 436.213 84.6699 436.213 84.5473 436.211C83.1213 436.209 81.7138 436.182 80.3265 436.133C79.953 436.121 79.5824 436.106 79.2125 436.089C78.1573 436.042 77.1145 435.983 76.0872 435.913C75.7196 435.887 75.3553 435.861 74.9929 435.831C74.6199 435.803 74.2483 435.772 73.8788 435.738C72.4379 435.612 71.0291 435.46 69.6594 435.287C69.2847 435.239 68.9136 435.191 68.5452 435.139C67.6725 435.02 66.8168 434.889 65.9783 434.751C65.4196 434.658 64.8693 434.562 64.3258 434.462C63.9511 434.392 63.5792 434.32 63.2121 434.248C61.7357 433.956 60.3261 433.632 58.9915 433.285C58.7274 433.217 58.4666 433.146 58.2078 433.075C58.0967 433.045 57.9872 433.015 57.8773 432.982C57.2741 432.814 56.6856 432.639 56.1173 432.458C55.2557 432.184 54.4354 431.899 53.6571 431.603C53.2752 431.455 52.9045 431.309 52.5438 431.158C51.1199 430.561 49.8644 429.925 48.8009 429.252C48.6373 429.15 48.4771 429.045 48.3238 428.941C48.1304 428.81 47.9444 428.679 47.7672 428.545C47.5721 428.4 47.3874 428.255 47.2102 428.106C45.6004 426.765 44.7212 425.312 44.7212 423.798C44.7212 423.691 44.7259 423.585 44.7359 423.478L44.7398 414.898L47.2102 414.895L48.3238 414.892L52.5438 414.888L53.6571 414.885L56.9507 414.88L57.8773 414.879L58.9915 414.877L63.2121 414.871L64.3258 414.87L68.5452 414.863L69.6594 414.862L73.8788 414.854L74.9929 414.854L79.2125 414.847L80.3265 414.845L84.5473 414.84L85.6617 414.838L89.8808 414.832L90.9949 414.831L95.2144 414.824L96.3281 414.823L100.548 414.816L101.662 414.814L105.881 414.807L106.996 414.805L111.217 414.8L112.331 414.798H112.605L116.55 414.792L117.664 414.791L121.883 414.784L122.998 414.783L125.096 414.779L125.11 423.684H125.109Z" fill="#46CDD3"/>
<path d="M48.3236 414.892V428.941C48.1301 428.81 47.9442 428.678 47.7669 428.545C47.5718 428.4 47.3871 428.254 47.21 428.106V414.895L48.3236 414.892Z" fill="#7FBED7"/>
<path d="M53.6573 414.885V431.603C53.2754 431.455 52.9047 431.309 52.5439 431.158V414.888L53.6573 414.885Z" fill="#7FBED7"/>
<path d="M58.9911 414.876V433.285C58.7271 433.217 58.4662 433.146 58.2074 433.075C58.0963 433.045 57.9868 433.015 57.877 432.982V414.879L58.9911 414.876Z" fill="#7FBED7"/>
<path d="M64.3256 414.87V434.462C63.9509 434.392 63.579 434.32 63.2119 434.248V414.871L64.3256 414.87Z" fill="#7FBED7"/>
<path d="M69.659 414.861V435.287C69.2843 435.239 68.9133 435.191 68.5449 435.139V414.863L69.659 414.861Z" fill="#7FBED7"/>
<path d="M74.9931 414.854V435.831C74.62 435.803 74.2484 435.772 73.8789 435.738V414.854L74.9931 414.854Z" fill="#7FBED7"/>
<path d="M80.3264 414.845V436.133C79.953 436.12 79.5823 436.105 79.2124 436.089V414.847L80.3264 414.845Z" fill="#7FBED7"/>
<path d="M85.6618 414.838V436.211C85.4142 436.211 85.1645 436.213 84.9156 436.213C84.7938 436.213 84.67 436.213 84.5474 436.211V414.84L85.6618 414.838Z" fill="#7FBED7"/>
<path d="M90.995 414.831V436.073C90.6255 436.089 90.2543 436.105 89.8809 436.12V414.832L90.995 414.831Z" fill="#7FBED7"/>
<path d="M96.3281 414.823V435.705C95.959 435.739 95.5874 435.772 95.2144 435.802V414.824L96.3281 414.823Z" fill="#7FBED7"/>
<path d="M101.662 414.814V435.087C101.293 435.14 100.923 435.19 100.548 435.239V414.816L101.662 414.814Z" fill="#7FBED7"/>
<path d="M106.996 414.805V434.174C106.628 434.249 106.258 434.322 105.882 434.392V414.807L106.996 414.805Z" fill="#7FBED7"/>
<path d="M112.331 414.798V432.877C111.966 432.981 111.595 433.086 111.217 433.187V414.8L112.331 414.798Z" fill="#7FBED7"/>
<path d="M117.664 414.791V430.998C117.304 431.154 116.932 431.307 116.55 431.456V414.792L117.664 414.791Z" fill="#7FBED7"/>
<path d="M122.998 414.783V427.78C122.663 428.086 122.291 428.386 121.883 428.679V414.784L122.998 414.783Z" fill="#7FBED7"/>
<path d="M125.101 414.889C125.101 421.189 107.114 426.3 84.9182 426.3C81.8857 426.3 78.9316 426.205 76.0918 426.023C72.5201 425.797 69.1281 425.434 65.9861 424.956C63.1805 424.53 60.5749 424.012 58.2181 423.417C57.4981 423.234 56.8002 423.046 56.128 422.848C53.1732 421.986 50.6953 420.994 48.8139 419.902C48.4452 419.689 48.1 419.473 47.7798 419.253C45.818 417.907 44.7354 416.434 44.7354 414.889C44.7354 414.747 44.7453 414.605 44.7677 414.464C45.5464 408.358 63.226 403.477 84.9182 403.477C90.2565 403.477 95.3513 403.772 100.01 404.308C100.91 404.412 101.794 404.525 102.66 404.647C106.446 405.176 109.893 405.87 112.889 406.695C113.549 406.877 114.187 407.066 114.803 407.259C116.991 407.95 118.886 408.718 120.433 409.545C122.028 410.398 123.252 411.317 124.046 412.282C124.626 412.986 124.976 413.716 125.069 414.464C125.093 414.605 125.101 414.747 125.101 414.889Z" fill="#3AA3A8"/>
<path d="M65.9863 426.023H83.1661V423.244H65.9863V426.023Z" fill="#26A9AF"/>
<path d="M48.8139 419.902C48.6455 419.805 48.4822 419.706 48.3237 419.608C48.1354 419.49 47.9538 419.372 47.7798 419.252L53.5164 417.61C53.9404 417.77 54.3768 417.924 54.8252 418.077C54.8641 418.107 54.9036 418.136 54.9439 418.166L48.8139 419.902Z" fill="#26A9AF"/>
<path d="M58.218 423.417C57.498 423.234 56.8001 423.045 56.1279 422.848L61.8342 421.224C61.8342 421.224 61.8346 421.224 61.835 421.224C62.5027 421.421 63.1996 421.608 63.9262 421.787L58.218 423.417Z" fill="#26A9AF"/>
<path d="M117.035 414.889C117.035 415.029 117.022 415.168 117.005 415.308C116.229 420.144 102.136 424.01 84.9193 424.01C67.7025 424.01 53.609 420.144 52.8334 415.308C52.8159 415.168 52.8027 415.029 52.8027 414.889C52.8027 409.859 67.2092 405.767 84.9193 405.767C102.629 405.767 117.035 409.859 117.035 414.889Z" fill="#7FBED7"/>
<path d="M117.004 415.308C116.228 420.144 102.135 424.01 84.9189 424.01C84.533 424.01 84.1524 424.007 83.7709 424.003C79.9309 423.965 76.261 423.735 72.8732 423.343C69.4855 422.954 66.3841 422.403 63.6869 421.727C63.0013 421.556 62.3423 421.375 61.7059 421.186C58.8291 420.33 56.5256 419.317 54.9887 418.195C54.6168 417.927 54.2895 417.649 54.0116 417.37C53.3486 416.709 52.9496 416.019 52.833 415.308C53.6086 410.471 67.7021 406.604 84.9189 406.604C87.0969 406.604 89.2251 406.666 91.2861 406.784C92.3349 406.844 93.3702 406.919 94.3832 407.009C98.519 407.371 102.301 407.966 105.541 408.738C106.24 408.903 106.917 409.08 107.566 409.264C110.089 409.977 112.2 410.808 113.782 411.726C115.323 412.621 116.363 413.596 116.802 414.623C116.901 414.847 116.969 415.076 117.004 415.308Z" fill="#46CDD3"/>
<path d="M83.7712 424.003C79.9312 423.965 76.2613 423.735 72.8735 423.343L77.75 421.959C78.1132 421.978 78.4779 421.996 78.8446 422.012C79.2141 422.027 79.5848 422.043 79.9583 422.056C81.3459 422.105 82.7531 422.131 84.1794 422.135C84.3016 422.135 84.4246 422.135 84.5474 422.135C84.7962 422.135 85.0462 422.135 85.2931 422.133C86.7194 422.125 88.1265 422.095 89.5126 422.042C89.8861 422.027 90.2572 422.012 90.6263 421.995C90.7131 421.991 90.7995 421.986 90.8855 421.982L83.7712 424.003Z" fill="#89EAEE"/>
<path d="M54.9887 418.195C54.9361 418.156 54.8845 418.118 54.8335 418.079C54.9183 418.109 55.0035 418.138 55.089 418.166L54.9887 418.195Z" fill="#89EAEE"/>
<path d="M63.687 421.727C63.0014 421.556 62.3424 421.375 61.7061 421.186L64.3066 420.448C64.7362 420.526 65.1707 420.6 65.6094 420.673C65.9873 420.736 66.3688 420.796 66.7534 420.855L63.687 421.727Z" fill="#89EAEE"/>
<path d="M89.3848 420.063V421.579H82.6063V420.131C77.7994 420.05 73.1364 419.681 70.252 419.176L73.9057 416.828C77.0779 417.36 81.309 417.701 85.0104 417.701C88.2309 417.701 89.3848 417.511 89.3848 417.182C89.3848 415.982 70.7808 416.95 70.7808 413.387C70.7808 411.844 74.7232 410.548 82.6063 410.234V408.745H89.3848V410.206C92.9421 410.302 96.4031 410.561 99.1433 410.998L95.7302 413.332C92.413 412.854 89.2888 412.623 86.3563 412.623C83.0391 412.623 81.9815 412.895 81.9815 413.223C81.9815 414.37 100.585 413.414 100.585 416.937C100.585 418.412 96.8355 419.694 89.3848 420.063Z" fill="#7FBED7"/>
<path d="M89.1871 419.56V421.074H82.4094V419.628C77.6026 419.545 72.9396 419.177 70.0552 418.672L73.7085 416.323C76.8811 416.855 81.1114 417.197 84.8132 417.197C88.0337 417.197 89.1871 417.006 89.1871 416.678C89.1871 415.477 70.5843 416.447 70.5843 412.883C70.5843 411.34 74.5259 410.044 82.4094 409.729V408.241H89.1871V409.703C92.7452 409.797 96.2063 410.056 98.946 410.493L95.5333 412.829C92.2161 412.351 89.0916 412.118 86.1594 412.118C82.8426 412.118 81.785 412.392 81.785 412.72C81.785 413.866 100.388 412.91 100.388 416.432C100.388 417.906 96.6391 419.19 89.1871 419.56Z" fill="#3AA3A8"/>
<path d="M124.74 409.607L124.741 409.72C124.741 411.112 123.998 412.453 122.629 413.702C122.295 414.008 121.921 414.308 121.515 414.601C120.375 415.425 118.956 416.201 117.295 416.922C116.936 417.077 116.564 417.229 116.182 417.38C114.893 417.888 113.482 418.362 111.962 418.799C111.597 418.905 111.227 419.009 110.848 419.109C109.515 419.467 108.105 419.796 106.626 420.097C106.26 420.171 105.889 420.243 105.513 420.315C104.159 420.572 102.749 420.803 101.293 421.009C100.925 421.063 100.554 421.113 100.179 421.163C98.8096 421.34 97.4021 421.496 95.9598 421.629C95.5903 421.661 95.2193 421.694 94.8458 421.725C93.4673 421.838 92.0586 421.927 90.6259 421.995C90.2568 422.012 89.8857 422.027 89.5123 422.042C88.1262 422.095 86.719 422.125 85.2927 422.133C85.0458 422.134 84.7958 422.135 84.547 422.135C84.4243 422.135 84.3012 422.135 84.179 422.134C82.7528 422.131 81.3456 422.105 79.9579 422.056C79.5845 422.042 79.2137 422.027 78.8442 422.012C77.7891 421.966 76.7462 421.905 75.7181 421.836C75.3511 421.81 74.9868 421.782 74.6244 421.754C74.2513 421.726 73.8798 421.694 73.5103 421.66C72.0696 421.534 70.6605 421.383 69.2908 421.21C68.9161 421.163 68.545 421.114 68.1771 421.062C67.3038 420.942 66.4482 420.812 65.6092 420.673C65.0514 420.58 64.5004 420.485 63.9572 420.384C63.5826 420.315 63.2106 420.242 62.8435 420.17C61.367 419.878 59.9575 419.555 58.6221 419.208C58.3589 419.139 58.098 419.069 57.8392 418.999C57.7281 418.968 57.6182 418.937 57.5088 418.906C56.9055 418.737 56.3174 418.562 55.7488 418.38C54.8871 418.107 54.0669 417.821 53.2888 417.525C52.9066 417.379 52.5355 417.23 52.1751 417.08C50.7513 416.484 49.4962 415.847 48.4323 415.176C48.2686 415.072 48.109 414.968 47.9549 414.863C47.7618 414.733 47.5758 414.601 47.3986 414.468C47.2035 414.323 47.0188 414.177 46.8415 414.029C45.2321 412.687 44.3525 411.235 44.3525 409.72C44.3525 409.614 44.3573 409.507 44.3673 409.402L44.3713 400.821L46.8415 400.818L47.9549 400.816L52.1751 400.81L53.2888 400.808L56.5822 400.803L57.5088 400.802L58.6221 400.799L62.8435 400.794L63.9572 400.792L68.1771 400.785L69.2908 400.784L73.5103 400.777L74.6244 400.776L78.8442 400.77L79.9579 400.768L84.179 400.762L85.2927 400.76L89.5123 400.754L90.6259 400.753L94.8458 400.746L95.9598 400.745L100.179 400.739L101.293 400.738L105.513 400.731L106.626 400.728L110.848 400.723L111.962 400.72H112.236L116.182 400.714L117.295 400.713L121.515 400.706L122.629 400.705L124.727 400.703L124.741 409.607H124.74Z" fill="#46CDD3"/>
<path d="M47.9551 400.816V414.863C47.7621 414.733 47.576 414.601 47.3989 414.468C47.2038 414.323 47.0191 414.176 46.8418 414.029V400.818L47.9551 400.816Z" fill="#7FBED7"/>
<path d="M53.289 400.808V417.525C52.9068 417.379 52.5357 417.23 52.1753 417.08V400.81L53.289 400.808Z" fill="#7FBED7"/>
<path d="M58.6221 400.799V419.208C58.3589 419.139 58.0981 419.069 57.8393 418.999C57.7282 418.968 57.6183 418.937 57.5088 418.906V400.802L58.6221 400.799Z" fill="#7FBED7"/>
<path d="M63.9574 400.792V420.384C63.5828 420.315 63.2108 420.242 62.8438 420.17V400.794L63.9574 400.792Z" fill="#7FBED7"/>
<path d="M69.291 400.785V421.21C68.9163 421.163 68.5451 421.114 68.1772 421.062V400.786L69.291 400.785Z" fill="#7FBED7"/>
<path d="M74.6249 400.776V421.754C74.2518 421.726 73.8803 421.694 73.5107 421.66V400.777L74.6249 400.776Z" fill="#7FBED7"/>
<path d="M79.9584 400.768V422.056C79.585 422.043 79.2142 422.027 78.8447 422.012V400.77L79.9584 400.768Z" fill="#7FBED7"/>
<path d="M85.2929 400.76V422.133C85.046 422.134 84.796 422.135 84.5472 422.135C84.4245 422.135 84.3014 422.135 84.1792 422.134V400.762L85.2929 400.76Z" fill="#7FBED7"/>
<path d="M90.6258 400.753V421.995C90.2567 422.012 89.8857 422.027 89.5122 422.042V400.754L90.6258 400.753Z" fill="#7FBED7"/>
<path d="M95.9597 400.745V421.629C95.5902 421.662 95.2192 421.694 94.8457 421.725V400.746L95.9597 400.745Z" fill="#7FBED7"/>
<path d="M101.293 400.738V421.009C100.925 421.063 100.554 421.113 100.18 421.163V400.739L101.293 400.738Z" fill="#7FBED7"/>
<path d="M106.627 400.728V420.097C106.261 420.171 105.89 420.244 105.514 420.315V400.732L106.627 400.728Z" fill="#7FBED7"/>
<path d="M111.962 400.72V418.799C111.597 418.905 111.227 419.009 110.849 419.109V400.723L111.962 400.72Z" fill="#7FBED7"/>
<path d="M117.295 400.713V416.922C116.936 417.077 116.564 417.229 116.182 417.38V400.714L117.295 400.713Z" fill="#7FBED7"/>
<path d="M122.629 400.705V413.702C122.295 414.008 121.922 414.308 121.515 414.601V400.706L122.629 400.705Z" fill="#7FBED7"/>
<path d="M124.733 400.811C124.733 407.114 106.746 412.222 84.5504 412.222C81.5175 412.222 78.5638 412.127 75.7236 411.946C72.152 411.719 68.7599 411.357 65.6175 410.879C62.8123 410.453 60.2067 409.934 57.8498 409.339C57.13 409.156 56.4319 408.968 55.7602 408.772C52.8049 407.91 50.3271 406.916 48.4453 405.825C48.0774 405.612 47.7318 405.395 47.4116 405.175C45.4494 403.83 44.3672 402.356 44.3672 400.811C44.3672 400.669 44.3772 400.529 44.3994 400.387C45.1783 394.281 62.8573 389.4 84.5504 389.4C89.8884 389.4 94.9831 389.695 99.6422 390.231C100.542 390.335 101.426 390.447 102.292 390.569C106.077 391.099 109.525 391.792 112.52 392.619C113.181 392.8 113.819 392.988 114.435 393.182C116.623 393.872 118.518 394.64 120.066 395.468C121.66 396.322 122.884 397.239 123.678 398.204C124.257 398.909 124.607 399.64 124.701 400.387C124.724 400.529 124.733 400.669 124.733 400.811Z" fill="#3AA3A8"/>
<path d="M65.6172 411.946H123.678V397.254H65.6172V411.946Z" fill="#26A9AF"/>
<path d="M48.4453 405.825C48.2772 405.727 48.1136 405.629 47.9551 405.53C47.7668 405.413 47.5856 405.294 47.4116 405.175L50.0257 404.428C50.0754 404.448 50.1252 404.469 50.1749 404.49C50.5358 404.641 50.9068 404.787 51.2891 404.935C51.3313 404.952 51.3739 404.967 51.4165 404.983L48.4453 405.825Z" fill="#26A9AF"/>
<path d="M57.8499 409.339C57.13 409.156 56.432 408.968 55.7603 408.772L60.319 407.474C60.4926 407.51 60.6678 407.545 60.8435 407.58C61.2105 407.653 61.5825 407.724 61.9571 407.795C62.2219 407.843 62.4887 407.891 62.7571 407.938L57.8499 409.339Z" fill="#26A9AF"/>
<path d="M116.667 400.811C116.667 400.952 116.654 401.091 116.635 401.23C115.86 406.066 101.767 409.932 84.5501 409.932C67.3334 409.932 53.2403 406.066 52.4646 401.23C52.4471 401.091 52.4336 400.952 52.4336 400.811C52.4336 395.782 66.8404 391.69 84.5501 391.69C102.26 391.69 116.667 395.782 116.667 400.811Z" fill="#7FBED7"/>
<path d="M116.635 401.23C115.861 406.066 101.767 409.932 84.5504 409.932C84.165 409.932 83.7843 409.929 83.4028 409.926C79.5628 409.887 75.8928 409.658 72.5051 409.266C69.1175 408.876 66.0161 408.325 63.3188 407.649C62.6331 407.477 61.9745 407.298 61.3378 407.109C58.4611 406.253 56.1576 405.24 54.6206 404.118C54.2483 403.849 53.9214 403.572 53.6439 403.292C52.9809 402.632 52.5816 401.941 52.4648 401.23C53.2406 396.394 67.3337 392.526 84.5504 392.526C86.728 392.526 88.8571 392.589 90.9181 392.707C91.9669 392.766 93.0021 392.842 94.015 392.93C98.1509 393.293 101.933 393.888 105.173 394.66C105.872 394.827 106.549 395.003 107.198 395.187C109.721 395.901 111.831 396.731 113.414 397.648C114.956 398.543 115.995 399.517 116.435 400.545C116.532 400.77 116.6 400.999 116.635 401.23Z" fill="#46CDD3"/>
<path d="M83.4031 409.926C79.563 409.887 75.893 409.658 72.5054 409.266L72.8143 409.179C73.1138 409.202 73.4152 409.224 73.7186 409.244C74.7463 409.315 75.7891 409.375 76.8443 409.421C77.2138 409.437 77.5849 409.453 77.958 409.465C79.3456 409.514 80.7528 409.541 82.179 409.544C82.3013 409.545 82.4251 409.545 82.5477 409.545C82.7958 409.545 83.0459 409.544 83.2932 409.543C83.8024 409.541 84.3098 409.534 84.8142 409.525L83.4031 409.926Z" fill="#89EAEE"/>
<path d="M89.0171 405.986V407.501H82.2385V406.054C77.4317 405.972 72.7687 405.603 69.8843 405.098L73.538 402.75C76.7107 403.283 80.9405 403.624 84.6427 403.624C87.8636 403.624 89.0171 403.433 89.0171 403.105C89.0171 401.904 70.4134 402.873 70.4134 399.309C70.4134 397.767 74.355 396.47 82.2385 396.157V394.668H89.0171V396.129C92.5744 396.225 96.0354 396.484 98.7756 396.921L95.3624 399.255C92.0456 398.777 88.9211 398.545 85.9885 398.545C82.6709 398.545 81.6142 398.818 81.6142 399.146C81.6142 400.293 100.218 399.338 100.218 402.86C100.218 404.334 96.4682 405.617 89.0171 405.986Z" fill="#7FBED7"/>
<path d="M88.819 405.482V406.996H82.0408V405.55C77.2333 405.468 72.5705 405.099 69.6865 404.595L73.3398 402.246C76.5129 402.779 80.7427 403.12 84.4442 403.12C87.665 403.12 88.819 402.928 88.819 402.601C88.819 401.399 70.2158 402.369 70.2158 398.806C70.2158 397.263 74.1569 395.966 82.0408 395.652V394.164H88.819V395.625C92.3767 395.72 95.8376 395.98 98.5775 396.417L95.1648 398.751C91.8475 398.274 88.723 398.041 85.7901 398.041C82.4737 398.041 81.4157 398.315 81.4157 398.642C81.4157 399.789 100.02 398.834 100.02 402.355C100.02 403.83 96.27 405.114 88.819 405.482Z" fill="#3AA3A8"/>
<path d="M122.74 397.016L122.742 397.13C122.742 398.523 121.999 399.862 120.628 401.112C120.294 401.419 119.921 401.718 119.515 402.012C118.374 402.834 116.956 403.61 115.295 404.331C114.935 404.486 114.564 404.64 114.182 404.789C112.893 405.296 111.482 405.77 109.962 406.209C109.597 406.313 109.226 406.418 108.847 406.519C107.515 406.876 106.105 407.205 104.626 407.505C104.259 407.581 103.888 407.654 103.512 407.724C102.158 407.981 100.749 408.214 99.293 408.419C98.9246 408.472 98.5536 408.521 98.1789 408.571C96.8091 408.749 95.4016 408.906 93.9594 409.037C93.5896 409.072 93.2192 409.104 92.8453 409.134C91.4672 409.247 90.0581 409.337 88.6258 409.404C88.2563 409.421 87.8857 409.438 87.5118 409.452C86.1257 409.503 84.7185 409.536 83.2927 409.543C83.0454 409.544 82.7953 409.545 82.5472 409.545C82.4246 409.545 82.3007 409.545 82.1785 409.544C80.7523 409.541 79.3451 409.514 77.9575 409.465C77.5844 409.453 77.2132 409.438 76.8437 409.421C75.7886 409.375 74.7457 409.315 73.7181 409.244C73.3506 409.219 72.9863 409.193 72.6239 409.164C72.2508 409.135 71.8801 409.104 71.5102 409.071C70.0691 408.944 68.6608 408.793 67.2903 408.619C66.9156 408.571 66.5453 408.523 66.1766 408.471C65.3034 408.351 64.4485 408.221 63.6091 408.083C63.0509 407.99 62.4999 407.894 61.9567 407.795C61.5821 407.724 61.2101 407.653 60.8431 407.58C59.367 407.288 57.957 406.965 56.6223 406.617C56.3584 406.549 56.0976 406.479 55.8396 406.407C55.728 406.378 55.6186 406.347 55.5079 406.314C54.905 406.146 54.3169 405.971 53.7491 405.79C52.8867 405.516 52.0668 405.231 51.2887 404.935C50.9065 404.787 50.5355 404.641 50.1746 404.49C48.7508 403.893 47.4961 403.256 46.4318 402.585C46.2685 402.483 46.1085 402.378 45.9552 402.273C45.7613 402.142 45.5753 402.011 45.3981 401.877C45.203 401.733 45.0183 401.586 44.8411 401.438C43.2316 400.097 42.3521 398.644 42.3521 397.13C42.3521 397.023 42.3568 396.917 42.3676 396.81L42.3712 388.23L44.8411 388.227L45.9552 388.224L50.1746 388.219L51.2887 388.217L54.5817 388.213L55.5079 388.211L56.6223 388.209L60.8431 388.203L61.9567 388.202L66.1766 388.195L67.2903 388.194L71.5102 388.187L72.6239 388.186L76.8437 388.179L77.9575 388.177L82.1785 388.172L83.2927 388.17L87.5118 388.164L88.6258 388.163L92.8453 388.156L93.9594 388.155L98.1789 388.148L99.293 388.146L103.512 388.141L104.626 388.138L108.847 388.133L109.962 388.131H110.237L114.182 388.124L115.295 388.123L119.515 388.116L120.628 388.115L122.727 388.112L122.742 397.016H122.74Z" fill="#46CDD3"/>
<path d="M45.9554 388.224V402.273C45.7616 402.142 45.5755 402.011 45.3984 401.877C45.2033 401.732 45.0186 401.586 44.8413 401.438V388.227L45.9554 388.224Z" fill="#7FBED7"/>
<path d="M51.2894 388.217V404.935C50.9072 404.787 50.5361 404.641 50.1753 404.49V388.219L51.2894 388.217Z" fill="#7FBED7"/>
<path d="M56.6227 388.209V406.617C56.3588 406.549 56.098 406.478 55.84 406.407C55.7285 406.378 55.619 406.347 55.5083 406.314V388.211L56.6227 388.209Z" fill="#7FBED7"/>
<path d="M61.9569 388.202V407.795C61.5823 407.724 61.2103 407.653 60.8433 407.58V388.203L61.9569 388.202Z" fill="#7FBED7"/>
<path d="M67.2905 388.194V408.619C66.9158 408.571 66.5455 408.523 66.1768 408.471V388.195L67.2905 388.194Z" fill="#7FBED7"/>
<path d="M72.6245 388.186V409.164C72.2514 409.135 71.8807 409.104 71.5107 409.071V388.187L72.6245 388.186Z" fill="#7FBED7"/>
<path d="M77.9575 388.177V409.465C77.5844 409.453 77.2133 409.438 76.8438 409.421V388.179L77.9575 388.177Z" fill="#7FBED7"/>
<path d="M83.2928 388.17V409.543C83.0456 409.544 82.7955 409.545 82.5474 409.545C82.4248 409.545 82.3009 409.545 82.1787 409.544V388.172L83.2928 388.17Z" fill="#7FBED7"/>
<path d="M88.6257 388.163V409.404C88.2562 409.421 87.8856 409.438 87.5117 409.452V388.164L88.6257 388.163Z" fill="#7FBED7"/>
<path d="M93.9592 388.155V409.037C93.5894 409.072 93.2191 409.104 92.8452 409.134V388.156L93.9592 388.155Z" fill="#7FBED7"/>
<path d="M99.2933 388.146V408.419C98.9249 408.472 98.5539 408.521 98.1792 408.571V388.148L99.2933 388.146Z" fill="#7FBED7"/>
<path d="M104.626 388.138V407.505C104.259 407.581 103.888 407.654 103.512 407.724V388.141L104.626 388.138Z" fill="#7FBED7"/>
<path d="M109.962 388.131V406.209C109.597 406.313 109.226 406.418 108.848 406.519V388.133L109.962 388.131Z" fill="#7FBED7"/>
<path d="M115.295 388.123V404.331C114.935 404.486 114.564 404.64 114.182 404.79V388.124L115.295 388.123Z" fill="#7FBED7"/>
<path d="M120.628 388.115V401.112C120.294 401.418 119.922 401.718 119.515 402.012V388.116L120.628 388.115Z" fill="#7FBED7"/>
<path d="M122.732 388.22C122.732 394.523 104.744 399.633 82.5494 399.633C79.5169 399.633 76.5632 399.537 73.7226 399.355C70.151 399.129 66.7594 398.766 63.6169 398.288C60.8118 397.862 58.2064 397.344 55.8496 396.749C55.129 396.567 54.4309 396.377 53.7592 396.18C50.8048 395.319 48.3266 394.326 46.4448 393.234C46.0768 393.021 45.7308 392.805 45.4107 392.585C43.4488 391.239 42.3662 389.766 42.3662 388.22C42.3662 388.08 42.3762 387.938 42.3984 387.796C43.1777 381.69 60.8567 376.809 82.5494 376.809C87.8874 376.809 92.9824 377.104 97.6412 377.641C98.5411 377.745 99.425 377.857 100.292 377.979C104.077 378.508 107.523 379.202 110.52 380.027C111.18 380.209 111.819 380.398 112.433 380.592C114.623 381.283 116.518 382.05 118.064 382.877C119.658 383.73 120.884 384.649 121.678 385.614C122.257 386.318 122.606 387.048 122.701 387.796C122.723 387.938 122.732 388.08 122.732 388.22Z" fill="#3AA3A8"/>
<path d="M63.6172 399.355H121.678V382.877H63.6172V399.355Z" fill="#26A9AF"/>
<path d="M46.4452 393.234C46.2772 393.137 46.114 393.04 45.9555 392.941C45.7667 392.822 45.5851 392.704 45.4111 392.585L51.7187 390.78C51.9695 391.023 52.2562 391.263 52.5751 391.497L46.4452 393.234ZM94.1603 379.716C93.2374 379.614 92.2949 379.523 91.3329 379.446L97.6417 377.64C98.5415 377.744 99.4255 377.857 100.292 377.979L94.1603 379.716Z" fill="#26A9AF"/>
<path d="M55.8502 396.749C55.1295 396.566 54.4315 396.377 53.7598 396.18L59.4657 394.556C60.133 394.752 60.8314 394.941 61.5581 395.119L55.8502 396.749ZM106.726 382.221C106.116 382.024 105.478 381.834 104.811 381.652L110.521 380.027C111.181 380.209 111.819 380.398 112.434 380.591L106.726 382.221Z" fill="#26A9AF"/>
<path d="M114.667 388.22C114.667 388.361 114.654 388.5 114.635 388.639C113.859 393.476 99.7668 397.342 82.5501 397.342C65.3332 397.342 51.2398 393.476 50.4645 388.639C50.4466 388.5 50.4331 388.361 50.4331 388.22C50.4331 383.191 64.8403 379.099 82.5501 379.099C100.259 379.099 114.667 383.191 114.667 388.22Z" fill="#7FBED7"/>
<path d="M114.636 388.639C113.86 393.476 99.7671 397.342 82.5504 397.342C82.1653 397.342 81.7839 397.339 81.4032 397.335C77.5628 397.297 73.8924 397.067 70.5051 396.676C67.1171 396.286 64.0157 395.736 61.318 395.058C60.6327 394.886 59.9741 394.707 59.3378 394.519C56.4607 393.662 54.1576 392.649 52.6202 391.527C52.2487 391.259 51.9214 390.982 51.6435 390.702C50.9805 390.042 50.5811 389.351 50.4648 388.639C51.2401 383.802 65.3335 379.936 82.5504 379.936C84.728 379.936 86.8567 379.998 88.9181 380.116C89.9664 380.177 91.0017 380.251 92.0146 380.341C96.1505 380.703 99.9328 381.297 103.172 382.069C103.871 382.237 104.548 382.412 105.199 382.596C107.721 383.309 109.831 384.14 111.413 385.058C112.956 385.953 113.995 386.928 114.434 387.955C114.533 388.179 114.6 388.409 114.636 388.639Z" fill="#46CDD3"/>
<path d="M81.4035 397.335C77.563 397.297 73.8926 397.067 70.5054 396.676L111.414 385.058C112.956 385.953 113.996 386.928 114.434 387.955L81.4035 397.335Z" fill="#89EAEE"/>
<path d="M52.6203 391.527C52.2487 391.259 51.9214 390.982 51.6436 390.702L88.9181 380.116C89.9665 380.177 91.0017 380.251 92.0147 380.341L52.6203 391.527Z" fill="#89EAEE"/>
<path d="M61.3181 395.058C60.6328 394.886 59.9742 394.707 59.3379 394.519L103.172 382.07C103.871 382.237 104.548 382.412 105.199 382.597L61.3181 395.058Z" fill="#89EAEE"/>
<path d="M87.0167 393.396V394.911H80.2389V393.464C75.4313 393.382 70.7687 393.013 67.8843 392.508L71.5376 390.16C74.7107 390.692 78.9409 391.034 82.6423 391.034C85.8632 391.034 87.0167 390.843 87.0167 390.514C87.0167 389.314 68.413 390.283 68.413 386.72C68.413 385.176 72.355 383.88 80.2389 383.566V382.078H87.0167V383.538C90.5744 383.633 94.0354 383.893 96.7752 384.33L93.362 386.665C90.0448 386.187 86.9207 385.955 83.9881 385.955C80.6713 385.955 79.6137 386.227 79.6137 386.556C79.6137 387.702 98.2174 386.746 98.2174 390.269C98.2174 391.743 94.4678 393.026 87.0167 393.396Z" fill="#7FBED7"/>
<path d="M86.8194 392.891V394.406H80.0413V392.959C75.234 392.877 70.5709 392.508 67.6865 392.004L71.3402 389.655C74.5129 390.188 78.7427 390.529 82.445 390.529C85.6658 390.529 86.8194 390.338 86.8194 390.01C86.8194 388.809 68.2158 389.779 68.2158 386.215C68.2158 384.673 72.1577 383.375 80.0413 383.061V381.574H86.8194V383.035C90.3767 383.13 93.8376 383.39 96.5779 383.826L93.1652 386.161C89.8475 385.683 86.723 385.451 83.7909 385.451C80.4737 385.451 79.4165 385.724 79.4165 386.051C79.4165 387.198 98.0201 386.243 98.0201 389.764C98.0201 391.239 94.2704 392.523 86.8194 392.891Z" fill="#3AA3A8"/>
<path d="M193.617 437.762L193.618 437.874C193.618 439.267 192.875 440.608 191.505 441.858C191.17 442.163 190.799 442.463 190.391 442.757C189.251 443.579 187.832 444.356 186.172 445.076C185.812 445.232 185.439 445.383 185.058 445.534C183.77 446.042 182.359 446.516 180.838 446.954C180.473 447.059 180.103 447.164 179.724 447.264C178.391 447.621 176.982 447.95 175.503 448.251C175.136 448.326 174.765 448.4 174.389 448.47C173.034 448.726 171.626 448.958 170.169 449.165C169.801 449.217 169.43 449.267 169.055 449.317C167.685 449.495 166.279 449.651 164.836 449.783C164.466 449.817 164.095 449.848 163.722 449.879C162.343 449.992 160.935 450.083 159.502 450.149C159.133 450.166 158.761 450.183 158.388 450.197C157.003 450.249 155.595 450.279 154.169 450.287C153.921 450.289 153.672 450.291 153.424 450.291C153.302 450.291 153.177 450.291 153.055 450.289C151.629 450.285 150.221 450.259 148.834 450.211C148.461 450.198 148.09 450.183 147.72 450.166C146.665 450.12 145.622 450.06 144.594 449.99C144.227 449.964 143.862 449.938 143.501 449.91C143.128 449.881 142.757 449.848 142.386 449.816C140.945 449.689 139.537 449.538 138.166 449.365C137.792 449.317 137.421 449.268 137.053 449.216C136.18 449.096 135.325 448.966 134.486 448.828C133.927 448.736 133.377 448.639 132.833 448.538C132.459 448.47 132.086 448.398 131.719 448.325C130.243 448.033 128.833 447.711 127.498 447.362C127.235 447.295 126.974 447.223 126.715 447.153C126.604 447.123 126.495 447.091 126.385 447.06C125.782 446.892 125.193 446.716 124.626 446.535C123.763 446.262 122.943 445.977 122.165 445.681C121.783 445.533 121.412 445.385 121.051 445.234C119.627 444.638 118.372 444.001 117.308 443.33C117.145 443.226 116.986 443.124 116.832 443.017C116.638 442.887 116.452 442.755 116.274 442.623C116.08 442.478 115.895 442.331 115.718 442.184C114.108 440.842 113.229 439.39 113.229 437.874C113.229 437.769 113.234 437.662 113.244 437.556L113.248 428.976L115.718 428.972L116.832 428.97L121.051 428.964L122.165 428.962L125.458 428.957L126.385 428.956L127.498 428.954L131.719 428.949L132.833 428.947L137.053 428.941L138.166 428.939L142.386 428.932L143.501 428.93L147.72 428.925L148.834 428.922L153.055 428.917L154.169 428.914L158.388 428.909L159.502 428.907L163.722 428.901L164.836 428.9L169.055 428.892L170.169 428.892L174.389 428.886L175.503 428.883L179.724 428.877L180.838 428.875H181.113L185.058 428.869L186.172 428.868L190.391 428.862L191.505 428.861L193.603 428.857L193.618 437.762H193.617Z" fill="#46CDD3"/>
<path d="M116.832 428.97V443.017C116.638 442.887 116.452 442.754 116.274 442.623C116.08 442.478 115.895 442.33 115.718 442.183V428.972L116.832 428.97Z" fill="#7FBED7"/>
<path d="M122.165 428.962V445.681C121.783 445.533 121.412 445.385 121.051 445.234V428.964L122.165 428.962Z" fill="#7FBED7"/>
<path d="M127.498 428.954V447.362C127.235 447.295 126.974 447.223 126.716 447.153C126.604 447.123 126.495 447.091 126.385 447.06V428.956L127.498 428.954Z" fill="#7FBED7"/>
<path d="M132.833 428.947V448.538C132.459 448.47 132.086 448.398 131.719 448.325V428.949L132.833 428.947Z" fill="#7FBED7"/>
<path d="M138.167 428.939V449.365C137.793 449.317 137.422 449.268 137.054 449.216V428.94L138.167 428.939Z" fill="#7FBED7"/>
<path d="M143.501 428.93V449.909C143.128 449.881 142.757 449.848 142.387 449.815V428.932L143.501 428.93Z" fill="#7FBED7"/>
<path d="M148.834 428.922V450.211C148.461 450.198 148.09 450.183 147.72 450.166V428.925L148.834 428.922Z" fill="#7FBED7"/>
<path d="M154.169 428.914V450.287C153.922 450.289 153.672 450.291 153.424 450.291C153.302 450.291 153.177 450.291 153.055 450.289V428.917L154.169 428.914Z" fill="#7FBED7"/>
<path d="M159.502 428.907V450.149C159.133 450.166 158.761 450.183 158.388 450.196V428.909L159.502 428.907Z" fill="#7FBED7"/>
<path d="M164.837 428.9V449.783C164.467 449.817 164.096 449.848 163.723 449.879V428.901L164.837 428.9Z" fill="#7FBED7"/>
<path d="M170.169 428.892V449.165C169.801 449.217 169.43 449.267 169.055 449.317V428.892L170.169 428.892Z" fill="#7FBED7"/>
<path d="M175.503 428.883V448.251C175.136 448.326 174.765 448.399 174.39 448.47V428.886L175.503 428.883Z" fill="#7FBED7"/>
<path d="M180.838 428.875V446.954C180.473 447.059 180.103 447.164 179.724 447.264V428.877L180.838 428.875Z" fill="#7FBED7"/>
<path d="M186.172 428.868V445.075C185.812 445.232 185.439 445.383 185.058 445.534V428.869L186.172 428.868Z" fill="#7FBED7"/>
<path d="M191.505 428.861V441.857C191.17 442.163 190.799 442.463 190.391 442.756V428.862L191.505 428.861Z" fill="#7FBED7"/>
<path d="M193.608 428.965C193.608 435.268 175.622 440.376 153.426 440.376C150.394 440.376 147.44 440.283 144.6 440.101C141.028 439.874 137.636 439.511 134.494 439.034C131.689 438.607 129.084 438.089 126.726 437.493C126.006 437.312 125.308 437.123 124.636 436.926C121.681 436.065 119.203 435.071 117.322 433.979C116.954 433.766 116.608 433.55 116.288 433.329C114.326 431.985 113.243 430.511 113.243 428.965C113.243 428.823 113.253 428.683 113.276 428.542C114.055 422.436 131.734 417.554 153.426 417.554C158.765 417.554 163.859 417.849 168.519 418.385C169.419 418.49 170.302 418.602 171.169 418.724C174.954 419.254 178.401 419.947 181.397 420.772C182.057 420.955 182.695 421.141 183.311 421.337C185.5 422.027 187.395 422.794 188.941 423.623C190.535 424.476 191.76 425.393 192.554 426.358C193.133 427.064 193.483 427.794 193.578 428.542C193.6 428.683 193.608 428.823 193.608 428.965Z" fill="#3AA3A8"/>
<path d="M134.494 440.101H151.677V437.321H134.494V440.101Z" fill="#26A9AF"/>
<path d="M117.321 433.979C117.153 433.882 116.99 433.784 116.832 433.686C116.643 433.567 116.462 433.449 116.288 433.328L122.595 431.524C122.846 431.768 123.132 432.008 123.451 432.242L117.321 433.979Z" fill="#26A9AF"/>
<path d="M126.726 437.493C126.006 437.312 125.308 437.123 124.636 436.926L130.341 435.302C130.813 435.44 131.298 435.573 131.796 435.702C131.799 435.703 131.801 435.703 131.804 435.703C131.81 435.706 131.817 435.708 131.824 435.709C131.83 435.711 131.836 435.712 131.842 435.714C131.844 435.715 131.847 435.715 131.85 435.716C131.871 435.721 131.893 435.727 131.915 435.732C132.008 435.756 132.101 435.78 132.196 435.803C132.274 435.824 132.355 435.843 132.434 435.863L126.726 437.493Z" fill="#26A9AF"/>
<path d="M185.543 428.966C185.543 429.105 185.53 429.246 185.512 429.384C184.737 434.22 170.644 438.086 153.427 438.086C136.21 438.086 122.116 434.22 121.342 429.384C121.323 429.246 121.31 429.105 121.31 428.966C121.31 423.935 135.717 419.845 153.427 419.845C171.136 419.845 185.543 423.935 185.543 428.966Z" fill="#7FBED7"/>
<path d="M185.512 429.384C184.737 434.22 170.644 438.086 153.427 438.086C153.042 438.086 152.661 438.084 152.28 438.081C148.44 438.042 144.769 437.812 141.382 437.421C137.994 437.03 134.893 436.48 132.196 435.804C131.51 435.631 130.85 435.452 130.214 435.264C127.338 434.407 125.034 433.395 123.497 432.272C123.125 432.004 122.797 431.727 122.52 431.448C121.857 430.786 121.458 430.097 121.342 429.384C122.116 424.548 136.21 420.681 153.427 420.681C155.605 420.681 157.733 420.743 159.795 420.861C160.844 420.92 161.879 420.997 162.891 421.085C167.027 421.448 170.809 422.043 174.049 422.815C174.749 422.981 175.426 423.158 176.075 423.342C178.598 424.055 180.709 424.886 182.291 425.804C183.832 426.697 184.872 427.674 185.31 428.7C185.409 428.925 185.476 429.154 185.512 429.384Z" fill="#46CDD3"/>
<path d="M152.279 438.081C148.439 438.042 144.769 437.812 141.381 437.421L146.779 435.888C146.892 435.896 147.006 435.905 147.12 435.913C148.148 435.983 149.19 436.042 150.245 436.089C150.615 436.105 150.987 436.121 151.36 436.133C152.747 436.182 154.154 436.209 155.581 436.211C155.703 436.213 155.826 436.213 155.949 436.213C156.197 436.213 156.447 436.211 156.695 436.211C157.461 436.206 158.223 436.195 158.978 436.178L152.279 438.081Z" fill="#89EAEE"/>
<path d="M123.497 432.272C123.124 432.004 122.797 431.728 122.52 431.448L123.562 431.151C123.567 431.154 123.572 431.156 123.577 431.158C123.938 431.309 124.309 431.455 124.691 431.603C124.856 431.666 125.024 431.728 125.193 431.791L123.497 432.272Z" fill="#89EAEE"/>
<path d="M132.195 435.803C131.509 435.631 130.85 435.452 130.214 435.264L133.979 434.195C134.068 434.212 134.157 434.23 134.245 434.248C134.612 434.32 134.984 434.392 135.358 434.462C135.675 434.52 135.996 434.578 136.317 434.633L132.195 435.803Z" fill="#89EAEE"/>
<path d="M157.893 434.14V435.656H151.114V434.209C146.307 434.127 141.644 433.758 138.76 433.253L142.413 430.905C145.586 431.438 149.816 431.779 153.518 431.779C156.739 431.779 157.893 431.588 157.893 431.26C157.893 430.058 139.289 431.028 139.289 427.465C139.289 425.922 143.231 424.625 151.114 424.312V422.823H157.893V424.283C161.45 424.379 164.911 424.639 167.651 425.076L164.238 427.41C160.921 426.933 157.797 426.7 154.864 426.7C151.547 426.7 150.489 426.973 150.489 427.301C150.489 428.447 169.093 427.492 169.093 431.014C169.093 432.489 165.344 433.772 157.893 434.14Z" fill="#7FBED7"/>
<path d="M157.696 433.637V435.151H150.918V433.704C146.111 433.622 141.447 433.254 138.563 432.749L142.217 430.4C145.389 430.933 149.619 431.275 153.321 431.275C156.541 431.275 157.696 431.083 157.696 430.756C157.696 429.554 139.093 430.523 139.093 426.96C139.093 425.417 143.034 424.121 150.918 423.807V422.319H157.696V423.779C161.253 423.875 164.714 424.134 167.454 424.572L164.042 426.906C160.725 426.428 157.6 426.195 154.667 426.195C151.351 426.195 150.293 426.469 150.293 426.796C150.293 427.944 168.897 426.988 168.897 430.51C168.897 431.984 165.147 433.268 157.696 433.637Z" fill="#3AA3A8"/>
<path d="M196.143 423.684L196.144 423.798C196.144 425.191 195.4 426.53 194.032 427.78C193.696 428.086 193.324 428.386 192.917 428.679C191.777 429.502 190.359 430.278 188.697 430.998C188.338 431.155 187.965 431.308 187.583 431.456C186.296 431.965 184.885 432.439 183.364 432.877C182.999 432.981 182.628 433.086 182.25 433.187C180.917 433.544 179.507 433.874 178.029 434.174C177.662 434.249 177.291 434.322 176.915 434.392C175.56 434.649 174.151 434.881 172.696 435.087C172.327 435.14 171.956 435.19 171.582 435.239C170.212 435.417 168.804 435.574 167.362 435.705C166.993 435.74 166.621 435.772 166.248 435.802C164.869 435.915 163.461 436.004 162.029 436.073C161.659 436.089 161.287 436.106 160.914 436.12C159.528 436.171 158.121 436.203 156.695 436.211C156.448 436.211 156.198 436.213 155.949 436.213C155.827 436.213 155.704 436.213 155.581 436.211C154.154 436.209 152.748 436.182 151.36 436.133C150.987 436.121 150.616 436.106 150.246 436.089C149.191 436.042 148.148 435.983 147.121 435.913C146.753 435.887 146.389 435.861 146.026 435.831C145.653 435.803 145.282 435.772 144.913 435.738C143.472 435.612 142.063 435.46 140.693 435.287C140.318 435.239 139.947 435.191 139.579 435.139C138.706 435.02 137.85 434.889 137.012 434.751C136.453 434.658 135.903 434.562 135.359 434.462C134.985 434.392 134.613 434.32 134.246 434.248C132.77 433.956 131.36 433.632 130.025 433.285C129.761 433.217 129.5 433.146 129.242 433.075C129.131 433.045 129.02 433.015 128.91 432.982C128.307 432.814 127.719 432.639 127.151 432.458C126.29 432.184 125.469 431.899 124.691 431.603C124.309 431.455 123.938 431.309 123.577 431.158C122.153 430.561 120.898 429.925 119.834 429.252C119.671 429.15 119.511 429.045 119.357 428.941C119.164 428.81 118.978 428.679 118.801 428.545C118.605 428.4 118.42 428.255 118.243 428.106C116.634 426.765 115.755 425.312 115.755 423.798C115.755 423.691 115.76 423.585 115.769 423.478L115.773 414.898L118.243 414.895L119.357 414.892L123.577 414.888L124.691 414.885L127.984 414.88L128.91 414.879L130.025 414.877L134.246 414.871L135.359 414.87L139.579 414.863L140.693 414.862L144.913 414.854L146.026 414.854L150.246 414.847L151.36 414.845L155.581 414.84L156.695 414.838L160.914 414.832L162.029 414.831L166.248 414.824L167.362 414.823L171.582 414.816L172.696 414.814L176.915 414.807L178.029 414.805L182.25 414.8L183.364 414.798H183.638L187.583 414.792L188.697 414.791L192.917 414.784L194.032 414.783L196.129 414.779L196.144 423.684H196.143Z" fill="#46CDD3"/>
<path d="M119.357 414.892V428.941C119.164 428.81 118.978 428.678 118.801 428.545C118.605 428.4 118.421 428.254 118.243 428.106V414.895L119.357 414.892Z" fill="#7FBED7"/>
<path d="M124.691 414.885V431.603C124.309 431.455 123.938 431.309 123.577 431.158V414.888L124.691 414.885Z" fill="#7FBED7"/>
<path d="M130.024 414.876V433.285C129.76 433.217 129.499 433.146 129.241 433.075C129.13 433.045 129.02 433.015 128.91 432.982V414.879L130.024 414.876Z" fill="#7FBED7"/>
<path d="M135.359 414.87V434.462C134.985 434.392 134.613 434.32 134.246 434.248V414.871L135.359 414.87Z" fill="#7FBED7"/>
<path d="M140.692 414.861V435.287C140.317 435.239 139.946 435.191 139.578 435.139V414.863L140.692 414.861Z" fill="#7FBED7"/>
<path d="M146.026 414.854V435.831C145.653 435.803 145.282 435.772 144.913 435.738V414.854L146.026 414.854Z" fill="#7FBED7"/>
<path d="M151.36 414.845V436.133C150.987 436.12 150.616 436.105 150.246 436.089V414.847L151.36 414.845Z" fill="#7FBED7"/>
<path d="M156.696 414.838V436.211C156.448 436.211 156.198 436.213 155.95 436.213C155.827 436.213 155.704 436.213 155.582 436.211V414.84L156.696 414.838Z" fill="#7FBED7"/>
<path d="M162.028 414.831V436.073C161.658 436.089 161.287 436.105 160.914 436.12V414.832L162.028 414.831Z" fill="#7FBED7"/>
<path d="M167.361 414.823V435.705C166.992 435.739 166.62 435.772 166.247 435.802V414.824L167.361 414.823Z" fill="#7FBED7"/>
<path d="M172.696 414.814V435.087C172.327 435.14 171.956 435.19 171.582 435.239V414.816L172.696 414.814Z" fill="#7FBED7"/>
<path d="M178.029 414.805V434.174C177.662 434.249 177.291 434.322 176.915 434.392V414.807L178.029 414.805Z" fill="#7FBED7"/>
<path d="M183.364 414.798V432.877C182.999 432.981 182.628 433.086 182.25 433.187V414.8L183.364 414.798Z" fill="#7FBED7"/>
<path d="M188.697 414.791V430.998C188.337 431.154 187.965 431.307 187.583 431.456V414.792L188.697 414.791Z" fill="#7FBED7"/>
<path d="M194.031 414.783V427.78C193.696 428.086 193.324 428.386 192.917 428.679V414.784L194.031 414.783Z" fill="#7FBED7"/>
<path d="M196.134 414.889C196.134 421.189 178.147 426.3 155.951 426.3C152.919 426.3 149.965 426.205 147.125 426.023C143.554 425.797 140.161 425.434 137.019 424.956C134.213 424.53 131.608 424.012 129.251 423.417C128.531 423.234 127.833 423.046 127.161 422.848C124.207 421.986 121.729 420.994 119.847 419.902C119.479 419.689 119.133 419.473 118.813 419.253C116.851 417.907 115.769 416.434 115.769 414.889C115.769 414.747 115.779 414.605 115.8 414.464C116.58 408.358 134.258 403.477 155.951 403.477C161.289 403.477 166.385 403.772 171.043 404.308C171.943 404.412 172.827 404.525 173.693 404.647C177.479 405.176 180.926 405.87 183.922 406.695C184.583 406.877 185.221 407.066 185.836 407.259C188.024 407.95 189.919 408.718 191.466 409.545C193.061 410.398 194.285 411.317 195.079 412.282C195.659 412.986 196.008 413.716 196.102 414.464C196.126 414.605 196.134 414.747 196.134 414.889Z" fill="#3AA3A8"/>
<path d="M137.019 426.023H195.079V409.545H137.019V426.023Z" fill="#26A9AF"/>
<path d="M119.847 419.902C119.679 419.805 119.516 419.706 119.357 419.608C119.168 419.49 118.987 419.372 118.813 419.252L125.12 417.448C125.371 417.691 125.658 417.93 125.977 418.166L119.847 419.902ZM167.562 406.384C166.638 406.282 165.696 406.191 164.732 406.113L171.043 404.308C171.943 404.412 172.827 404.525 173.693 404.647L167.562 406.384Z" fill="#26A9AF"/>
<path d="M129.251 423.417C128.531 423.234 127.833 423.045 127.161 422.848L132.867 421.224C132.868 421.224 132.868 421.224 132.868 421.224C133.536 421.421 134.233 421.608 134.96 421.787L129.251 423.417ZM180.126 408.889C179.518 408.691 178.88 408.502 178.213 408.319L183.922 406.695C184.583 406.877 185.221 407.066 185.835 407.259L180.126 408.889Z" fill="#26A9AF"/>
<path d="M188.068 414.889C188.068 415.029 188.055 415.168 188.038 415.308C187.262 420.144 173.169 424.01 155.952 424.01C138.736 424.01 124.642 420.144 123.867 415.308C123.849 415.168 123.836 415.029 123.836 414.889C123.836 409.859 138.242 405.767 155.952 405.767C173.662 405.767 188.068 409.859 188.068 414.889Z" fill="#7FBED7"/>
<path d="M188.037 415.308C187.262 420.144 173.168 424.01 155.952 424.01C155.566 424.01 155.185 424.007 154.804 424.003C150.964 423.965 147.294 423.735 143.906 423.343C140.518 422.954 137.417 422.403 134.72 421.727C134.034 421.556 133.376 421.375 132.739 421.186C129.862 420.33 127.559 419.317 126.022 418.195C125.65 417.927 125.323 417.649 125.045 417.37C124.382 416.709 123.982 416.019 123.866 415.308C124.642 410.471 138.735 406.604 155.952 406.604C158.129 406.604 160.258 406.666 162.32 406.784C163.368 406.844 164.403 406.919 165.416 407.009C169.552 407.371 173.334 407.966 176.574 408.738C177.273 408.903 177.95 409.08 178.599 409.264C181.123 409.977 183.233 410.808 184.815 411.726C186.356 412.621 187.396 413.596 187.835 414.623C187.934 414.847 188.002 415.076 188.037 415.308Z" fill="#46CDD3"/>
<path d="M154.804 424.003C150.965 423.965 147.294 423.735 143.907 423.343L184.816 411.726C186.357 412.621 187.397 413.596 187.836 414.623L154.804 424.003Z" fill="#89EAEE"/>
<path d="M126.022 418.195C125.65 417.927 125.323 417.649 125.045 417.37L162.32 406.784C163.369 406.844 164.403 406.919 165.417 407.008L126.022 418.195Z" fill="#89EAEE"/>
<path d="M134.72 421.727C134.034 421.556 133.376 421.375 132.74 421.186L176.574 408.738C177.273 408.903 177.95 409.08 178.6 409.264L134.72 421.727Z" fill="#89EAEE"/>
<path d="M160.418 420.063V421.579H153.64V420.131C148.833 420.05 144.169 419.681 141.285 419.176L144.939 416.828C148.111 417.36 152.342 417.701 156.044 417.701C159.265 417.701 160.418 417.511 160.418 417.182C160.418 415.982 141.815 416.95 141.815 413.387C141.815 411.844 145.756 410.548 153.64 410.234V408.745H160.418V410.206C163.975 410.302 167.437 410.561 170.177 410.998L166.764 413.332C163.447 412.854 160.322 412.623 157.389 412.623C154.072 412.623 153.015 412.895 153.015 413.223C153.015 414.37 171.619 413.414 171.619 416.937C171.619 418.412 167.869 419.694 160.418 420.063Z" fill="#7FBED7"/>
<path d="M160.221 419.56V421.074H153.443V419.628C148.636 419.545 143.973 419.177 141.088 418.672L144.742 416.323C147.915 416.855 152.145 417.197 155.846 417.197C159.067 417.197 160.221 417.006 160.221 416.678C160.221 415.477 141.617 416.447 141.617 412.883C141.617 411.34 145.559 410.044 153.443 409.729V408.241H160.221V409.703C163.779 409.797 167.239 410.056 169.979 410.493L166.567 412.829C163.25 412.351 160.124 412.118 157.193 412.118C153.876 412.118 152.818 412.392 152.818 412.72C152.818 413.866 171.422 412.91 171.422 416.432C171.422 417.906 167.673 419.19 160.221 419.56Z" fill="#3AA3A8"/>
<path d="M366.684 223.207V253.459C366.684 255.384 365.117 256.948 363.194 256.948H332.943C331.21 256.948 328.496 255.729 327.276 252.933C327.217 252.814 327.157 252.694 327.121 252.574C327.061 252.395 327.002 252.217 326.942 252.025L326.93 251.965L326.919 251.941V251.881L326.858 228.013V221.021C326.858 219.204 328.233 217.734 329.979 217.543C330.098 217.543 330.229 217.531 330.349 217.531L361.209 217.65C361.353 217.65 361.496 217.662 361.628 217.686H361.639C364.747 218.032 366.684 221.368 366.684 223.207Z" fill="#46CDD3"/>
<path d="M364.091 221.021V251.26C364.091 253.196 362.524 254.75 360.6 254.75H330.349C329.021 254.75 327.875 254.021 327.276 252.933C327.217 252.814 327.157 252.694 327.121 252.574C327.061 252.395 327.002 252.217 326.942 252.025L326.93 251.965L326.919 251.881C326.883 251.678 326.858 251.475 326.858 251.26V221.021C326.858 219.204 328.233 217.734 329.979 217.543C330.098 217.543 330.229 217.531 330.349 217.531H360.6C360.958 217.531 361.305 217.579 361.628 217.686H361.639C363.062 218.128 364.091 219.443 364.091 221.021Z" fill="#7FBED7"/>
<path d="M347.684 246.399L347.658 249.416L343.828 249.384L343.851 246.504C341.136 246.319 338.507 245.564 336.885 244.546L338.988 239.89C340.773 240.964 343.157 241.662 345.249 241.68C347.069 241.694 347.724 241.319 347.73 240.668C347.749 238.276 337.219 240.12 337.277 233.029C337.303 229.96 339.551 227.396 344.011 226.808L344.036 223.847L347.867 223.878L347.843 226.784C349.852 226.991 351.804 227.523 353.345 228.405L351.379 233.036C349.511 232.068 347.749 231.593 346.091 231.58C344.217 231.564 343.615 232.103 343.61 232.755C343.591 235.037 354.121 233.22 354.065 240.229C354.04 243.164 351.901 245.701 347.684 246.399Z" fill="white"/>
<path d="M384.61 371.363L320.146 371.2V451.268L384.61 451.477V371.363Z" fill="#46CDD3"/>
<path d="M336.681 381.276C337.329 381.304 337.885 380.822 337.946 380.176C338.329 376.147 340.087 362.675 346.709 357.807C348.525 356.473 350.51 355.93 352.786 356.141C364.413 357.232 366.181 375.466 366.445 380.283C366.48 380.933 367.021 381.437 367.67 381.434C368.367 381.431 368.92 380.849 368.885 380.152C368.621 374.868 366.72 355.341 353.046 354.058C350.11 353.779 347.444 354.507 345.123 356.213C337.757 361.63 335.918 375.605 335.517 379.943C335.453 380.639 335.982 381.248 336.681 381.276Z" fill="#46CDD3"/>
<path d="M379.002 371.363L314.539 371.2V451.268L379.002 451.477V371.363Z" fill="#7FBED7"/>
<path d="M333.738 380.872C333.738 382.15 332.703 383.186 331.425 383.186C330.148 383.186 329.112 382.15 329.112 380.872C329.112 379.596 330.148 378.56 331.425 378.56C332.703 378.56 333.738 379.596 333.738 380.872Z" fill="#46CDD3"/>
<path d="M364.788 380.872C364.788 382.15 363.753 383.186 362.476 383.186C361.199 383.186 360.162 382.15 360.162 380.872C360.162 379.596 361.199 378.56 362.476 378.56C363.753 378.56 364.788 379.596 364.788 380.872Z" fill="#46CDD3"/>
<path d="M331.517 381.461C332.165 381.488 332.721 381.004 332.783 380.359C333.166 376.331 334.923 362.858 341.546 357.99C343.362 356.658 345.346 356.112 347.622 356.324C359.251 357.416 361.019 375.654 361.282 380.468C361.317 381.117 361.856 381.622 362.506 381.619H362.509C363.204 381.615 363.756 381.034 363.722 380.339C363.458 375.057 361.558 355.524 347.884 354.241C344.946 353.963 342.28 354.691 339.96 356.398C332.594 361.812 330.754 375.788 330.354 380.128C330.289 380.824 330.819 381.43 331.517 381.461Z" fill="#46CDD3"/>
<path d="M249.948 387.4C251.064 387.4 252.03 387.586 252.846 387.958C253.674 388.33 254.31 388.858 254.754 389.542C255.198 390.226 255.42 391.036 255.42 391.972C255.42 392.896 255.198 393.706 254.754 394.402C254.31 395.086 253.674 395.614 252.846 395.986C252.03 396.346 251.064 396.526 249.948 396.526H247.41V400H244.494V387.4H249.948ZM249.786 394.15C250.662 394.15 251.328 393.964 251.784 393.592C252.24 393.208 252.468 392.668 252.468 391.972C252.468 391.264 252.24 390.724 251.784 390.352C251.328 389.968 250.662 389.776 249.786 389.776H247.41V394.15H249.786ZM265.167 397.3H259.317L258.201 400H255.213L260.829 387.4H263.709L269.343 400H266.283L265.167 397.3ZM264.249 395.086L262.251 390.262L260.253 395.086H264.249ZM275.925 395.536V400H273.009V395.5L268.131 387.4H271.227L274.593 392.998L277.959 387.4H280.821L275.925 395.536Z" fill="#46CDD3"/>
<path d="M248.948 387.4C250.064 387.4 251.03 387.586 251.846 387.958C252.674 388.33 253.31 388.858 253.754 389.542C254.198 390.226 254.42 391.036 254.42 391.972C254.42 392.896 254.198 393.706 253.754 394.402C253.31 395.086 252.674 395.614 251.846 395.986C251.03 396.346 250.064 396.526 248.948 396.526H246.41V400H243.494V387.4H248.948ZM248.786 394.15C249.662 394.15 250.328 393.964 250.784 393.592C251.24 393.208 251.468 392.668 251.468 391.972C251.468 391.264 251.24 390.724 250.784 390.352C250.328 389.968 249.662 389.776 248.786 389.776H246.41V394.15H248.786ZM264.167 397.3H258.317L257.201 400H254.213L259.829 387.4H262.709L268.343 400H265.283L264.167 397.3ZM263.249 395.086L261.251 390.262L259.253 395.086H263.249ZM274.925 395.536V400H272.009V395.5L267.131 387.4H270.227L273.593 392.998L276.959 387.4H279.821L274.925 395.536Z" fill="white"/>
</svg>
