<svg width="18" height="18" viewBox="0 0 18 18" fill="none" xmlns="http://www.w3.org/2000/svg">
<path d="M2.63318 2.63465C6.14483 -0.876262 11.8558 -0.876262 15.3674 2.63465C18.8775 6.14555 18.8775 11.858 15.3674 15.3689C13.6116 17.1239 11.3058 18.0011 8.9999 18.0011C6.69405 18.0011 4.389 17.1239 2.63318 15.3689C-0.877728 11.858 -0.877728 6.14555 2.63318 2.63465ZM5.28644 11.6546C4.99306 11.948 4.99306 12.4222 5.28644 12.7156C5.43275 12.8619 5.62483 12.9355 5.81695 12.9355C6.00902 12.9355 6.20114 12.8619 6.34746 12.7156L8.99994 10.0624L11.6517 12.7148C11.7987 12.8612 11.9909 12.9347 12.1822 12.9347C12.3743 12.9347 12.5664 12.8612 12.7127 12.7148C13.0061 12.4215 13.0061 11.9465 12.7127 11.6539L10.061 9.00137L12.7134 6.34889C13.0068 6.05551 13.0068 5.58054 12.7134 5.2879C12.4208 4.99453 11.9458 4.99453 11.6525 5.2879L8.99997 7.94038L6.34749 5.2879C6.05412 4.99453 5.57988 4.99453 5.28651 5.2879C4.99313 5.58054 4.99313 6.05551 5.28651 6.34889L7.93899 9.00137L5.28644 11.6546Z" fill="#FE646F"/>
</svg>
