<svg width="225" height="156" viewBox="0 0 225 156" fill="none" xmlns="http://www.w3.org/2000/svg">
<path d="M118.994 71.6743H81.0962V82.8637H118.994V71.6743Z" fill="#E6E6E6"/>
<path opacity="0.45" d="M118.993 155.544C177.479 155.544 224.89 150.683 224.89 144.686C224.89 138.689 177.479 133.827 118.993 133.827C60.5081 133.827 13.0964 138.689 13.0964 144.686C13.0964 150.683 60.5081 155.544 118.993 155.544Z" fill="#E6E6E6"/>
<path d="M138.683 87.8325H36.77V141.018H138.683V87.8325Z" fill="#E6E6E6"/>
<path d="M144.364 81.9863H31.0815V87.8327H144.364V81.9863Z" fill="#C9C9C9"/>
<path d="M74.9406 141.939C74.9406 141.939 76.5155 144.557 79.1043 144.269C81.6931 143.981 82.8581 146.333 80.6936 147.44C78.529 148.548 71.0071 146.721 71.0071 146.721V142.068L74.9406 141.939Z" fill="#68E1FD"/>
<path d="M40.7251 141.939C40.7251 141.939 39.1502 144.557 36.5614 144.269C33.9726 143.981 32.8004 146.333 34.965 147.44C37.1295 148.548 45.687 146.426 45.687 146.426L44.6586 142.068L40.7251 141.939Z" fill="#68E1FD"/>
<path d="M69.4536 84.2446H31.8367L38.5964 141.997H47.1826C47.1826 141.997 44.1407 100.892 48.3907 94.1325V94.0965C48.7076 93.6276 49.1288 93.2385 49.6215 92.9598C50.1141 92.6812 50.6646 92.5206 51.2298 92.4906C51.7949 92.4606 52.3593 92.5621 52.8787 92.7871C53.398 93.0121 53.858 93.3545 54.2227 93.7873C64.2903 105.545 68.2311 141.968 68.2311 141.968H76.5512L69.4536 84.2446Z" fill="#24285B"/>
<path d="M47.1752 43.2548C45.1401 31.8352 60.8888 26.5281 66.1455 36.869C72.4162 49.2162 83.4042 65.7702 95.7802 61.4699C110.695 56.2779 114.88 48.267 116.009 44.9303C116.464 43.5805 117.338 42.4114 118.504 41.5936C120.244 40.3711 122.725 39.3356 124.574 41.3707C127.745 44.8656 121.093 48.5115 121.093 48.5115C121.093 48.5115 111.025 77.8873 87.043 77.2761C70.8485 76.8446 49.9294 58.5791 47.1752 43.2548Z" fill="#F4A28C"/>
<path opacity="0.09" d="M47.1752 43.2548C45.1401 31.8352 60.8888 26.5281 66.1455 36.869C72.4162 49.2162 83.4042 65.7703 95.7802 61.4699C111.248 56.0838 115.196 47.6701 116.117 44.5995C116.415 43.6393 116.993 42.7902 117.778 42.1617C119.489 40.7738 122.445 39.0479 124.574 41.3923C127.745 44.8872 121.093 48.5331 121.093 48.5331C121.093 48.5331 111.025 77.9089 87.043 77.2977C70.8485 76.8446 49.9294 58.5791 47.1752 43.2548Z" fill="black"/>
<path d="M50.8572 24.5079C50.8572 24.5079 34.1738 21.8328 26.6303 36.6609C19.0867 51.4891 31.8367 84.2448 31.8367 84.2448H69.4536C69.4536 84.2448 101.095 28.9952 50.8572 24.5079Z" fill="#68E1FD"/>
<path d="M59.5154 25.9961L58.5015 112.204H76.5728C76.5728 112.204 82.3905 57.292 78.2556 42.8665C74.1206 28.4411 65.4337 28.3692 59.5154 25.9961Z" fill="#68E1FD"/>
<path d="M50.8571 24.5074L51.7704 113.131L30.427 113.987C30.427 113.987 22.2147 65.1949 24.444 53.2504C26.6733 41.3059 22.3154 38.2209 27.0041 33.0217C29.9147 29.6743 33.6381 27.1327 37.8158 25.6415C41.9935 24.1502 46.4847 23.7597 50.8571 24.5074Z" fill="#68E1FD"/>
<path opacity="0.44" d="M51.7704 113.131L48.2251 113.275L30.427 113.994C30.427 113.994 22.2147 65.2023 24.444 53.2578C24.9342 50.7086 25.1607 48.1157 25.12 45.5201C25.0121 39.5586 23.5379 36.8907 27.0041 33.0291C29.9147 29.6817 33.6381 27.14 37.8158 25.6488C41.9935 24.1576 46.4847 23.767 50.8571 24.5147L51.7704 113.131Z" fill="white"/>
<path opacity="0.08" d="M49.7065 106.013C49.4517 106.566 49.1409 107.091 48.7789 107.58C47.7074 109.364 47.8943 111.334 48.2251 113.276L30.427 113.995C30.427 113.995 22.2147 65.2029 24.444 53.2584C24.9342 50.7091 25.1607 48.1163 25.12 45.5207C27.6104 43.9326 30.5008 43.0847 33.4545 43.0757C33.7278 43.0757 34.001 43.0757 34.2671 43.1188C40.3652 43.6222 39.6461 50.5401 38.5243 55.1784C37.2802 60.3416 34.0226 64.6635 32.721 69.7549C31.2828 75.3639 29.6432 86.0859 35.3098 89.624C37.0213 90.6883 38.9557 91.3858 40.6241 92.5005C42.1778 93.6453 43.5878 94.9733 44.8237 96.4556C46.8804 98.7424 49.0162 101.173 49.6921 104.172C49.8566 104.774 49.8616 105.408 49.7065 106.013Z" fill="black"/>
<path opacity="0.44" d="M59.5154 25.9961L58.5015 112.204H76.5728C76.5728 112.204 82.3905 57.292 78.2556 42.8665C74.1206 28.4411 65.4337 28.3692 59.5154 25.9961Z" fill="white"/>
<path d="M33.3901 28.9591C27.781 32.188 18.0802 38.6456 12.4783 47.3469L30.075 63.8075C30.075 63.8075 60.8172 42.4641 42.6811 29.4194C41.3403 28.4582 39.751 27.9037 38.1033 27.822C36.4557 27.7404 34.8193 28.1352 33.3901 28.9591Z" fill="#68E1FD"/>
<path opacity="0.44" d="M33.0377 29.1532C27.3783 32.4467 17.9363 38.8181 12.4639 47.3468L30.0606 63.8074C30.0606 63.8074 60.4432 42.7085 43.0047 29.6422C41.5736 28.594 39.8663 27.9889 38.0946 27.902C36.3228 27.8151 34.5645 28.2501 33.0377 29.1532Z" fill="white"/>
<path d="M37.3288 90.6739L18.3367 107.625L30.3365 121.07L49.3287 104.119L37.3288 90.6739Z" fill="#036792"/>
<path d="M13.7726 48.5762C13.7726 48.5762 -4.28442 69.2004 1.10894 78.0024C6.5023 86.8043 26.3211 95.9802 26.3211 95.9802C26.3211 95.9802 27.6443 103.222 31.9086 102.668C33.577 102.452 33.9581 100.726 33.8071 98.7057C33.6519 96.9018 33.1321 95.1483 32.2792 93.5512C31.4263 91.9542 30.258 90.5469 28.8452 89.4147C22.7687 84.4744 11.7159 72.7312 30.0605 63.7783L13.7726 48.5762Z" fill="#F4A28C"/>
<path d="M46.8016 38.7391C45.7517 32.4613 45.7804 23.6881 52.9356 22.8036C60.774 21.8399 67.5624 36.8119 63.5138 47.4764" stroke="#24285B" stroke-width="2.03" stroke-linecap="round" stroke-linejoin="round"/>
<path d="M58.2569 9.95996L50.8572 24.5005L58.3504 32.7919L61.2124 16.0149L58.2569 9.95996Z" fill="#F4A28C"/>
<path opacity="0.31" d="M60.8819 18.6613C59.9005 18.048 59.1205 17.1604 58.6382 16.1084C58.6382 16.1084 57.8472 18.9849 60.0765 22.8034L60.8819 18.6613Z" fill="#CE8172"/>
<path d="M65.5703 10.9306C65.5703 10.9306 65.1245 15.8925 63.7222 18.999C63.5871 19.3 63.3937 19.5713 63.1532 19.797C62.9126 20.0228 62.6296 20.1986 62.3207 20.3143C62.0117 20.43 61.6828 20.4833 61.3532 20.4711C61.0235 20.4589 60.6995 20.3814 60.3999 20.2431C58.8538 19.524 56.9625 18.0858 56.8763 15.3963L56.1571 10.8515C56.1122 9.92719 56.355 9.01172 56.8522 8.23123C57.3493 7.45074 58.0763 6.84365 58.9329 6.49364C62.0683 4.99069 65.9946 7.92468 65.5703 10.9306Z" fill="#F4A28C"/>
<path d="M65.1318 14.0444L66.1601 16.2018C66.2185 16.3234 66.245 16.4578 66.2373 16.5925C66.2296 16.7272 66.1879 16.8577 66.1161 16.9719C66.0443 17.0861 65.9447 17.1802 65.8266 17.2455C65.7086 17.3108 65.5759 17.3451 65.441 17.3452H63.5066L65.1318 14.0444Z" fill="#F4A28C"/>
<path d="M54.8558 15.8278L55.0931 9.06098C55.0931 9.06098 51.6557 7.35667 53.4535 5.32158C55.2513 3.28648 56.2293 5.32158 57.0994 2.58894C57.9695 -0.143694 60.3354 0.00732005 61.4141 1.99927C62.4928 3.99122 62.4352 1.63971 64.4703 1.93455C66.5054 2.22939 66.7571 3.25772 66.3616 4.75348C65.9661 6.24924 69.2381 5.47259 69.4106 7.62994C69.5832 9.78728 69.1302 11.5635 64.1899 10.4129C59.2496 9.26233 61.5507 14.2674 54.8558 15.8278Z" fill="#036792"/>
<path d="M59.6089 14.2024C59.6089 14.2024 59.911 12.3112 58.4655 12.2033C57.0201 12.0954 56.5743 14.8281 58.4655 15.4249L59.6089 14.2024Z" fill="#F4A28C"/>
<path d="M63.2836 51.5101C64.904 51.5101 66.2176 50.1965 66.2176 48.5761C66.2176 46.9557 64.904 45.6421 63.2836 45.6421C61.6632 45.6421 60.3496 46.9557 60.3496 48.5761C60.3496 50.1965 61.6632 51.5101 63.2836 51.5101Z" fill="#24285B"/>
<path d="M50.203 54.7603C50.203 54.7603 53.626 54.7603 53.9783 51.8838C54.3954 48.4536 50.5482 38.3572 47.5854 38.5874C42.8105 38.9613 40.9839 48.0653 42.6739 52.9697C43.242 54.6308 45.8955 54.4798 47.1683 54.5373" stroke="#24285B" stroke-width="2.03" stroke-linecap="round" stroke-linejoin="round"/>
<path d="M41.2937 93.0301L38.4946 95.5205L43.6236 101.285L46.4227 98.7948L41.2937 93.0301Z" fill="#24285B"/>
<path d="M205.352 97.8643H173.172C168.982 97.8643 165.585 101.261 165.585 105.451V105.458C165.585 109.648 168.982 113.045 173.172 113.045H205.352C209.542 113.045 212.939 109.648 212.939 105.458V105.451C212.939 101.261 209.542 97.8643 205.352 97.8643Z" fill="#036792"/>
<path d="M210.443 111.456H167.397V143.981H210.443V111.456Z" fill="#036792"/>
<path d="M188.963 21.3217C188.958 23.1627 189.2 24.996 189.682 26.7726C189.752 26.9802 189.862 27.172 190.007 27.3367C190.151 27.5015 190.326 27.6359 190.523 27.7322C190.72 27.8286 190.934 27.8849 191.152 27.8979C191.371 27.9109 191.59 27.8804 191.797 27.8081C192.478 27.6205 193.09 27.2405 193.561 26.7138C194.031 26.1871 194.34 25.5359 194.45 24.8382L195.191 21.8826C195.285 21.2709 195.185 20.6451 194.905 20.0931C194.625 19.5411 194.179 19.0905 193.63 18.8048C191.667 17.6254 188.884 19.301 188.963 21.3217Z" fill="#F4A28C"/>
<path d="M195.658 23.6304L196.6 34.4315L190.61 34.5178L192.293 26.8232L195.658 23.6304Z" fill="#F4A28C"/>
<path d="M189.049 23.4072L188.223 24.7448C188.176 24.8212 188.15 24.9081 188.146 24.9974C188.142 25.0867 188.16 25.1756 188.2 25.2559C188.239 25.3362 188.298 25.4052 188.371 25.4566C188.444 25.5081 188.529 25.5403 188.618 25.5502L189.898 25.6868L189.049 23.4072Z" fill="#F4A28C"/>
<path opacity="0.31" d="M192.242 27.0456C192.963 26.9056 193.631 26.5726 194.177 26.082C194.177 26.082 194.601 28.4192 191.76 29.2461L192.242 27.0456Z" fill="#CE8172"/>
<path d="M157.013 106.566V139.66L160.192 140.767L168.044 107.242L157.013 106.566Z" fill="#F4A28C"/>
<path d="M157.128 138.897C157.128 138.897 155.05 141.112 152.663 140.788C150.275 140.465 149.635 143.816 153.518 143.801C154.723 143.804 155.926 143.703 157.114 143.499C158.209 143.346 159.324 143.482 160.35 143.895C160.551 143.962 160.768 143.965 160.971 143.904C161.174 143.844 161.354 143.723 161.486 143.557C162.694 142.363 160.264 139.17 160.264 139.17L157.128 138.897Z" fill="#68E1FD"/>
<path d="M195.436 23.6591C195.436 23.6591 195.364 22.3863 196.327 22.415C197.291 22.4438 197.399 24.2775 196.119 24.5724L195.436 23.6591Z" fill="#F4A28C"/>
<path d="M189.639 21.1127C190.691 21.2913 191.766 21.2913 192.818 21.1127C192.818 21.1127 193.494 24.7874 196.413 25.7078C196.413 25.7078 199.175 20.2282 195.788 18.0996C192.947 16.3234 190.84 14.7413 188.503 16.8555C188.167 17.1617 187.921 17.5544 187.793 17.9908C187.665 18.4271 187.659 18.8903 187.777 19.3297C187.894 19.7691 188.13 20.1678 188.458 20.4822C188.787 20.7967 189.195 21.0148 189.639 21.1127Z" fill="#24285B"/>
<path d="M197.665 19.8188C199.48 19.8188 200.951 18.3475 200.951 16.5324C200.951 14.7174 199.48 13.2461 197.665 13.2461C195.85 13.2461 194.378 14.7174 194.378 16.5324C194.378 18.3475 195.85 19.8188 197.665 19.8188Z" fill="#24285B"/>
<path d="M192.76 23.0409C192.76 23.0409 192.904 21.6027 194.076 21.7968C195.249 21.991 195.234 23.7456 193.76 24.4288L192.76 23.0409Z" fill="#F4A28C"/>
<path d="M190.193 36.2364L196.039 34.5537C196.039 34.5537 211.666 36.2364 211.5 48.7706C211.378 58.0544 200.534 92.7589 200.534 92.7589H176.767V80.5339C176.82 74.7482 175.462 69.0368 172.812 63.8936C169.137 56.9182 167.21 44.8011 190.193 36.2364Z" fill="#68E1FD"/>
<path d="M176.767 87.042L200.534 92.7949C200.534 92.7949 201.691 103.049 193.422 103.855C185.152 104.66 159.803 101.841 169.655 133.022H150.037C150.037 133.022 138.115 99.5186 167.246 92.7949C170.777 91.9751 176.695 91.3063 176.753 87.682L176.767 87.042Z" fill="#24285B"/>
<path opacity="0.08" d="M188.539 44.9736C188.539 44.9736 176.947 49.1733 180.924 63.2535C184.9 77.3338 176.753 79.4768 176.753 79.4768L187.281 89.7457L200.555 92.7588L204.726 78.7505L188.539 44.9736Z" fill="black"/>
<path d="M187.281 37.4084C187.095 36.5432 187.215 35.6403 187.62 34.8536C188.025 34.0669 188.69 33.4449 189.503 33.0937C192.48 31.6555 199.52 29.8289 200.555 35.6178C200.534 35.6034 193.997 39.8534 187.281 37.4084Z" fill="#68E1FD"/>
<path opacity="0.46" d="M187.281 37.4084C187.095 36.5432 187.215 35.6403 187.62 34.8536C188.025 34.0669 188.69 33.4449 189.503 33.0937C192.48 31.6555 199.52 29.8289 200.555 35.6178C200.534 35.6034 193.997 39.8534 187.281 37.4084Z" fill="white"/>
<path d="M185.77 51.1646C186.727 40.1549 202.31 38.7886 205.309 49.4243C206.898 55.0406 207.718 63.181 205.877 74.5933C201.44 102.157 164.787 93.8369 164.787 93.8369L164.111 89.9249C164.111 89.9249 179.751 83.6326 187.28 75.6145C191.689 70.8468 185.001 60.0313 185.77 51.1646Z" fill="#F4A28C"/>
<path d="M165.952 89.5373C165.952 89.5373 159.703 89.2712 158.193 92.1405C156.683 95.0097 155.316 98.217 158.236 98.3464C161.155 98.4759 161.407 94.9954 162.349 94.4344C163.291 93.8735 167.246 93.8448 167.246 91.7737C167.246 89.7027 165.952 89.5373 165.952 89.5373Z" fill="#F4A28C"/>
<path d="M168.275 0H127.544V51.4023H168.275V0Z" fill="#C9C9C9"/>
<path d="M166.017 2.84766H129.802V48.5546H166.017V2.84766Z" fill="#E6E6E6"/>
<path opacity="0.08" d="M144.464 11.0171L142.731 12.1892C142.731 12.1892 146.161 13.3326 145.831 19.5314C145.5 25.7302 145.068 28.6282 139.15 30.5554C133.642 32.3388 132.922 33.7052 133.577 39.7385L135.425 38.8253C135.425 38.8253 133.764 33.8778 137.352 33.2234C137.352 33.2234 137.834 36.5672 143.249 39.228C147.499 41.3206 152.561 39.7385 157.221 33.1514C161.881 26.5644 160.177 19.366 156.754 17.899C153.331 16.432 147.808 16.9786 147.808 16.9786C147.808 16.9786 147.729 14.1165 144.464 11.0171Z" fill="black"/>
<path opacity="0.08" d="M161.443 6.5083H151.454V7.58697H161.443V6.5083Z" fill="black"/>
<path opacity="0.08" d="M161.443 8.76562H151.454V9.8443H161.443V8.76562Z" fill="black"/>
<path opacity="0.08" d="M161.443 11.0171H151.454V12.0958H161.443V11.0171Z" fill="black"/>
<path opacity="0.58" d="M129.32 74.4067C129.32 74.4067 123.344 72.7672 122.042 67.2156C122.042 67.2156 131.305 65.3459 131.571 74.9101L129.32 74.4067Z" fill="#68E1FD"/>
<path opacity="0.73" d="M130.053 73.8103C130.053 73.8103 125.875 67.2016 129.557 61.0244C129.557 61.0244 136.605 65.5045 133.469 73.8247L130.053 73.8103Z" fill="#68E1FD"/>
<path d="M131.132 73.8177C131.132 73.8177 133.347 66.8351 140.013 65.5479C140.013 65.5479 141.264 70.0783 135.698 73.8608L131.132 73.8177Z" fill="#68E1FD"/>
<path d="M126.796 73.6592L128.004 81.9506L135.641 81.9865L136.77 73.7023L126.796 73.6592Z" fill="#24285B"/>
</svg>
