<svg width="101" height="108" viewBox="0 0 101 108" fill="none" xmlns="http://www.w3.org/2000/svg">
<path d="M34.2504 60.435C33.8311 60.435 33.429 60.6017 33.1326 60.8984C32.8361 61.1951 32.6696 61.5975 32.6696 62.0171C32.6696 62.4367 32.8361 62.8391 33.1326 63.1358C33.429 63.4325 33.8311 63.5992 34.2504 63.5992H45.705C46.1242 63.5992 46.5263 63.4325 46.8228 63.1358C47.1192 62.8391 47.2858 62.4367 47.2858 62.0171C47.2858 61.5975 47.1192 61.1951 46.8228 60.8984C46.5263 60.6017 46.1242 60.435 45.705 60.435H34.2504ZM58.3513 43.5596H34.2504C33.8311 43.5596 33.429 43.7263 33.1326 44.023C32.8361 44.3197 32.6696 44.7221 32.6696 45.1417C32.6696 45.5613 32.8361 45.9637 33.1326 46.2604C33.429 46.5571 33.8311 46.7238 34.2504 46.7238H58.3513C58.7705 46.7238 59.1726 46.5571 59.4691 46.2604C59.7655 45.9637 59.9321 45.5613 59.9321 45.1417C59.9321 44.7221 59.7655 44.3197 59.4691 44.023C59.1726 43.7263 58.7705 43.5596 58.3513 43.5596ZM12.7517 27.2116H56.6651C57.5313 27.2106 58.3617 26.8658 58.9741 26.2529C59.5866 25.6399 59.9311 24.8088 59.9321 23.942V12.762C59.9311 11.8952 59.5866 11.0641 58.9741 10.4511C58.3617 9.83817 57.5313 9.49338 56.6651 9.49241H12.7517C11.8855 9.49338 11.0551 9.83817 10.4427 10.4511C9.83019 11.0641 9.48569 11.8952 9.48472 12.762V23.942C9.48569 24.8088 9.83019 25.6399 10.4427 26.2529C11.0551 26.8658 11.8855 27.2106 12.7517 27.2116ZM12.6463 12.762C12.6463 12.7341 12.6574 12.7072 12.6772 12.6875C12.6969 12.6677 12.7237 12.6566 12.7517 12.6566H56.6651C56.6931 12.6566 56.7199 12.6677 56.7396 12.6875C56.7594 12.7072 56.7705 12.7341 56.7705 12.762V23.942C56.7705 23.9699 56.7594 23.9968 56.7396 24.0165C56.7199 24.0363 56.6931 24.0474 56.6651 24.0474H12.7517C12.7237 24.0474 12.6969 24.0363 12.6772 24.0165C12.6574 23.9968 12.6463 23.9699 12.6463 23.942V12.762ZM58.3513 37.2313H34.2504C33.8311 37.2313 33.429 37.398 33.1326 37.6947C32.8361 37.9914 32.6696 38.3938 32.6696 38.8134C32.6696 39.233 32.8361 39.6354 33.1326 39.9321C33.429 40.2288 33.8311 40.3955 34.2504 40.3955H58.3513C58.7705 40.3955 59.1726 40.2288 59.4691 39.9321C59.7655 39.6354 59.9321 39.233 59.9321 38.8134C59.9321 38.3938 59.7655 37.9914 59.4691 37.6947C59.1726 37.398 58.7705 37.2313 58.3513 37.2313ZM99.9805 86.4435L95.7732 80.8103C95.2152 80.0658 94.4663 79.4862 93.606 79.133C92.7456 78.7798 91.8058 78.666 90.8861 78.8039C89.2244 76.9201 88.3604 74.4632 88.4771 71.9531L89.4362 52.6791C89.5725 49.6917 88.9447 46.7189 87.6121 44.0422C86.2795 41.3656 84.2863 39.0736 81.8212 37.3835L69.4168 28.9273V8.68387C69.4105 6.37783 68.4904 4.16846 66.8584 2.54048C65.2265 0.912505 63.0159 -0.0011361 60.7118 1.06025e-06H8.70492C6.40076 -0.00111429 4.19023 0.912537 2.55831 2.54051C0.926386 4.16849 0.00633388 6.37784 0 8.68387V89.8194C0.00633388 92.1254 0.926386 94.3348 2.55831 95.9627C4.19023 97.5907 6.40076 98.5044 8.70492 98.5032H53.3475L53.3498 98.5033C53.4047 98.5033 53.4596 98.5004 53.5142 98.4946C53.5269 98.4933 53.5392 98.4904 53.5519 98.4888C53.5931 98.4835 53.6342 98.4779 53.6748 98.4694C53.6948 98.4652 53.714 98.4589 53.7337 98.454C53.7666 98.4457 53.7996 98.4382 53.8319 98.4278C53.8519 98.4214 53.8711 98.4129 53.8908 98.4057C53.9221 98.3943 53.9536 98.3837 53.9842 98.3703C54.0018 98.3625 54.0186 98.3529 54.0359 98.3445C54.0675 98.3293 54.0993 98.3146 54.1299 98.2972C54.1461 98.2881 54.1612 98.2771 54.177 98.2673C54.2075 98.2486 54.2383 98.2303 54.2677 98.2093C54.2855 98.1966 54.302 98.1819 54.3193 98.1684C54.3451 98.1483 54.3715 98.129 54.3963 98.1071C54.4378 98.0704 54.4774 98.0316 54.5148 97.9908L64.5367 87.0608C65.0238 88.6342 65.7691 90.1157 66.7419 91.4444L69.1586 94.7367C68.6766 95.6014 68.4551 96.5872 68.5208 97.5751C68.5864 98.5631 68.9365 99.5108 69.5288 100.304L73.7361 105.937C74.5536 107.027 75.7685 107.749 77.1158 107.946C78.4631 108.143 79.8335 107.799 80.9283 106.988L98.9261 93.6302C99.4682 93.2287 99.9257 92.7239 100.272 92.1449C100.619 91.5658 100.848 90.924 100.946 90.2561C101.044 89.5883 101.009 88.9077 100.843 88.2534C100.678 87.5991 100.384 86.984 99.9805 86.4435ZM54.9309 92.8572V82.7048H63.8682C63.8686 82.8377 63.8707 82.9705 63.8746 83.1032L54.9309 92.8572ZM63.9555 78.7745L63.9368 79.5407H54.775C53.9788 79.5408 53.2153 79.857 52.6518 80.4199C52.0883 80.9828 51.771 81.7463 51.7693 82.5431V95.3391H8.70492C7.23897 95.3412 5.83205 94.7612 4.79283 93.7264C3.75361 92.6916 3.16696 91.2865 3.16157 89.8194V8.68387C3.16696 7.21673 3.75361 5.81164 4.79283 4.77685C5.83205 3.74206 7.23897 3.16208 8.70492 3.16414H60.7118C62.1777 3.16205 63.5847 3.74203 64.6239 4.77682C65.6632 5.81161 66.2498 7.21672 66.2552 8.68387V56.6518L63.0697 53.4762C61.5231 51.9222 59.4309 51.0347 57.2396 51.0031C55.0484 50.9715 52.9315 51.7982 51.3408 53.3069C50.4921 54.0979 49.9717 55.1795 49.883 56.3368C49.7942 57.4941 50.1436 58.6425 50.8617 59.5539L62.5438 74.5102C63.4922 75.7258 63.991 77.2325 63.9555 78.7745ZM69.2899 89.571C67.7668 87.4898 66.9725 84.9638 67.0301 82.3847L67.116 78.8514C67.1688 76.5771 66.4333 74.3546 65.0345 72.5614L53.3525 57.6051C53.1235 57.3143 53.0122 56.9479 53.0407 56.5787C53.0691 56.2096 53.2353 55.8646 53.5061 55.6124C54.5005 54.6692 55.8239 54.1523 57.1938 54.172C58.5637 54.1917 59.8716 54.7466 60.8385 55.7181L70.2615 65.1116C70.4086 65.2582 70.5831 65.3744 70.7751 65.4536C70.967 65.5327 71.1727 65.5732 71.3803 65.5728C71.5879 65.5724 71.7933 65.531 71.985 65.4511C72.1766 65.3713 72.3507 65.2544 72.4972 65.1072C72.6437 64.96 72.7598 64.7853 72.8388 64.5932C72.9179 64.4011 72.9584 64.1953 72.958 63.9875C72.9576 63.7798 72.9163 63.5741 72.8364 63.3823C72.7566 63.1905 72.6398 63.0163 72.4927 62.8697L69.4168 59.8034V32.7558L80.0416 39.9987C82.0602 41.3824 83.6925 43.2588 84.7839 45.4503C85.8754 47.6418 86.3898 50.0758 86.2785 52.5219L85.3194 71.7962C85.1777 74.8283 86.1122 77.8129 87.9575 80.2218L71.431 92.4879L69.2899 89.571ZM97.8179 89.7944C97.7809 90.0508 97.6933 90.2973 97.5603 90.5195C97.4272 90.7417 97.2513 90.9351 97.0428 91.0886L79.045 104.447C78.6225 104.76 78.0936 104.893 77.5735 104.817C77.0534 104.741 76.5843 104.463 76.2684 104.043L72.0611 98.4096C71.8025 98.0645 71.6653 97.6435 71.6708 97.2122C71.6762 96.7809 71.8241 96.3635 72.0914 96.0251C72.2121 95.9344 72.3192 95.8268 72.4094 95.7056C72.4287 95.6902 72.4466 95.6736 72.4665 95.6588L90.4643 82.3006C90.8867 81.9877 91.4157 81.8546 91.9357 81.9303C92.4558 82.006 92.925 82.2843 93.2409 82.7047L97.4482 88.3378C97.6032 88.544 97.7157 88.7789 97.7792 89.029C97.8427 89.279 97.8559 89.5392 97.8179 89.7944ZM48.8666 66.7633H34.2504C33.8311 66.7633 33.429 66.93 33.1326 67.2267C32.8361 67.5234 32.6696 67.9258 32.6696 68.3454C32.6696 68.765 32.8361 69.1674 33.1326 69.4641C33.429 69.7608 33.8311 69.9274 34.2504 69.9274H48.8666C49.2858 69.9274 49.6879 69.7608 49.9844 69.4641C50.2808 69.1674 50.4474 68.765 50.4474 68.3454C50.4474 67.9258 50.2808 67.5234 49.9844 67.2267C49.6879 66.93 49.2858 66.7633 48.8666 66.7633ZM43.8654 79.5407H11.0655C10.6463 79.5407 10.2442 79.7073 9.94772 80.004C9.65126 80.3007 9.48472 80.7031 9.48472 81.1227C9.48472 81.5423 9.65126 81.9447 9.94772 82.2414C10.2442 82.5381 10.6463 82.7048 11.0655 82.7048H43.8654C44.2846 82.7048 44.6867 82.5381 44.9832 82.2414C45.2796 81.9447 45.4462 81.5423 45.4462 81.1227C45.4462 80.7031 45.2796 80.3007 44.9832 80.004C44.6867 79.7073 44.2846 79.5407 43.8654 79.5407ZM17.3641 56.6096L11.13 62.8487C10.0776 63.9033 9.48674 65.333 9.48721 66.8234C9.48769 68.3139 10.0795 69.7432 11.1326 70.7971C12.1856 71.851 13.6138 72.4433 15.103 72.4438C16.5923 72.4443 18.0208 71.8529 19.0745 70.7996L25.3085 64.5606C25.8302 64.0385 26.244 63.4187 26.5263 62.7366C26.8086 62.0545 26.9539 61.3234 26.9539 60.5851C26.9539 59.8468 26.8086 59.1157 26.5263 58.4336C26.244 57.7515 25.8302 57.1317 25.3085 56.6096C24.7869 56.0876 24.1676 55.6734 23.4861 55.3909C22.8045 55.1084 22.074 54.9629 21.3363 54.9629C20.5986 54.9629 19.8681 55.1084 19.1865 55.3909C18.505 55.6734 17.8857 56.0876 17.3641 56.6096ZM16.839 68.5623C16.6109 68.7907 16.3402 68.9719 16.0422 69.0955C15.7441 69.2192 15.4247 69.2828 15.1021 69.2829C14.7795 69.283 14.46 69.2194 14.1619 69.0959C13.8639 68.9724 13.593 68.7913 13.3649 68.563C13.1368 68.3346 12.9558 68.0636 12.8324 67.7653C12.709 67.467 12.6455 67.1472 12.6455 66.8244C12.6456 66.5015 12.7092 66.1818 12.8328 65.8835C12.9563 65.5853 13.1374 65.3143 13.3656 65.0861L15.3648 63.0852L18.8382 66.5614L16.839 68.5623ZM23.073 62.3232L21.0738 64.3241L17.6003 60.8478L19.5996 58.847C19.8276 58.6186 20.0984 58.4374 20.3964 58.3137C20.6944 58.1901 21.0139 58.1264 21.3365 58.1264C21.6591 58.1263 21.9786 58.1898 22.2766 58.3134C22.5747 58.4369 22.8455 58.618 23.0737 58.8463C23.3018 59.0746 23.4827 59.3457 23.6062 59.644C23.7296 59.9423 23.7931 60.262 23.793 60.5849C23.793 60.9078 23.7293 61.2275 23.6058 61.5257C23.4823 61.824 23.3012 62.095 23.073 62.3232ZM25.3085 33.406C24.2542 32.3532 22.8256 31.7619 21.3363 31.7619C19.8469 31.7619 18.4184 32.3532 17.3641 33.406L11.13 39.645C10.0776 40.6996 9.48674 42.1293 9.48721 43.6198C9.48769 45.1102 10.0795 46.5395 11.1326 47.5934C12.1856 48.6473 13.6138 49.2396 15.103 49.2401C16.5923 49.2406 18.0208 48.6492 19.0745 47.596L25.3085 41.3569C26.3605 40.3017 26.9513 38.872 26.9513 37.3814C26.9513 35.8908 26.3605 34.4611 25.3085 33.406ZM16.839 45.3586C16.3783 45.8193 15.7537 46.078 15.1025 46.0779C14.4512 46.0778 13.8267 45.8188 13.3662 45.3579C12.9058 44.8971 12.647 44.2721 12.6469 43.6203C12.6467 42.9685 12.9053 42.3434 13.3656 41.8824L15.3648 39.8815L18.8382 43.3578L16.839 45.3586ZM23.073 39.1195L21.0738 41.1204L17.6003 37.6442L19.5996 35.6433C20.0603 35.1826 20.6849 34.9239 21.3361 34.924C21.9873 34.9241 22.6118 35.1831 23.0723 35.644C23.5328 36.1048 23.7916 36.7299 23.7917 37.3816C23.7918 38.0334 23.5333 38.6585 23.073 39.1195ZM34.3807 85.8689H11.0655C10.6463 85.8689 10.2442 86.0356 9.94772 86.3323C9.65126 86.629 9.48472 87.0314 9.48472 87.451C9.48472 87.8706 9.65126 88.273 9.94772 88.5697C10.2442 88.8664 10.6463 89.0331 11.0655 89.0331H34.3807C34.7999 89.0331 35.202 88.8664 35.4984 88.5697C35.7949 88.273 35.9614 87.8706 35.9614 87.451C35.9614 87.0314 35.7949 86.629 35.4984 86.3323C35.202 86.0356 34.7999 85.8689 34.3807 85.8689Z" fill="#005072"/>
</svg>
