<svg width="82" height="81" viewBox="0 0 82 81" fill="none" xmlns="http://www.w3.org/2000/svg">
<path d="M12.204 0C11.1518 0.00372185 10.3019 0.859929 10.3059 1.91218V15.2412C10.3019 16.2935 11.1518 17.1497 12.204 17.1534H38.8762C39.9284 17.1497 40.7783 16.2935 40.7743 15.2412V1.91218C40.7783 0.859929 39.9284 0.00372185 38.8762 0H12.204ZM14.1162 3.8103H36.964V13.3431H14.1162V3.8103Z" fill="#005072"/>
<path d="M14.1163 15.2412V24.9126C14.1163 24.9126 11.0405 25.3111 8.49222 26.6299C4.73145 28.5762 0.773193 32.3852 0.773193 40.0011V78.1042C0.776915 79.1564 1.63312 80.0063 2.68537 80.0023H48.395C49.4472 80.0063 50.3034 79.1564 50.3071 78.1042V40.0011C50.3071 40.0011 50.3309 36.2665 48.4371 32.479C46.7499 29.1045 43.3419 25.4545 36.964 24.8459V15.2412H33.1537V26.6721C33.1575 27.7244 34.0137 28.5743 35.0659 28.5702C40.7772 28.5702 43.5811 31.3154 45.0205 34.1943C46.46 37.0732 46.4968 40.0011 46.4968 40.0011V76.192H4.5835V40.0011C4.5835 34.2899 7.32866 31.486 10.2076 30.0466C13.0865 28.6071 16.0144 28.5702 16.0144 28.5702C17.0667 28.5743 17.9229 27.7244 17.9266 26.6721V15.2412H14.1163Z" fill="#005072"/>
<path d="M12.0212 38.1056C11.0464 38.2031 10.3045 39.0241 10.3059 40.0038V66.6759C10.3096 67.7226 11.1573 68.5703 12.204 68.574H38.8762C39.9229 68.5703 40.7706 67.7226 40.7743 66.6759V40.0038C40.7706 38.957 39.9229 38.1093 38.8762 38.1056H12.204C12.1431 38.1027 12.0821 38.1027 12.0212 38.1056H12.0212ZM14.1162 41.9159H36.964V64.7637H14.1162V41.9159ZM68.8243 19.026C67.3323 18.5287 64.9679 18.7066 63.1721 20.5023C61.3764 22.2981 61.1985 24.6625 61.6958 26.1545C62.1931 27.6465 63.1721 28.5729 63.1721 28.5729L71.2567 36.6574C71.2567 36.6574 72.1831 37.6364 73.675 38.1338C75.167 38.6311 77.5315 38.4532 79.3272 36.6574C81.123 34.8617 81.3009 32.4972 80.8035 31.0053C80.3062 29.5133 79.3272 28.5729 79.3272 28.5729L71.2567 20.5023C71.2567 20.5023 70.3162 19.5233 68.8243 19.026ZM67.6151 22.6395C68.1434 22.8155 68.5571 23.1878 68.5571 23.1878L76.6417 31.2724C76.6417 31.2724 77.014 31.6862 77.1901 32.2144C77.3661 32.7427 77.5396 33.0741 76.6417 33.972C75.7439 34.8698 75.4125 34.6964 74.8842 34.5203C74.356 34.3442 73.9422 33.972 73.9422 33.972L65.8717 25.8874C65.8717 25.8874 65.4853 25.4736 65.3092 24.9453C65.1332 24.4171 64.9738 24.0857 65.8717 23.1878C66.7695 22.2899 67.0868 22.4634 67.6151 22.6395Z" fill="#005072"/>
<path d="M72.5924 24.5381L67.2073 29.9231L69.9069 32.6227L75.2919 27.2376L72.5924 24.5381ZM71.2567 60.9539C66.0196 60.9539 61.7239 65.2496 61.7239 70.4867C61.7239 75.7238 66.0196 80.0054 71.2567 80.0054C76.4937 80.0054 80.7754 75.7238 80.7754 70.4867C80.7754 65.2496 76.4937 60.9539 71.2567 60.9539ZM71.2567 64.7642C74.435 64.7642 76.9651 67.3083 76.9651 70.4867C76.9651 73.665 74.435 76.1951 71.2567 76.1951C68.0783 76.1951 65.5342 73.665 65.5342 70.4867C65.5342 67.3083 68.0783 64.7642 71.2567 64.7642Z" fill="#005072"/>
<path d="M75.6151 63.4145L64.1842 74.8454L66.8837 77.5449L78.3146 66.114L75.6151 63.4145ZM67.9945 42.4648L56.5776 53.8958L59.2631 56.5953L70.694 45.1644L67.9945 42.4648Z" fill="#005072"/>
<path d="M63.6361 40.002C58.399 40.002 54.1033 44.2977 54.1033 49.5347C54.1033 54.7718 58.399 59.0535 63.6361 59.0535C68.8732 59.0535 73.1548 54.7718 73.1548 49.5347C73.1548 44.2977 68.8732 40.002 63.6361 40.002ZM63.6361 43.8123C66.8144 43.8123 69.3445 46.3564 69.3445 49.5347C69.3445 52.7131 66.8144 55.2432 63.6361 55.2432C60.4578 55.2432 57.9136 52.7131 57.9136 49.5347C57.9136 46.3564 60.4578 43.8123 63.6361 43.8123ZM25.4909 43.8123C25.1406 43.8228 24.8001 43.9299 24.5067 44.1216C24.5067 44.1216 17.915 48.157 17.9265 55.2432C17.9334 59.4245 21.3479 62.8638 25.5331 62.8638C29.7182 62.8638 33.1605 59.4321 33.1537 55.2432C33.1421 48.1638 26.5735 44.1216 26.5735 44.1216C26.2521 43.9117 25.8747 43.8039 25.4909 43.8123ZM25.5396 48.1366C26.4726 48.9032 29.3434 51.6782 29.3434 55.2432C29.3468 57.3658 27.6595 59.0535 25.5331 59.0535C23.4067 59.0535 21.7403 57.3733 21.7368 55.2432C21.7314 51.8941 24.1436 49.3403 25.5396 48.1366H25.5396Z" fill="#005072"/>
</svg>
