<svg width="260" height="47" viewBox="0 0 260 47" fill="none" xmlns="http://www.w3.org/2000/svg">
<path d="M74.527 8.32617C74.527 18.4909 70.601 28.2393 63.613 35.4269C56.625 42.6144 47.147 46.6523 37.2637 46.6523C27.3807 46.6523 17.9026 42.6144 10.9143 35.4269C3.926 28.2393 0 18.4909 0 8.32617H9.4991C9.4991 15.8998 12.4243 23.1631 17.6311 28.5185C22.838 33.8738 29.9 36.8824 37.2637 36.8824C44.627 36.8824 51.689 33.8738 56.896 28.5185C62.103 23.1631 65.028 15.8998 65.028 8.32617H74.527Z" fill="#93939B"/>
<path d="M14.1868 32.865C13.9328 33.1124 13.7446 33.3491 13.6223 33.5751C13.5 33.8011 13.4283 34.0534 13.4074 34.3321L13.2397 34.3378L11.7569 32.5569L11.8764 32.3274C12.1236 32.5 12.3026 32.5908 12.4134 32.5996C12.53 32.6152 12.6678 32.5529 12.8271 32.4127C12.9133 32.3367 13.674 31.5722 15.109 30.1192L15.9236 29.2953L10.9518 31.279L10.7132 30.9924L13.3629 26.2816L10.9746 28.1366C10.6335 28.3898 10.3998 28.5719 10.2738 28.6829C10.1013 28.8348 9.96566 28.9897 9.86706 29.1475C9.78076 29.3063 9.70256 29.523 9.63226 29.7978L9.45605 29.7933L8.51025 28.6572L8.63825 28.438C8.83895 28.5687 8.99056 28.654 9.09286 28.694C9.20086 28.7408 9.30265 28.7457 9.39835 28.7088C9.49975 28.6786 9.63236 28.6032 9.79636 28.4824L11.8094 26.9225C12.2823 26.5651 12.5884 26.3251 12.7277 26.2024C12.9533 26.0037 13.0964 25.8303 13.1572 25.6823C13.2235 25.541 13.2658 25.3086 13.284 24.9852L13.473 24.9429L14.7171 26.4372L12.4999 30.2172L16.5237 28.6072L17.6229 29.9275L17.5987 30.1263C17.305 30.1602 17.0785 30.2059 16.9193 30.2633C16.7658 30.3276 16.5929 30.4444 16.4005 30.6139C16.2744 30.7249 16.0901 30.9109 15.8474 31.1719L14.1868 32.865Z" fill="white"/>
<path d="M18.1573 37.577C18.0362 37.7419 17.958 37.8782 17.9227 37.9858C17.8996 38.0917 17.9106 38.196 17.9556 38.2986C18.0007 38.4012 18.0919 38.5452 18.2293 38.7308L18.0139 38.8674L16.1951 37.454L16.1904 37.2815L16.3688 37.2174C16.6084 37.1447 16.8097 37.0421 16.9726 36.9097C17.1477 36.7756 17.3345 36.5661 17.5329 36.2811L19.6575 33.389C19.7891 33.2098 19.8586 33.078 19.8659 32.9936C19.8854 32.9075 19.8498 32.8292 19.7592 32.7588L19.6443 32.6694C19.4073 32.4853 19.1743 32.4224 18.9453 32.4809C18.7215 32.5322 18.4074 32.699 18.0029 32.9814L17.8491 32.7437L18.8363 31.3998L19.012 31.3843L19.0663 31.5785C19.1303 31.7746 19.3539 32.0215 19.7372 32.3194L21.6501 33.806C22.0334 34.1038 22.3255 34.2576 22.5263 34.2673L22.7229 34.2681L22.7668 34.4542L21.7795 35.7981L21.5047 35.7028C21.6619 35.2056 21.7313 34.843 21.7128 34.6147C21.7066 34.3847 21.5886 34.1804 21.3586 34.0016L21.2227 33.896C21.1321 33.8256 21.0457 33.8091 20.9635 33.8466C20.8935 33.8823 20.7926 33.9897 20.661 34.1689L18.1573 37.577Z" fill="white"/>
<path d="M32.5308 44.0591C32.7531 44.0133 32.9142 43.9673 33.0139 43.921C33.1144 43.8658 33.1856 43.7903 33.2277 43.6944C33.2698 43.5986 33.2984 43.4477 33.3136 43.2417L33.5818 39.6003C33.6049 39.2868 33.5956 39.0563 33.5539 38.909C33.5209 38.7622 33.4213 38.6283 33.255 38.5073L33.1052 38.401L33.1703 38.2304C33.4643 38.1632 33.8267 38.1194 34.2574 38.0989C34.6888 38.0694 35.083 38.0686 35.4401 38.0964C36.5462 38.1826 37.3659 38.5303 37.8992 39.1394C38.4418 39.7403 38.6742 40.5692 38.5963 41.6262C38.5257 42.5847 38.1996 43.3251 37.6181 43.8473C37.0452 44.3703 36.2972 44.5958 35.374 44.5238L32.6044 44.308L32.5308 44.0591ZM35.2762 44.246C36.452 44.3376 37.1101 43.4294 37.2507 41.5214C37.3154 40.6435 37.1973 39.9271 36.8966 39.3721C36.6052 38.8089 36.1852 38.5059 35.6365 38.4631C35.41 38.4455 35.2332 38.4677 35.106 38.5299C34.9788 38.592 34.9102 38.6903 34.9003 38.8247L34.5975 42.9363C34.5665 43.3573 34.6043 43.6756 34.7111 43.8911C34.8266 44.1073 35.0149 44.2256 35.2762 44.246Z" fill="white"/>
<path d="M41.009 39.7085C40.941 39.3559 40.862 39.0835 40.772 38.8912C40.682 38.6989 40.544 38.5162 40.36 38.343L40.229 38.2184L40.304 38.0521L43.145 37.4763C43.616 37.3808 43.922 37.2593 44.063 37.1117L44.195 36.9614L44.346 37.0544L44.663 38.707L44.423 38.8516C44.178 38.4069 43.961 38.1121 43.773 37.9671C43.593 37.8203 43.367 37.7747 43.092 37.8303L42.514 37.9476C42.291 37.9927 42.154 38.0663 42.102 38.1683C42.049 38.2616 42.048 38.4448 42.101 38.718L42.46 40.5954L43.386 40.4078C43.643 40.3557 43.827 40.291 43.936 40.2138C44.055 40.1349 44.129 40.01 44.158 39.8392L44.187 39.6411L44.375 39.713L44.658 41.1937L44.396 41.3568L44.289 41.0764C44.219 40.8982 44.1 40.7895 43.932 40.7503C43.765 40.7111 43.509 40.7262 43.167 40.7956L42.524 40.9259L42.906 42.9223C42.957 43.1867 43.029 43.3551 43.123 43.4277C43.216 43.4913 43.395 43.4963 43.66 43.4424L44.29 43.3148C44.547 43.2627 44.731 43.1293 44.841 42.9147C44.96 42.6983 45.044 42.3471 45.093 41.861L45.381 41.8988L45.685 43.4853L45.566 43.633C45.429 43.5691 45.28 43.5352 45.119 43.5312C44.96 43.5361 44.743 43.5663 44.469 43.6218L41.243 44.2758L41.107 44.056C41.31 43.9509 41.453 43.8624 41.537 43.7904C41.619 43.7096 41.668 43.6172 41.684 43.5133C41.7 43.4094 41.688 43.2561 41.649 43.0534L41.009 39.7085Z" fill="white"/>
<path d="M51.5801 35.1056C51.5171 35.3487 51.4921 35.5823 51.5061 35.8065C51.5271 36.0276 51.5941 36.2987 51.7071 36.6199L52.9461 40.1568C53.0081 40.3342 53.0971 40.4684 53.2131 40.5593L53.3771 40.6703L53.3101 40.8382L52.0291 41.3134L47.5911 37.4723L48.7101 40.6669C48.8291 41.005 48.9481 41.2663 49.0691 41.4508C49.1941 41.6239 49.3551 41.779 49.5521 41.9162L49.7161 42.0272L49.6501 42.1951L48.2941 42.6977L48.1281 42.5015C48.3211 42.3631 48.4491 42.2534 48.5141 42.1722C48.5861 42.088 48.6231 41.9933 48.6231 41.8882C48.6231 41.783 48.5881 41.629 48.5171 41.4262L47.3441 38.0795C47.2141 37.7076 47.0861 37.4493 46.9611 37.3047C46.8361 37.16 46.6291 37.0316 46.3391 36.9195L46.3801 36.7181L47.9821 36.1242L52.4451 39.9987L51.0991 36.1576C51.0111 35.904 50.8951 35.7463 50.7531 35.6845C50.6181 35.6197 50.3751 35.6001 50.0221 35.626L50.0161 35.3704L51.4831 34.8267L51.6421 34.925L51.5801 35.1056Z" fill="white"/>
<path d="M58.0541 36.8881C58.1671 37.0588 58.2681 37.1785 58.3551 37.2473C58.4461 37.3036 58.5451 37.3262 58.6541 37.315C58.7631 37.3038 58.9251 37.2609 59.1401 37.1862L59.1971 37.4397L57.3141 38.7614L57.1541 38.7109L57.1521 38.5166C57.1611 38.2598 57.1311 38.0309 57.0611 37.8299C56.9931 37.6164 56.8601 37.3674 56.6601 37.0831L54.6741 34.0891C54.5501 33.9036 54.4511 33.7939 54.3761 33.7598C54.3031 33.7133 54.2191 33.723 54.1251 33.7888L54.0061 33.8724C53.7611 34.0445 53.6291 34.2516 53.6091 34.4935C53.5851 34.728 53.6391 35.0874 53.7701 35.5719L53.5021 35.6459L52.5791 34.2546L52.6201 34.0785L52.8171 34.0875C53.0181 34.0877 53.3171 33.9486 53.7131 33.6701L55.6941 32.28C56.0911 32.0014 56.3251 31.7658 56.3991 31.5732L56.4621 31.3818L56.6471 31.3984L57.5711 32.7897L57.3951 33.0271C56.9871 32.7152 56.6751 32.5319 56.4591 32.477C56.2451 32.4096 56.0191 32.4595 55.7811 32.6266L55.6401 32.7253C55.5471 32.7912 55.5041 32.8701 55.5121 32.9622C55.5231 33.0419 55.5891 33.1744 55.7121 33.3599L58.0541 36.8881Z" fill="white"/>
<path d="M63.2321 31.2917C63.4651 31.409 63.6711 31.4846 63.8501 31.5186C64.0231 31.5462 64.2451 31.5427 64.5171 31.508L64.5241 31.6891L62.8271 33.3925L62.6061 33.2754L62.7101 33.0956C62.7731 32.9694 62.8021 32.8649 62.7971 32.7823C62.7921 32.6869 62.7501 32.5975 62.6711 32.5139C62.6221 32.4624 62.4621 32.3651 62.1921 32.222L61.465 31.8412L60.0121 33.2999L60.1651 33.6163C60.3461 33.9997 60.5071 34.2654 60.6471 34.4133C60.7811 34.5547 60.9281 34.6582 61.0881 34.7238L61.2631 34.7736L61.2701 34.9548L60.2391 35.99L60.0091 35.8823L60.1131 35.7025C60.2201 35.5069 60.2751 35.3329 60.2761 35.1805C60.2721 35.0216 60.2071 34.8048 60.0801 34.53L58.3471 30.7347C58.2381 30.53 58.1531 30.3956 58.0921 30.3313C57.9581 30.1898 57.7631 30.1906 57.5081 30.3335L57.3781 30.4081L57.2791 30.1686L58.5541 28.8887L63.2321 31.2917ZM61.1151 31.6653L58.6201 30.3474L59.8491 32.9358L61.1151 31.6653Z" fill="white"/>
<path d="M61.8601 27.5059C61.5901 27.3407 61.3801 27.2285 61.2321 27.1691C61.0761 27.1051 60.9291 27.0781 60.7911 27.088C60.6531 27.0978 60.4761 27.141 60.2591 27.2176L60.1731 27.0238L61.3371 25.0078L61.5641 25.0368C61.5591 25.2741 61.5721 25.4543 61.6021 25.5774C61.6331 25.7005 61.6951 25.8119 61.7901 25.9116C61.8891 26.0036 62.0591 26.1229 62.2991 26.2697L65.4421 28.1893C65.6831 28.3361 65.8601 28.3976 65.9761 28.374C66.0911 28.3503 66.2181 28.2188 66.3561 27.9793L66.6101 27.539C66.7391 27.315 66.7711 27.0938 66.7041 26.8753C66.6291 26.6523 66.4261 26.3451 66.0931 25.9538L66.3061 25.7702L67.6581 26.5959L67.6921 26.7736C67.5591 26.8282 67.4421 26.9081 67.3401 27.0133C67.2461 27.1231 67.1281 27.3016 66.9851 27.5488L65.3401 30.3991L65.0971 30.3447C65.1561 30.1195 65.1871 29.9507 65.1911 29.8382C65.1881 29.7211 65.1541 29.6219 65.0891 29.5406C65.0241 29.4592 64.9051 29.3658 64.7331 29.2603L61.8601 27.5059Z" fill="white"/>
<path d="M37.3345 19.2188V34.0765H38.6091V19.2188H37.3345Z" fill="black" stroke="black"/>
<path d="M43.7079 17.9077H32.6605L32.0232 19.2187H42.8579L43.7079 17.9077Z" fill="black" stroke="black"/>
<path d="M28.4198 10.7898V8.67994V2.50034C28.4198 2.01304 28.5458 1.12974 28.1733 0.93394C28.4198 0.71814 28.8762 0.513138 29.1045 0.542338C29.2907 0.542438 29.8487 0.943839 29.8487 0.943839V8.67994V10.7898L29.5629 11.6882L28.4198 12.0206V10.7898Z" fill="black"/>
<path d="M29.1045 0.542338C29.2907 0.542438 29.8487 0.943839 29.8487 0.943839V8.67994V10.7898L29.5629 11.6882L28.4198 12.0206V10.7898V8.67994C28.4198 8.67994 28.4198 3.63894 28.4198 2.50034C28.4198 2.01304 28.5458 1.12974 28.1733 0.93394C28.4198 0.71814 28.8762 0.513138 29.1045 0.542338ZM29.1045 0.542338C28.9298 0.542338 29.2779 0.564538 29.1045 0.542338V0.542338Z" stroke="black"/>
<path d="M29.5715 11.7022C29.5715 11.7022 34.6455 3.28343 36.1684 3.28343C37.6912 3.28343 37.1125 8.05653 37.1125 8.05653H39.483C39.483 8.05653 39.024 1.52133 37.1124 0.738127C36.6315 0.541127 35.5046 1.71713 34.75 2.69603C33.313 4.56033 29.5715 10.9191 29.5715 10.9191L28.4197 12.1686V13.6601L29.5715 11.7022Z" fill="black" stroke="black"/>
<path d="M29.8528 7.74023C29.9563 8.14233 30.373 8.62583 31.2194 8.17773L29.8528 10.6635V7.74023C29.8171 7.60143 29.8187 7.47233 29.8528 7.39453V7.74023Z" fill="black"/>
<path d="M31.2195 8.17773C30.0811 8.78043 29.7199 7.69773 29.8529 7.39453V10.6635L31.2195 8.17773Z" stroke="black"/>
<path fill-rule="evenodd" clip-rule="evenodd" d="M46.624 12.8571L45.435 13.4444V6.40771C45.435 6.04031 45.438 5.70371 45.441 5.39621C45.46 3.43971 45.467 2.66291 44.586 2.66291C43.567 2.66291 40 7.65591 40 7.65591L39.749 8.05261H38.4917C39.566 6.77561 44.852 0.563306 45.877 0.739006C47.019 0.934806 46.624 5.36751 46.624 5.36751V12.8571Z" fill="black"/>
<path d="M45.435 13.444H44.935V14.2486L45.657 13.8923L45.435 13.444ZM46.624 12.8567L46.846 13.305L47.124 13.1674V12.8567H46.624ZM45.441 5.39577L45.941 5.40047L45.441 5.39577ZM40 7.65547L39.593 7.36487L39.585 7.37627L39.577 7.38797L40 7.65547ZM39.749 8.05217V8.55217H40.024L40.171 8.31967L39.749 8.05217ZM38.4917 8.05217L38.1091 7.73027L37.4177 8.55217H38.4917V8.05217ZM45.877 0.738569L45.961 0.245669L45.877 0.738569ZM46.624 5.36707L46.126 5.32267L46.124 5.34477V5.36707H46.624ZM45.657 13.8923L46.846 13.305L46.403 12.4084L45.214 12.9957L45.657 13.8923ZM44.935 6.40727V13.444H45.935V6.40727H44.935ZM44.941 5.39117C44.938 5.69847 44.935 6.03727 44.935 6.40727H45.935C45.935 6.04257 45.938 5.70807 45.941 5.40047L44.941 5.39117ZM44.586 3.16247C44.734 3.16247 44.769 3.19457 44.772 3.19697C44.781 3.20437 44.824 3.24617 44.865 3.41287C44.952 3.77557 44.951 4.37887 44.941 5.39117L45.941 5.40047C45.95 4.45617 45.961 3.69287 45.837 3.17797C45.771 2.90587 45.653 2.63127 45.416 2.43177C45.173 2.22747 44.878 2.16247 44.586 2.16247V3.16247ZM40 7.65547C40.407 7.94617 40.407 7.94617 40.407 7.94617V7.94607C40.407 7.94597 40.407 7.94577 40.407 7.94547C40.407 7.94497 40.408 7.94407 40.409 7.94297C40.41 7.94077 40.413 7.93727 40.416 7.93277C40.423 7.92357 40.433 7.90987 40.446 7.89187C40.472 7.85597 40.51 7.80307 40.559 7.73547C40.658 7.60047 40.8 7.40707 40.973 7.17497C41.321 6.71017 41.794 6.09207 42.298 5.47517C42.804 4.85597 43.331 4.24857 43.789 3.79977C44.019 3.57447 44.22 3.40067 44.383 3.28667C44.571 3.15527 44.626 3.16247 44.586 3.16247V2.16247C44.291 2.16247 44.012 2.32567 43.81 2.46737C43.582 2.62637 43.337 2.84267 43.09 3.08547C42.592 3.57287 42.037 4.21377 41.523 4.84277C41.008 5.47417 40.526 6.10427 40.173 6.57577C39.996 6.81167 39.852 7.00847 39.751 7.14647C39.701 7.21547 39.661 7.26977 39.635 7.30697C39.621 7.32557 39.611 7.33987 39.604 7.34967C39.6 7.35457 39.598 7.35827 39.596 7.36077C39.595 7.36207 39.594 7.36307 39.594 7.36377C39.593 7.36407 39.593 7.36437 39.593 7.36457C39.593 7.36467 39.593 7.36467 39.593 7.36477C39.593 7.36487 39.593 7.36487 40 7.65547ZM40.171 8.31967L40.422 7.92307L39.577 7.38797L39.326 7.78467L40.171 8.31967ZM38.4917 8.55217H39.749V7.55217H38.4917V8.55217ZM45.961 0.245669C45.769 0.212769 45.589 0.260969 45.459 0.310169C45.321 0.362869 45.179 0.440269 45.041 0.527969C44.764 0.703869 44.447 0.95667 44.111 1.25227C43.436 1.84597 42.633 2.65977 41.838 3.50877C40.245 5.20947 38.6476 7.09007 38.1091 7.73027L38.8743 8.37397C39.41 7.73727 40.993 5.87317 42.568 4.19247C43.356 3.35067 44.134 2.56457 44.772 2.00297C45.092 1.72087 45.365 1.50717 45.577 1.37197C45.684 1.30417 45.762 1.26487 45.814 1.24517C45.875 1.22207 45.857 1.24237 45.792 1.23137L45.961 0.245669ZM46.624 5.36707C47.122 5.41137 47.122 5.41127 47.122 5.41117C47.122 5.41117 47.122 5.41097 47.122 5.41087C47.122 5.41067 47.122 5.41037 47.122 5.41007C47.123 5.40937 47.123 5.40837 47.123 5.40717C47.123 5.40467 47.123 5.40107 47.124 5.39657C47.124 5.38747 47.126 5.37427 47.127 5.35727C47.13 5.32317 47.133 5.27387 47.138 5.21127C47.147 5.08627 47.158 4.90817 47.168 4.69417C47.187 4.26747 47.201 3.69207 47.178 3.10677C47.156 2.52837 47.096 1.90967 46.957 1.40997C46.888 1.16107 46.79 0.911069 46.646 0.705769C46.498 0.496269 46.276 0.299669 45.961 0.245669L45.792 1.23137C45.763 1.22637 45.778 1.21107 45.828 1.28147C45.88 1.35607 45.94 1.48447 45.994 1.67867C46.102 2.06517 46.158 2.59137 46.179 3.14567C46.201 3.69297 46.187 4.23797 46.169 4.64847C46.159 4.85317 46.149 5.02297 46.14 5.14107C46.136 5.20007 46.133 5.24617 46.13 5.27717C46.129 5.29267 46.128 5.30437 46.127 5.31207C46.127 5.31587 46.127 5.31877 46.127 5.32047C46.126 5.32137 46.126 5.32207 46.126 5.32237C46.126 5.32257 46.126 5.32267 46.126 5.32277C46.126 5.32277 46.126 5.32267 46.624 5.36707ZM47.124 12.8567V5.36707H46.124V12.8567H47.124Z" fill="black"/>
<path d="M39.7849 7.1995L41.1179 5.0459C41.1179 5.0459 40.4519 6.0575 39.7849 5.829C39.1189 5.6006 39.0239 4.8501 39.0239 4.8501V5.829L39.7849 7.1995Z" fill="black" stroke="black"/>
<path d="M102.582 7.2085L98.45 17.6669L94.296 7.2085H90V21.7919H92.762V9.896L97.468 21.7919H99.411L104.117 9.9169V21.7919H106.899V7.2085H102.582Z" fill="#263238"/>
<path d="M120.949 7.2085H109.022V9.6877H113.543V21.7919H116.367V9.6877H120.949V7.2085Z" fill="#263238"/>
<path d="M133.026 7.2085H127.482V21.7919H133.026C137.363 21.7919 140.637 18.7294 140.637 14.5002C140.637 10.2919 137.363 7.2085 133.026 7.2085ZM133.067 19.271H130.264V9.7085H133.067C135.829 9.7085 137.813 11.7502 137.813 14.5002C137.813 17.271 135.849 19.271 133.067 19.271Z" fill="#263238"/>
<path d="M152.397 16.2085C152.397 12.9585 150.392 10.9585 147.487 10.9585C144.5 10.9585 142.249 13.0419 142.249 16.271C142.249 19.8752 144.397 22.0002 148.1 22.0002C148.919 22.0002 150.208 21.8752 151.783 21.396V19.0627C150.167 19.6877 149.205 19.8752 148.325 19.8752C146.259 19.8752 145.175 19.0835 144.929 17.1877H152.397V16.2085ZM147.507 12.9169C148.919 12.9169 149.717 13.8752 149.921 15.4169H144.929C145.154 13.8335 146.075 12.9169 147.507 12.9169Z" fill="#263238"/>
<path d="M160.547 10.9585C159.074 10.9585 158.03 11.7294 157.171 12.896V11.1669H154.43V21.7919H157.171V14.9794C157.928 14.0627 158.705 13.4794 159.647 13.4794C160.608 13.4794 161.386 14.0419 161.386 15.3335V21.7919H164.107V14.7085C164.107 12.271 162.531 10.9585 160.547 10.9585Z" fill="#263238"/>
<path d="M173.003 13.3335V11.1669H169.934V8.3335H167.213V11.1669H165.72V13.3335H167.213V18.271C167.213 20.5627 168.563 22.0002 170.916 22.0002C171.591 22.0002 172.062 21.9794 172.758 21.8127V19.396C171.939 19.5835 171.591 19.6044 171.325 19.6044C170.364 19.6044 169.934 19.021 169.934 17.8752V13.3335H173.003Z" fill="#263238"/>
<path d="M178.985 10.9585C178.309 10.9585 176.898 11.0002 175.138 11.5419V14.0835C176.693 13.1877 177.737 13.0835 178.33 13.0835C179.987 13.0835 180.744 13.9377 180.744 15.2502V16.3127C179.946 15.396 178.944 15.0419 177.818 15.0419C175.609 15.0419 174.034 16.5419 174.034 18.521C174.034 20.5002 175.588 22.0002 177.778 22.0002C178.964 22.0002 179.987 21.5002 180.744 20.5419V21.7919H183.465V15.146C183.465 12.4585 181.767 10.9585 178.985 10.9585ZM178.616 20.2085C177.532 20.2085 176.714 19.4794 176.714 18.521C176.714 17.5627 177.532 16.8335 178.637 16.8335C179.312 16.8335 180.028 17.0835 180.744 18.021V19.021C180.028 19.9377 179.312 20.2085 178.616 20.2085Z" fill="#263238"/>
<path d="M185.855 21.7919H188.576V7.2085H185.855V21.7919Z" fill="#263238"/>
<path d="M203.058 22C204.183 22 205.452 21.8125 207.109 21.25V18.5C205.268 19.2708 204.081 19.4792 203.079 19.4792C199.826 19.4792 197.902 17.2292 197.902 14.5208C197.902 11.7917 199.826 9.5 203.079 9.5C204.081 9.5 205.268 9.7083 207.109 10.5V7.75C205.452 7.1875 204.183 7 203.058 7C198.209 7 195.038 10.3542 195.038 14.5208C195.038 18.6667 198.209 22 203.058 22Z" fill="#263238"/>
<path d="M219.288 16.2085C219.288 12.9585 217.283 10.9585 214.378 10.9585C211.391 10.9585 209.14 13.0419 209.14 16.271C209.14 19.8752 211.289 22.0002 214.992 22.0002C215.81 22.0002 217.099 21.8752 218.674 21.396V19.0627C217.058 19.6877 216.096 19.8752 215.217 19.8752C213.15 19.8752 212.066 19.0835 211.821 17.1877H219.288V16.2085ZM214.398 12.9169C215.81 12.9169 216.608 13.8752 216.813 15.4169H211.821C212.046 13.8335 212.966 12.9169 214.398 12.9169Z" fill="#263238"/>
<path d="M227.438 10.9585C225.965 10.9585 224.922 11.7294 224.062 12.896V11.1669H221.321V21.7919H224.062V14.9794C224.819 14.0627 225.597 13.4794 226.538 13.4794C227.499 13.4794 228.277 14.0419 228.277 15.3335V21.7919H230.998V14.7085C230.998 12.271 229.423 10.9585 227.438 10.9585Z" fill="#263238"/>
<path d="M239.894 13.3335V11.1669H236.826V8.3335H234.105V11.1669H232.611V13.3335H234.105V18.271C234.105 20.5627 235.455 22.0002 237.808 22.0002C238.483 22.0002 238.953 21.9794 239.649 21.8127V19.396C238.831 19.5835 238.483 19.6044 238.217 19.6044C237.255 19.6044 236.826 19.021 236.826 17.8752V13.3335H239.894Z" fill="#263238"/>
<path d="M251.195 16.2085C251.195 12.9585 249.19 10.9585 246.285 10.9585C243.298 10.9585 241.048 13.0419 241.048 16.271C241.048 19.8752 243.196 22.0002 246.899 22.0002C247.717 22.0002 249.006 21.8752 250.582 21.396V19.0627C248.965 19.6877 248.004 19.8752 247.124 19.8752C245.058 19.8752 243.973 19.0835 243.728 17.1877H251.195V16.2085ZM246.306 12.9169C247.717 12.9169 248.515 13.8752 248.72 15.4169H243.728C243.953 13.8335 244.873 12.9169 246.306 12.9169Z" fill="#263238"/>
<path d="M255.99 13.4794V11.1669H253.228V21.7919H255.99V15.021C256.768 14.1252 258.015 13.8335 260 13.8335V10.9585C257.606 10.9585 256.563 12.2502 255.99 13.4794Z" fill="#263238"/>
<path d="M94.978 29.5112V34.3825L91.597 29.5112H90V36.2636H91.329V31.3343L94.71 36.2636H96.307V29.5112H94.978Z" fill="#263238"/>
<path d="M102.29 33.6785C102.29 32.1736 101.318 31.2476 99.9101 31.2476C98.4621 31.2476 97.3711 32.2122 97.3711 33.7074C97.3711 35.3762 98.4121 36.3601 100.207 36.3601C100.604 36.3601 101.229 36.3023 101.992 36.0804V35C101.209 35.2894 100.743 35.3762 100.316 35.3762C99.3151 35.3762 98.7891 35.0096 98.6701 34.1318H102.29V33.6785ZM99.9201 32.1543C100.604 32.1543 100.991 32.5981 101.09 33.3119H98.6701C98.7791 32.5788 99.2261 32.1543 99.9201 32.1543Z" fill="#263238"/>
<path d="M107.847 31.3442H106.31L105.328 33.0226L104.336 31.3442H102.809L104.435 33.7943L102.809 36.2638H104.336L105.328 34.5081L106.31 36.2638H107.847L106.22 33.7943L107.847 31.3442Z" fill="#263238"/>
<path d="M111.774 32.3473V31.3441H110.287V30.0322H108.968V31.3441H108.244V32.3473H108.968V34.6334C108.968 35.6945 109.622 36.3601 110.763 36.3601C111.09 36.3601 111.318 36.3505 111.655 36.2733V35.1543C111.259 35.2412 111.09 35.2508 110.961 35.2508C110.495 35.2508 110.287 34.9807 110.287 34.4502V32.3473H111.774Z" fill="#263238"/>
<path d="M118.064 32.3764V33.4568H119.73V34.9906C119.214 35.1545 118.857 35.1931 118.431 35.1931C116.854 35.1931 115.922 34.1417 115.922 32.8877C115.922 31.624 116.854 30.5725 118.431 30.5725C118.917 30.5725 119.591 30.669 120.483 31.0356V29.7623C119.68 29.5018 118.966 29.415 118.421 29.415C116.07 29.415 114.533 30.9584 114.533 32.8877C114.533 34.8073 116.061 36.3603 118.5 36.3603C119.165 36.3603 119.789 36.2928 120.969 35.8105V32.3764H118.064Z" fill="#263238"/>
<path d="M126.869 33.6785C126.869 32.1736 125.897 31.2476 124.489 31.2476C123.041 31.2476 121.95 32.2122 121.95 33.7074C121.95 35.3762 122.991 36.3601 124.786 36.3601C125.183 36.3601 125.808 36.3023 126.571 36.0804V35C125.788 35.2894 125.322 35.3762 124.895 35.3762C123.894 35.3762 123.368 35.0096 123.249 34.1318H126.869V33.6785ZM124.499 32.1543C125.183 32.1543 125.57 32.5981 125.669 33.3119H123.249C123.358 32.5788 123.804 32.1543 124.499 32.1543Z" fill="#263238"/>
<path d="M130.819 31.2476C130.105 31.2476 129.599 31.6045 129.183 32.1447V31.3441H127.854V36.2637H129.183V33.1093C129.55 32.6849 129.927 32.4148 130.383 32.4148C130.849 32.4148 131.226 32.6752 131.226 33.2733V36.2637H132.545V32.9839C132.545 31.8553 131.781 31.2476 130.819 31.2476Z" fill="#263238"/>
<path d="M138.403 33.6785C138.403 32.1736 137.431 31.2476 136.023 31.2476C134.575 31.2476 133.484 32.2122 133.484 33.7074C133.484 35.3762 134.525 36.3601 136.32 36.3601C136.717 36.3601 137.342 36.3023 138.105 36.0804V35C137.322 35.2894 136.856 35.3762 136.429 35.3762C135.428 35.3762 134.902 35.0096 134.783 34.1318H138.403V33.6785ZM136.033 32.1543C136.717 32.1543 137.104 32.5981 137.203 33.3119H134.783C134.892 32.5788 135.338 32.1543 136.033 32.1543Z" fill="#263238"/>
<path d="M140.727 32.4148V31.3441H139.388V36.2637H140.727V33.1286C141.104 32.7138 141.709 32.5788 142.67 32.5788V31.2476C141.51 31.2476 141.004 31.8457 140.727 32.4148Z" fill="#263238"/>
<path d="M145.383 31.2476C145.056 31.2476 144.371 31.2669 143.518 31.5177V32.6945C144.272 32.2797 144.778 32.2315 145.065 32.2315C145.869 32.2315 146.236 32.627 146.236 33.2347V33.7267C145.849 33.3023 145.363 33.1383 144.818 33.1383C143.747 33.1383 142.983 33.8328 142.983 34.7492C142.983 35.6656 143.737 36.3601 144.798 36.3601C145.373 36.3601 145.869 36.1286 146.236 35.6849V36.2637H147.555V33.1865C147.555 31.9421 146.731 31.2476 145.383 31.2476ZM145.204 35.5305C144.679 35.5305 144.282 35.1929 144.282 34.7492C144.282 34.3055 144.679 33.9678 145.214 33.9678C145.541 33.9678 145.889 34.0836 146.236 34.5177V34.9807C145.889 35.4051 145.541 35.5305 145.204 35.5305Z" fill="#263238"/>
<path d="M151.868 32.3473V31.3441H150.38V30.0322H149.061V31.3441H148.337V32.3473H149.061V34.6334C149.061 35.6945 149.716 36.3601 150.856 36.3601C151.183 36.3601 151.411 36.3505 151.749 36.2733V35.1543C151.352 35.2412 151.183 35.2508 151.054 35.2508C150.588 35.2508 150.38 34.9807 150.38 34.4502V32.3473H151.868Z" fill="#263238"/>
<path d="M153.458 30.5627C153.914 30.5627 154.271 30.2154 154.271 29.7717C154.271 29.328 153.914 29 153.458 29C152.992 29 152.645 29.328 152.645 29.7717C152.645 30.2154 152.992 30.5627 153.458 30.5627ZM152.794 36.2637H154.112V31.3441H152.794V36.2637Z" fill="#263238"/>
<path d="M157.913 36.3601C159.461 36.3601 160.631 35.2508 160.631 33.7749C160.631 32.328 159.461 31.2476 157.913 31.2476C156.366 31.2476 155.196 32.328 155.196 33.7749C155.196 35.2508 156.366 36.3601 157.913 36.3601ZM157.913 35.299C157.11 35.299 156.515 34.672 156.515 33.7942C156.515 32.926 157.11 32.3087 157.913 32.3087C158.717 32.3087 159.322 32.926 159.322 33.7942C159.322 34.672 158.717 35.299 157.913 35.299Z" fill="#263238"/>
<path d="M164.579 31.2476C163.865 31.2476 163.359 31.6045 162.942 32.1447V31.3441H161.614V36.2637H162.942V33.1093C163.309 32.6849 163.686 32.4148 164.142 32.4148C164.608 32.4148 164.985 32.6752 164.985 33.2733V36.2637H166.304V32.9839C166.304 31.8553 165.541 31.2476 164.579 31.2476Z" fill="#263238"/>
<path d="M174.362 29.5112V32.27H171.08V29.5112H169.731V36.2636H171.08V33.4372H174.362V36.2636H175.711V29.5112H174.362Z" fill="#263238"/>
<path d="M177.804 30.5627C178.261 30.5627 178.618 30.2154 178.618 29.7717C178.618 29.328 178.261 29 177.804 29C177.338 29 176.991 29.328 176.991 29.7717C176.991 30.2154 177.338 30.5627 177.804 30.5627ZM177.14 36.2637H178.459V31.3441H177.14V36.2637Z" fill="#263238"/>
<path d="M183.42 31.3441V32.0772C183.063 31.5563 182.538 31.2476 181.804 31.2476C180.485 31.2476 179.543 32.2701 179.543 33.6206C179.543 34.9711 180.485 36.0032 181.794 36.0032C182.548 36.0032 183.073 35.6945 183.42 35.1736V35.8585C183.42 36.6013 182.795 37.0354 181.913 37.0354C181.367 37.0354 180.802 36.8521 179.92 36.3794V37.5563C180.634 37.8842 181.318 38 181.933 38C183.579 38 184.739 37.0932 184.739 35.9357V31.3441H183.42ZM182.21 34.9807C181.437 34.9807 180.852 34.3923 180.852 33.6109C180.852 32.8489 181.437 32.2797 182.2 32.2797C182.726 32.2797 183.172 32.5691 183.42 33.0418V34.209C183.172 34.6817 182.736 34.9807 182.21 34.9807Z" fill="#263238"/>
<path d="M188.954 31.2475C188.24 31.2475 187.734 31.6044 187.318 32.1446V29.5112H185.989V36.2636H187.318V33.1092C187.685 32.6848 188.062 32.4147 188.518 32.4147C188.984 32.4147 189.361 32.6751 189.361 33.2732V36.2636H190.68V32.9838C190.68 31.8552 189.916 31.2475 188.954 31.2475Z" fill="#263238"/>
<path d="M194.992 32.3473V31.3441H193.504V30.0322H192.186V31.3441H191.462V32.3473H192.186V34.6334C192.186 35.6945 192.84 36.3601 193.98 36.3601C194.308 36.3601 194.536 36.3505 194.873 36.2733V35.1543C194.476 35.2412 194.308 35.2508 194.179 35.2508C193.713 35.2508 193.504 34.9807 193.504 34.4502V32.3473H194.992Z" fill="#263238"/>
<path d="M200.47 33.6785C200.47 32.1736 199.498 31.2476 198.09 31.2476C196.642 31.2476 195.551 32.2122 195.551 33.7074C195.551 35.3762 196.592 36.3601 198.387 36.3601C198.784 36.3601 199.409 36.3023 200.172 36.0804V35C199.389 35.2894 198.923 35.3762 198.496 35.3762C197.495 35.3762 196.969 35.0096 196.85 34.1318H200.47V33.6785ZM198.1 32.1543C198.784 32.1543 199.171 32.5981 199.27 33.3119H196.85C196.959 32.5788 197.405 32.1543 198.1 32.1543Z" fill="#263238"/>
<path d="M204.004 36.3601C204.38 36.3601 204.866 36.3119 205.362 36.1672V35C204.866 35.1736 204.549 35.2797 204.063 35.2797C203.161 35.2797 202.496 34.6334 202.496 33.7942C202.496 32.955 203.161 32.328 204.063 32.328C204.549 32.328 204.866 32.4244 205.362 32.5981V31.4116C204.866 31.3055 204.38 31.2476 203.984 31.2476C202.387 31.2476 201.187 32.2797 201.187 33.7942C201.187 35.328 202.397 36.3601 204.004 36.3601Z" fill="#263238"/>
<path d="M209.427 31.2475C208.713 31.2475 208.207 31.6044 207.791 32.1446V29.5112H206.462V36.2636H207.791V33.1092C208.158 32.6848 208.534 32.4147 208.991 32.4147C209.457 32.4147 209.833 32.6751 209.833 33.2732V36.2636H211.152V32.9838C211.152 31.8552 210.389 31.2475 209.427 31.2475Z" fill="#263238"/>
<path d="M217.267 29.5112H214.579V36.2636H217.267C219.369 36.2636 220.956 34.8456 220.956 32.8874C220.956 30.9388 219.369 29.5112 217.267 29.5112ZM217.287 35.0964H215.928V30.6687H217.287C218.625 30.6687 219.587 31.614 219.587 32.8874C219.587 34.1703 218.635 35.0964 217.287 35.0964Z" fill="#263238"/>
<path d="M226.656 33.6785C226.656 32.1736 225.684 31.2476 224.276 31.2476C222.828 31.2476 221.737 32.2122 221.737 33.7074C221.737 35.3762 222.779 36.3601 224.574 36.3601C224.97 36.3601 225.595 36.3023 226.359 36.0804V35C225.575 35.2894 225.109 35.3762 224.683 35.3762C223.681 35.3762 223.156 35.0096 223.037 34.1318H226.656V33.6785ZM224.286 32.1543C224.97 32.1543 225.357 32.5981 225.456 33.3119H223.037C223.146 32.5788 223.592 32.1543 224.286 32.1543Z" fill="#263238"/>
<path d="M230.607 31.2476C229.893 31.2476 229.387 31.6045 228.97 32.1447V31.3441H227.641V36.2637H228.97V33.1093C229.337 32.6849 229.714 32.4148 230.17 32.4148C230.636 32.4148 231.013 32.6752 231.013 33.2733V36.2637H232.332V32.9839C232.332 31.8553 231.568 31.2476 230.607 31.2476Z" fill="#263238"/>
<path d="M236.644 32.3473V31.3441H235.157V30.0322H233.838V31.3441H233.114V32.3473H233.838V34.6334C233.838 35.6945 234.492 36.3601 235.633 36.3601C235.96 36.3601 236.188 36.3505 236.525 36.2733V35.1543C236.129 35.2412 235.96 35.2508 235.831 35.2508C235.365 35.2508 235.157 34.9807 235.157 34.4502V32.3473H236.644Z" fill="#263238"/>
<path d="M238.235 30.5627C238.691 30.5627 239.048 30.2154 239.048 29.7717C239.048 29.328 238.691 29 238.235 29C237.769 29 237.421 29.328 237.421 29.7717C237.421 30.2154 237.769 30.5627 238.235 30.5627ZM237.57 36.2637H238.889V31.3441H237.57V36.2637Z" fill="#263238"/>
<path d="M242.056 36.3601C243.325 36.3601 243.989 35.6752 243.989 34.7781C243.989 32.955 241.292 33.5338 241.292 32.627C241.292 32.3183 241.56 32.135 242.056 32.135C242.532 32.135 243.206 32.3183 243.751 32.6077L243.761 31.4887C243.255 31.3248 242.512 31.2476 242.065 31.2476C240.806 31.2476 239.983 31.8167 239.983 32.7524C239.983 34.4695 242.68 33.9486 242.68 34.9228C242.68 35.2412 242.413 35.4244 241.897 35.4244C241.282 35.4244 240.628 35.1061 239.983 34.7396V35.9453C240.766 36.2637 241.58 36.3601 242.056 36.3601Z" fill="#263238"/>
<path d="M248.12 32.3473V31.3441H246.633V30.0322H245.314V31.3441H244.59V32.3473H245.314V34.6334C245.314 35.6945 245.968 36.3601 247.109 36.3601C247.436 36.3601 247.664 36.3505 248.001 36.2733V35.1543C247.605 35.2412 247.436 35.2508 247.307 35.2508C246.841 35.2508 246.633 34.9807 246.633 34.4502V32.3473H248.12Z" fill="#263238"/>
<path d="M250.286 32.4148V31.3441H248.947V36.2637H250.286V33.1286C250.663 32.7138 251.268 32.5788 252.229 32.5788V31.2476C251.069 31.2476 250.563 31.8457 250.286 32.4148Z" fill="#263238"/>
<path d="M256.522 31.3442L255.422 34.7204L254.113 31.3442H252.655L254.787 35.9069L253.686 37.8843H255.303L258 31.3442H256.522Z" fill="#263238"/>
</svg>
