<svg width="191" height="155" viewBox="0 0 191 155" fill="none" xmlns="http://www.w3.org/2000/svg">
<path d="M27.5062 25.6655C27.5062 25.6655 2.05002 29.2484 0.216797 57.8276L17.8026 62.0075L27.5062 25.6655Z" fill="#68E1FD"/>
<path opacity="0.46" d="M27.5062 25.6655C27.5062 25.6655 2.05002 29.2484 0.216797 57.8276L17.8026 62.0075L27.5062 25.6655Z" fill="white"/>
<path d="M121.992 1.34961H77.5227V56.7763H121.992V1.34961Z" fill="#E6E6E6"/>
<path d="M140.694 72.9888H118.701V76.3985H140.694V72.9888Z" fill="#036792"/>
<path d="M142.593 69.5854H120.601V72.9951H142.593V69.5854Z" fill="#036792"/>
<path opacity="0.08" d="M142.593 69.5854H120.601V72.9951H142.593V69.5854Z" fill="black"/>
<path opacity="0.45" d="M99.1333 154.338C149.611 154.338 190.532 149.389 190.532 143.285C190.532 137.18 149.611 132.231 99.1333 132.231C48.6553 132.231 7.73486 137.18 7.73486 143.285C7.73486 149.389 48.6553 154.338 99.1333 154.338Z" fill="#E6E6E6"/>
<path d="M165.052 76.3989H32.9939V142.246H165.052V76.3989Z" fill="#E6E6E6"/>
<path d="M165.052 76.3989H32.9939V85.0575H165.052V76.3989Z" fill="#E6E6E6"/>
<path opacity="0.08" d="M98.769 77.6947C98.769 77.6947 102.352 95.609 88.6176 101.98C74.8834 108.352 73.8384 125.197 84.1868 142.252H37.365L40.2253 91.8291L67.6938 76.3989L91.5795 76.6975L98.769 77.6947Z" fill="black"/>
<path d="M1.71546 58.1978C1.71546 58.1978 -6.09515 87.2248 11.6161 87.2785L17.4382 72.35L14.5182 61.2551L1.71546 58.1978Z" fill="#F4A28C"/>
<path opacity="0.31" d="M1.71546 58.1978C1.71546 58.1978 -6.09515 87.2248 11.6161 87.2785L17.4382 72.35L14.5182 61.2551L1.71546 58.1978Z" fill="#CE8172"/>
<path d="M33.9852 139.654C33.9852 139.654 33.0596 142.257 30.7129 142.46C28.3661 142.663 27.7272 144.968 29.8709 145.56C32.0146 146.151 37.4188 143.416 37.4188 143.416L37.2575 140.03L33.9852 139.654Z" fill="#24285B"/>
<path d="M68.3866 139.254C68.3866 139.254 69.3121 141.857 71.6589 142.066C74.0057 142.275 74.6147 144.568 72.5009 145.16C70.387 145.751 64.947 143.022 64.947 143.022L65.1142 139.63L68.3866 139.254Z" fill="#24285B"/>
<path opacity="0.58" d="M137.977 68.1821C137.977 68.1821 131.456 66.4325 130.017 60.3775C130.017 60.3775 140.091 58.2995 140.426 68.7375L137.977 68.1821Z" fill="#68E1FD"/>
<path opacity="0.73" d="M138.747 67.531C138.747 67.531 134.167 60.3653 138.15 53.6235C138.15 53.6235 145.836 58.4604 142.468 67.531H138.747Z" fill="#68E1FD"/>
<path d="M139.918 67.531C139.918 67.531 142.307 59.9294 149.544 58.4604C149.544 58.4604 150.923 63.3869 144.88 67.531H139.918Z" fill="#68E1FD"/>
<path d="M135.195 67.3818L136.556 76.3987H144.863L146.051 67.3818H135.195Z" fill="#24285B"/>
<path d="M51.0753 10.2474L49.6004 8.79636C49.3496 7.24379 49.0451 6.07339 49.0451 6.07339C48.5076 3.44 44.3694 2.16212 42.2138 4.33571C41.5992 4.87958 41.1695 5.60146 40.9843 6.40093C40.7992 7.20041 40.8678 8.03771 41.1807 8.79636L43.1154 12.3792C43.9813 14.5886 45.9817 15.2216 47.4865 15.3649C47.7759 15.3895 48.0673 15.3567 48.3441 15.2685C48.6208 15.1803 48.8774 15.0385 49.0993 14.851C49.3211 14.6635 49.5038 14.4342 49.637 14.176C49.7701 13.9179 49.851 13.636 49.8751 13.3466C49.9082 12.8256 49.9082 12.303 49.8751 11.7821L50.7947 11.4417C50.9145 11.4068 51.0228 11.3407 51.1087 11.2501C51.1946 11.1596 51.2549 11.0479 51.2834 10.9264C51.3119 10.805 51.3077 10.6781 51.2712 10.5588C51.2346 10.4395 51.167 10.332 51.0753 10.2474Z" fill="#F4A28C"/>
<path d="M41.4256 10.3965L40.2253 24.7697L48.1912 24.8652L45.9221 14.6302L41.4256 10.3965Z" fill="#F4A28C"/>
<path d="M38.6787 6.34208C40.1656 7.09447 40.3746 8.93367 40.7627 10.5221L41.2345 12.4986C41.9158 12.6383 42.6245 12.5358 43.2382 12.2087C43.852 11.8817 44.3324 11.3506 44.5964 10.7072C44.9382 9.95823 45.0079 9.11346 44.7934 8.31862C44.7405 8.13749 44.7286 7.94687 44.7585 7.76057C44.7884 7.57426 44.8593 7.39693 44.9662 7.24145C45.0731 7.08596 45.2133 6.95621 45.3765 6.86159C45.5398 6.76697 45.722 6.70986 45.9101 6.69439L46.5669 6.6287C47.4183 6.52398 48.2348 6.22797 48.9555 5.76285L48.7226 2.65771" fill="#24285B"/>
<path d="M45.0382 10.5517C45.0382 10.5517 44.7276 8.88566 43.4916 9.22603C42.2555 9.5664 42.6974 11.9729 44.441 11.9132L45.0382 10.5517Z" fill="#F4A28C"/>
<path opacity="0.31" d="M46.0176 14.9229C45.0576 14.7395 44.1657 14.2976 43.438 13.645C43.438 13.645 42.8827 16.7561 46.6685 17.825L46.0176 14.9229Z" fill="#CE8172"/>
<path d="M28.7003 25.3849C28.7003 25.3849 49.3375 19.1865 70.3688 27.9347C91.4001 36.6828 59.4471 92.9156 59.4471 92.9156H27.2254C27.2254 92.9156 -2.64365 31.7146 28.7003 25.3849Z" fill="#68E1FD"/>
<path d="M89.2922 14.0868C90.8422 14.0868 92.0987 12.8302 92.0987 11.2802C92.0987 9.73017 90.8422 8.47363 89.2922 8.47363C87.7421 8.47363 86.4856 9.73017 86.4856 11.2802C86.4856 12.8302 87.7421 14.0868 89.2922 14.0868Z" fill="#C9C9C9"/>
<path d="M94.7504 17.628C94.3861 15.5858 89.5254 15.7411 89.2686 15.747C89.0118 15.753 84.1571 15.5858 83.7928 17.628C83.4883 19.3299 82.3537 26.1731 81.9357 28.705C81.884 28.966 81.9363 29.2368 82.0812 29.4599C82.2262 29.6829 82.4525 29.8406 82.712 29.8993C82.8438 29.9293 82.9801 29.933 83.1133 29.9102C83.2465 29.8874 83.3739 29.8385 83.4882 29.7664C83.6024 29.6943 83.7013 29.6004 83.7792 29.49C83.8571 29.3795 83.9125 29.2549 83.9421 29.123L85.9545 20.1241L86.3307 30.1262L85.9843 44.8995C85.9822 45.1929 86.0882 45.4768 86.282 45.6971C86.4759 45.9174 86.744 46.0586 87.0353 46.0938C87.1969 46.1136 87.3609 46.1002 87.5171 46.0544C87.6734 46.0086 87.8186 45.9312 87.9439 45.8272C88.0692 45.7232 88.1719 45.5947 88.2456 45.4495C88.3194 45.3043 88.3627 45.1456 88.3729 44.9831L89.0059 34.8317C89.0059 34.762 89.0335 34.6952 89.0828 34.6459C89.1321 34.5966 89.1989 34.5689 89.2686 34.5689C89.3383 34.5689 89.4051 34.5966 89.4544 34.6459C89.5037 34.6952 89.5314 34.762 89.5314 34.8317L90.1703 44.9831C90.1805 45.1456 90.2238 45.3043 90.2976 45.4495C90.3713 45.5947 90.474 45.7232 90.5993 45.8272C90.7246 45.9312 90.8698 46.0086 91.026 46.0544C91.1823 46.1002 91.3463 46.1136 91.5079 46.0938C91.7992 46.0586 92.0673 45.9174 92.2612 45.6971C92.455 45.4768 92.561 45.1929 92.5589 44.8995L92.2125 30.1262L92.5947 20.0942L94.5951 29.0991C94.6247 29.231 94.6801 29.3557 94.758 29.4661C94.8359 29.5765 94.9348 29.6704 95.0491 29.7425C95.1633 29.8147 95.2907 29.8635 95.4239 29.8863C95.5571 29.9091 95.6935 29.9054 95.8252 29.8754C96.085 29.8166 96.3118 29.6592 96.4578 29.4364C96.6037 29.2136 96.6574 28.9428 96.6075 28.6811C96.1775 26.1731 95.0489 19.3299 94.7504 17.628Z" fill="#C9C9C9"/>
<path d="M47.773 10.3967H51.4991L49.9227 15.6814L43.4915 12.0985V11.6268L45.4859 12.6837C45.6039 12.7477 45.7366 12.7796 45.8708 12.776C46.005 12.7724 46.1359 12.7336 46.2503 12.6633C46.3647 12.5931 46.4586 12.494 46.5225 12.376C46.5864 12.258 46.6182 12.1252 46.6145 11.991C46.5981 11.6295 46.484 11.2791 46.2842 10.9773C46.0844 10.6755 45.8064 10.4335 45.4799 10.2772L44.8828 9.97867L44.3812 9.3457L45.6412 9.94284C46.312 10.2421 47.0384 10.3968 47.773 10.3967Z" fill="#68E1FD"/>
<path opacity="0.08" d="M32.5223 39.4297H40.1716L43.8202 61.715H33.9196C33.9196 61.715 29.7874 80.0652 44.071 92.9156H27.2256C27.2256 92.9156 18.4118 71.4962 16.7577 63.8587L15.9814 47.312L32.5223 39.4297Z" fill="black"/>
<path d="M40.3328 23.468L44.2082 30.6337L47.8388 23.2888C45.3521 22.8189 42.7942 22.88 40.3328 23.468Z" fill="#F4A28C"/>
<path d="M12.2554 33.7686H31.131L33.9197 55.6478H15.3127L12.2554 33.7686Z" fill="#036792"/>
<path opacity="0.08" d="M18.2563 46.2373C19.3282 46.4346 20.322 46.9322 21.1223 47.6722C21.9225 48.4122 22.4962 49.3641 22.7767 50.4173C23.9232 54.2211 33.4774 52.0236 33.4774 52.0236L33.9372 55.6483L16.8411 55.5945L18.2563 46.2373Z" fill="black"/>
<path d="M17.6055 32.1147L18.4415 35.4169H25.3504L24.7174 32.1147H17.6055Z" fill="#24285B"/>
<path d="M13.9093 53.1637C13.9093 53.1637 11.0251 47.6103 15.2409 45.6099C19.4567 43.6095 20.3703 51.1156 16.8233 55.5941L13.9093 53.1637Z" fill="#24285B"/>
<path d="M40.7626 10.5519C40.7626 10.5519 43.3482 7.26162 49.1226 6.45548C49.1226 6.45548 51.3678 3.20703 48.4776 0.919976C45.5875 -1.36708 38.7204 0.955805 37.132 4.10274C36.2422 5.87028 35.6391 10.5877 40.7626 10.5519Z" fill="#68E1FD"/>
<path d="M13.951 52.0415C13.951 52.0415 -1.50897 83.69 9.26347 87.1713C20.0359 90.6527 17.5219 55.0272 17.5219 55.0272L13.951 52.0415Z" fill="#F4A28C"/>
<path d="M60.0922 34.6704C62.9704 28.699 70.8407 27.236 75.9045 31.5354C83.0104 37.6023 96.0998 54.4417 98.4883 70.5347C102.274 96.0147 66.0456 98.4033 66.0456 98.4033L64.8514 92.8319C64.8514 92.8319 88.6176 86.8605 81.8102 70.1406C76.3643 56.7646 55.2135 44.7859 60.0922 34.6704Z" fill="#F4A28C"/>
<path opacity="0.08" d="M77.5227 32.085C77.5227 32.085 98.1957 37.5548 102.453 56.7827H91.7765L77.5227 32.085Z" fill="black"/>
<path d="M59.9725 32.7175C59.9725 32.7175 66.2425 25.0562 74.2084 29.6303C82.1743 34.2044 92.5944 51.0318 92.5944 51.0318L75.0026 63.733C75.0026 63.733 49.427 41.8717 59.9725 32.7175Z" fill="#68E1FD"/>
<path opacity="0.46" d="M59.9725 32.7175C59.9725 32.7175 66.2425 25.0562 74.2084 29.6303C82.1743 34.2044 92.5944 51.0318 92.5944 51.0318L75.0026 63.733C75.0026 63.733 49.427 41.8717 59.9725 32.7175Z" fill="white"/>
<path d="M59.4292 92.9155H27.2253L32.6056 140.4H38.6785L44.0289 101.932L64.057 140.4H70.0284L59.4292 92.9155Z" fill="#68E1FD"/>
<path opacity="0.08" d="M59.4292 92.9155H27.2253L32.6056 140.4H38.6785L44.0289 101.932L64.057 140.4H70.0284L59.4292 92.9155Z" fill="black"/>
<path d="M116.785 7.6377H100.811V20.5479H116.785V7.6377Z" fill="#C9C9C9"/>
<path d="M116.785 25.1816H100.811V27.8091H116.785V25.1816Z" fill="white"/>
<path opacity="0.5" d="M116.785 30.3232H100.811V32.9507H116.785V30.3232Z" fill="white"/>
<path opacity="0.5" d="M116.785 36.0737H100.811V38.7012H116.785V36.0737Z" fill="white"/>
<path d="M115.274 52.8059C117.167 52.8059 118.702 51.2713 118.702 49.3783C118.702 47.4853 117.167 45.9507 115.274 45.9507C113.381 45.9507 111.846 47.4853 111.846 49.3783C111.846 51.2713 113.381 52.8059 115.274 52.8059Z" fill="#24285B"/>
<path d="M64.8514 92.832C64.8514 92.832 54.2999 95.1848 57.4229 99.3648C60.546 103.545 66.0456 98.4034 66.0456 98.4034L64.8514 92.832Z" fill="#24285B"/>
<path d="M36.2423 33.8165C36.1886 33.4642 35.048 25.152 40.4223 22.6978V23.4621C35.4899 25.7253 36.8395 33.6135 36.8395 33.721L36.2423 33.8165Z" fill="#24285B"/>
<path d="M51.0096 41.0422L50.4125 40.9168C53.5295 25.7434 47.7731 23.2891 47.7134 23.2653V22.6084C47.9881 22.7039 54.2342 25.3612 51.0096 41.0422Z" fill="#24285B"/>
<path d="M54.437 49.6946L53.2726 49.408C53.2726 49.3662 54.2638 45.228 52.7769 43.1738C52.5337 42.8433 52.2175 42.5733 51.853 42.3848C51.4884 42.1963 51.0853 42.0944 50.675 42.087C50.2651 42.036 49.849 42.0765 49.4567 42.2056C49.0643 42.3346 48.7054 42.5491 48.4059 42.8335C46.5308 44.6249 46.704 48.9362 46.704 48.978L45.5097 49.0318C45.5097 48.8347 45.3127 44.177 47.5699 41.9795C47.9944 41.5725 48.5035 41.2641 49.0608 41.0762C49.6182 40.8884 50.2101 40.8257 50.7944 40.8927C51.379 40.9124 51.9514 41.0645 52.4686 41.3376C52.9858 41.6106 53.4342 41.9976 53.7801 42.4692C55.5716 44.9593 54.4788 49.4976 54.437 49.6946Z" fill="#24285B"/>
<path d="M50.8665 42.5407C51.4865 42.5407 51.9891 42.038 51.9891 41.418C51.9891 40.798 51.4865 40.2954 50.8665 40.2954C50.2465 40.2954 49.7439 40.798 49.7439 41.418C49.7439 42.038 50.2465 42.5407 50.8665 42.5407Z" fill="#036792"/>
<path d="M36.6482 36.3008C37.8421 36.3008 38.8099 35.333 38.8099 34.1392C38.8099 32.9453 37.8421 31.9775 36.6482 31.9775C35.4544 31.9775 34.4866 32.9453 34.4866 34.1392C34.4866 35.333 35.4544 36.3008 36.6482 36.3008Z" fill="#036792"/>
<path opacity="0.08" d="M36.6483 35.3694C37.3277 35.3694 37.8784 34.8187 37.8784 34.1393C37.8784 33.4599 37.3277 32.9092 36.6483 32.9092C35.969 32.9092 35.4182 33.4599 35.4182 34.1393C35.4182 34.8187 35.969 35.3694 36.6483 35.3694Z" fill="black"/>
<path d="M47.9223 54.991C45.3845 53.7251 45.7607 47.9328 45.7786 47.688L46.3757 47.7298C46.3757 47.7895 46.0055 53.3668 48.1672 54.4596L47.9223 54.991Z" fill="#24285B"/>
<path d="M48.2688 55.5884C48.8229 55.5884 49.272 55.1393 49.272 54.5852C49.272 54.0312 48.8229 53.582 48.2688 53.582C47.7148 53.582 47.2656 54.0312 47.2656 54.5852C47.2656 55.1393 47.7148 55.5884 48.2688 55.5884Z" fill="#036792"/>
<path d="M51.2008 54.8895L51.0098 54.3282C53.3267 53.5579 53.7626 47.9806 53.7686 47.9209L54.3657 47.9687C54.3418 48.2075 53.894 53.9998 51.2008 54.8895Z" fill="#24285B"/>
<path d="M50.92 55.4449C51.474 55.4449 51.9231 54.9957 51.9231 54.4417C51.9231 53.8876 51.474 53.4385 50.92 53.4385C50.3659 53.4385 49.9167 53.8876 49.9167 54.4417C49.9167 54.9957 50.3659 55.4449 50.92 55.4449Z" fill="#036792"/>
</svg>
