<svg width="20" height="24" viewBox="0 0 20 24" fill="none" xmlns="http://www.w3.org/2000/svg">
<path d="M0 16.6113V20.0399H4.11441V12.5422H6.93746C7.13916 12.5422 7.337 12.5363 7.53108 12.5248L10.5719 16.58L7.00895 20.5714H4.93216V24H8.39101L12.6002 19.2846L16.1361 24H20V20.5714H17.6859L14.8396 16.7759L17.9156 13.3299H19.9999V9.90137H16.5335L12.8114 14.0711L10.9078 11.5326C12.62 10.4733 13.5934 8.62709 13.5934 6.21657C13.5935 2.38206 11.0431 0 6.93746 0H2.8983H0.894072H0V3.42857H0.894072V16.6113H0ZM4.11441 3.42857H6.93746C10.3731 3.42857 10.3731 5.52697 10.3731 6.21669C10.3731 6.85154 10.3729 8.63566 7.983 9.03406C7.60912 9.07314 7.28579 9.10183 6.93746 9.10183H4.11441V3.42857Z" fill="black"/>
</svg>
