<svg width="23" height="21" viewBox="0 0 23 21" fill="none" xmlns="http://www.w3.org/2000/svg">
<path d="M6.40625 4.35949e-09H16.0938C16.6126 -3.39667e-05 17.1118 0.198471 17.4889 0.554795C17.866 0.911118 18.0925 1.39825 18.1219 1.91625L18.125 2.03125V3.74937L19.2188 3.75C21.0313 3.75 22.5 5.21875 22.5 7.03125V15.4688C22.5 16.0075 22.286 16.5241 21.9051 16.9051C21.5241 17.286 21.0075 17.5 20.4688 17.5L18.125 17.4994V18.5938C18.125 19.1325 17.911 19.6491 17.5301 20.0301C17.1491 20.411 16.6325 20.625 16.0938 20.625H6.40625C5.86753 20.625 5.35087 20.411 4.96994 20.0301C4.58901 19.6491 4.375 19.1325 4.375 18.5938V17.4994L2.03125 17.5C1.49253 17.5 0.975873 17.286 0.594939 16.9051C0.214006 16.5241 0 16.0075 0 15.4688V7.03125C0 5.21875 1.46875 3.75 3.28125 3.75L4.375 3.74937V2.03125C4.37497 1.51241 4.57347 1.01323 4.92979 0.636106C5.28612 0.258979 5.77325 0.0324992 6.29125 0.00312508L6.40625 4.35949e-09ZM16.0938 12.8125H6.40625C6.28193 12.8125 6.1627 12.8619 6.07479 12.9498C5.98689 13.0377 5.9375 13.1569 5.9375 13.2812V18.5938C5.9375 18.8525 6.1475 19.0625 6.40625 19.0625H16.0938C16.2181 19.0625 16.3373 19.0131 16.4252 18.9252C16.5131 18.8373 16.5625 18.7181 16.5625 18.5938V13.2812C16.5625 13.1569 16.5131 13.0377 16.4252 12.9498C16.3373 12.8619 16.2181 12.8125 16.0938 12.8125V12.8125ZM19.2188 5.3125H3.28125C2.82541 5.3125 2.38824 5.49358 2.06591 5.81591C1.74358 6.13824 1.5625 6.57541 1.5625 7.03125V15.4688C1.5625 15.7275 1.7725 15.9375 2.03125 15.9375L4.375 15.9369V13.2812C4.375 12.7425 4.58901 12.2259 4.96994 11.8449C5.35087 11.464 5.86753 11.25 6.40625 11.25H16.0938C16.6325 11.25 17.1491 11.464 17.5301 11.8449C17.911 12.2259 18.125 12.7425 18.125 13.2812V15.9369L20.4688 15.9375C20.5931 15.9375 20.7123 15.8881 20.8002 15.8002C20.8881 15.7123 20.9375 15.5931 20.9375 15.4688V7.03125C20.9375 6.57541 20.7564 6.13824 20.4341 5.81591C20.1118 5.49358 19.6746 5.3125 19.2188 5.3125ZM16.0938 1.5625H6.40625C6.29298 1.5625 6.18354 1.60353 6.09817 1.67798C6.0128 1.75243 5.95728 1.85528 5.94187 1.9675L5.9375 2.03125V3.74937H16.5625V2.03125C16.5625 1.91798 16.5215 1.80854 16.447 1.72317C16.3726 1.6378 16.2697 1.58228 16.1575 1.56687L16.0938 1.5625Z" fill="white"/>
</svg>
