<svg width="823" height="1058" viewBox="0 0 823 1058" fill="none" xmlns="http://www.w3.org/2000/svg">
<path fill-rule="evenodd" clip-rule="evenodd" d="M-4.75095e-05 1058H820.051L822.313 1057.3V31.5914C711.274 -8.26949 381.289 -36.9388 293.936 117.151C248.093 198.017 228.367 268.169 209.836 334.074C188.236 410.889 168.259 481.936 110.439 557.455C58.3395 625.504 56.2119 709.476 53.9775 797.662C51.7882 884.066 49.4965 974.516 -4.75095e-05 1058Z" fill="#89EAEE"/>
<path d="M449.873 151.724L434.888 142.642C433.592 141.858 432.514 140.744 431.836 139.389C428.633 133.005 422.788 132.956 419.11 133.693C418.138 133.89 417.503 132.712 418.199 132.005C419.685 130.494 421.113 129.349 422.471 128.512C431.12 123.168 437.096 130.151 439.176 133.232C439.814 134.177 440.661 134.967 441.635 135.558L454.826 143.552L453.591 148.225L453.497 148.312L449.873 151.724Z" fill="#9FACBA"/>
<path d="M449.873 151.724L434.888 142.642C433.592 141.858 432.514 140.744 431.836 139.389C428.633 133.005 422.788 132.956 419.11 133.693C418.137 133.89 417.503 132.712 418.198 132.005C419.685 130.494 421.112 129.349 422.47 128.512C426.248 127.809 432.087 128.02 435.166 134.713C435.606 135.664 436.295 136.473 437.19 137.016L452.983 146.588L453.496 148.313L449.873 151.724Z" fill="#8D9CA8"/>
<path d="M456.112 166.755C455.425 166.339 454.796 165.828 454.247 165.239L452.934 163.834L450.017 160.712C447.968 158.679 447.578 155.507 449.075 153.037L455.26 142.832C456.756 140.363 459.75 139.241 462.5 140.117L468.411 141.754C469.21 141.968 469.971 142.295 470.677 142.723L468.303 147.869L465.069 154.872L460.066 161.509L456.112 166.755Z" fill="#89EAEE"/>
<path d="M456.111 166.755C455.424 166.339 454.795 165.828 454.247 165.239L452.933 163.834L450.017 160.712C447.968 158.679 447.577 155.507 449.074 153.037L451.819 148.508C451.554 150.614 452.357 152.939 453.856 154.426L459.933 160.454L460.066 161.509L456.111 166.755Z" fill="#46CDD3"/>
<path d="M601.982 232.941C598.304 233.679 592.46 233.629 589.258 227.245C588.579 225.891 587.501 224.778 586.206 223.993L571.222 214.911L567.502 218.409L566.268 223.084L579.458 231.078C580.433 231.669 581.278 232.457 581.917 233.402C584.327 236.968 591.948 245.756 602.894 234.629C603.59 233.922 602.955 232.746 601.982 232.941Z" fill="#9FACBA"/>
<path d="M566.267 223.085L579.458 231.077C580.453 231.68 581.3 232.496 581.955 233.458C584.407 237.058 592.004 245.698 602.893 234.629C603.589 233.923 602.955 232.748 601.982 232.941C601.899 232.958 601.815 232.972 601.733 232.989C593.122 238.303 587.162 231.405 585.055 228.305C584.404 227.348 583.559 226.542 582.57 225.942L569.381 217.949L567.502 218.409L566.267 223.085Z" fill="#8D9CA8"/>
<path d="M558.592 226.517L552.681 224.88C551.882 224.666 551.121 224.339 550.415 223.911L552.79 218.766L556.023 211.762L564.981 199.879C565.668 200.296 566.297 200.807 566.845 201.395L568.159 202.801L571.075 205.922C573.124 207.955 573.515 211.128 572.018 213.597L565.833 223.802C564.336 226.272 561.343 227.393 558.592 226.517Z" fill="#68DADF"/>
<path d="M558.592 226.517L552.681 224.88C551.882 224.666 551.121 224.339 550.415 223.911L552.79 218.766L555.138 216.12L556.119 216.431C558.869 217.307 561.862 216.186 563.359 213.716L567.111 207.263C567.786 206.155 568.185 204.277 568.158 202.801L571.075 205.923C573.124 207.955 573.514 211.128 572.017 213.598L565.832 223.802C564.336 226.272 561.343 227.393 558.592 226.517Z" fill="#46CDD3"/>
<path d="M470.68 142.714L564.966 199.859L550.403 223.888L456.117 166.743L470.68 142.714Z" fill="#D6FAFC"/>
<path d="M564.979 199.878L558.699 196.072L549.349 211.498C548.571 212.782 546.899 213.192 545.614 212.414L459.919 160.476L456.113 166.756L550.414 223.91L564.979 199.878Z" fill="#A5EAED"/>
<path d="M549.383 209.548L548.608 206.386L551.769 205.61C553.031 205.301 553.803 204.027 553.494 202.765C553.184 201.504 551.911 200.732 550.649 201.041L547.487 201.816L546.712 198.655C546.402 197.393 545.129 196.621 543.867 196.931C542.605 197.24 541.833 198.514 542.142 199.776L542.918 202.937L539.756 203.713C538.495 204.022 537.723 205.296 538.032 206.558C538.342 207.819 539.615 208.591 540.877 208.282L544.039 207.507L544.814 210.668C545.123 211.93 546.397 212.702 547.659 212.392C548.921 212.083 549.693 210.809 549.383 209.548Z" fill="#89EAEE"/>
<path d="M535.47 201.115L534.694 197.953L537.856 197.178C539.118 196.868 539.89 195.594 539.58 194.333C539.271 193.071 537.997 192.299 536.735 192.608L533.574 193.384L532.798 190.222C532.489 188.96 531.215 188.188 529.953 188.498C528.691 188.807 527.919 190.081 528.229 191.343L529.004 194.504L525.843 195.28C524.581 195.589 523.809 196.863 524.118 198.125C524.428 199.387 525.702 200.159 526.964 199.849L530.125 199.074L530.9 202.235C531.21 203.497 532.484 204.269 533.745 203.96C535.007 203.65 535.779 202.376 535.47 201.115Z" fill="#89EAEE"/>
<path d="M478.569 166.628L477.794 163.467L480.955 162.691C482.217 162.382 482.989 161.108 482.68 159.846C482.37 158.585 481.097 157.813 479.835 158.122L476.673 158.897L475.898 155.736C475.588 154.474 474.315 153.702 473.053 154.012C471.791 154.321 471.019 155.595 471.328 156.857L472.104 160.018L468.942 160.794C467.681 161.103 466.909 162.377 467.218 163.639C467.528 164.9 468.801 165.672 470.063 165.363L473.225 164.588L474 167.749C474.309 169.011 475.583 169.783 476.845 169.473C478.107 169.164 478.879 167.89 478.569 166.628Z" fill="#89EAEE"/>
<path d="M492.483 175.061L491.708 171.9L494.869 171.124C496.131 170.815 496.903 169.541 496.593 168.279C496.284 167.017 495.01 166.245 493.748 166.555L490.587 167.33L489.811 164.169C489.502 162.907 488.228 162.135 486.966 162.444C485.705 162.754 484.933 164.028 485.242 165.29L486.017 168.451L482.856 169.226C481.594 169.536 480.822 170.81 481.132 172.071C481.441 173.333 482.715 174.105 483.977 173.796L487.138 173.02L487.914 176.182C488.223 177.444 489.497 178.216 490.759 177.906C492.021 177.597 492.793 176.323 492.483 175.061Z" fill="#89EAEE"/>
<path d="M186.193 779.948C185.79 779.948 185.387 779.795 185.079 779.488C184.462 778.873 184.46 777.874 185.076 777.257L198.195 764.108C198.81 763.491 199.809 763.489 200.426 764.105C201.043 764.72 201.044 765.719 200.429 766.336L187.31 779.484C187.001 779.794 186.597 779.948 186.193 779.948Z" fill="#EAF6FF"/>
<path d="M188.54 783.262L187.609 779.1C187.369 778.03 186.534 777.193 185.463 776.952L181.319 776.02C179.411 775.591 177.417 776.171 176.034 777.558L172.3 781.303L177.245 788.553L183.272 792.306L187.006 788.561C188.389 787.175 188.968 785.175 188.54 783.262Z" fill="#4ED7DD"/>
<path d="M188.539 783.262L187.609 779.1C187.369 778.03 186.534 777.193 185.463 776.952L181.318 776.02C179.74 775.665 178.104 776.002 176.802 776.914C177.975 777.178 178.891 778.095 179.154 779.269L180.047 783.261C180.421 784.936 180.025 786.677 178.993 788.015L179.568 789.999L183.272 792.306L187.006 788.561C188.389 787.175 188.967 785.175 188.539 783.262Z" fill="#B4DBDD"/>
<path d="M123.193 841.555C120.163 838.516 120.163 833.589 123.193 830.551L172.3 781.303L183.272 792.306L134.165 841.555C131.135 844.593 126.223 844.593 123.193 841.555Z" fill="#EAF6FF"/>
<path d="M172.3 781.303L168.054 785.561L173.023 790.544C173.994 791.518 173.994 793.094 173.023 794.068L129.591 837.627C127.467 839.757 124.418 840.392 121.741 839.535C122.105 840.264 122.587 840.947 123.193 841.555C126.223 844.593 131.135 844.593 134.165 841.555L183.272 792.306L172.3 781.303Z" fill="#C8EFFE"/>
<path d="M209.103 771.796C218.133 771.796 225.453 764.454 225.453 755.398C225.453 746.342 218.133 739 209.103 739C200.072 739 192.752 746.342 192.752 755.398C192.752 764.454 200.072 771.796 209.103 771.796Z" fill="#9FACBA"/>
<path d="M220.664 743.803C216.326 739.452 210.158 738.061 204.646 739.622C207.248 740.358 209.704 741.749 211.751 743.803C218.137 750.206 218.137 760.589 211.751 766.993C209.704 769.046 207.248 770.437 204.646 771.174C210.158 772.735 216.326 771.343 220.664 766.993C227.05 760.589 227.05 750.206 220.664 743.803Z" fill="#8D9CA8"/>
<path d="M131.067 835.235C130.664 835.235 130.261 835.082 129.953 834.775C129.336 834.16 129.335 833.161 129.95 832.544L134.001 828.481C134.616 827.864 135.615 827.863 136.232 828.478C136.848 829.093 136.85 830.092 136.235 830.709L132.184 834.771C131.876 835.081 131.472 835.235 131.067 835.235Z" fill="#4ED7DD"/>
<path d="M694 46.3077C694.001 62.1347 697.962 77.6796 705.479 91.3644C712.997 105.049 723.804 116.386 736.803 124.225C749.802 132.064 764.531 136.126 779.495 135.997C794.458 135.869 809.123 131.555 822 123.494V26H696.192C694.728 32.658 693.992 39.472 694 46.3077Z" fill="#7FBED7"/>
<path d="M352.5 279C324.057 279 301 254.6 301 224.5C301 194.4 324.057 170 352.5 170C380.943 170 404 194.4 404 224.5C404 254.6 380.943 279 352.5 279Z" fill="#7FBED7"/>
<path d="M114.5 1007C94.3416 1007 78 989.763 78 968.5C78 947.237 94.3416 930 114.5 930C134.658 930 151 947.237 151 968.5C151 989.763 134.658 1007 114.5 1007Z" fill="#7FBED7"/>
<path d="M753 728C732.565 728 716 710.539 716 689C716 667.461 732.565 650 753 650C773.435 650 790 667.461 790 689C790 710.539 773.435 728 753 728Z" fill="#7FBED7"/>
<path d="M776.667 1007H822V953.764C814.708 951.503 806.885 951.414 799.54 953.506C792.195 955.598 785.663 959.777 780.786 965.504C775.91 971.231 772.911 978.244 772.177 985.639C771.443 993.035 773.006 1000.47 776.667 1007V1007Z" fill="#7FBED7"/>
<path d="M662.761 795.724L648.905 793.639L651.886 760.929L665.746 762.999L662.761 795.724Z" fill="#FFB573"/>
<path d="M595.263 783.524L581.511 781.858L583.458 749.712L597.214 751.363L595.263 783.524Z" fill="#FFB573"/>
<path d="M581.409 774.937L596.482 773.643C596.744 773.612 597.008 773.683 597.218 773.843C597.428 774.002 597.567 774.237 597.607 774.498L599.739 786.697C599.787 787.022 599.767 787.353 599.681 787.67C599.595 787.987 599.443 788.283 599.237 788.538C599.031 788.794 598.774 789.004 598.482 789.155C598.19 789.307 597.87 789.396 597.543 789.417C592.107 789.828 587.173 789.116 580.425 790.472C572.562 791.952 568.657 795.386 560.913 793.691C555.369 792.477 555.23 787.117 557.736 786.929C569.137 786.032 568.313 783.066 577.901 776.41C578.92 775.618 580.13 775.11 581.409 774.937Z" fill="#263238"/>
<path opacity="0.2" d="M583.458 749.712L582.452 766.298L596.223 767.952L597.229 751.366L583.458 749.712Z" fill="black"/>
<path opacity="0.2" d="M652.989 761.205L651.449 778.082L665.325 780.155L666.864 763.278L652.989 761.205Z" fill="black"/>
<path d="M614.013 613.354C623.278 573.59 649.175 479.717 649.175 479.717L591.835 472.143C591.835 472.143 581.6 572.485 579.444 614.654C577.211 658.486 577.072 762.287 577.072 762.287L600.411 765.348C600.411 765.348 617.664 646.47 614.013 613.354Z" fill="#263238"/>
<path d="M575.56 762.612L603.238 766.254L604.088 757.253L575.355 752.947L575.56 762.612Z" fill="#62A2A5"/>
<path d="M658.014 635.831C663.517 563.575 674.394 508.711 669.768 479.596L612.944 472.873C612.944 472.873 619.964 584.348 624.982 632.438C630.181 682.427 643.481 768.938 643.481 768.938L670.99 775.818C670.99 775.818 669.562 672.259 658.014 635.831Z" fill="#263238"/>
<path d="M649.581 786.706L664.781 784.911C665.044 784.87 665.313 784.935 665.53 785.091C665.748 785.247 665.896 785.482 665.944 785.746L668.47 798.116C668.528 798.446 668.518 798.784 668.441 799.11C668.363 799.436 668.219 799.742 668.018 800.009C667.817 800.276 667.564 800.499 667.274 800.662C666.983 800.825 666.663 800.926 666.332 800.959C660.848 801.549 655.838 800.979 649.058 802.575C641.153 804.332 637.309 807.957 629.428 806.474C623.785 805.411 623.482 799.951 626.01 799.68C637.509 798.405 636.587 795.408 646.079 788.319C647.085 787.48 648.293 786.923 649.581 786.706Z" fill="#263238"/>
<path d="M642.993 773.747L671.929 778.588L672.953 769.733L642.922 764.19L642.993 773.747Z" fill="#62A2A5"/>
<path d="M550.56 493.835C556.654 497.981 561.29 492.151 568.09 489.177C574.89 486.203 580.565 480.918 585.883 475.479C591.2 470.04 594.862 463.248 601.035 458.963C601.118 458.372 601.199 457.798 601.272 457.274C602.938 445.18 606.37 433.396 611.46 422.299C610.938 421.82 610.383 421.379 609.799 420.98C604.403 417.638 586.071 437.636 582.995 441.115C579.919 444.594 576.86 447.955 573.587 450.993C572.757 451.83 571.901 452.64 571.02 453.424L568.516 456.277L567.024 456.826C563.207 458.206 535.486 474.155 535.486 474.155C536.052 475.301 539.254 477.924 539.254 477.924L541.767 480.855L544.279 484.204L545.954 486.298L550.56 493.835Z" fill="#46CDD3"/>
<path opacity="0.7" d="M550.978 493.835C557.072 497.981 561.29 492.151 568.09 489.177C574.89 486.203 580.565 480.918 585.883 475.479C591.2 470.04 594.862 463.248 601.035 458.963C601.118 458.372 601.199 457.798 601.272 457.274C602.938 445.18 606.37 433.396 611.46 422.299C610.938 421.82 610.383 421.379 609.799 420.98C604.403 417.638 586.071 437.636 582.995 441.115C579.919 444.594 576.86 447.955 573.587 450.993C572.757 451.83 571.901 452.64 571.02 453.424L568.516 456.277L567.024 456.826C563.207 458.206 535.486 474.155 535.486 474.155L538.836 477.924L542.185 481.273L546.372 486.298L550.978 493.835Z" fill="white"/>
<path d="M627.837 416.953L648.816 416.158L674.357 421.07C678.236 421.807 681.765 423.799 684.401 426.737C687.036 429.676 688.631 433.398 688.941 437.332C690.163 453.2 678.816 475.437 677.65 494.554C674.2 521.397 673.34 548.511 675.082 575.52L590.069 556.3C586.652 481.731 589.921 458.067 594.981 437.377C595.228 433.467 596.753 429.746 599.321 426.785C601.889 423.825 605.359 421.788 609.198 420.988L627.837 416.953Z" fill="#46CDD3"/>
<g opacity="0.6">
<path opacity="0.6" d="M627.955 416.793L648.929 415.995L674.463 420.907C678.341 421.644 681.869 423.637 684.504 426.577C687.138 429.517 688.733 433.241 689.042 437.177C690.262 453.055 678.914 475.307 677.747 494.436C674.294 521.297 673.431 548.428 675.169 575.454L590.178 556.232C586.771 481.616 590.042 457.937 595.103 437.234C595.351 433.321 596.876 429.598 599.443 426.635C602.011 423.672 605.481 421.634 609.319 420.833L627.955 416.793Z" fill="black"/>
</g>
<path d="M615.746 416.404C601.06 431.338 596.301 478.125 596.679 557.167C596.679 557.167 561.396 558.463 553.563 561.257C546.239 559.047 538.737 557.479 531.141 556.57C544.076 546.634 565.898 545.526 582.057 547.344C582.953 498.007 578.741 469.482 589.163 433.51C592.1 423.383 605.432 418.348 615.746 416.404Z" fill="#46CDD3"/>
<path d="M666.237 419.685C658.067 413.054 647.818 409.414 637.249 409.389C626.679 409.365 616.449 412.957 608.314 419.549C627.401 418.868 647.201 418.031 666.237 419.685Z" fill="#46CDD3"/>
<path opacity="0.8" d="M666.237 419.685C658.067 413.054 647.818 409.414 637.249 409.389C626.679 409.365 616.449 412.957 608.314 419.549C627.401 418.868 647.201 418.031 666.237 419.685Z" fill="white"/>
<g opacity="0.8">
<path opacity="0.8" d="M615.608 416.681C600.918 431.55 596.186 478.162 596.617 556.911C596.617 556.911 561.301 558.179 553.463 560.958C546.13 558.751 538.62 557.184 531.017 556.274C543.957 546.383 565.799 545.293 581.974 547.115C582.839 497.961 578.604 469.539 589.012 433.706C591.945 423.618 605.286 418.611 615.608 416.681Z" fill="white"/>
</g>
<path d="M664.442 628.422C665.139 624.25 664.365 619.966 662.252 616.299C660.159 612.669 657.816 609.188 655.239 605.883C648.543 596.41 641.606 584.588 640.035 573.104C636.102 544.067 636.196 514.195 637.967 484.939C639.449 460.202 647.655 436.859 660.568 415.714L686.415 421.708C690.283 422.613 692.954 426.633 694.484 430.268C682.371 460.63 679.142 494.725 683.459 527.185C685.683 543.874 690.101 560.213 692.492 576.822C694.883 593.43 695.125 610.928 689.193 626.696C686.596 633.622 679.704 639.961 673.528 644.035C669.101 646.869 662.412 644.738 657.147 644.051C660.162 642.661 662.646 640.335 664.231 637.419C665.815 634.504 666.414 631.155 665.938 627.872C665.799 627.507 664.34 628.909 664.442 628.422Z" fill="#46CDD3"/>
<path opacity="0.8" d="M637.977 484.914C636.293 514.172 636.1 544.019 640.034 573.064C641.589 584.541 648.548 596.345 655.244 605.832C657.818 609.145 660.167 612.624 662.277 616.248C664.385 619.915 665.16 624.197 664.469 628.367C664.404 628.824 665.799 627.397 665.928 627.829C666.406 631.11 665.81 634.457 664.229 637.371C662.648 640.285 660.166 642.612 657.153 644.004C662.413 644.742 669.098 646.907 673.522 643.988C679.715 639.918 686.625 633.583 689.208 626.642C695.121 610.894 694.884 593.472 692.503 576.784C690.122 560.097 685.698 543.796 683.481 527.167C682.136 517.17 681.527 507.088 681.66 497.003C681.826 478.188 684.792 459.504 690.461 441.563C691.674 437.773 693.012 434.03 694.477 430.333C692.933 426.662 690.274 422.68 686.405 421.775L660.493 415.703C647.647 436.85 639.439 460.201 637.977 484.914Z" fill="white"/>
<path d="M658.717 417.167C658.802 420.883 657.475 424.49 654.996 427.278C652.531 430.046 649.723 432.496 646.637 434.572C642.814 437.337 634.065 442.639 634.065 442.639C634.065 442.639 627.227 435.793 626.006 430.542C621.714 436.035 616.793 440.868 616.793 440.868C616.793 440.868 612.393 436.725 610.731 434.612C607.805 430.984 606.545 428.945 606.423 424.305C606.209 416.774 613.03 410.518 620.422 408.643C628.349 406.623 635.216 406.656 643.251 406.564C649.977 406.492 658.157 409.401 658.717 417.167Z" fill="#46CDD3"/>
<path d="M531.104 477.702C530.52 476.229 530.521 474.597 531.107 473.139C531.693 471.682 532.819 470.511 534.254 469.865C537.001 468.736 540.502 469.501 543.585 471.052C546.843 472.774 549.704 475.165 551.975 478.065C554.247 480.965 555.878 484.307 556.757 487.869C557.718 492.193 557.278 496.838 554.811 499.663C553.415 501.125 551.523 502.02 549.494 502.179C547.464 502.337 545.437 501.747 543.796 500.522C544.131 493.484 538.97 484.487 532.662 480.289C532.048 479.487 531.525 478.619 531.104 477.702Z" fill="#46CDD3"/>
<path opacity="0.6" d="M531.104 477.702C530.52 476.229 530.521 474.597 531.107 473.139C531.693 471.682 532.819 470.511 534.254 469.865C537.001 468.736 540.502 469.501 543.585 471.052C546.843 472.774 549.704 475.165 551.975 478.065C554.247 480.965 555.878 484.307 556.757 487.869C557.718 492.193 557.278 496.838 554.811 499.663C553.415 501.125 551.523 502.02 549.494 502.179C547.464 502.337 545.437 501.747 543.796 500.522C544.131 493.484 538.97 484.487 532.662 480.289C532.048 479.487 531.525 478.619 531.104 477.702Z" fill="white"/>
<path d="M581.51 446.558C582.046 446.965 582.662 447.261 583.319 447.427C583.976 447.592 584.661 447.623 585.329 447.518C585.997 447.413 586.635 447.175 587.202 446.818C587.769 446.46 588.253 445.992 588.624 445.442L582.072 411.347L582.426 410.331L578.797 411.025C578.788 411.064 578.783 411.103 578.78 411.143C578.832 411.529 578.83 445.013 581.51 446.558Z" fill="#263238"/>
<path opacity="0.4" d="M562.549 390.236C564.488 401.085 570.885 411.507 577.976 410.933C577.974 410.892 577.979 410.852 577.993 410.814L578.836 410.725C572.893 410.029 567.012 401.112 565.211 389.523C563.41 377.934 566.376 367.532 571.935 365.172C572.12 365.09 572.309 365.019 572.502 364.958C571.756 365.099 571.023 365.296 570.307 365.548C569.942 365.687 569.592 365.863 569.264 366.074C567.34 367.302 565.796 369.039 564.803 371.09C562.03 377.07 561.241 383.776 562.549 390.236Z" fill="black"/>
<path opacity="0.4" d="M564.241 387.625C566.16 398.488 572.512 408.934 579.566 408.366C579.565 408.32 579.571 408.274 579.585 408.23L583.463 407.84C586.547 406.669 589.067 404.352 590.501 401.368C593.35 395.471 594.283 388.826 593.167 382.373C591.269 369.644 583.101 360.847 577.271 361.656C576.315 361.787 575.368 361.978 574.435 362.227C573.645 362.367 572.868 362.57 572.111 362.836C571.747 362.982 571.398 363.165 571.07 363.382C569.148 364.609 567.608 366.354 566.627 368.419C563.82 374.406 562.984 381.134 564.241 387.625Z" fill="white"/>
<path opacity="0.2" d="M666.329 493.12C667.753 501.65 677.859 499.172 681.388 497.364C681.449 497.331 681.506 497.293 681.559 497.249C681.742 478.382 684.714 459.643 690.38 441.646C688.682 436.724 685.591 432.409 681.486 429.227C664.624 424.436 661.463 463.67 666.329 493.12Z" fill="black"/>
<path d="M667.587 447.96C651.539 467.356 644.696 474.983 634.753 474.9C623.306 474.814 596.285 435.586 597.373 433.372C593.73 433.223 589.19 440.447 587.349 444.577C587.349 444.577 616.522 502.093 637.681 504.648C647.216 505.796 672.929 484.767 683.812 468.551C683.389 460.855 667.587 447.96 667.587 447.96Z" fill="#FFB573"/>
<path d="M570.192 437.021L576.62 442.071C576.62 442.071 589.601 450.325 592.124 446.687L598.002 439.756C601.267 434.689 593.987 430.042 590.128 427.286L584.968 423.32C583.822 422.443 582.405 422.022 580.974 422.132L573.811 422.678C572.586 422.768 571.424 423.284 570.517 424.142C569.609 425 569.01 426.149 568.819 427.398L568.202 431.791C568.042 432.771 568.143 433.774 568.493 434.695C568.843 435.616 569.43 436.419 570.192 437.021Z" fill="#FFB573"/>
<path d="M681.328 420.721C709.4 424.661 691.789 462.592 677.493 481.2C677.493 481.2 641.409 532.741 612.037 485.631C604.836 479.225 614.738 471.91 622.775 464.989C622.775 464.989 635.065 478.607 641.566 470.35C643.513 467.899 661.032 443.642 663.178 440.633C663.171 440.684 671.029 421.896 681.328 420.721Z" fill="#46CDD3"/>
<path opacity="0.8" d="M681.328 420.721C709.4 424.661 691.789 462.592 677.493 481.2C677.493 481.2 641.409 532.741 612.037 485.631C604.836 479.225 614.738 471.91 622.775 464.989C622.775 464.989 635.065 478.607 641.566 470.35C643.513 467.899 661.032 443.642 663.178 440.633C663.171 440.684 671.029 421.896 681.328 420.721Z" fill="white"/>
<path d="M635.423 470.126C633.635 475.742 630.642 480.907 626.648 485.268C624.635 487.432 622.169 489.136 619.421 490.262C616.673 491.389 613.708 491.911 610.732 491.793C610.231 489.206 608.843 486.867 606.802 485.171C605.543 484.144 604.979 483.406 603.686 482.374C610.618 476.442 616.962 469.87 622.634 462.747C624.979 464.304 626.977 466.32 628.504 468.67C629.999 466.521 633.913 468.007 635.423 470.126Z" fill="#46CDD3"/>
<path opacity="0.6" d="M635.423 470.126C633.635 475.742 630.642 480.907 626.648 485.268C624.635 487.432 622.169 489.136 619.421 490.262C616.673 491.389 613.708 491.911 610.732 491.793C610.231 489.206 608.843 486.867 606.802 485.171C605.543 484.144 604.979 483.406 603.686 482.374C610.618 476.442 616.962 469.87 622.634 462.747C624.979 464.304 626.977 466.32 628.504 468.67C629.999 466.521 633.913 468.007 635.423 470.126Z" fill="white"/>
<path opacity="0.4" d="M591.484 376.625C591.664 378.495 593.843 379.585 596.448 379.32C599.052 379.056 601.073 377.131 600.878 375.265" fill="#62A2A5"/>
<path d="M560.166 390.284C558.061 376.112 564.468 363.135 574.466 361.607C584.465 360.079 594.277 370.285 596.374 384.507C598.419 398.376 592.414 410.906 582.875 413.036L582.087 413.203C581.004 413.379 579.903 413.411 578.813 413.298C570.025 412.499 562.038 402.965 560.166 390.284ZM578.647 410.726C579.138 410.786 579.634 410.786 580.125 410.725L580.325 410.753L580.672 410.698L580.756 410.709C581.236 410.629 581.709 410.504 582.167 410.335C588.924 407.814 592.956 396.88 591.184 384.941C589.304 372.189 581.146 363.394 575.846 364.125C574.987 364.246 574.135 364.416 573.294 364.634C572.871 364.716 572.458 364.85 572.066 365.034C566.634 367.429 563.66 377.73 565.385 389.524C567.11 401.318 572.8 410.026 578.647 410.726Z" fill="#263238"/>
<path d="M649.982 376.336C647.2 387.692 643.976 408.576 651.665 416.631C645.131 422.52 636.65 429.272 623.005 429.066C609.36 428.86 612.176 419.618 615.998 414.853C628.939 412.433 629.042 402.931 627.229 393.905L649.982 376.336Z" fill="#FFB573"/>
<path opacity="0.2" d="M640.707 383.506L627.246 393.906C627.697 396.004 627.962 398.138 628.038 400.282C632.969 399.824 639.934 394.802 640.677 389.714C641.073 387.664 641.083 385.559 640.707 383.506Z" fill="black"/>
<path d="M627.126 339.625C615.936 343.048 614.55 351.92 614.795 361.749C615.039 371.579 626.15 365.933 628.979 360.01C631.807 354.087 642.621 334.881 627.126 339.625Z" fill="#263238"/>
<path d="M660.304 361.723C656.116 376.857 654.416 385.9 645.092 392.304C631.039 401.877 613.796 391.373 613.416 375.412C613.075 361.033 619.979 338.655 636.14 335.416C639.668 334.663 643.332 334.844 646.769 335.94C650.205 337.036 653.297 339.01 655.737 341.667C658.177 344.324 659.882 347.572 660.683 351.089C661.484 354.606 661.353 358.272 660.304 361.723Z" fill="#FFB573"/>
<path d="M658.7 374.393C645.718 374.095 649.011 366.966 651.678 362.929C654.346 358.892 650.097 351.56 653.494 348.182C647.751 349.979 642.017 347.697 634.951 341.943C629.473 337.462 620.993 353.049 614.555 344.415C608.469 336.269 615.539 325.223 631.696 324.592C647.854 323.96 649.901 335.507 660.491 335.302C671.08 335.098 666.769 343.481 664.57 345.087C673.346 346.342 677.518 355.14 658.7 374.393Z" fill="#263238"/>
<path d="M662.46 346.009C664.567 345.053 666.381 343.552 667.714 341.661C669.046 339.769 669.849 337.556 670.039 335.25C673.065 341.637 672.165 348.558 662.46 346.009Z" fill="#263238"/>
<path d="M626.492 375.645C627.879 375.996 629.322 376.062 630.735 375.841C632.149 375.619 633.502 375.114 634.716 374.356C634.753 374.326 634.783 374.288 634.806 374.246C634.828 374.203 634.841 374.157 634.845 374.109C634.849 374.061 634.842 374.013 634.827 373.968C634.811 373.922 634.787 373.88 634.755 373.845C634.691 373.774 634.602 373.73 634.507 373.723C634.411 373.716 634.317 373.745 634.243 373.806C632.887 374.62 631.361 375.107 629.784 375.23C628.208 375.353 626.624 375.108 625.159 374.515C625.064 374.484 624.962 374.488 624.871 374.527C624.78 374.565 624.706 374.636 624.663 374.726C624.629 374.817 624.632 374.918 624.671 375.008C624.711 375.097 624.784 375.167 624.875 375.203C625.4 375.398 625.941 375.547 626.492 375.645Z" fill="#263238"/>
<path d="M662.098 379.389C659.445 382.317 655.749 384.087 651.804 384.317C646.62 384.596 645.274 379.685 647.766 375.387C650.03 371.514 655.523 366.717 660.144 368.471C664.765 370.224 665.357 375.734 662.098 379.389Z" fill="#FFB573"/>
<path d="M637.056 360.874C636.802 362.114 635.918 363.005 635.131 362.856C634.344 362.707 633.88 361.572 634.154 360.315C634.427 359.059 635.292 358.184 636.079 358.333C636.866 358.482 637.328 359.635 637.056 360.874Z" fill="#263238"/>
<path d="M622.749 358.648C622.493 359.906 621.611 360.779 620.824 360.63C620.037 360.481 619.573 359.346 619.845 358.107C620.117 356.868 620.983 355.976 621.77 356.125C622.557 356.273 623.026 357.338 622.749 358.648Z" fill="#263238"/>
<path d="M626.693 360.439C624.319 363.541 621.542 366.312 618.436 368.68C620.156 370.78 624.059 370.546 624.059 370.546L626.693 360.439Z" fill="#ED893E"/>
<path opacity="0.4" d="M613.623 358.271C613.205 360.262 615.106 362.092 617.883 362.659C620.661 363.226 623.371 361.889 623.771 359.897" fill="#62A2A5"/>
<path opacity="0.4" d="M630.149 361.412C629.609 363.375 631.43 365.324 634.141 366.063C636.853 366.802 639.659 365.596 640.18 363.649" fill="#62A2A5"/>
<path d="M635.193 366.693C634.875 366.686 634.557 366.662 634.241 366.62C632.897 366.355 631.667 365.685 630.714 364.702C630.298 364.287 629.986 363.778 629.807 363.218C629.627 362.658 629.585 362.063 629.682 361.483C628.817 361.025 627.881 360.714 626.914 360.562C625.954 360.243 624.93 360.165 623.933 360.335C623.522 362.468 620.728 363.745 617.757 363.146C616.412 362.895 615.179 362.23 614.23 361.245C613.815 360.828 613.506 360.319 613.326 359.76C613.147 359.2 613.103 358.606 613.198 358.026L614.036 358.197C613.966 358.645 614.005 359.103 614.148 359.534C614.291 359.965 614.535 360.355 614.859 360.672C615.688 361.522 616.76 362.093 617.928 362.308C620.442 362.836 622.79 361.827 623.154 360.08C623.353 359.102 625.393 359.328 627.071 359.669C628.748 360.01 630.722 360.639 630.472 361.596C630.401 362.045 630.438 362.503 630.581 362.934C630.724 363.365 630.969 363.755 631.295 364.072C632.135 364.912 633.204 365.488 634.368 365.728C635.532 365.968 636.74 365.862 637.845 365.423C638.27 365.263 638.651 365.003 638.955 364.664C639.258 364.326 639.476 363.92 639.59 363.48L639.622 363.056L661.175 367.52L661.004 368.359L640.255 364.063C640.065 364.542 639.78 364.978 639.417 365.344C639.053 365.709 638.619 365.997 638.141 366.19C637.214 366.594 636.202 366.767 635.193 366.693Z" fill="#263238"/>
<path d="M643.017 355.757C643.143 355.767 643.268 355.74 643.378 355.678C643.557 355.592 643.695 355.438 643.763 355.251C643.83 355.064 643.821 354.858 643.738 354.677C643.27 353.609 642.545 352.674 641.628 351.954C640.711 351.234 639.63 350.752 638.482 350.55C638.285 350.526 638.085 350.579 637.927 350.7C637.768 350.82 637.663 350.998 637.635 351.195C637.61 351.388 637.662 351.583 637.78 351.738C637.897 351.893 638.071 351.996 638.263 352.024C639.171 352.201 640.021 352.597 640.74 353.178C641.46 353.758 642.027 354.505 642.392 355.355C642.45 355.472 642.539 355.571 642.649 355.642C642.759 355.713 642.886 355.753 643.017 355.757Z" fill="#263238"/>
<path d="M618.58 351.89C618.701 351.911 618.826 351.903 618.943 351.865C619.06 351.828 619.166 351.762 619.253 351.675C619.88 350.972 620.664 350.425 621.54 350.079C622.417 349.733 623.363 349.597 624.301 349.682C624.398 349.7 624.497 349.697 624.593 349.676C624.689 349.655 624.779 349.615 624.86 349.558C624.94 349.501 625.008 349.43 625.06 349.346C625.112 349.263 625.148 349.171 625.164 349.074C625.183 348.98 625.184 348.883 625.166 348.788C625.148 348.694 625.111 348.604 625.057 348.524C625.004 348.444 624.935 348.376 624.855 348.322C624.775 348.269 624.685 348.232 624.591 348.214C623.408 348.093 622.214 348.25 621.103 348.674C619.992 349.098 618.996 349.776 618.195 350.654C618.058 350.794 617.982 350.983 617.984 351.18C617.985 351.376 618.065 351.563 618.204 351.701C618.313 351.793 618.442 351.858 618.58 351.89Z" fill="#263238"/>
<g filter="url(#filter0_f)">
<ellipse cx="611.904" cy="802.804" rx="80.2638" ry="10.2633" transform="rotate(8.34537 611.904 802.804)" fill="#036792" fill-opacity="0.3"/>
</g>
<path d="M581.796 588.562C581.796 676.491 513.758 747.771 429.83 747.771C345.901 747.771 277.863 676.491 277.863 588.562C277.863 500.634 345.901 429.353 429.83 429.353C513.758 429.353 581.796 500.634 581.796 588.562Z" fill="#7FBED7"/>
<path d="M609.309 615.57C609.309 615.571 609.309 615.571 609.309 615.57C608.711 622.744 603.077 628.418 592.13 632.836C589.176 634.028 585.841 632.649 584.429 629.681C584.405 629.63 584.38 629.578 584.356 629.527C582.725 626.108 584.302 621.982 587.712 620.622C594.611 617.868 596.817 615.43 596.9 614.432C597.081 612.264 588.516 601.576 543.306 588.919C505.272 578.271 454.165 569.642 399.402 564.623C367.163 561.668 335.964 560.176 307.753 560.176C288.042 560.176 269.789 560.904 253.657 562.372C207.035 566.613 196.828 575.579 196.648 577.749C196.592 578.415 197.361 579.883 199.76 581.964C204.238 585.85 201.621 593.481 195.804 593.481C194.367 593.481 192.96 592.971 191.86 592.003C186.293 587.108 183.786 582.02 184.238 576.612C184.916 568.495 192.039 562.297 206.013 557.667C217.217 553.955 232.885 551.164 252.579 549.372C292.499 545.741 345.027 546.541 400.488 551.624C455.95 556.707 507.812 565.475 546.522 576.314C565.62 581.661 580.587 587.259 591.006 592.953C604 600.055 609.987 607.453 609.309 615.57Z" fill="#036792"/>
<path d="M524.213 606.632L468.837 758.92C464.173 771.746 449.345 776.712 438.445 769.098C433.51 765.651 430.251 760.125 429.515 753.96L424.227 709.635C424.227 709.635 423.571 687.227 415.028 670.003C407.274 654.37 385.972 654.209 378.52 670.003C371.591 684.691 369.473 708.364 369.473 708.364L364.033 753.96C363.297 760.125 360.038 765.651 355.103 769.098C344.202 776.711 329.375 771.745 324.711 758.92L269.335 606.631C260.871 583.354 259.424 557.916 265.191 533.75L276.163 487.773C281.286 466.305 301.878 453.092 322.46 458.068L343.041 463.044C351.004 464.969 359.319 464.102 366.844 460.762C386.311 452.121 407.238 452.121 426.706 460.762C434.231 464.102 442.546 464.969 450.509 463.044L471.089 458.068C491.67 453.093 512.264 466.305 517.387 487.773L528.358 533.75C534.123 557.917 532.676 583.354 524.213 606.632Z" fill="#ECF4F4"/>
<path d="M358.186 758.92C358.797 760.601 359.584 762.148 360.513 763.549C359.072 765.712 357.245 767.601 355.102 769.098C344.201 776.711 329.374 771.745 324.71 758.92L269.334 606.631C260.87 583.354 259.423 557.916 265.19 533.75L276.162 487.773C281.285 466.305 301.878 453.092 322.459 458.068L331.88 460.346C321.173 465.193 312.68 475.029 309.639 487.773L298.667 533.75C292.901 557.916 294.347 583.354 302.811 606.631L358.186 758.92ZM455.342 753.961L450.054 709.636C450.054 709.636 449.398 687.228 440.856 670.004C435.744 659.7 411.271 655.274 396.972 658.222C404.095 658.353 411.206 662.3 415.027 670.004C423.571 687.228 424.226 709.636 424.226 709.636L429.514 753.961C430.25 760.126 433.509 765.652 438.444 769.099C446.234 774.539 456.028 773.556 462.685 767.872L462.687 767.871C458.643 764.413 455.996 759.439 455.342 753.961Z" fill="#94D4D7"/>
<path d="M460.376 608.756C448.56 597.648 460.121 579.768 455.743 545.963C452.807 523.3 445.794 517.011 450.819 507.657C456.836 496.456 474.933 491.101 486.979 496.833C510.02 507.798 503.779 555.149 503.121 559.746C499.785 583.074 486.643 613.449 471.03 613.491C465.54 613.506 461.45 609.767 460.376 608.756Z" fill="#E8FEFF"/>
<path d="M375.182 558.681C375.182 562.285 372.394 565.206 368.954 565.206H364.802V569.556C364.802 573.16 362.013 576.081 358.574 576.081C355.134 576.081 352.346 573.16 352.346 569.556V565.206H348.193C344.754 565.206 341.965 562.285 341.965 558.681C341.965 555.078 344.754 552.156 348.193 552.156H352.346V547.806C352.346 544.203 355.134 541.281 358.574 541.281C362.013 541.281 364.802 544.203 364.802 547.806V552.156H368.954C372.394 552.156 375.182 555.078 375.182 558.681Z" fill="#036792"/>
<path d="M358.574 608.873V638.988C358.574 644.532 354.284 649.026 348.992 649.026H320.247V679.141C320.247 684.685 315.958 689.179 310.666 689.179H281.921C276.63 689.179 272.34 684.685 272.34 679.141V649.026H243.592C238.301 649.026 234.011 644.532 234.011 638.988V608.873C234.011 603.329 238.301 598.834 243.592 598.834H272.337V568.719C272.337 563.175 276.627 558.681 281.919 558.681H310.664C315.955 558.681 320.245 563.176 320.245 568.719V598.834H348.99C354.284 598.835 358.574 603.33 358.574 608.873ZM609.308 615.571C608.631 623.688 601.508 629.885 587.534 634.515C576.33 638.228 560.662 641.019 540.968 642.81C524.5 644.308 505.881 645.052 485.8 645.052C457.204 645.052 425.641 643.544 393.059 640.558C386.125 639.922 379.245 639.229 372.442 638.481C369.275 638.133 366.879 635.326 366.879 631.992C366.879 628.122 370.073 625.1 373.746 625.504C380.476 626.244 387.282 626.929 394.146 627.558C448.909 632.578 500.669 633.377 539.891 629.81C586.513 625.568 596.72 616.602 596.9 614.432C597.2 610.843 600.213 608.193 603.647 608.502C607.074 608.817 609.609 611.981 609.308 615.571ZM221.688 593.813C201.134 585.577 196.512 579.348 196.646 577.749C196.946 574.159 194.411 570.995 190.984 570.68C187.564 570.37 184.537 573.022 184.237 576.611C183.56 584.728 189.547 592.127 202.541 599.229C206.729 601.518 211.651 603.792 217.281 606.039C221.349 607.662 225.709 604.493 225.709 599.933V599.912C225.709 597.203 224.105 594.781 221.688 593.813Z" fill="#46CDD3"/>
<path d="M358.574 608.873V638.988C358.574 644.532 354.284 649.026 348.993 649.026H320.248V679.141C320.248 684.685 315.958 689.179 310.666 689.179H296.292V558.681H310.665C315.957 558.681 320.247 563.176 320.247 568.719V598.834H348.992C354.284 598.835 358.574 603.33 358.574 608.873ZM358.574 506.482C358.574 510.085 355.785 513.007 352.346 513.007H348.194V517.357C348.194 520.96 345.405 523.882 341.966 523.882C338.526 523.882 335.737 520.96 335.737 517.357V513.007H331.585C328.146 513.007 325.357 510.085 325.357 506.482C325.357 502.878 328.146 499.957 331.585 499.957H335.737V495.607C335.737 492.003 338.526 489.082 341.966 489.082C345.405 489.082 348.194 492.003 348.194 495.607V499.957H352.346C355.785 499.957 358.574 502.878 358.574 506.482Z" fill="#89EAEE"/>
<path d="M628.327 986.956C628.824 986.848 629.28 986.551 629.577 986.092C630.171 985.173 629.906 983.949 628.984 983.36L598.339 963.75C597.417 963.16 596.188 963.427 595.593 964.346C594.999 965.265 595.265 966.489 596.187 967.079L626.831 986.688C627.292 986.983 627.83 987.064 628.327 986.956Z" fill="#8D9CA8"/>
<path d="M584.289 968.66C584.667 968.902 585.113 969.013 585.564 968.977L593.172 968.367C593.522 968.355 593.865 968.311 594.199 968.238C595.667 967.92 596.966 967.036 597.796 965.755C598.408 964.805 598.714 963.716 598.704 962.62C598.699 961.898 598.555 961.172 598.268 960.487L595.692 953.363C595.54 952.94 595.25 952.58 594.873 952.338L594.851 952.324L588.141 959.521L585.827 965.009L584.289 968.66Z" fill="#9FACBA"/>
<path d="M584.289 968.66C584.667 968.902 585.113 969.013 585.564 968.977L593.172 968.367C593.522 968.355 593.865 968.311 594.199 968.238C595.667 967.92 596.966 967.036 597.796 965.755C598.408 964.805 598.714 963.716 598.704 962.62C598.056 962.896 597.357 963.058 596.633 963.081L588.659 963.547C588.338 963.565 588.018 963.486 587.745 963.316L585.827 965.008L584.289 968.66Z" fill="#8D9CA8"/>
<path d="M523.628 913.39L523.044 917.636L519.14 920.33L495.516 905.213L496.109 900.9L500.003 898.273L523.628 913.39Z" fill="#8D9CA8"/>
<path d="M500.003 898.273L504.097 900.893L503.206 902.272C502.677 903.089 502.914 904.177 503.733 904.701L521.779 916.248L523.044 917.635L519.14 920.33L495.516 905.213L496.109 900.899L500.003 898.273Z" fill="#7A8C98"/>
<path d="M584.289 968.659L594.851 952.324L545.86 920.975L539.11 928.214L535.297 937.31L584.289 968.659Z" fill="#D6FAFC"/>
<path d="M545.86 920.975L551.213 924.4L545.822 932.738C544.872 934.207 545.296 936.163 546.77 937.107L587.739 963.323L584.288 968.659L535.297 937.31L539.11 928.214L545.86 920.975Z" fill="#A5EAED"/>
<path d="M532.657 935.621C526.439 931.642 518.148 933.442 514.139 939.641L515.525 929.326C515.905 926.495 516.908 923.782 518.461 921.379L524.306 912.341C525.859 909.938 527.926 907.905 530.358 906.387L539.219 900.856C535.21 907.055 537.002 915.307 543.22 919.286C544.022 919.799 545.86 920.975 545.86 920.975L535.297 937.31C535.297 937.31 533.459 936.134 532.657 935.621Z" fill="#C5F7FA"/>
<path d="M538.534 932.304L535.297 937.31C535.297 937.31 533.459 936.134 532.658 935.621C530.931 934.517 529.046 933.859 527.136 933.616C530.509 931.528 534.703 931.005 538.534 932.304Z" fill="#46CDD3"/>
<path d="M533.11 910.43L527.266 919.467C525.712 921.87 524.709 924.584 524.329 927.415L523.491 933.651C519.788 934.191 516.326 936.259 514.139 939.641L515.525 929.326C515.905 926.495 516.908 923.782 518.461 921.379L524.306 912.341C525.859 909.938 527.926 907.905 530.358 906.387L539.219 900.856C538.211 902.415 537.571 904.103 537.274 905.821C535.652 907.124 534.243 908.677 533.11 910.43Z" fill="#46CDD3"/>
<path d="M477.265 908.543C475.999 906.318 476.87 903.483 479.098 902.201C481.862 900.61 484.55 897.932 486.673 894.649C488.818 891.332 490.159 887.75 490.45 884.563C490.682 882.023 492.937 880.146 495.488 880.372C498.038 880.598 499.918 882.84 499.687 885.38C499.475 887.703 498.903 890.129 498.018 892.544C497.714 893.375 498.014 894.304 498.76 894.782L499.466 895.233C500.443 895.859 500.725 897.156 500.095 898.131L495.423 905.356C494.793 906.331 493.489 906.614 492.512 905.988L491.806 905.536C491.06 905.059 490.085 905.172 489.451 905.793C487.609 907.595 485.626 909.119 483.59 910.273C481.361 911.537 478.528 910.763 477.265 908.543Z" fill="#46CDD3"/>
<path d="M479.098 902.201C481.862 900.61 484.549 897.932 486.673 894.649C488.818 891.332 490.159 887.749 490.45 884.563C490.682 882.023 492.937 880.146 495.488 880.372C496.348 880.448 497.128 880.758 497.78 881.226C497.458 881.785 497.246 882.418 497.183 883.101C496.892 886.288 495.551 889.87 493.406 893.187C491.283 896.47 488.596 899.149 485.831 900.74C483.604 902.022 482.732 904.856 483.999 907.082C484.44 907.857 485.076 908.452 485.808 908.849C485.078 909.369 484.339 909.849 483.591 910.273C481.361 911.537 478.528 910.763 477.266 908.544C475.999 906.318 476.87 903.483 479.098 902.201Z" fill="#89EAEE"/>
<path d="M578.316 954.954C578.813 954.846 579.269 954.549 579.566 954.09C580.16 953.171 579.895 951.947 578.973 951.358L568.207 944.469C567.285 943.879 566.056 944.146 565.462 945.065C564.867 945.984 565.133 947.207 566.055 947.797L576.821 954.686C577.281 954.981 577.819 955.062 578.316 954.954Z" fill="#A5EAED"/>
<path d="M553.726 923.018C557.577 922.182 561.11 919.888 563.408 916.334C568.004 909.227 565.943 899.733 558.814 895.171C551.685 890.61 542.146 892.681 537.55 899.788C535.324 903.231 534.575 907.328 535.443 911.325C536.311 915.322 538.691 918.741 542.144 920.95C545.709 923.231 549.876 923.854 553.726 923.018ZM548.071 896.966C550.927 896.346 554.017 896.808 556.662 898.5C561.95 901.884 563.479 908.926 560.07 914.198C556.66 919.469 549.585 921.005 544.297 917.622C541.735 915.982 539.97 913.447 539.326 910.482C538.682 907.517 539.237 904.478 540.889 901.924C542.593 899.288 545.215 897.586 548.071 896.966Z" fill="#46CDD3"/>
<path d="M528.663 961.806C532.513 960.971 536.047 958.676 538.345 955.122C542.94 948.015 540.879 938.522 533.751 933.96C526.622 929.398 517.083 931.469 512.487 938.576C510.26 942.019 509.512 946.116 510.38 950.113C511.247 954.111 513.627 957.529 517.081 959.739C520.646 962.02 524.813 962.642 528.663 961.806ZM523.007 935.755C525.863 935.135 528.954 935.596 531.598 937.288C536.886 940.672 538.415 947.714 535.006 952.986C531.597 958.258 524.521 959.794 519.234 956.41C516.672 954.771 514.906 952.235 514.263 949.27C513.619 946.305 514.174 943.266 515.826 940.712C517.53 938.076 520.151 936.375 523.007 935.755Z" fill="#46CDD3"/>
<path d="M561.84 531.51C562.353 529.135 562.719 526.731 562.938 524.311C563.939 516.17 568.823 509.873 574.865 508.618L579.24 507.735C579.24 507.735 572.354 507.735 569.431 505.773C563.331 501.517 561.938 488.923 561.938 488.923C561.938 488.923 560.231 501.517 554.091 505.773C551.227 507.735 544.283 507.735 544.283 507.735L548.677 508.618C554.758 509.873 559.584 516.17 560.604 524.311C560.846 526.737 561.259 529.142 561.84 531.51Z" fill="#FFF5C6"/>
<g opacity="0.7">
<path opacity="0.7" d="M561.84 531.51C562.353 529.135 562.719 526.731 562.938 524.311C563.939 516.17 568.823 509.873 574.865 508.618L579.24 507.735C579.24 507.735 572.354 507.735 569.431 505.773C563.331 501.517 561.938 488.923 561.938 488.923C561.938 488.923 560.231 501.517 554.091 505.773C551.227 507.735 544.283 507.735 544.283 507.735L548.677 508.618C554.758 509.873 559.584 516.17 560.604 524.311C560.846 526.737 561.259 529.142 561.84 531.51Z" fill="white"/>
</g>
<path d="M553.091 498.044C553.382 496.753 553.579 495.441 553.679 494.121C554.229 489.766 556.818 486.275 560.074 485.706L562.428 485.235C560.624 485.267 558.835 484.898 557.191 484.156C553.934 481.861 553.169 475.113 553.169 475.113C553.169 475.113 552.267 481.861 548.991 484.156C547.347 484.9 545.558 485.268 543.753 485.235L546.107 485.706C549.383 486.373 551.992 489.766 552.502 494.121C552.614 495.44 552.811 496.751 553.091 498.044Z" fill="#FFF5C6"/>
<g opacity="0.7">
<path opacity="0.7" d="M553.091 498.044C553.382 496.753 553.579 495.441 553.679 494.121C554.229 489.766 556.818 486.275 560.074 485.706L562.428 485.235C560.624 485.267 558.835 484.898 557.191 484.156C553.934 481.861 553.169 475.113 553.169 475.113C553.169 475.113 552.267 481.861 548.991 484.156C547.347 484.9 545.558 485.268 543.753 485.235L546.107 485.706C549.383 486.373 551.992 489.766 552.502 494.121C552.614 495.44 552.811 496.751 553.091 498.044Z" fill="white"/>
</g>
<path d="M336.643 466.58C336.935 465.288 337.131 463.977 337.232 462.656C337.781 458.302 340.37 454.927 343.627 454.261L345.981 453.77C344.176 453.802 342.388 453.434 340.743 452.691C337.467 450.396 336.722 443.648 336.722 443.648C336.722 443.648 335.819 450.396 332.543 452.691C330.899 453.434 329.11 453.802 327.306 453.77L329.66 454.261C332.916 454.927 335.545 458.302 336.055 462.656C336.155 463.977 336.352 465.288 336.643 466.58Z" fill="#FFF5C6"/>
<g opacity="0.7">
<path opacity="0.7" d="M336.643 466.58C336.935 465.288 337.131 463.977 337.232 462.656C337.781 458.302 340.37 454.927 343.627 454.261L345.981 453.77C344.176 453.802 342.388 453.434 340.743 452.691C337.467 450.396 336.722 443.648 336.722 443.648C336.722 443.648 335.819 450.396 332.543 452.691C330.899 453.434 329.11 453.802 327.306 453.77L329.66 454.261C332.916 454.927 335.545 458.302 336.055 462.656C336.155 463.977 336.352 465.288 336.643 466.58Z" fill="white"/>
</g>
<path d="M472.762 450.494C473.053 449.202 473.25 447.891 473.35 446.571C473.9 442.216 476.489 438.842 479.745 438.175L482.119 437.685C480.308 437.717 478.513 437.349 476.862 436.606C473.605 434.311 472.938 427.562 472.938 427.562C472.938 427.562 472.016 434.311 468.74 436.606C467.096 437.349 465.307 437.718 463.503 437.685L465.857 438.175C469.133 438.842 471.742 442.216 472.252 446.571C472.338 447.888 472.508 449.199 472.762 450.494Z" fill="#FFF5C6"/>
<g opacity="0.7">
<path opacity="0.7" d="M472.762 450.494C473.053 449.202 473.25 447.891 473.35 446.571C473.9 442.216 476.489 438.842 479.745 438.175L482.119 437.685C480.308 437.717 478.513 437.349 476.862 436.606C473.605 434.311 472.938 427.562 472.938 427.562C472.938 427.562 472.016 434.311 468.74 436.606C467.096 437.349 465.307 437.718 463.503 437.685L465.857 438.175C469.133 438.842 471.742 442.216 472.252 446.571C472.338 447.888 472.508 449.199 472.762 450.494Z" fill="white"/>
</g>
<path d="M406.419 398.785C406.687 397.489 406.884 396.18 407.008 394.862C407.537 390.507 410.127 387.133 413.403 386.466L415.756 385.976C413.952 386.009 412.163 385.641 410.519 384.897C407.243 382.602 406.498 375.854 406.498 375.854C406.498 375.854 405.576 382.602 402.319 384.897C400.668 385.64 398.873 386.008 397.062 385.976L399.436 386.466C402.692 387.133 405.321 390.507 405.811 394.862C405.923 396.182 406.127 397.493 406.419 398.785Z" fill="#FFF5C6"/>
<g opacity="0.7">
<path opacity="0.7" d="M406.419 398.785C406.687 397.489 406.884 396.18 407.008 394.862C407.537 390.507 410.127 387.133 413.403 386.466L415.756 385.976C413.952 386.009 412.163 385.641 410.519 384.897C407.243 382.602 406.498 375.854 406.498 375.854C406.498 375.854 405.576 382.602 402.319 384.897C400.668 385.64 398.873 386.008 397.062 385.976L399.436 386.466C402.692 387.133 405.321 390.507 405.811 394.862C405.923 396.182 406.127 397.493 406.419 398.785Z" fill="white"/>
</g>
<path d="M387.293 394.607C387.806 392.232 388.172 389.828 388.391 387.408C389.392 379.267 394.276 372.97 400.299 371.715L404.693 370.812C404.693 370.812 397.807 370.812 394.885 368.851C388.803 364.594 387.411 352 387.411 352C387.411 352 385.704 364.594 379.564 368.851C376.7 370.812 369.756 370.812 369.756 370.812L374.15 371.715C380.231 372.95 385.057 379.247 386.077 387.408C386.312 389.833 386.718 392.239 387.293 394.607Z" fill="#FFF5C6"/>
<g opacity="0.7">
<path opacity="0.7" d="M387.293 394.607C387.806 392.232 388.172 389.828 388.391 387.408C389.392 379.267 394.276 372.97 400.299 371.715L404.693 370.812C404.693 370.812 397.807 370.812 394.885 368.851C388.803 364.594 387.411 352 387.411 352C387.411 352 385.704 364.594 379.564 368.851C376.7 370.812 369.756 370.812 369.756 370.812L374.15 371.715C380.231 372.95 385.057 379.247 386.077 387.408C386.312 389.833 386.718 392.239 387.293 394.607Z" fill="white"/>
</g>
<path d="M294.37 497.887C294.659 496.595 294.856 495.284 294.958 493.964C295.507 489.59 298.097 486.216 301.353 485.549L303.707 485.058C301.903 485.09 300.114 484.722 298.469 483.979C295.213 481.704 294.448 474.936 294.448 474.936C294.448 474.936 293.546 481.704 290.27 483.979C288.626 484.723 286.837 485.092 285.032 485.058L287.386 485.549C290.643 486.216 293.271 489.59 293.781 493.964C293.895 495.283 294.092 496.593 294.37 497.887Z" fill="#FFF5C6"/>
<g opacity="0.7">
<path opacity="0.7" d="M294.37 497.887C294.659 496.595 294.856 495.284 294.958 493.964C295.507 489.59 298.097 486.216 301.353 485.549L303.707 485.058C301.903 485.09 300.114 484.722 298.469 483.979C295.213 481.704 294.448 474.936 294.448 474.936C294.448 474.936 293.546 481.704 290.27 483.979C288.626 484.723 286.837 485.092 285.032 485.058L287.386 485.549C290.643 486.216 293.271 489.59 293.781 493.964C293.895 495.283 294.092 496.593 294.37 497.887Z" fill="white"/>
</g>
<path d="M273.537 519.367C274.074 516.997 274.441 514.591 274.636 512.168C275.656 504.027 280.521 497.731 286.562 496.475L290.957 495.573C290.957 495.573 284.052 495.573 281.148 493.611C275.048 489.335 273.655 476.741 273.655 476.741C273.655 476.741 271.948 489.335 265.808 493.611C262.925 495.573 256 495.573 256 495.573L260.394 496.475C266.475 497.711 271.301 504.008 272.301 512.168C272.564 514.591 272.976 516.996 273.537 519.367Z" fill="#FFF5C6"/>
<g opacity="0.7">
<path opacity="0.7" d="M273.537 519.367C274.074 516.997 274.441 514.591 274.636 512.168C275.656 504.027 280.521 497.731 286.562 496.475L290.957 495.573C290.957 495.573 284.052 495.573 281.148 493.611C275.048 489.335 273.655 476.741 273.655 476.741C273.655 476.741 271.948 489.335 265.808 493.611C262.925 495.573 256 495.573 256 495.573L260.394 496.475C266.475 497.711 271.301 504.008 272.301 512.168C272.564 514.591 272.976 516.996 273.537 519.367Z" fill="white"/>
</g>
<defs>
<filter id="filter0_f" x="511" y="761" width="201.807" height="83.6082" filterUnits="userSpaceOnUse" color-interpolation-filters="sRGB">
<feFlood flood-opacity="0" result="BackgroundImageFix"/>
<feBlend mode="normal" in="SourceGraphic" in2="BackgroundImageFix" result="shape"/>
<feGaussianBlur stdDeviation="10" result="effect1_foregroundBlur"/>
</filter>
</defs>
</svg>
