<svg width="18" height="19" viewBox="0 0 18 19" fill="none" xmlns="http://www.w3.org/2000/svg">
<g clip-path="url(#clip0_462:492)">
<path d="M7.93735 0.0227051C3.56074 0.0227051 0 3.73946 0 8.30789C0 12.8763 3.56077 16.5931 7.93735 16.5931C12.3139 16.5931 15.8747 12.8763 15.8747 8.30789C15.8747 3.73946 12.314 0.0227051 7.93735 0.0227051ZM7.93735 15.2311C4.27814 15.2311 1.30121 12.1252 1.30121 8.30785C1.30121 4.49031 4.27814 1.38461 7.93735 1.38461C11.5966 1.38461 14.5735 4.49031 14.5735 8.30785C14.5735 12.1252 11.5966 15.2311 7.93735 15.2311Z" fill="#005072"/>
<path d="M17.8085 17.6537L13.5362 13.2047C13.2814 12.9396 12.8695 12.9407 12.616 13.2072C12.3627 13.4739 12.3638 13.905 12.6184 14.1703L16.8907 18.6194C17.0178 18.7515 17.1835 18.8175 17.3496 18.8175C17.5168 18.8175 17.6838 18.7505 17.8109 18.6169C18.0642 18.3501 18.0631 17.9191 17.8085 17.6537Z" fill="#005072"/>
</g>
<defs>
<clipPath id="clip0_462:492">
<rect width="18" height="18.8402" fill="white"/>
</clipPath>
</defs>
</svg>
