<svg width="564" height="476" viewBox="0 0 564 476" fill="none" xmlns="http://www.w3.org/2000/svg">
<path d="M563.972 230.771L563.932 230.029C563.898 229.533 563.881 229.036 563.83 228.546C563.733 227.56 563.637 226.612 563.478 225.62C562.902 221.844 561.887 218.171 560.459 214.699C557.792 208.425 554.153 202.747 549.716 197.938C545.751 193.596 541.419 189.71 536.783 186.334C527.907 179.797 518.878 175.052 510.235 171.1C501.592 167.149 493.261 164.138 485.543 161.611C477.825 159.084 470.697 157.098 464.364 155.519C458.03 153.939 452.486 152.695 447.906 151.741C443.326 150.787 439.74 150.123 437.283 149.665L433.526 149.021C433.258 148.976 432.985 149.05 432.763 149.226C432.54 149.402 432.385 149.667 432.329 149.968C432.273 150.269 432.319 150.583 432.459 150.847C432.599 151.11 432.822 151.303 433.083 151.387L436.755 152.508C439.133 153.25 442.628 154.352 447.049 155.841C451.47 157.33 456.816 159.206 462.877 161.534C468.938 163.861 475.725 166.652 482.989 169.998C490.253 173.344 497.983 177.276 505.814 181.989C513.646 186.701 521.596 192.2 528.787 198.847C532.351 202.095 535.625 205.736 538.559 209.716C541.396 213.622 543.666 217.839 544.864 222.029C545.458 224.028 545.812 226.11 545.914 228.218C545.948 228.721 545.914 229.23 545.914 229.726C545.914 229.978 545.914 230.229 545.885 230.474V230.848C545.885 230.771 545.885 231.151 545.885 230.7V230.841V231.119C545.799 231.708 545.656 232.285 545.46 232.84C544.847 234.465 544.016 235.972 542.997 237.307C541.68 239.069 540.229 240.696 538.661 242.168C535.06 245.504 531.205 248.468 527.141 251.026C522.941 253.74 518.52 256.222 514.031 258.53C505.031 263.139 495.752 267.072 486.644 270.566C477.535 274.06 468.569 277.083 460.011 279.772C451.453 282.46 443.287 284.781 435.728 286.798C423.924 289.951 413.595 292.362 405.395 294.154C404.685 275.94 402.388 257.85 398.539 240.15C390.566 203.501 407.75 157.214 407.75 157.214C407.75 157.214 452.475 70.5391 416.081 28.0621C368.235 -27.7852 314.333 16.9739 314.333 16.9739C304.686 22.46 295.577 24.626 286.906 24.6389C278.235 24.6518 269.138 22.46 259.479 16.9739C259.479 16.9739 205.566 -27.7852 157.731 28.0621C136.013 53.4103 143.181 94.4626 152.493 123.505C143.039 126.315 130.327 130.396 115.606 136.076C107.519 139.196 98.8247 142.8 89.7333 146.971C80.642 151.142 71.142 155.867 61.4945 161.314C51.4383 166.937 41.7322 173.334 32.4441 180.461C27.5133 184.275 22.8098 188.455 18.3643 192.974C13.8243 197.667 9.42053 202.895 5.72042 209.522C3.75547 213.027 2.22759 216.823 1.1804 220.804C0.624332 222.982 0.257487 225.217 0.0851261 227.476L0.0340487 228.347L0 229.365C0 230.281 0 230.01 0 230.977C0.0567501 232.021 0.0907987 233.059 0.215649 234.091C0.631847 238.129 1.5529 242.08 2.95101 245.823C4.27431 249.326 5.93795 252.649 7.91097 255.732C11.5607 261.319 15.8817 266.297 20.7479 270.521C25.2076 274.423 29.9262 277.927 34.8616 281.003C43.9181 286.582 53.3628 291.306 63.1005 295.127C72.2543 298.808 81.0165 301.671 89.1375 304.043C97.2584 306.416 104.755 308.259 111.412 309.755C118.069 311.251 123.897 312.392 128.681 313.275C133.465 314.158 137.256 314.764 139.832 315.209L143.771 315.853C144.048 315.912 144.334 315.844 144.567 315.663C144.799 315.483 144.959 315.204 145.011 314.89C145.063 314.575 145.003 314.25 144.843 313.986C144.684 313.722 144.439 313.54 144.162 313.481L140.298 312.43C137.784 311.734 134.101 310.709 129.43 309.31C124.76 307.911 119.119 306.138 112.7 303.94C106.282 301.742 99.0801 299.099 91.3677 295.908C83.6554 292.716 75.3926 288.977 66.9652 284.49C58.1912 279.908 49.7622 274.518 41.7624 268.374C37.7026 265.218 33.8643 261.709 30.2819 257.879C26.8443 254.264 23.87 250.119 21.4459 245.566C20.3778 243.489 19.5175 241.284 18.8808 238.99C18.3191 236.9 18.0229 234.729 18.0011 232.543C18.0011 232.015 18.0295 231.486 18.0409 230.964C18.0409 231.125 18.0749 230.094 18.1033 230.235C18.118 230.185 18.1293 230.133 18.1374 230.081L18.1827 229.778C18.3348 228.922 18.5571 228.085 18.8467 227.276C19.5766 225.308 20.5306 223.457 21.6842 221.771C24.2096 218 27.7451 214.319 31.6212 210.96C35.628 207.549 39.827 204.439 44.1913 201.651C53.0294 196.042 62.193 191.123 71.6187 186.927C80.8803 182.737 90.0568 179.191 98.8588 176.058C107.661 172.925 116.082 170.34 123.92 168.128C139.56 163.712 152.771 160.895 162.01 159.103C163.611 158.794 165.092 158.523 166.448 158.278C168.968 165.479 182.52 206.789 175.273 240.118C161.443 303.65 168.338 368.252 191.197 429.379C206.207 469.503 229.299 512.663 234.492 424.131C239.372 341.008 250.506 289.97 286.889 289.97C323.691 289.97 334.406 341.008 339.286 424.131C344.479 512.663 367.571 469.503 382.581 429.379C394.402 397.79 401.956 365.228 404.583 332.383L406.286 331.86C415.394 329.037 428.356 324.84 443.741 319.141C451.43 316.292 459.727 313.062 468.444 309.407C477.161 305.751 486.298 301.671 495.684 297.068C505.071 292.465 514.639 287.308 524.201 281.267C528.979 278.231 533.752 274.969 538.451 271.301C543.361 267.548 547.959 263.295 552.19 258.594C554.495 255.993 556.584 253.158 558.433 250.123C560.576 246.653 562.181 242.792 563.177 238.706C563.718 236.392 563.994 234.009 564 231.615L563.972 230.771ZM195.635 154.468C195.275 154.955 194.85 155.375 194.375 155.712C193.189 156.544 191.762 156.808 190.405 156.445C189.048 156.083 187.874 155.124 187.139 153.778C186.719 153.018 186.305 152.25 185.902 151.49C180.207 141.023 175.605 129.838 172.191 118.16C170.531 112.38 169.278 106.458 168.446 100.452C166.545 86.5397 167.248 73.1822 170.54 60.7402C176.187 39.3631 187.525 28.1524 188.008 27.6882C189.069 26.7311 190.415 26.2775 191.765 26.4224C193.114 26.5672 194.362 27.2993 195.247 28.4653C196.132 29.6314 196.585 31.141 196.513 32.6784C196.44 34.2158 195.847 35.6617 194.857 36.7135C194.687 36.8876 185.074 46.6091 180.426 64.8145C175.96 82.3171 177.322 101.438 184.472 121.893C186.443 127.484 188.718 132.931 191.282 138.203C192.754 141.267 194.347 144.355 196.06 147.467C196.65 148.535 196.927 149.788 196.85 151.046C196.774 152.304 196.348 153.502 195.635 154.468Z" fill="url(#paint0_linear_608_491)"/>
<defs>
<linearGradient id="paint0_linear_608_491" x1="282" y1="0" x2="282" y2="476" gradientUnits="userSpaceOnUse">
<stop stop-color="#098BC2"/>
<stop offset="1" stop-color="#00D7E1" stop-opacity="0"/>
</linearGradient>
</defs>
</svg>
