<svg width="105" height="105" viewBox="0 0 105 105" fill="none" xmlns="http://www.w3.org/2000/svg">
<path d="M79.9787 92.4894C79.9787 99.4149 85.5638 105 92.4894 105C99.4149 105 105 99.4149 105 92.4894C105 86.234 100.532 81.0958 94.7234 80.2021V28.5957C94.7234 23.0106 90.2553 18.5426 84.6702 18.5426C79.0851 18.5426 74.617 23.0106 74.617 28.5957V61.883C74.617 65.234 71.9362 67.9149 68.5851 67.9149C62.7766 67.9149 58.0851 72.6064 58.0851 78.4149V88.2447C58.0851 95.1702 52.5 100.755 45.5745 100.755C38.6489 100.755 33.0638 95.1702 33.0638 88.2447V63.8936C48.9255 62.7766 61.4362 49.3723 61.4362 33.2872V10.0532C61.4362 4.46809 56.9681 0 51.383 0V4.46809C54.5106 4.46809 56.9681 6.92553 56.9681 10.0532V33.2872C56.9681 47.8085 45.1277 59.6489 30.6064 59.6489C16.0851 59.6489 4.46809 47.5851 4.46809 33.2872V10.0532C4.46809 6.92553 6.92553 4.46809 10.0532 4.46809V0C4.46809 0 0 4.46809 0 10.0532V33.2872C0 49.5957 12.5106 62.7766 28.5957 63.8936V88.0213C28.5957 97.4043 36.1915 105 45.5745 105C54.9574 105 62.5532 97.4043 62.5532 88.0213V78.1915C62.5532 74.8404 65.234 72.1596 68.5851 72.1596C74.3936 72.1596 79.0851 67.4681 79.0851 61.6596V28.5957C79.0851 25.4681 81.5426 23.0106 84.6702 23.0106C87.7979 23.0106 90.2553 25.4681 90.2553 28.5957V80.2021C84.4468 81.0958 79.9787 86.234 79.9787 92.4894ZM100.532 92.4894C100.532 96.9575 96.9575 100.532 92.4894 100.532C88.0213 100.532 84.4468 96.9575 84.4468 92.4894C84.4468 88.0213 88.0213 84.4468 92.4894 84.4468C96.9575 84.4468 100.532 88.0213 100.532 92.4894Z" fill="#005072"/>
<path d="M89.3618 92.489C89.3618 94.2762 90.7022 95.6166 92.4895 95.6166C94.2767 95.6166 95.6171 94.2762 95.6171 92.489C95.6171 90.7018 94.2767 89.3613 92.4895 89.3613C90.7022 89.3613 89.3618 90.7018 89.3618 92.489Z" fill="#005072"/>
</svg>
