<svg width="101" height="81" viewBox="0 0 101 81" fill="none" xmlns="http://www.w3.org/2000/svg">
<path d="M37.2832 0.000113056L37.1846 1.51507C37.1521 2.02604 36.9062 2.35763 36.3955 2.72704C35.9077 3.08029 35.184 3.37132 34.5215 3.43402H34.4229H27.5186C22.7746 3.43402 18.9375 7.43578 18.9375 12.3218V18.7856V18.8866V21.5126C18.8531 21.8073 18.8531 22.1268 18.9375 22.4215V27.6734C18.9375 31.156 20.1358 34.334 22.0938 36.8642V44.54L6.6084 53.6297C2.56603 55.9955 0 60.3757 0 65.1434V79.384V81H1.57812C31.8255 81 62.0729 81 92.3203 81C96.9934 81 101 77.4727 101 72.9202C101 72.0741 100.248 71.3043 99.4219 71.3043H94.6875V24.4415C94.6874 23.5954 93.9357 22.8256 93.1094 22.8255H47.3438C47.3448 22.7919 47.3448 22.7582 47.3438 22.7245V18.8866C47.3421 19.0514 47.3438 19.0668 47.3438 18.7856V9.29187V9.19087V9.08988C47.0316 6.63394 46.3012 4.42477 44.8779 2.72704C43.4546 1.02964 41.3138 -0.0124914 38.7627 0.000113056H37.2832ZM39.3545 3.43402C40.6931 3.573 41.7795 3.97569 42.5107 4.84799C43.3352 5.83114 43.9089 7.37308 44.1875 9.29187V18.7856C44.1875 18.5562 44.1897 18.6572 44.1875 18.8866V19.2906C43.5353 18.9651 42.8979 18.7123 42.2148 18.5836C40.3359 18.2297 38.4193 18.3008 36.5928 18.3816C34.7662 18.4592 33.0459 18.4697 31.6611 18.0786C30.2764 17.6873 29.2259 17.0813 28.3076 15.4527C27.9796 14.8223 27.209 14.4716 26.5322 14.6447C25.9591 14.7799 25.4807 15.2699 25.3486 15.8567C25.4061 15.6369 25.1848 16.1443 24.7568 16.6647C24.3289 17.1837 23.8014 17.8125 23.1787 18.3816C22.8199 18.7096 22.4621 18.9243 22.0938 19.1896V18.8866V18.7856V12.3218C22.0938 9.1487 24.4898 6.66594 27.5186 6.66594H34.5215H34.6201C35.8595 6.58191 37.1852 6.13801 38.2695 5.35297C38.8407 4.93929 38.9712 4.09818 39.3545 3.43402ZM27.4199 18.4826C28.513 19.5456 29.4779 20.8434 30.7734 21.2096C32.773 21.7748 34.8142 21.694 36.6914 21.6135C38.5686 21.5328 40.3189 21.4689 41.623 21.7145C42.8275 21.9414 43.5473 22.4263 44.1875 23.4315V27.6734C44.1875 34.07 39.278 39.1871 33.1406 39.1871C27.0032 39.1871 22.0938 34.07 22.0938 27.6734V23.0275C22.3688 22.8655 22.7057 22.702 22.9814 22.5225C23.7257 22.0384 24.5273 21.4659 25.25 20.8056C25.9727 20.1453 26.6696 19.4562 27.2227 18.7856C27.305 18.6854 27.3426 18.5764 27.4199 18.4826ZM47.3438 26.0574H91.5312V71.2033L85.6133 71.3043H66.2812V64.8404C66.2812 60.266 63.946 56.0002 60.0674 53.7307L44.1875 44.54V36.7632C46.0933 34.2508 47.3438 31.1043 47.3438 27.6734V26.0574ZM41.0312 39.8941V45.4489V46.3579C39.7736 48.7439 38.5663 51.2199 35.8037 53.6297L35.7051 53.7307L33.2393 56.0536L30.8721 53.7307L30.6748 53.5287C28.4131 51.0282 26.2542 48.0565 25.25 45.2469V39.9951C27.4952 41.5432 30.2422 42.419 33.1406 42.419C36.0857 42.419 38.7647 41.4881 41.0312 39.8941ZM20.9102 48.8828L19.0361 56.1546L18.9375 56.2556V56.3566C18.6405 58.8717 21.3064 60.9927 23.5732 59.8915V59.7906L29.4912 56.8616L31.5625 58.8816V77.7681H15.7812V68.0723H12.625V77.7681H3.15625V65.1434C3.15625 61.5305 5.12297 58.1494 8.18652 56.3566L20.9102 48.8828ZM24.165 49.1858C25.157 50.975 26.1258 52.6954 27.4199 54.2357L22.1924 56.9626H22.0938V56.8616C22.0874 56.8261 22.0811 56.8608 22.0938 56.7606L24.165 49.1858ZM45.8643 49.1858L58.4893 56.5586C61.389 58.2554 63.125 61.4204 63.125 64.8404V77.7681H53.7549V68.0723H50.5986V77.7681H34.8174V58.9826L37.0859 56.8616L43.2998 59.8915C45.5976 60.9578 48.351 58.9196 48.0342 56.3566L47.9355 56.1546V56.0536C47.9355 56.0536 47.061 53.4282 46.2588 50.7008C46.1003 50.162 45.9983 49.7172 45.8643 49.1858ZM42.8066 49.6908C42.9884 50.334 43.103 50.9401 43.2998 51.6098C44.0668 54.2179 44.6928 56.4837 44.7793 56.7606C44.7698 56.8382 44.7572 56.9756 44.6807 56.9626H44.582L39.2559 54.3367C40.7282 52.6897 42.0272 51.1743 42.8066 49.6908ZM39.4531 64.8404C38.5816 64.8404 37.875 65.5639 37.875 66.4564C37.875 67.3488 38.5816 68.0723 39.4531 68.0723C40.3247 68.0723 41.0312 67.3488 41.0312 66.4564C41.0312 65.5639 40.3247 64.8404 39.4531 64.8404ZM39.4531 71.3043C38.5816 71.3043 37.875 72.0277 37.875 72.9202C37.875 73.8127 38.5816 74.5362 39.4531 74.5362C40.3247 74.5362 41.0312 73.8127 41.0312 72.9202C41.0312 72.0277 40.3247 71.3043 39.4531 71.3043ZM66.2812 74.5362H85.6133H97.0547C96.2625 76.2885 94.7101 77.7681 92.3203 77.7681H66.2812V74.5362Z" fill="#005072"/>
</svg>
