<svg width="94" height="101" viewBox="0 0 94 101" fill="none" xmlns="http://www.w3.org/2000/svg">
<path d="M85.2963 0H8.7037C6.39534 0 4.18152 0.916995 2.54926 2.54926C0.916995 4.18152 0 6.39534 0 8.7037V64.4074C0 66.7158 0.916995 68.9296 2.54926 70.5619C4.18152 72.1941 6.39534 73.1111 8.7037 73.1111H85.2963C87.6047 73.1111 89.8185 72.1941 91.4507 70.5619C93.083 68.9296 94 66.7158 94 64.4074V8.7037C94 6.39534 93.083 4.18152 91.4507 2.54926C89.8185 0.916995 87.6047 0 85.2963 0ZM90.5185 64.4074C90.5185 65.7924 89.9683 67.1207 88.989 68.1001C88.0096 69.0794 86.6813 69.6296 85.2963 69.6296H8.7037C7.31868 69.6296 5.99039 69.0794 5.01104 68.1001C4.03168 67.1207 3.48148 65.7924 3.48148 64.4074V8.7037C3.48148 7.31868 4.03168 5.99039 5.01104 5.01104C5.99039 4.03168 7.31868 3.48148 8.7037 3.48148H85.2963C86.6813 3.48148 88.0096 4.03168 88.989 5.01104C89.9683 5.99039 90.5185 7.31868 90.5185 8.7037V64.4074Z" fill="#005072"/>
<path d="M81.8148 69.6299H12.1852C11.7235 69.6299 11.2808 69.8133 10.9543 70.1397C10.6279 70.4662 10.4445 70.909 10.4445 71.3706V78.3336C10.4445 78.7953 10.6279 79.238 10.9543 79.5645C11.2808 79.8909 11.7235 80.0743 12.1852 80.0743H81.8148C82.2765 80.0743 82.7193 79.8909 83.0457 79.5645C83.3722 79.238 83.5556 78.7953 83.5556 78.3336V71.3706C83.5556 70.909 83.3722 70.4662 83.0457 70.1397C82.7193 69.8133 82.2765 69.6299 81.8148 69.6299ZM13.9259 76.5928V73.1114H80.0741V76.5928H13.9259Z" fill="#005072"/>
<path d="M88.7778 76.5928H5.22222C3.8372 76.5928 2.50891 77.143 1.52955 78.1223C0.550197 79.1017 0 80.43 0 81.815V95.7409C0 97.1259 0.550197 98.4542 1.52955 99.4336C2.50891 100.413 3.8372 100.963 5.22222 100.963H88.7778C90.1628 100.963 91.4911 100.413 92.4704 99.4336C93.4498 98.4542 94 97.1259 94 95.7409V81.815C94 80.43 93.4498 79.1017 92.4704 78.1223C91.4911 77.143 90.1628 76.5928 88.7778 76.5928ZM90.5185 95.7409C90.5185 96.2026 90.3351 96.6454 90.0087 96.9718C89.6822 97.2983 89.2395 97.4817 88.7778 97.4817H5.22222C4.76055 97.4817 4.31779 97.2983 3.99133 96.9718C3.66488 96.6454 3.48148 96.2026 3.48148 95.7409V81.815C3.48148 81.3533 3.66488 80.9106 3.99133 80.5841C4.31779 80.2577 4.76055 80.0743 5.22222 80.0743H88.7778C89.2395 80.0743 89.6822 80.2577 90.0087 80.5841C90.3351 80.9106 90.5185 81.3533 90.5185 81.815V95.7409Z" fill="#005072"/>
<path opacity="0.5" d="M88.7777 80.073H5.22219C4.76051 80.073 4.31775 80.2564 3.9913 80.5828C3.66484 80.9093 3.48145 81.352 3.48145 81.8137V95.7396C3.48145 96.2013 3.66484 96.6441 3.9913 96.9705C4.31775 97.297 4.76051 97.4804 5.22219 97.4804H88.7777C89.2394 97.4804 89.6822 97.297 90.0086 96.9705C90.3351 96.6441 90.5185 96.2013 90.5185 95.7396V81.8137C90.5185 81.352 90.3351 80.9093 90.0086 80.5828C89.6822 80.2564 89.2394 80.073 88.7777 80.073ZM31.3333 90.5174H13.9259C13.4642 90.5174 13.0215 90.334 12.695 90.0076C12.3685 89.6811 12.1851 89.2383 12.1851 88.7767C12.1851 88.315 12.3685 87.8722 12.695 87.5458C13.0215 87.2193 13.4642 87.0359 13.9259 87.0359H31.3333C31.795 87.0359 32.2377 87.2193 32.5642 87.5458C32.8906 87.8722 33.074 88.315 33.074 88.7767C33.074 89.2383 32.8906 89.6811 32.5642 90.0076C32.2377 90.334 31.795 90.5174 31.3333 90.5174ZM50.4814 92.2581C49.7929 92.2581 49.1198 92.054 48.5472 91.6714C47.9747 91.2889 47.5285 90.7451 47.265 90.109C47.0015 89.4728 46.9325 88.7728 47.0669 88.0975C47.2012 87.4221 47.5328 86.8018 48.0197 86.3149C48.5066 85.828 49.1269 85.4964 49.8022 85.3621C50.4776 85.2277 51.1776 85.2967 51.8138 85.5602C52.4499 85.8237 52.9936 86.2699 53.3762 86.8424C53.7587 87.415 53.9629 88.0881 53.9629 88.7767C53.9629 89.7 53.5961 90.5855 52.9432 91.2384C52.2903 91.8913 51.4048 92.2581 50.4814 92.2581ZM64.4074 92.2581C63.7188 92.2581 63.0457 92.054 62.4732 91.6714C61.9006 91.2889 61.4544 90.7451 61.1909 90.109C60.9274 89.4728 60.8585 88.7728 60.9928 88.0975C61.1271 87.4221 61.4587 86.8018 61.9456 86.3149C62.4325 85.828 63.0528 85.4964 63.7282 85.3621C64.4035 85.2277 65.1035 85.2967 65.7397 85.5602C66.3758 85.8237 66.9196 86.2699 67.3021 86.8424C67.6847 87.415 67.8889 88.0881 67.8889 88.7767C67.8889 89.7 67.5221 90.5855 66.8692 91.2384C66.2163 91.8913 65.3307 92.2581 64.4074 92.2581ZM78.3333 92.2581C77.6447 92.2581 76.9716 92.054 76.3991 91.6714C75.8266 91.2889 75.3803 90.7451 75.1168 90.109C74.8533 89.4728 74.7844 88.7728 74.9187 88.0975C75.053 87.4221 75.3846 86.8018 75.8715 86.3149C76.3584 85.828 76.9788 85.4964 77.6541 85.3621C78.3294 85.2277 79.0294 85.2967 79.6656 85.5602C80.3018 85.8237 80.8455 86.2699 81.2281 86.8424C81.6106 87.415 81.8148 88.0881 81.8148 88.7767C81.8148 89.7 81.448 90.5855 80.7951 91.2384C80.1422 91.8913 79.2566 92.2581 78.3333 92.2581ZM55.1466 33.4559C55.2351 33.8486 55.4568 34.1985 55.7742 34.4461C56.0916 34.6936 56.485 34.8235 56.8874 34.8137H57.2703C59.6029 34.2915 62.7014 33.3341 62.7014 30.9493C62.7014 28.5644 59.6029 27.5896 57.2703 27.0848C54.4644 26.4903 51.6084 26.1639 48.7407 26.11V20.8878C50.9147 20.9392 53.0781 21.2075 55.1989 21.6885C55.7146 21.8148 56.2207 21.9777 56.7133 22.1759C56.2171 22.359 55.7115 22.5159 55.1989 22.6459C54.7395 22.7129 54.3255 22.9595 54.048 23.3317C53.7706 23.7039 53.6523 24.171 53.7192 24.6304C53.7862 25.0897 54.0328 25.5037 54.405 25.7812C54.7772 26.0587 55.2443 26.1769 55.7037 26.11C55.8482 26.127 55.9943 26.127 56.1389 26.11C57.34 25.7967 61.0129 24.8741 61.0129 22.263C61.0129 19.6518 57.34 18.7815 56.1389 18.3985C53.7136 17.8134 51.2344 17.4809 48.7407 17.4063V15.6655C48.7407 15.2039 48.5573 14.7611 48.2309 14.4347C47.9044 14.1082 47.4616 13.9248 47 13.9248C46.5383 13.9248 46.0955 14.1082 45.7691 14.4347C45.4426 14.7611 45.2592 15.2039 45.2592 15.6655V17.4063C42.7977 17.4583 40.348 17.7616 37.9481 18.3115C36.747 18.6248 33.074 19.5474 33.074 22.1759C33.074 24.8044 36.747 25.6574 37.9481 26.023C38.171 26.079 38.4027 26.0905 38.6301 26.057C38.8574 26.0234 39.0759 25.9454 39.2731 25.8274C39.4703 25.7094 39.6424 25.5537 39.7794 25.3692C39.9165 25.1848 40.0158 24.9751 40.0718 24.7522C40.1278 24.5293 40.1394 24.2976 40.1058 24.0702C40.0723 23.8429 39.9943 23.6244 39.8763 23.4272C39.7583 23.23 39.6026 23.0579 39.4181 22.9209C39.2336 22.7839 39.024 22.6845 38.8011 22.6285C38.2884 22.4985 37.7829 22.3416 37.2866 22.1585C37.7792 21.9603 38.2853 21.7974 38.8011 21.6711C40.9224 21.1959 43.0858 20.9335 45.2592 20.8878V26.11C42.4054 26.1432 39.5611 26.4463 36.7644 27.0152C34.4318 27.52 31.3333 28.4774 31.3333 30.8796C31.3333 33.2818 34.4318 34.2218 36.7644 34.7441C37.2261 34.8433 37.7083 34.7551 38.1049 34.4989C38.5016 34.2426 38.7801 33.8393 38.8794 33.3776C38.9787 32.9159 38.8905 32.4337 38.6342 32.0371C38.3779 31.6404 37.9746 31.3618 37.5129 31.2626C36.9245 31.1452 36.3433 30.9941 35.7722 30.81C36.3398 30.6099 36.9217 30.4528 37.5129 30.34C40.0672 29.8579 42.6599 29.6074 45.2592 29.5915V34.8137C42.7977 34.8657 40.348 35.169 37.9481 35.7189C36.747 36.0322 33.074 36.9548 33.074 39.5833C33.074 42.2118 36.747 43.0648 37.9481 43.4304C38.171 43.4864 38.4027 43.4979 38.6301 43.4644C38.8574 43.4308 39.0759 43.3528 39.2731 43.2348C39.4703 43.1168 39.6424 42.9611 39.7794 42.7767C39.9165 42.5922 40.0158 42.3825 40.0718 42.1596C40.1278 41.9367 40.1394 41.705 40.1058 41.4777C40.0723 41.2503 39.9943 41.0318 39.8763 40.8346C39.7583 40.6374 39.6026 40.4654 39.4181 40.3283C39.2336 40.1913 39.024 40.0919 38.8011 40.0359C38.2884 39.9059 37.7829 39.749 37.2866 39.5659C37.7792 39.3677 38.2853 39.2049 38.8011 39.0785C40.9224 38.6033 43.0858 38.3409 45.2592 38.2952V46.9989H40.9074C39.2915 46.9989 37.7418 47.6408 36.5993 48.7834C35.4567 49.9259 34.8148 51.4756 34.8148 53.0915C34.8148 54.7073 35.4567 56.257 36.5993 57.3996C37.7418 58.5422 39.2915 59.1841 40.9074 59.1841H42.6481C43.4598 59.1819 44.2629 59.0176 45.0103 58.7007C45.7576 58.3838 46.4341 57.9208 47 57.3389C47.5659 57.9208 48.2423 58.3838 48.9897 58.7007C49.737 59.0176 50.5401 59.1819 51.3518 59.1841H53.0926C54.7084 59.1841 56.2581 58.5422 57.4007 57.3996C58.5433 56.257 59.1852 54.7073 59.1852 53.0915C59.1852 51.4756 58.5433 49.9259 57.4007 48.7834C56.2581 47.6408 54.7084 46.9989 53.0926 46.9989H48.7407V38.2952C50.9147 38.3466 53.0781 38.6149 55.1989 39.0959C55.7146 39.2223 56.2207 39.3851 56.7133 39.5833C56.2171 39.7664 55.7115 39.9233 55.1989 40.0533C54.7395 40.1203 54.3255 40.3669 54.048 40.7391C53.7706 41.1113 53.6523 41.5784 53.7192 42.0378C53.7862 42.4971 54.0328 42.9111 54.405 43.1886C54.7772 43.4661 55.2443 43.5843 55.7037 43.5174C55.8482 43.5344 55.9943 43.5344 56.1389 43.5174C57.34 43.2041 61.0129 42.2815 61.0129 39.6704C61.0129 37.0593 57.34 36.1889 56.1389 35.8059C53.7136 35.2208 51.2344 34.8883 48.7407 34.8137V29.5915C51.3422 29.6303 53.9348 29.9041 56.487 30.4096C57.0782 30.5224 57.6601 30.6795 58.2277 30.8796C57.6566 31.0637 57.0754 31.2148 56.487 31.3322C56.2572 31.3793 56.0393 31.4723 55.8464 31.6057C55.6535 31.7391 55.4895 31.9101 55.3643 32.1084C55.2391 32.3068 55.1553 32.5284 55.1179 32.76C55.0805 32.9915 55.0903 33.2282 55.1466 33.4559ZM42.6481 55.7026H40.9074C40.2149 55.7026 39.5507 55.4275 39.061 54.9378C38.5714 54.4481 38.2963 53.784 38.2963 53.0915C38.2963 52.399 38.5714 51.7348 39.061 51.2451C39.5507 50.7555 40.2149 50.4804 40.9074 50.4804H45.2592V53.0915C45.2592 53.784 44.9841 54.4481 44.4944 54.9378C44.0048 55.4275 43.3406 55.7026 42.6481 55.7026ZM55.7037 53.0915C55.7037 53.784 55.4286 54.4481 54.9389 54.9378C54.4492 55.4275 53.7851 55.7026 53.0926 55.7026H51.3518C50.6593 55.7026 49.9952 55.4275 49.5055 54.9378C49.0158 54.4481 48.7407 53.784 48.7407 53.0915V50.4804H53.0926C53.7851 50.4804 54.4492 50.7555 54.9389 51.2451C55.4286 51.7348 55.7037 52.399 55.7037 53.0915Z" fill="#005072"/>
<path d="M85.2963 6.96289H8.70375C8.24208 6.96289 7.79932 7.14629 7.47286 7.47274C7.14641 7.79919 6.96301 8.24196 6.96301 8.70363V64.4073C6.96301 64.869 7.14641 65.3118 7.47286 65.6382C7.79932 65.9647 8.24208 66.1481 8.70375 66.1481H85.2963C85.758 66.1481 86.2008 65.9647 86.5272 65.6382C86.8537 65.3118 87.0371 64.869 87.0371 64.4073V8.70363C87.0371 8.24196 86.8537 7.79919 86.5272 7.47274C86.2008 7.14629 85.758 6.96289 85.2963 6.96289ZM83.5556 62.6666H10.4445V10.4444H83.5556V62.6666Z" fill="#005072"/>
</svg>
