<svg xmlns:xlink="http://www.w3.org/1999/xlink" xmlns="http://www.w3.org/2000/svg" xml:space="preserve" style="max-height: 500px" viewBox="0 0 537.6 510.72" y="0px" x="0px" version="1.1" width="537.6" height="510.72"><g><path d="M256,22C126.765,22,22,126.765,22,256s104.765,234,234,234s234-104.765,234-234S385.235,22,256,22z M417.159,165.588   l-154.111,154.11c-6.056,6.057-16.283,5.72-21.926-0.721l-65.12-74.292l22.601-19.811l54.541,62.223l142.762-142.762   L417.159,165.588z M256,419.156c-89.964,0-163.156-73.192-163.156-163.156S166.036,92.844,256,92.844   c37.608,0,74.335,13.156,103.417,37.044l-19.077,23.225c-23.72-19.484-53.673-30.214-84.341-30.214   c-73.392,0-133.101,59.709-133.101,133.101S182.608,389.101,256,389.101S389.101,329.392,389.101,256   c0-10.428-1.215-20.813-3.611-30.867l29.236-6.967c2.939,12.334,4.429,25.063,4.429,37.834   C419.156,345.964,345.964,419.156,256,419.156z" fill="#32c935"/></g><text font-family="'Helvetica Neue', Helvetica, Arial-Unicode, Arial, Sans-serif" font-weight="bold" font-size="5px" fill="#32c935" y="527" x="0">Created by SBTS</text><text font-family="'Helvetica Neue', Helvetica, Arial-Unicode, Arial, Sans-serif" font-weight="bold" font-size="5px" fill="#32c935" y="532" x="0">from the Noun Project</text></svg>