<svg xmlns="http://www.w3.org/2000/svg" viewBox="0 0 128 160" x="0px" y="0px"><title>most_search2BF</title><g><path d="M34,99h7v7a8,8,0,0,0,16,0V99H71v7a8,8,0,0,0,16,0V99h7V55H34Z"/><path d="M95.23,14.54a3.93,3.93,0,0,0-2-.54,4,4,0,0,0-3.46,2l-6,10.43a30,30,0,0,0-39.5,0L38.23,16a4,4,0,0,0-3.46-2,3.93,3.93,0,0,0-2,.54A4,4,0,0,0,31.3,20l7.43,12.86A29.71,29.71,0,0,0,34,49H94a29.71,29.71,0,0,0-4.73-16.14L96.7,20A4,4,0,0,0,95.23,14.54ZM52.5,41a3,3,0,1,1,3-3A3,3,0,0,1,52.5,41Zm23,0a3,3,0,1,1,3-3A3,3,0,0,1,75.5,41Z"/><path d="M108,55a6,6,0,0,0-6,6V81a6,6,0,0,0,12,0V61A6,6,0,0,0,108,55Z"/><path d="M20,55a6,6,0,0,0-6,6V81a6,6,0,0,0,12,0V61A6,6,0,0,0,20,55Z"/></g><text x="0" y="143" fill="#000000" font-size="5px" font-weight="bold" font-family="'Helvetica Neue', Helvetica, Arial-Unicode, Arial, Sans-serif">Created by HideMaru</text><text x="0" y="148" fill="#000000" font-size="5px" font-weight="bold" font-family="'Helvetica Neue', Helvetica, Arial-Unicode, Arial, Sans-serif">from the Noun Project</text></svg>