<svg xmlns="http://www.w3.org/2000/svg" y="0px" x="0px" viewBox="0 6.4 129.92 120.32" style="max-height: 500px" width="129.92" height="120.32"><title>most_search2BF</title><g><path d="M34,99h7v7a8,8,0,0,0,16,0V99H71v7a8,8,0,0,0,16,0V99h7V55H34Z" fill="#ffffff"/><path d="M95.23,14.54a3.93,3.93,0,0,0-2-.54,4,4,0,0,0-3.46,2l-6,10.43a30,30,0,0,0-39.5,0L38.23,16a4,4,0,0,0-3.46-2,3.93,3.93,0,0,0-2,.54A4,4,0,0,0,31.3,20l7.43,12.86A29.71,29.71,0,0,0,34,49H94a29.71,29.71,0,0,0-4.73-16.14L96.7,20A4,4,0,0,0,95.23,14.54ZM52.5,41a3,3,0,1,1,3-3A3,3,0,0,1,52.5,41Zm23,0a3,3,0,1,1,3-3A3,3,0,0,1,75.5,41Z" fill="#ffffff"/><path d="M108,55a6,6,0,0,0-6,6V81a6,6,0,0,0,12,0V61A6,6,0,0,0,108,55Z" fill="#ffffff"/><path d="M20,55a6,6,0,0,0-6,6V81a6,6,0,0,0,12,0V61A6,6,0,0,0,20,55Z" fill="#ffffff"/></g><text font-family="'Helvetica Neue', Helvetica, Arial-Unicode, Arial, Sans-serif" font-weight="bold" font-size="5px" fill="#ffffff" y="143" x="0">Created by HideMaru</text><text font-family="'Helvetica Neue', Helvetica, Arial-Unicode, Arial, Sans-serif" font-weight="bold" font-size="5px" fill="#ffffff" y="148" x="0">from the Noun Project</text></svg>