<svg xmlns:xlink="http://www.w3.org/1999/xlink" xmlns="http://www.w3.org/2000/svg" xml:space="preserve" viewBox="0 3.6614699999999996 165.5598085642317 157.85004" y="0px" x="0px" version="1.1" style="max-height: 500px" width="165.5598085642317" height="157.85004"><g><path d="M70.405,92.947c-3.031,0-5.621,1.109-7.772,3.323c-2.151,2.217-3.228,4.89-3.228,8.016c0,3.097,1.077,5.755,3.228,7.968   c2.151,2.22,4.741,3.325,7.772,3.325c3.031,0,5.621-1.1,7.772-3.299c2.15-2.2,3.225-4.865,3.225-7.994   c0-3.126-1.075-5.799-3.225-8.016C76.026,94.056,73.436,92.947,70.405,92.947z" fill="#ffffff"/><path d="M81.034,10.673c-39.111,0-70.815,31.706-70.815,70.816c0,39.109,31.705,70.815,70.815,70.815   c39.109,0,70.814-31.706,70.814-70.815C151.849,42.379,120.144,10.673,81.034,10.673z M48.848,120.564h-6.06V87.961h6.06V120.564z    M82.429,116.238c-3.323,3.309-7.332,4.962-12.024,4.962c-4.725,0-8.749-1.653-12.073-4.962c-3.325-3.306-4.987-7.29-4.987-11.952   c0-4.659,1.662-8.65,4.987-11.974c3.324-3.323,7.349-4.987,12.073-4.987c4.692,0,8.701,1.655,12.024,4.961   c3.326,3.31,4.987,7.31,4.987,12C87.416,108.948,85.755,112.932,82.429,116.238z M107.896,118.122   c-2.052,2.054-4.547,3.078-7.478,3.078c-2.934,0-5.403-0.944-7.407-2.836c-2.003-1.889-3.069-4.267-3.202-7.134h6.307   c0.032,1.303,0.448,2.354,1.248,3.15c0.797,0.801,1.865,1.198,3.201,1.198c1.303,0,2.361-0.384,3.178-1.148   c0.813-0.766,1.221-1.75,1.221-2.958c0-2.117-1.466-3.715-4.398-4.788c-2.346-0.849-3.902-1.47-4.668-1.857   c-0.767-0.395-1.49-0.93-2.176-1.614c-1.825-1.793-2.738-3.991-2.738-6.601c0-2.541,0.937-4.723,2.811-6.549   c1.875-1.823,4.115-2.738,6.723-2.738c2.672,0,4.912,0.882,6.72,2.641c1.811,1.759,2.795,3.977,2.958,6.646h-6.257   c-0.194-2.442-1.384-3.665-3.567-3.665c-1.012,0-1.826,0.301-2.445,0.903c-0.619,0.604-0.928,1.41-0.928,2.42   c0,1.076,0.358,1.906,1.074,2.493c0.718,0.588,2.184,1.271,4.4,2.053c2.542,0.881,4.398,1.877,5.572,2.982   c1.955,1.824,2.934,4.106,2.934,6.845C110.977,113.577,109.949,116.068,107.896,118.122z M82.773,20.117   c33.113,0.926,59.675,28.038,59.675,61.372c0,0.152-0.01,0.301-0.012,0.453C111.048,77.199,86.432,51.85,82.773,20.117z" fill="#ffffff"/></g><text font-family="'Helvetica Neue', Helvetica, Arial-Unicode, Arial, Sans-serif" font-weight="bold" font-size="5px" fill="#ffffff" y="177.732" x="0">Created by sachin modgekar</text><text font-family="'Helvetica Neue', Helvetica, Arial-Unicode, Arial, Sans-serif" font-weight="bold" font-size="5px" fill="#ffffff" y="182.732" x="0">from the Noun Project</text></svg>