<svg xmlns="http://www.w3.org/2000/svg" y="0px" x="0px" viewBox="9.5 7.25 87 91" data-name="Layer 21" style="max-height: 500px" width="87" height="91"><title>23. Linux</title><path d="M57.12,84.55a10.5,10.5,0,0,1-4.32,1,10.87,10.87,0,0,1-6.17-2,10.94,10.94,0,0,1-7,6.48c.21,0,.41,0,.62,0H63.81A11.07,11.07,0,0,1,57.12,84.55Z" fill="#ffffff"/><path d="M31.54,68.51a.88.88,0,0,0,.26-.12c.15-1.32.32-2.59.51-3.8a4.71,4.71,0,0,1,.32-2C34,54.9,35.91,49.5,38.55,46.22a.5.5,0,0,1,.78.63c-.27.34-.54.71-.8,1.1-2,3-3.58,7.56-4.72,13.69l.12,0a2.14,2.14,0,0,1,.65,0c.78.17,2,.82,3.88,2.71C38.7,53.36,45,44.5,52.8,44.5c6.88,0,12.63,6.93,14,16.15a6.73,6.73,0,0,1,3-3,3,3,0,0,1,1-.19A30.64,30.64,0,0,0,67.07,48c-.26-.39-.52-.76-.79-1.1a.48.48,0,0,1,.07-.7.49.49,0,0,1,.7.07c2,2.52,3.66,6.29,4.9,11.4,2.67,1,2.74,5.5,2.8,9.16,0,1.74,0,3.54.41,4s1.28.36,2.5-.16c.14-1.59.21-3,.25-4.19,0-1.89,0-3.1,0-3.1V62.11c0-10-12.86-27.29-12.86-27.29l-1.49-13C63.56,9.89,52.8,10,52.8,10S42,9.89,42,21.77L40.56,34.82S27.7,52.1,27.7,62.11v1.25s-.05,1.21,0,3.1c0,.29,0,.6,0,.92C29.33,68,31,68.65,31.54,68.51ZM52.75,26.45c3,.28,7.78,1,8,2.48.16,1.14-1.69,3.32-2.06,3.74-.77.87-3.45,3.72-5.87,3.72s-5.1-2.85-5.86-3.72c-.37-.42-2.22-2.6-2.07-3.74C45.07,27.42,49.9,26.73,52.75,26.45Z" fill="#ffffff"/><path d="M52.8,35.39c1.31,0,3.32-1.33,5.11-3.38,1.37-1.55,1.87-2.69,1.83-2.95-.25-.51-3.52-1.28-7-1.62-3.37.34-6.64,1.11-6.89,1.64A7,7,0,0,0,47.69,32C49.49,34.06,51.49,35.39,52.8,35.39Z" fill="#ffffff"/><path d="M55.5,78.47c-1.15-10.53-.09-12.71.81-13.43a1.61,1.61,0,0,1,1.58-.23,6.58,6.58,0,0,1,2.31,1.9c1.13,1.23,1.92,2,2.65,1.58.52-.31,1.26-2,2-3.55.38-.83.77-1.72,1.2-2.57-1-9.41-6.5-16.67-13.21-16.67-7.37,0-13.36,8.75-13.36,19.5,0,.13,0,.26,0,.39,1.22,1.28,2.68,3,4.46,5.25a26,26,0,0,1,1.92,2.77A11.16,11.16,0,0,1,47,82.53a10,10,0,0,0,5.81,2,9.54,9.54,0,0,0,3.9-.85,10.71,10.71,0,0,1-.63-1.86A28.72,28.72,0,0,1,55.5,78.47Z" fill="#ffffff"/><path d="M43.12,71.25c-1.4-1.78-2.59-3.19-3.61-4.33L39,66.36l-.52-.56c-2.31-2.4-3.53-3.06-4.17-3.17a.86.86,0,0,0-.27,0,.57.57,0,0,0-.45.33.43.43,0,0,0,0,.07,3.75,3.75,0,0,0-.23,1.64c0,.28,0,.56,0,.84s0,.32,0,.48a4.57,4.57,0,0,1-.59,2.92,1.58,1.58,0,0,1-.34.29l-.21.13a2.3,2.3,0,0,1-.42.17h-.11c-.83.15-2.18-.34-3.89-1l-.5-.2c-2.14-.85-4.64-1.83-6.47-1.83a2.44,2.44,0,0,0-2.18.94c-1.34,2,1.66,5.14,4.08,7.68,1.49,1.57,2.66,2.8,2.79,3.72.23,1.7-1.55,2.35-3.12,2.93a6,6,0,0,0-2.22,1.12c-.24.28-.23.47-.18.61.22.77,2,2.46,11.41,5.19a27.61,27.61,0,0,0,3.17.72A10.44,10.44,0,0,0,44.73,85a10.47,10.47,0,0,0,1.07-2.11L46,82.4c0-.17.09-.36.14-.53a10.27,10.27,0,0,0-1.15-8A28,28,0,0,0,43.12,71.25Z" fill="#ffffff"/><path d="M81,70.56a6,6,0,0,0-2.38.75l-1.09.47c-1.2.46-2.4.68-3.18-.38a2.45,2.45,0,0,1-.37-.92,14.67,14.67,0,0,1-.22-2.39c0-.41,0-.84,0-1.3,0-2.91-.1-6.41-1.47-7.78a2,2,0,0,0-.61-.43,2.23,2.23,0,0,0-.39-.13h-.15a2,2,0,0,0-1,.14c-1.18.48-2.21,2-3.11,3.78l-.43.87c-.16.34-.31.67-.46,1s-.28.61-.41.91c-.88,2-1.57,3.53-2.37,4-1.48.87-2.77-.53-3.9-1.77a6,6,0,0,0-1.89-1.62.93.93,0,0,0-.3-.06.48.48,0,0,0-.33.12c-.62.5-1.51,2.79-.44,12.54a26.69,26.69,0,0,0,.54,3.2,10.74,10.74,0,0,0,.54,1.63c.07.15.14.3.22.45s.13.3.21.45A10.24,10.24,0,0,0,75.28,85.3a27.81,27.81,0,0,0,1.77-2.73c4.8-8.55,4.89-11,4.52-11.7A.61.61,0,0,0,81,70.56Z" fill="#ffffff"/><text font-family="'Helvetica Neue', Helvetica, Arial-Unicode, Arial, Sans-serif" font-weight="bold" font-size="5px" fill="#ffffff" y="115" x="0">Created by Lars Meiertoberens</text><text font-family="'Helvetica Neue', Helvetica, Arial-Unicode, Arial, Sans-serif" font-weight="bold" font-size="5px" fill="#ffffff" y="120" x="0">from the Noun Project</text></svg>