<svg xmlns="http://www.w3.org/2000/svg" xmlns:xlink="http://www.w3.org/1999/xlink" version="1.1" x="0px" y="0px" viewBox="0 0 100 125" enable-background="new 0 0 100 100" xml:space="preserve"><path d="M88.296,10.577H9.076c-1.548,0-2.808,1.264-2.808,2.816v53.076c0,1.553,1.259,2.816,2.808,2.816h30.755  c-0.237,3.482-0.627,7.192-0.909,7.704c-0.419,0.762-1.049,1.118-2.091,1.708l-0.184,0.104c-1.211,0.683-1.24,1.177-1.249,1.34  c-0.016,0.269,0.106,0.511,0.343,0.683c0.416,0.3,1.187,0.361,2.217,0.361H59.2l0.615,0.006c0.651,0,1.377-0.044,1.82-0.371  c0.234-0.173,0.354-0.417,0.336-0.686c-0.01-0.162-0.042-0.656-1.247-1.333l-0.185-0.104c-1.042-0.589-1.671-0.945-2.09-1.707  c-0.281-0.512-0.672-4.223-0.908-7.705h30.754c1.548,0,2.807-1.263,2.807-2.816V13.393C91.103,11.84,89.844,10.577,88.296,10.577z   M87.134,57.875H58.893H10.237V14.426h64.436h12.46V57.875z"/><text x="0" y="115" fill="#000000" font-size="5px" font-weight="bold" font-family="'Helvetica Neue', Helvetica, Arial-Unicode, Arial, Sans-serif">Created by Joost Haar</text><text x="0" y="120" fill="#000000" font-size="5px" font-weight="bold" font-family="'Helvetica Neue', Helvetica, Arial-Unicode, Arial, Sans-serif">from the Noun Project</text></svg>