<svg xmlns:dc="http://purl.org/dc/elements/1.1/" xmlns:cc="http://creativecommons.org/ns#" xmlns:rdf="http://www.w3.org/1999/02/22-rdf-syntax-ns#" xmlns:svg="http://www.w3.org/2000/svg" xmlns="http://www.w3.org/2000/svg" xmlns:sodipodi="http://sodipodi.sourceforge.net/DTD/sodipodi-0.dtd" xmlns:inkscape="http://www.inkscape.org/namespaces/inkscape" viewBox="0 0 25.397137 13.70454875" version="1.1" x="0px" y="0px"><g transform="translate(-186.10917,-177.94794)"><path style="color:#000000;font-style:normal;font-variant:normal;font-weight:normal;font-stretch:normal;font-size:medium;line-height:normal;font-family:sans-serif;font-variant-ligatures:normal;font-variant-position:normal;font-variant-caps:normal;font-variant-numeric:normal;font-variant-alternates:normal;font-feature-settings:normal;text-indent:0;text-align:start;text-decoration:none;text-decoration-line:none;text-decoration-style:solid;text-decoration-color:#000000;letter-spacing:normal;word-spacing:normal;text-transform:none;writing-mode:lr-tb;direction:ltr;text-orientation:mixed;dominant-baseline:auto;baseline-shift:baseline;text-anchor:start;white-space:normal;shape-padding:0;clip-rule:nonzero;display:inline;overflow:visible;visibility:visible;opacity:1;isolation:auto;mix-blend-mode:normal;color-interpolation:sRGB;color-interpolation-filters:linearRGB;solid-color:#000000;solid-opacity:1;vector-effect:none;fill:#000000;fill-opacity:1;fill-rule:nonzero;stroke:none;stroke-width:0.230598;stroke-linecap:butt;stroke-linejoin:miter;stroke-miterlimit:4;stroke-dasharray:none;stroke-dashoffset:0;stroke-opacity:1;color-rendering:auto;image-rendering:auto;shape-rendering:auto;text-rendering:auto;enable-background:accumulate" d="m 192.70493,177.94794 c -0.0479,0 -0.0866,0.029 -0.0866,0.0649 v 0.0612 h -2.54374 c -0.0613,0 -0.1138,0.0527 -0.1138,0.11399 v 0.4067 c -0.0209,0.0158 -0.0447,0.0291 -0.0677,0.0379 -0.0297,0.0114 -0.0572,0.0155 -0.0803,0.0188 -0.001,-0.0578 -0.002,-0.10797 -0.004,-0.14766 -0.003,-0.072 -0.007,-0.11738 -0.015,-0.15655 -0.008,-0.0392 -0.0306,-0.0853 -0.0602,-0.1099 -0.0448,-0.0374 -0.10206,-0.0548 -0.1745,-0.0652 -0.0724,-0.0104 -0.16843,-0.0155 -0.31404,-0.0192 -0.0728,-0.002 -0.15739,-0.003 -0.24951,-0.003 -0.27641,0 -0.61939,0.0117 -0.91722,0.0623 -0.0282,0.005 -0.0553,0.01 -0.0817,0.0153 -0.0127,0.002 -0.0273,0.004 -0.0429,0.007 -0.4791,0.0898 -0.8069,0.27576 -1.07159,0.51775 -0.12014,0.10983 -0.22887,0.23202 -0.32363,0.36248 -0.003,0.004 -0.01,0.0116 -0.0185,0.0232 -0.0349,0.0464 -0.0694,0.0984 -0.10166,0.16013 -0.0607,0.10286 -0.1131,0.20951 -0.15475,0.31883 -0.12245,0.32143 -0.15151,0.6578 -0.15872,1.91214 -0.002,0.3705 -0.002,0.82614 3.2e-4,1.31049 -0.0152,0.96689 -0.0185,1.97958 -0.0144,2.69229 0.007,1.25434 0.0363,1.59071 0.15872,1.91214 0.12245,0.32142 0.33396,0.62271 0.59863,0.86469 0.26468,0.24199 0.59242,0.42792 1.07153,0.51775 0.074,0.0139 0.15137,0.0252 0.23002,0.0348 0.38008,0.055 0.81714,0.0539 1.08961,0.0471 0.1456,-0.004 0.24156,-0.009 0.31398,-0.0191 0.0724,-0.0103 0.12967,-0.0278 0.1745,-0.0652 0.0112,-0.009 0.0319,-0.0313 0.0437,-0.055 0.004,-0.009 0.008,-0.0175 0.0105,-0.0261 0.0197,0.002 0.0394,0.005 0.0591,0.007 0.034,0.004 0.0674,0.007 0.10012,0.008 v 0.0299 c 0,0.0613 0.0525,0.11373 0.1138,0.11373 h 17.46796 c 0.0613,0 0.11374,-0.0524 0.11374,-0.11373 v -0.003 c 0.0297,-0.002 0.0598,-0.004 0.0905,-0.007 0.0367,-0.004 0.0734,-0.009 0.11009,-0.013 0.004,0.004 0.008,0.009 0.0106,0.0109 0.0448,0.0374 0.10207,0.0548 0.17449,0.0652 0.0724,0.0103 0.16838,0.0155 0.31399,0.0191 0.27245,0.007 0.70948,0.008 1.08954,-0.0471 l 9.6e-4,-1.2e-4 c 0.0783,-0.01 0.15527,-0.0208 0.229,-0.0346 0.4791,-0.0898 0.80684,-0.27576 1.07152,-0.51775 0.26468,-0.24198 0.47618,-0.54327 0.59864,-0.86469 0.12245,-0.32143 0.15151,-0.6578 0.15871,-1.91214 0.004,-0.71271 7.5e-4,-1.7254 -0.0144,-2.69229 v -0.002 c 0,-4e-5 1e-5,-8e-5 0,-1.2e-4 0.002,-0.48338 0.003,-0.9383 3.9e-4,-1.30813 -0.007,-1.25434 -0.0363,-1.59071 -0.15872,-1.91214 -0.0417,-0.10932 -0.094,-0.21597 -0.15475,-0.31883 -0.0323,-0.0618 -0.0668,-0.11372 -0.10166,-0.16013 l -6e-5,-6e-5 c -0.009,-0.0115 -0.0152,-0.019 -0.0185,-0.0232 -0.0948,-0.13046 -0.20349,-0.25264 -0.32363,-0.36248 -0.26468,-0.24199 -0.59248,-0.42792 -1.07159,-0.51775 -0.0157,-0.003 -0.0302,-0.005 -0.0429,-0.007 -0.0264,-0.005 -0.0535,-0.0105 -0.0817,-0.0153 -0.29781,-0.0506 -0.64076,-0.0623 -0.91715,-0.0623 h -7e-5 c -0.0921,0 -0.17668,0.001 -0.24944,0.003 -0.14561,0.004 -0.24161,0.009 -0.31405,0.0192 -0.0724,0.0104 -0.12967,0.0278 -0.1745,0.0652 -0.0296,0.0247 -0.052,0.0707 -0.0602,0.1099 -0.008,0.0392 -0.0118,0.0846 -0.015,0.15655 -0.002,0.0554 -0.004,0.13291 -0.005,0.22497 -0.0241,-0.004 -0.0543,-0.007 -0.0866,-0.0198 -0.0197,-0.008 -0.0396,-0.0188 -0.0581,-0.0317 v -0.44075 c 0,-0.0613 -0.0524,-0.11399 -0.11374,-0.11399 h -12.63741 v -0.0504 c 0,-0.042 -0.0386,-0.0757 -0.0866,-0.0757 h -0.86457 c -0.048,0 -0.0866,0.0338 -0.0866,0.0757 v 0.0504 h -0.21137 v -0.0612 c 0,-0.036 -0.0386,-0.0649 -0.0866,-0.0649 z m -2.54124,0.329 h 17.28982 v 10.42235 h -17.28982 z m 18.45598,0.055 h 6e-5 c 0.26957,1e-5 0.60413,0.0125 0.87856,0.0591 0.0263,0.004 0.0521,0.009 0.0777,0.0146 l 0.002,3.8e-4 0.002,2.5e-4 c 0.0148,0.003 0.0284,0.005 0.0397,0.007 0.44233,0.0829 0.71924,0.24252 0.95849,0.46127 0.10938,0.1 0.20877,0.21168 0.29488,0.33065 l 10e-4,0.002 0.001,0.002 c 0.008,0.0104 0.0138,0.0171 0.0162,0.0203 0.0304,0.0404 0.0572,0.0807 0.083,0.13048 l 0.002,0.003 0.002,0.003 c 0.0552,0.0933 0.10217,0.18931 0.1391,0.28626 0.10794,0.2833 0.13645,0.58033 0.14364,1.83136 0.002,0.36939 0.002,0.82442 -3.8e-4,1.30807 l -7e-5,0.001 7e-5,10e-4 c 0.0152,0.96567 0.0185,1.97845 0.0144,2.6898 -0.007,1.25103 -0.0357,1.54806 -0.14364,1.83137 -0.10793,0.2833 -0.29956,0.55777 -0.53883,0.77652 -0.23926,0.21875 -0.5161,0.37833 -0.95843,0.46126 -0.0678,0.0127 -0.14043,0.0235 -0.21533,0.0326 l -5.1e-4,6e-5 -5.1e-4,7e-5 -0.002,3.8e-4 c -0.35475,0.0515 -0.78562,0.0517 -1.05261,0.045 -0.14234,-0.004 -0.23353,-0.009 -0.28708,-0.0169 -0.0406,-0.006 -0.0413,-0.009 -0.0451,-0.0106 -0.004,-0.0267 -0.008,-0.082 -0.0107,-0.19009 -0.005,-0.22775 -0.005,-0.66734 -0.005,-1.5163 0,-1.69793 2e-5,-5.04009 0.007,-6.75994 0.001,-0.33699 0.003,-0.60975 0.007,-0.83319 v -9.6e-4 -0.001 c 6.2e-4,-0.45235 0.003,-0.70123 0.009,-0.83523 0.003,-0.0579 0.006,-0.0854 0.009,-0.10339 0.005,-0.002 0.004,-0.005 0.0429,-0.0102 0.0536,-0.008 0.14482,-0.0133 0.28715,-0.0169 0.0712,-0.002 0.15386,-0.003 0.2437,-0.003 z m -19.62437,0.0486 c 0.0899,1e-5 0.17259,0.001 0.24376,0.003 0.14233,0.004 0.23358,0.009 0.28714,0.0169 0.0387,0.006 0.0384,0.008 0.0429,0.0102 0.003,0.018 0.006,0.0455 0.009,0.10339 0.006,0.13401 0.008,0.38288 0.009,0.83524 v 0.001 9.6e-4 c 0.004,0.22344 0.006,0.4962 0.007,0.83319 0.007,1.71985 0.007,5.06201 0.007,6.75994 0,0.84896 -1e-4,1.28855 -0.005,1.5163 -0.003,0.10809 -0.007,0.16341 -0.0107,0.19009 -0.004,0.002 -0.004,0.005 -0.0451,0.0106 -0.0535,0.008 -0.14474,0.0133 -0.28708,0.0169 -0.26699,0.007 -0.69787,0.007 -1.05261,-0.045 0.004,6.2e-4 0.004,6.1e-4 -7.7e-4,-1.3e-4 l -0.001,-2.5e-4 -10e-4,-1.3e-4 c -0.0749,-0.009 -0.14749,-0.0199 -0.21533,-0.0326 -0.44232,-0.0829 -0.71916,-0.24251 -0.95843,-0.46126 -0.23926,-0.21875 -0.4309,-0.49322 -0.53883,-0.77652 -0.10793,-0.2833 -0.13644,-0.58034 -0.14363,-1.83137 -0.004,-0.71135 -7.1e-4,-1.72413 0.0144,-2.6898 l 6e-5,-0.001 -6e-5,-0.001 c -0.002,-0.48366 -0.002,-0.93868 -3.2e-4,-1.30807 0.007,-1.25103 0.0357,-1.54806 0.14364,-1.83136 0.0369,-0.0969 0.0839,-0.19298 0.1391,-0.28626 l 0.002,-0.003 0.002,-0.003 c 0.0258,-0.0498 0.0527,-0.0901 0.0831,-0.13053 0.002,-0.003 0.008,-0.01 0.0161,-0.0201 l 0.001,-0.002 0.001,-0.002 c 0.0861,-0.11897 0.18551,-0.23066 0.29488,-0.33065 0.23926,-0.21875 0.51617,-0.37833 0.95849,-0.46126 0.0114,-0.002 0.0249,-0.004 0.0397,-0.007 l 0.002,-2.5e-4 0.002,-3.8e-4 c 0.0256,-0.005 0.0514,-0.0101 0.0777,-0.0146 0.27446,-0.0466 0.60905,-0.0591 0.87863,-0.0591 z m 1.7844,0.20159 c -0.046,0 -0.0831,0.0397 -0.0831,0.089 v 9.58424 c 0,0.0493 0.0371,0.089 0.0831,0.089 h 16.12987 c 0.046,0 0.0831,-0.0397 0.0831,-0.089 v -9.58424 c 0,-0.0493 -0.0371,-0.089 -0.0831,-0.089 z m 17.77914,0.34593 c -0.0479,0 -0.0865,0.0386 -0.0865,0.0865 v 0.14383 h -0.16198 c -0.0479,0 -0.0866,0.0385 -0.0866,0.0865 0,0.0479 0.0386,0.0865 0.0866,0.0865 h 0.16198 v 0.16351 c 0,0.0479 0.0385,0.0865 0.0865,0.0865 0.0479,0 0.0864,-0.0386 0.0864,-0.0865 v -0.16351 h 0.14536 c 0.048,0 0.0866,-0.0386 0.0866,-0.0865 0,-0.0479 -0.0386,-0.0865 -0.0866,-0.0865 h -0.14536 v -0.14383 c 0,-0.048 -0.0385,-0.0865 -0.0864,-0.0865 z m -19.7742,0.28824 c -0.0479,0 -0.0865,0.0386 -0.0865,0.0866 v 0.0959 c 0,0.0479 0.0386,0.0866 0.0865,0.0866 h 0.44183 c 0.0479,0 0.0866,-0.0386 0.0866,-0.0866 v -0.0959 c 0,-0.048 -0.0386,-0.0866 -0.0866,-0.0866 z m 3.34089,0.26906 h 13.39975 c 0.0464,0 0.0837,0.0395 0.0837,0.0887 v 7.77842 c 0,0.0491 -0.0373,0.0887 -0.0837,0.0887 h -13.39975 c -0.0464,0 -0.0837,-0.0395 -0.0837,-0.0887 v -7.77842 c 0,-0.0491 0.0373,-0.0887 0.0837,-0.0887 z m 17.42292,0.27858 a 0.40355586,0.40355586 0 0 0 -0.40356,0.40357 0.40355586,0.40355586 0 0 0 0.40356,0.40356 0.40355586,0.40355586 0 0 0 0.40356,-0.40356 0.40355586,0.40355586 0 0 0 -0.40356,-0.40357 z m -21.58059,0.49008 a 0.84554563,0.84554563 0 0 0 -0.84553,0.84553 0.84554563,0.84554563 0 0 0 0.84553,0.84559 0.84554563,0.84554563 0 0 0 0.84553,-0.84559 0.84554563,0.84554563 0 0 0 -0.84553,-0.84553 z m 22.37813,0.32663 a 0.40355586,0.40355586 0 0 0 -0.40356,0.40357 0.40355586,0.40355586 0 0 0 0.40356,0.40356 0.40355586,0.40355586 0 0 0 0.40356,-0.40356 0.40355586,0.40355586 0 0 0 -0.40356,-0.40357 z m -1.63348,0.0192 a 0.40355586,0.40355586 0 0 0 -0.40357,0.40356 0.40355586,0.40355586 0 0 0 0.40357,0.40356 0.40355586,0.40355586 0 0 0 0.40356,-0.40356 0.40355586,0.40355586 0 0 0 -0.40356,-0.40356 z m 0.85517,0.79754 a 0.40355586,0.40355586 0 0 0 -0.40356,0.40356 0.40355586,0.40355586 0 0 0 0.40356,0.40356 0.40355586,0.40355586 0 0 0 0.40357,-0.40356 0.40355586,0.40355586 0 0 0 -0.40357,-0.40356 z m 0,1.5085 a 0.84554566,0.84554566 0 0 0 -0.84552,0.84559 0.84554566,0.84554566 0 0 0 0.84552,0.84553 0.84554566,0.84554566 0 0 0 0.84559,-0.84553 0.84554566,0.84554566 0 0 0 -0.84559,-0.84559 z m -21.61905,0.0769 a 0.40355586,0.40355586 0 0 0 -0.40356,0.40356 0.40355586,0.40355586 0 0 0 0.40356,0.40356 0.40355586,0.40355586 0 0 0 0.40356,-0.40356 0.40355586,0.40355586 0 0 0 -0.40356,-0.40356 z m 0.0143,0.2398 c 0.0266,0 0.17976,0.26517 0.16644,0.28823 -0.0133,0.0231 -0.31951,0.0231 -0.33283,0 -0.0133,-0.0231 0.13976,-0.28823 0.16639,-0.28823 z m 0.78329,0.57691 a 0.40355586,0.40355586 0 0 0 -0.40356,0.40356 0.40355586,0.40355586 0 0 0 0.40356,0.40356 0.40355586,0.40355586 0 0 0 0.40356,-0.40356 0.40355586,0.40355586 0 0 0 -0.40356,-0.40356 z m -1.63348,0.0192 a 0.40355586,0.40355586 0 0 0 -0.40357,0.40356 0.40355586,0.40355586 0 0 0 0.40357,0.40357 0.40355586,0.40355586 0 0 0 0.40356,-0.40357 0.40355586,0.40355586 0 0 0 -0.40356,-0.40356 z m 1.53655,0.22958 c 0.0481,0.006 0.28114,0.14206 0.28114,0.16702 0,0.0266 -0.26517,0.17976 -0.28823,0.16645 -0.0231,-0.0133 -0.0231,-0.31952 0,-0.33283 0.001,-8.4e-4 0.004,-0.001 0.007,-6.4e-4 z m -1.42704,0.005 c 0.003,-4e-4 0.006,-2e-4 0.007,6.4e-4 0.0115,0.007 0.0173,0.0866 0.0173,0.16644 0,0.0799 -0.006,0.1598 -0.0173,0.16645 -0.0231,0.0133 -0.28823,-0.13982 -0.28823,-0.16645 0,-0.025 0.23307,-0.16113 0.2812,-0.16708 z m 0.74566,0.56304 a 0.40355586,0.40355586 0 0 0 -0.40356,0.40357 0.40355586,0.40355586 0 0 0 0.40356,0.40356 0.40355586,0.40355586 0 0 0 0.40356,-0.40356 0.40355586,0.40355586 0 0 0 -0.40356,-0.40357 z m 0,0.29015 c 0.0799,0 0.15979,0.006 0.16645,0.0173 0.0133,0.0231 -0.13982,0.28823 -0.16645,0.28823 -0.0266,0 -0.17976,-0.26517 -0.16645,-0.28823 0.007,-0.0115 0.0866,-0.0173 0.16645,-0.0173 z m 20.78311,0.6578 c -0.24523,2e-5 -0.44525,0.20006 -0.44522,0.44529 1e-5,0.2452 0.20002,0.44521 0.44522,0.44522 0.2452,-1e-5 0.44521,-0.20002 0.44523,-0.44522 2e-5,-0.24523 -0.2,-0.44527 -0.44523,-0.44529 z m 0,0.11808 c 0.18138,10e-6 0.32717,0.14583 0.32715,0.32721 -1e-5,0.18136 -0.14579,0.32714 -0.32715,0.32715 -0.18136,-1e-5 -0.32713,-0.14579 -0.32714,-0.32715 -2e-5,-0.18138 0.14576,-0.3272 0.32714,-0.32721 z m 0.003,0.10728 a 0.22171663,0.22171663 0 0 0 -0.22172,0.22172 0.22171663,0.22171663 0 0 0 0.22172,0.22172 0.22171663,0.22171663 0 0 0 0.22171,-0.22172 0.22171663,0.22171663 0 0 0 -0.22171,-0.22172 z m -20.39176,0.0758 c -0.0479,0 -0.0866,0.0386 -0.0866,0.0866 v 0.5571 c 0,0.048 0.0386,0.0866 0.0866,0.0866 h 0.55711 c 0.048,0 0.0866,-0.0386 0.0866,-0.0866 v -0.5571 c 0,-0.048 -0.0386,-0.0866 -0.0866,-0.0866 z m 0.2729,0.10773 c 0.14471,0 0.26299,0.11828 0.26299,0.26299 0,0.14472 -0.11828,0.263 -0.26299,0.263 -0.14471,0 -0.26299,-0.11828 -0.26299,-0.263 0,-0.14471 0.11828,-0.26299 0.26299,-0.26299 z m 0,0.092 c -0.095,0 -0.17098,0.076 -0.17098,0.17098 0,0.095 0.076,0.17099 0.17098,0.17099 0.095,0 0.17098,-0.076 0.17098,-0.17099 0,-0.095 -0.076,-0.17098 -0.17098,-0.17098 z"/></g><text x="0" y="25.963639" fill="#000000" font-size="5px" font-weight="bold" font-family="'Helvetica Neue', Helvetica, Arial-Unicode, Arial, Sans-serif">Created by Viktor Korobkov</text><text x="0" y="30.963639" fill="#000000" font-size="5px" font-weight="bold" font-family="'Helvetica Neue', Helvetica, Arial-Unicode, Arial, Sans-serif">from the Noun Project</text></svg>