<svg xmlns="http://www.w3.org/2000/svg" xmlns:xlink="http://www.w3.org/1999/xlink" version="1.1" x="0px" y="0px" viewBox="0 0 96.001 120" enable-background="new 0 0 96.001 96" xml:space="preserve"><rect x="2.002" y="19.043" width="66.989" height="37.785"/><path d="M2.002,62.074h29.345h8.3h29.345v-4.246H2.002V62.074z M35.571,58.254c0.936,0,1.697,0.762,1.697,1.697  s-0.762,1.697-1.697,1.697s-1.696-0.762-1.696-1.697S34.636,58.254,35.571,58.254z"/><polygon points="32.179,63.074 29.965,75.113 41.03,75.113 38.814,63.074 "/><polygon points="28.764,76.113 23.531,76.113 23.531,76.957 47.462,76.957 47.462,76.113 42.231,76.113 "/><circle cx="35.571" cy="59.951" r="0.697"/><path d="M90.299,13.579H75.576c-1.93,0-3.5,1.57-3.5,3.5V77.03c0,1.93,1.57,3.5,3.5,3.5h1.165h4.32h3.752h4.32h1.165  c1.93,0,3.5-1.57,3.5-3.5V17.079C93.799,15.149,92.229,13.579,90.299,13.579z M83.438,65.314v4.908h-0.5h-0.5v-4.907  c-0.811-0.222-1.41-0.955-1.41-1.833c0-1.054,0.856-1.911,1.91-1.911c1.052,0,1.908,0.857,1.908,1.911  C84.846,64.36,84.246,65.094,83.438,65.314z M90.565,40.904H75.329v-3.331h15.236V40.904z M90.565,35.586H75.329v-3.331h15.236  V35.586z M90.565,30.267H75.329v-3.331h15.236V30.267z M90.565,24.948H75.329v-3.331h15.236V24.948z"/><rect x="77.741" y="81.53" width="2.32" height="0.891"/><rect x="85.813" y="81.53" width="2.32" height="0.891"/><rect x="76.329" y="22.617" width="13.236" height="1.331"/><rect x="76.329" y="27.936" width="13.236" height="1.331"/><rect x="76.329" y="33.255" width="13.236" height="1.331"/><rect x="76.329" y="38.573" width="13.236" height="1.331"/><path d="M82.938,62.571c-0.502,0-0.91,0.409-0.91,0.911c0,0.312,0.169,0.574,0.41,0.737c0.146,0.099,0.312,0.17,0.5,0.17  s0.354-0.071,0.5-0.171c0.24-0.163,0.408-0.425,0.408-0.736C83.846,62.98,83.438,62.571,82.938,62.571z"/><text x="0" y="111" fill="#000000" font-size="5px" font-weight="bold" font-family="'Helvetica Neue', Helvetica, Arial-Unicode, Arial, Sans-serif">Created by ahmad</text><text x="0" y="116" fill="#000000" font-size="5px" font-weight="bold" font-family="'Helvetica Neue', Helvetica, Arial-Unicode, Arial, Sans-serif">from the Noun Project</text></svg>