<svg xmlns:xlink="http://www.w3.org/1999/xlink" xmlns="http://www.w3.org/2000/svg" xml:space="preserve" viewBox="0 0 97.68101750000001 97.44000000000001" y="0px" x="0px" version="1.1" style="max-height: 500px" width="97.68101750000001" height="97.44000000000001"><rect height="37.785" width="66.989" y="19.043" x="2.002" fill="#ffffff"/><path d="M2.002,62.074h29.345h8.3h29.345v-4.246H2.002V62.074z M35.571,58.254c0.936,0,1.697,0.762,1.697,1.697  s-0.762,1.697-1.697,1.697s-1.696-0.762-1.696-1.697S34.636,58.254,35.571,58.254z" fill="#ffffff"/><polygon points="32.179,63.074 29.965,75.113 41.03,75.113 38.814,63.074" fill="#ffffff"/><polygon points="28.764,76.113 23.531,76.113 23.531,76.957 47.462,76.957 47.462,76.113 42.231,76.113" fill="#ffffff"/><circle r="0.697" cy="59.951" cx="35.571" fill="#ffffff"/><path d="M90.299,13.579H75.576c-1.93,0-3.5,1.57-3.5,3.5V77.03c0,1.93,1.57,3.5,3.5,3.5h1.165h4.32h3.752h4.32h1.165  c1.93,0,3.5-1.57,3.5-3.5V17.079C93.799,15.149,92.229,13.579,90.299,13.579z M83.438,65.314v4.908h-0.5h-0.5v-4.907  c-0.811-0.222-1.41-0.955-1.41-1.833c0-1.054,0.856-1.911,1.91-1.911c1.052,0,1.908,0.857,1.908,1.911  C84.846,64.36,84.246,65.094,83.438,65.314z M90.565,40.904H75.329v-3.331h15.236V40.904z M90.565,35.586H75.329v-3.331h15.236  V35.586z M90.565,30.267H75.329v-3.331h15.236V30.267z M90.565,24.948H75.329v-3.331h15.236V24.948z" fill="#ffffff"/><rect height="0.891" width="2.32" y="81.53" x="77.741" fill="#ffffff"/><rect height="0.891" width="2.32" y="81.53" x="85.813" fill="#ffffff"/><rect height="1.331" width="13.236" y="22.617" x="76.329" fill="#ffffff"/><rect height="1.331" width="13.236" y="27.936" x="76.329" fill="#ffffff"/><rect height="1.331" width="13.236" y="33.255" x="76.329" fill="#ffffff"/><rect height="1.331" width="13.236" y="38.573" x="76.329" fill="#ffffff"/><path d="M82.938,62.571c-0.502,0-0.91,0.409-0.91,0.911c0,0.312,0.169,0.574,0.41,0.737c0.146,0.099,0.312,0.17,0.5,0.17  s0.354-0.071,0.5-0.171c0.24-0.163,0.408-0.425,0.408-0.736C83.846,62.98,83.438,62.571,82.938,62.571z" fill="#ffffff"/><text font-family="'Helvetica Neue', Helvetica, Arial-Unicode, Arial, Sans-serif" font-weight="bold" font-size="5px" fill="#ffffff" y="111" x="0">Created by ahmad</text><text font-family="'Helvetica Neue', Helvetica, Arial-Unicode, Arial, Sans-serif" font-weight="bold" font-size="5px" fill="#ffffff" y="116" x="0">from the Noun Project</text></svg>