<svg xmlns:xlink="http://www.w3.org/1999/xlink" xmlns="http://www.w3.org/2000/svg" y="0px" x="0px" version="1.1" viewBox="0 0 56.25 52.125" style="max-height: 500px" width="56.25" height="52.125"><title>45 - Playstation 1 (Solid)</title><desc fill="#ffffff">Created with Sketch.</desc><g fill-rule="evenodd" fill="none" stroke-width="1" stroke="none"><g fill="#ffffff"><path d="M24,42 L19,42 C18.447,42 18,42.447 18,43 C18,43.553 18.447,44 19,44 L24,44 C24.553,44 25,43.553 25,43 C25,42.447 24.553,42 24,42" fill="#ffffff"/><path d="M35,42 L30,42 C29.447,42 29,42.447 29,43 C29,43.553 29.447,44 30,44 L35,44 C35.553,44 36,43.553 36,43 C36,42.447 35.553,42 35,42" fill="#ffffff"/><path d="M27.5,37 C36.598,37 44,29.598 44,20.5 C44,11.402 36.598,4 27.5,4 C18.402,4 11,11.402 11,20.5 C11,29.598 18.402,37 27.5,37 L27.5,37 Z M24,11 L32,11 C32.553,11 33,11.447 33,12 C33,12.553 32.553,13 32,13 L24,13 C23.447,13 23,12.553 23,12 C23,11.447 23.447,11 24,11 L24,11 Z" fill="#ffffff"/><path d="M47,36 C48.102,36 49,35.103 49,34 C49,32.898 48.102,32 47,32 C45.897,32 45,32.898 45,34 C45,35.103 45.897,36 47,36" fill="#ffffff"/><path d="M8,36 C9.102,36 10,35.103 10,34 C10,32.898 9.102,32 8,32 C6.897,32 6,32.898 6,34 C6,35.103 6.897,36 8,36" fill="#ffffff"/><path d="M53,0 L40,0 C38.898,0 38,0.898 38,2 L27.5,2 C37.701,2 46,10.299 46,20.5 C46,30.701 37.701,39 27.5,39 C17.299,39 9,30.701 9,20.5 C9,10.299 17.299,2 27.5,2 L17,2 C17,0.898 16.102,0 15,0 L2,0 C0.897,0 0,0.898 0,2 L0,48 C0,49.103 0.897,50 2,50 L14,50 C15.102,50 16,49.103 16,48 L39,48 C39,49.103 39.897,50 41,50 L53,50 C54.102,50 55,49.103 55,48 L55,2 C55,0.898 54.102,0 53,0 L53,0 Z M47,30 C49.206,30 51,31.794 51,34 C51,36.206 49.206,38 47,38 C44.794,38 43,36.206 43,34 C43,31.794 44.794,30 47,30 L47,30 Z M5.5,25 C6.328,25 7,25.672 7,26.5 C7,27.328 6.328,28 5.5,28 C4.672,28 4,27.328 4,26.5 C4,25.672 4.672,25 5.5,25 L5.5,25 Z M8,30 C10.206,30 12,31.794 12,34 C12,36.206 10.206,38 8,38 C5.794,38 4,36.206 4,34 C4,31.794 5.794,30 8,30 L8,30 Z M53,48 L41,48 C41,46.898 40.102,46 39,46 L16,46 C14.898,46 14,46.898 14,48 L2,48 L2,42 L14,42 C15.102,42 16,41.103 16,40 L39,40 C39,41.103 39.897,42 41,42 L53,42 L53,48 L53,48 Z" fill="#ffffff"/></g></g><text font-family="'Helvetica Neue', Helvetica, Arial-Unicode, Arial, Sans-serif" font-weight="bold" font-size="5px" fill="#ffffff" y="65" x="0">Created by Smashicons</text><text font-family="'Helvetica Neue', Helvetica, Arial-Unicode, Arial, Sans-serif" font-weight="bold" font-size="5px" fill="#ffffff" y="70" x="0">from the Noun Project</text></svg>