<svg xmlns="http://www.w3.org/2000/svg" y="0px" x="0px" viewBox="0 0 112.5 104.25" style="max-height: 500px" width="112.5" height="104.25"><g><path d="M48.81,70.69a1.47,1.47,0,1,0,1.47,1.47A1.47,1.47,0,0,0,48.81,70.69ZM52.12,74a1.47,1.47,0,1,0,1.48,1.47A1.47,1.47,0,0,0,52.12,74Zm0-6.64a1.47,1.47,0,1,0,1.48,1.47A1.47,1.47,0,0,0,52.12,67.37Zm3.32,3.32a1.47,1.47,0,1,0,1.47,1.47A1.47,1.47,0,0,0,55.44,70.69ZM71.51,9A.52.52,0,0,0,71,9L45.59,19.36a.51.51,0,0,0-.31.46v46l1,0a6.7,6.7,0,0,0,.75-.06l.32,0,.47-2.21a2.16,2.16,0,0,1,1.32-1.58,1.51,1.51,0,0,1,.28-.1,1,1,0,0,1,.65-.63l.21-.07a6.37,6.37,0,0,1,3.67,0l.2.07a1,1,0,0,1,.66.63,1.65,1.65,0,0,1,.34.13,2.18,2.18,0,0,1,1.26,1.55l.49,2.36A8,8,0,0,1,60,70.55c.06.24.1.49.14.75v.14L62.29,84.5a.49.49,0,0,1,0,.12A5.83,5.83,0,0,1,57.59,91a6.67,6.67,0,0,1-.89.07H71.23a.5.5,0,0,0,.5-.5V9.44A.5.5,0,0,0,71.51,9ZM51.74,88.14a1.11,1.11,0,0,1-.07-.13l-2.56-4.2A5.23,5.23,0,0,1,45.76,85l-.48,0v5.56a.51.51,0,0,0,.5.5H56.7A5.63,5.63,0,0,1,51.74,88.14Zm3.7-17.45a1.47,1.47,0,1,0,1.47,1.47A1.47,1.47,0,0,0,55.44,70.69Zm-3.32-3.32a1.47,1.47,0,1,0,1.48,1.47A1.47,1.47,0,0,0,52.12,67.37Zm0,6.64a1.47,1.47,0,1,0,1.48,1.47A1.47,1.47,0,0,0,52.12,74Zm-3.31-3.32a1.47,1.47,0,1,0,1.47,1.47A1.47,1.47,0,0,0,48.81,70.69Z" fill="#ffffff"/><rect height="80.65" width="1" y="9.91" x="72.72" fill="#ffffff"/><rect height="80.18" width="1" y="10.38" x="74.69" fill="#ffffff"/><rect height="79.7" width="1" y="10.86" x="76.67" fill="#ffffff"/><path d="M83.69,21.29l-3.06-.84V91.06h2.93a.5.5,0,0,0,.5-.5V21.77A.5.5,0,0,0,83.69,21.29Zm-.85,67.77h-1V85.81h1Zm0-5.09h-1V82h1Z" fill="#ffffff"/><polygon points="78.64 11.48 78.64 90.56 79.64 90.56 79.64 90.56 79.64 61.74 79.64 21.22 79.64 20.7 79.64 20.18 79.64 12.14 79.64 11.99 79.64 11.48 79.64 11.48 78.64 11.48" fill="#ffffff"/><path d="M62.3,84.62a.49.49,0,0,0,0-.12L60.16,71.44V71.3c0-.26-.08-.51-.14-.75a8,8,0,0,0-3.11-4.71l-.49-2.36a2.18,2.18,0,0,0-1.26-1.55,1.65,1.65,0,0,0-.34-.13,1,1,0,0,0-.66-.63L54,61.1a6.37,6.37,0,0,0-3.67,0l-.21.07a1,1,0,0,0-.65.63,1.51,1.51,0,0,0-.28.1,2.16,2.16,0,0,0-1.32,1.58l-.47,2.21-.32,0a6.7,6.7,0,0,1-.75.06l-1,0H32.81l-1.89-.13-.46-2.19a2.12,2.12,0,0,0-1.28-1.57,1.17,1.17,0,0,0-.31-.12,1,1,0,0,0-.66-.63L28,61.1a6.34,6.34,0,0,0-3.66,0l-.21.07a1,1,0,0,0-.65.63h0a1.07,1.07,0,0,0-.27.09,2.22,2.22,0,0,0-1.32,1.58l-.49,2.36a8,8,0,0,0-3.12,4.72c-.05.24-.09.48-.12.74L16,84.5l0,.12A5.84,5.84,0,0,0,20.69,91a6.82,6.82,0,0,0,.9.07,5.64,5.64,0,0,0,5-3l0-.06,2.58-4.25a5.18,5.18,0,0,0,8-1.72h3.85A5.14,5.14,0,0,0,45.28,85l.48,0a5.23,5.23,0,0,0,3.35-1.22L51.67,88a1.11,1.11,0,0,0,.07.13,5.63,5.63,0,0,0,5,2.93,6.67,6.67,0,0,0,.89-.07A5.83,5.83,0,0,0,62.3,84.62ZM48.8,63.68a1.15,1.15,0,0,1,.72-.85l.15-.06.27-.07a8.86,8.86,0,0,1,2.18-.27,8.7,8.7,0,0,1,2.16.27l.27.07.16.06a1.18,1.18,0,0,1,.72.86l.3,1.44,0,0A2.36,2.36,0,0,0,55.4,65q-.37-.17-.78-.3l-.42-.11c-.24-.06-.48-.11-.73-.15l-.41-.06a7.46,7.46,0,0,0-1.16,0,8.26,8.26,0,0,0-1,.1l-.31.07c-.23,0-.47.1-.69.17l-.34.12q-.33.12-.66.27l-.29.14-.15.06Zm-25.95,0a1.23,1.23,0,0,1,.75-.88l.12,0L24,62.7a8.86,8.86,0,0,1,4.34,0l.26.07a.58.58,0,0,1,.17.06,1.15,1.15,0,0,1,.71.86l.33,1.57-.29-.14-.12-.05a7.22,7.22,0,0,0-.81-.33l-.2-.07c-.26-.07-.52-.14-.78-.19l-.23,0a8.47,8.47,0,0,0-1-.1h-.31c-.31,0-.63,0-.94.05l-.18,0a7.12,7.12,0,0,0-.92.18l-.34.1a6.08,6.08,0,0,0-.81.3l-.24.1-.09,0Zm2.88,23.85-.06.11A4.65,4.65,0,0,1,20.84,90,4.83,4.83,0,0,1,17,84.65h0L18.54,75a8,8,0,0,0,8.78,5.19,5.24,5.24,0,0,0,1.13,2.84Zm10.75-6.25s0,.06,0,.1a4.23,4.23,0,0,1-7,1.3,4.26,4.26,0,0,1-1.12-2.87v-.21a.5.5,0,0,0-.5-.5l-.12,0a7,7,0,0,1-8.62-6.82c0-.21,0-.43,0-.68l0-.13v-.07a6.25,6.25,0,0,1,.12-.65,7.06,7.06,0,0,1,2.82-4.21l.06,0a7,7,0,0,1,4.22-1.22,7.41,7.41,0,0,1,1,.11A7,7,0,0,1,30,66.54a.47.47,0,0,1,.12.09.2.2,0,0,0,.07.06l.1.08A6.25,6.25,0,0,1,31.57,68a7.06,7.06,0,0,1,1.2,2.29l0,.09A6.6,6.6,0,0,1,33.07,72a7,7,0,0,1-.5,3,.47.47,0,0,0,0,.46.46.46,0,0,0,.39.22l.1,0a4.16,4.16,0,0,1,3,2,1.42,1.42,0,0,1,.14.23,4.28,4.28,0,0,1,.32.78.94.94,0,0,0,0,.16.52.52,0,0,0,0,.11A5,5,0,0,1,36.48,81.29ZM41,77.78c0,.07-.07.15-.1.24s0,0,0,0-.05.15-.08.24a.58.58,0,0,1,0,.1,4.21,4.21,0,0,0-.12.48A6.41,6.41,0,0,0,40.7,81s0,0,0,.06H37.56l0-.16a2.17,2.17,0,0,0,0-.25,4,4,0,0,0,.06-.47c0-.06,0-.12,0-.17a5.23,5.23,0,0,0,0-.56v-.08a2.91,2.91,0,0,0,0-.31,3.31,3.31,0,0,0,0-.33.13.13,0,0,1,0-.06h0v0a1.5,1.5,0,0,0-.07-.27,4.59,4.59,0,0,0-.38-1,1.86,1.86,0,0,0-.21-.34,5.12,5.12,0,0,0-3.24-2.33,8.06,8.06,0,0,0,.37-2.8,7.75,7.75,0,0,0-.34-2l0-.09a7.93,7.93,0,0,0-1.34-2.51,7.57,7.57,0,0,0-.53-.6l0-.07,1,.07h12.5c.4,0,.75,0,1,0h.16a6.14,6.14,0,0,0-.54.62,7,7,0,0,0-.66,1A7.65,7.65,0,0,0,44.22,72a8.07,8.07,0,0,0,0,1.09c0,.23,0,.46.09.67a4.64,4.64,0,0,0,.11.51c.05.18.1.36.15.52a5.07,5.07,0,0,0-3.36,2.51A2.41,2.41,0,0,0,41,77.78Zm7.89,4.91A4.15,4.15,0,0,1,45.76,84a3.87,3.87,0,0,1-.48,0,4.16,4.16,0,0,1-3.43-2.58l0-.13c0-.05,0-.11-.07-.21a.62.62,0,0,1,0-.16s0-.17,0-.19a5.47,5.47,0,0,1,0-1.71c0-.12.06-.24.09-.36a.5.5,0,0,0,0-.13.76.76,0,0,1,0-.11l0,0c0-.07.05-.14.09-.22a1.61,1.61,0,0,1,.2-.39,4.17,4.17,0,0,1,3.19-2.13h0a.47.47,0,0,0,.38-.24.49.49,0,0,0,0-.44c0-.08-.06-.18-.11-.33l-.05-.15c0-.17-.1-.35-.15-.51l-.09-.44,0-.17c0-.14,0-.27,0-.4a6.13,6.13,0,0,1,0-1q0-.33.06-.66A6.78,6.78,0,0,1,46.73,68a7,7,0,0,1,1.55-1.47h0a8.1,8.1,0,0,1,.85-.49l.12-.05c.26-.12.52-.23.78-.32l.28-.07a5.33,5.33,0,0,1,.66-.17,7.84,7.84,0,0,1,1-.11,8.7,8.7,0,0,1,1.14.05A7,7,0,0,1,55.2,66a5.73,5.73,0,0,1,1,.56A7,7,0,0,1,59,70.79a5.77,5.77,0,0,1,.12.67v.05a1.1,1.1,0,0,0,0,.16c0,.21,0,.43,0,.64a7,7,0,0,1-7,7,7.29,7.29,0,0,1-1.63-.19.52.52,0,0,0-.42.09.51.51,0,0,0-.19.39v.21a4,4,0,0,1-.11.92A4.21,4.21,0,0,1,48.85,82.69ZM57.44,90a4.68,4.68,0,0,1-4.83-2.33.88.88,0,0,0,0-.15l-2.73-4.46a1.88,1.88,0,0,0,.16-.23,2.83,2.83,0,0,0,.2-.28,4.76,4.76,0,0,0,.24-.45c0-.09.09-.18.14-.28a4.68,4.68,0,0,0,.17-.53,2.58,2.58,0,0,0,.08-.26,4.52,4.52,0,0,0,.13-.82,7.82,7.82,0,0,0,1.26.1,7,7,0,0,0,1.13-.09l.25,0a9.11,9.11,0,0,0,1.06-.26l.14,0a8.93,8.93,0,0,0,.9-.37l.2-.1a8.33,8.33,0,0,0,.9-.55l.17-.13a7.15,7.15,0,0,0,.73-.61l.12-.1a8.78,8.78,0,0,0,.7-.79l.14-.19a10.44,10.44,0,0,0,.58-.89s0,0,0,0a8.77,8.77,0,0,0,.44-1l.06-.12,1.56,9.55a.76.76,0,0,0,0,.17A4.79,4.79,0,0,1,57.44,90Z" fill="#ffffff"/><path d="M45.22,72a6.13,6.13,0,0,0,0,1c0,.13,0,.26,0,.4v-2Q45.24,71.67,45.22,72Z" fill="#ffffff"/><path d="M40.27,76.65V77a.42.42,0,0,1-.41.41H38.67a.41.41,0,0,1-.41-.41v-.32a.41.41,0,0,1,.41-.41h1.19A.41.41,0,0,1,40.27,76.65Z" fill="#ffffff"/><path d="M36.93,72v.32a.41.41,0,0,1-.41.41H35.33a.41.41,0,0,1-.41-.41V72a.41.41,0,0,1,.41-.41h1.19A.41.41,0,0,1,36.93,72Z" fill="#ffffff"/><path d="M43.48,72.31l-2,.63c-.13,0-.27,0-.27-.15V71.54c0-.12.14-.19.27-.15l2,.62A.15.15,0,0,1,43.48,72.31Z" fill="#ffffff"/><path d="M26.06,70.77a.39.39,0,0,0,.44,0l.81-.56a.4.4,0,0,0,.16-.32V68.65a.38.38,0,0,0-.39-.39H25.47a.39.39,0,0,0-.39.39v1.24a.41.41,0,0,0,.17.32Z" fill="#ffffff"/><path d="M26.5,73.56a.39.39,0,0,0-.44,0l-.81.57a.39.39,0,0,0-.16.32v1.24a.38.38,0,0,0,.39.38h1.61a.39.39,0,0,0,.39-.38V74.45a.4.4,0,0,0-.17-.32Z" fill="#ffffff"/><path d="M30.19,73V71.36A.4.4,0,0,0,29.8,71H28.56a.37.37,0,0,0-.32.17l-.56.8a.37.37,0,0,0,0,.45l.56.8a.37.37,0,0,0,.32.17H29.8A.39.39,0,0,0,30.19,73Z" fill="#ffffff"/><path d="M24.32,71.14A.4.4,0,0,0,24,71H22.76a.4.4,0,0,0-.39.39V73a.39.39,0,0,0,.39.39H24a.39.39,0,0,0,.32-.16l.56-.81a.36.36,0,0,0,0-.44Z" fill="#ffffff"/><path d="M53.6,68.84a1.48,1.48,0,1,1-1.48-1.47A1.47,1.47,0,0,1,53.6,68.84Z" fill="#ffffff"/><path d="M53.6,75.48A1.48,1.48,0,1,1,52.12,74,1.47,1.47,0,0,1,53.6,75.48Z" fill="#ffffff"/><path d="M56.91,72.16a1.47,1.47,0,1,1-1.47-1.47A1.47,1.47,0,0,1,56.91,72.16Z" fill="#ffffff"/><path d="M50.28,72.16a1.48,1.48,0,1,1-1.47-1.47A1.47,1.47,0,0,1,50.28,72.16Z" fill="#ffffff"/><circle r="2.87" cy="79.82" cx="32.52" fill="#ffffff"/><path d="M48.64,79.82a2.87,2.87,0,0,1-2.87,2.88,2.63,2.63,0,0,1-.49,0l-.09,0-.27-.07-.21-.07a.69.69,0,0,1-.15-.07,2.87,2.87,0,0,1-.81-.57,3.58,3.58,0,0,1-.26-.29,3.3,3.3,0,0,1-.31-.51l-.09-.21a2.73,2.73,0,0,1-.14-.51,2,2,0,0,1,0-.26,2.26,2.26,0,0,1,0-.26c0-.11,0-.22,0-.33l.06-.32a2,2,0,0,1,.1-.35,2.29,2.29,0,0,1,.1-.23,2.67,2.67,0,0,1,.31-.51,3.58,3.58,0,0,1,.26-.29,2.3,2.3,0,0,1,.38-.32,2.77,2.77,0,0,1,.79-.39l.26-.07.1,0a2.63,2.63,0,0,1,.49,0A2.87,2.87,0,0,1,48.64,79.82Z" fill="#ffffff"/></g><text font-family="'Helvetica Neue', Helvetica, Arial-Unicode, Arial, Sans-serif" font-weight="bold" font-size="5px" fill="#ffffff" y="115" x="0">Created by Simone Sciacovelli</text><text font-family="'Helvetica Neue', Helvetica, Arial-Unicode, Arial, Sans-serif" font-weight="bold" font-size="5px" fill="#ffffff" y="120" x="0">from the Noun Project</text></svg>