<svg xmlns:xlink="http://www.w3.org/1999/xlink" xmlns="http://www.w3.org/2000/svg" xml:space="preserve" viewBox="0 0 104.5 103" y="0px" x="0px" version="1.1" style="max-height: 500px" width="104.5" height="103"><path d="M66.943,79.334c-0.074-0.137-0.154-0.275-0.229-0.41c-0.348,0.17-0.713,0.301-1.084,0.41H66.943z" fill="#ffffff"/><path d="M63.141,79.574c-0.408-0.035-0.81-0.1-1.192-0.203c-0.322,0.006-0.705,0.01-1.16,0.01c-1.8,0-4.8-0.07-8.776-0.396  c-0.875,0.406-1.848,0.635-2.871,0.635c-1.04,0-2.059-0.244-2.977-0.693c-0.091,0.172-0.191,0.348-0.286,0.52  c-0.188,0.34-0.381,0.68-0.582,1.021c7.373,0.937,12.771,1.091,15.492,1.091c1.553,0,2.381-0.049,2.418-0.051  c0.571-0.033,1.021-0.508,1.021-1.084v-0.83c-0.16,0.012-0.322,0.027-0.483,0.027C63.537,79.617,63.34,79.592,63.141,79.574z" fill="#ffffff"/><path d="M43.183,18.441c6.174-0.334,11.29-0.505,15.206-0.505c0.52,0,0.979,0.004,1.398,0.009c1.014,0.013,1.756,0.038,2.268,0.063  v0.917v1.085v37.926h1.086h1.084v-9.35h7.479v5.042c0.385,0.076,0.754,0.174,1.086,0.308c0.412,0.168,0.77,0.388,1.084,0.633V18.925  c0-0.599-0.486-1.085-1.084-1.085h-8.563v-0.844c0-0.548-0.408-1.011-0.955-1.078c-0.051-0.006-1.293-0.152-4.881-0.152  c-3.953,0-9.11,0.171-15.324,0.508c-15.937,0.864-19.566,2.57-19.712,2.643c-0.371,0.183-0.605,0.56-0.605,0.974v53.292  c0,0.354,0.174,0.688,0.465,0.892c0.161,0.112,2.852,1.942,8.659,3.707c0.007-0.372,0.019-0.748,0.04-1.128  c0.02-0.37,0.046-0.745,0.076-1.122c-3.845-1.216-6.152-2.418-7.07-2.951V20.66C26.47,20.197,31.285,19.086,43.183,18.441z   M64.225,46.417V20.01h7.478v26.406L64.225,46.417L64.225,46.417z" fill="#ffffff"/><path d="M67.594,78.248c0.188,0.359,0.387,0.719,0.596,1.086c0.645,1.137,1.354,2.285,2.105,3.282C71.49,84.198,72.941,85,74.607,85  c0.578,0,1.064-0.1,1.385-0.174c1.797-0.422,3.697-2.117,3.893-4.949c0.271-3.969-0.67-9.338-1.293-12.891  c-0.145-0.825-0.271-1.553-0.363-2.146c-0.045-2.808-1.588-5.254-3.863-6.576l-0.35-1.628c-0.031-0.144-0.088-0.269-0.145-0.394  c-0.215-0.479-0.604-0.842-1.084-1.102c-0.332-0.18-0.699-0.313-1.086-0.404c-0.492-0.115-1.004-0.178-1.482-0.178  c-1.973,0-3.357,0.801-3.615,2.09c-0.104,0.525-0.244,1.184-0.383,1.84c-0.248,0.162-0.488,0.34-0.715,0.527h-1.281h-1.084h-1.086  h-0.724h-1.086h-1.084H47.375c-0.184-0.15-0.375-0.297-0.571-0.434l-0.418-1.949c-0.329-1.531-2.251-2.074-3.797-2.074  c-1.972,0-3.357,0.801-3.615,2.088c-0.089,0.443-0.201,0.98-0.318,1.527c-2.354,1.305-3.958,3.799-4.004,6.664  c-0.092,0.592-0.219,1.318-0.364,2.145c-0.429,2.445-1.008,5.752-1.239,8.869c-0.028,0.377-0.048,0.75-0.065,1.119  c-0.017,0.381-0.028,0.756-0.032,1.123c-0.006,0.615,0.005,1.213,0.044,1.779c0.194,2.832,2.095,4.527,3.893,4.949  C37.205,84.9,37.694,85,38.273,85c1.665,0,3.116-0.802,4.312-2.385c0.537-0.711,1.051-1.502,1.538-2.307  c0.205-0.341,0.398-0.677,0.591-1.018c0.195-0.348,0.383-0.686,0.563-1.021c0.156-0.295,0.314-0.592,0.458-0.873  c0.976,0.728,2.171,1.135,3.404,1.135c2.487,0,4.632-1.581,5.402-3.868h3.798c0.19,0.571,0.472,1.103,0.822,1.571  c0.307,0.416,0.678,0.777,1.084,1.095c0.51,0.396,1.082,0.714,1.707,0.918c0.032,0.012,0.067,0.017,0.103,0.024  c0.348,0.106,0.713,0.172,1.086,0.211c0.198,0.021,0.396,0.049,0.601,0.049c0.161,0,0.321-0.026,0.483-0.039  c0.437-0.038,0.86-0.11,1.271-0.245c0.59-0.19,1.146-0.479,1.646-0.851C67.285,77.672,67.439,77.962,67.594,78.248z M59.182,72.493  h-0.021h-5.466c-0.53,0-0.982,0.385-1.069,0.909c-0.283,1.715-1.749,2.959-3.487,2.959c-1.128,0-2.165-0.523-2.842-1.438  c-0.227-0.307-0.593-0.469-0.978-0.437c-0.378,0.037-0.71,0.271-0.874,0.615c-0.487,1.022-0.979,1.979-1.465,2.854  c-0.195,0.354-0.39,0.688-0.583,1.015c-0.208,0.353-0.415,0.688-0.62,1.004c-0.314,0.485-0.624,0.935-0.924,1.332  c-0.775,1.024-1.62,1.522-2.581,1.522c-0.354,0-0.676-0.065-0.888-0.115c-0.209-0.051-2.058-0.555-2.224-2.985  c-0.023-0.34-0.035-0.696-0.039-1.062c-0.005-0.362-0.003-0.733,0.008-1.117c0.011-0.362,0.031-0.735,0.054-1.11  c0.147-2.33,0.52-4.84,0.883-7.01c0.275,0.389,0.583,0.752,0.923,1.084c1.398,1.362,3.307,2.209,5.411,2.209  c0.96,0,1.907-0.181,2.813-0.533c0.285-0.11,0.51-0.338,0.619-0.623c0.432-1.131,1.391-1.955,2.567-2.205  c0.301-0.063,0.561-0.252,0.714-0.52c0.684-1.181,1.044-2.521,1.044-3.876c0-0.946-0.179-1.852-0.491-2.69  c-0.139-0.375-0.302-0.738-0.496-1.084h9.99h1.084h1.086h0.723h1.086h0.568c-0.195,0.346-0.357,0.709-0.496,1.084  c-0.025,0.065-0.049,0.132-0.072,0.197c-0.268,0.782-0.42,1.62-0.42,2.493c0,0.836,0.154,1.662,0.42,2.453  c0.164,0.49,0.363,0.972,0.623,1.423c0.109,0.188,0.271,0.333,0.461,0.428c0.082,0.039,0.164,0.071,0.256,0.092  c1.176,0.25,2.135,1.074,2.566,2.205c0.107,0.285,0.334,0.514,0.619,0.625c0.906,0.353,1.854,0.531,2.813,0.531  c0.416,0,0.822-0.043,1.225-0.105c0.369-0.061,0.732-0.137,1.086-0.245c0.375-0.117,0.734-0.271,1.084-0.44  c0.746-0.365,1.43-0.843,2.02-1.416c0.34-0.332,0.646-0.695,0.922-1.084c0.545,3.252,1.113,7.276,0.906,10.299  c-0.166,2.433-2.014,2.937-2.225,2.985c-0.211,0.05-0.535,0.115-0.889,0.115c-0.961,0-1.807-0.498-2.58-1.522  c-0.43-0.565-0.875-1.229-1.33-1.974c-0.209-0.344-0.422-0.709-0.635-1.086c-0.197-0.349-0.395-0.709-0.594-1.084  c-0.344-0.651-0.689-1.338-1.033-2.062c-0.164-0.345-0.496-0.578-0.877-0.614c-0.033-0.003-0.068-0.005-0.104-0.005  c-0.344,0-0.666,0.162-0.873,0.438c-0.578,0.781-1.42,1.274-2.357,1.402c-0.158,0.021-0.32,0.034-0.484,0.034  c-0.201,0-0.402-0.021-0.6-0.053c-0.387-0.065-0.752-0.199-1.086-0.382c-0.264-0.143-0.506-0.319-0.723-0.522  c-0.551-0.518-0.947-1.204-1.078-2.002c-0.002-0.008-0.006-0.016-0.008-0.021C60.15,72.868,59.707,72.493,59.182,72.493z   M41.091,57.105c0.083-0.125,0.626-0.373,1.498-0.373c0.921,0,1.538,0.261,1.685,0.41l0.069,0.32  c-0.621-0.161-1.269-0.256-1.94-0.256c-0.464,0-0.915,0.049-1.356,0.127C41.061,57.26,41.077,57.178,41.091,57.105z M41.718,59.426  c0.225-0.027,0.452-0.047,0.684-0.047c0.439,0,0.864,0.057,1.274,0.153c0.565,0.132,1.097,0.351,1.583,0.642  c0.336,0.201,0.65,0.438,0.936,0.703c0.437,0.404,0.811,0.875,1.101,1.398c0.44,0.799,0.693,1.717,0.693,2.689  c0,0.83-0.188,1.652-0.55,2.404c-1.498,0.465-2.732,1.521-3.424,2.938c-0.526,0.16-1.067,0.241-1.613,0.241  c-2.124,0-3.974-1.19-4.919-2.94c-0.413-0.766-0.65-1.637-0.664-2.563c0-0.027-0.004-0.055-0.004-0.082  c0-2.34,1.447-4.344,3.49-5.176C40.751,59.609,41.225,59.486,41.718,59.426z M68.723,57.105c0.082-0.125,0.625-0.373,1.495-0.373  c0.687,0,1.201,0.145,1.482,0.278c0.096,0.048,0.166,0.093,0.202,0.132l0.046,0.211c-0.082-0.018-0.166-0.025-0.248-0.039  c-0.4-0.063-0.808-0.105-1.224-0.105c-0.627,0-1.235,0.084-1.822,0.225C68.68,57.322,68.701,57.207,68.723,57.105z M66.686,60.877  c0.33-0.307,0.692-0.576,1.09-0.796c0.479-0.267,1.004-0.466,1.56-0.583c0.369-0.077,0.752-0.119,1.146-0.119  c0.274,0,0.545,0.027,0.812,0.066c0.14,0.02,0.276,0.043,0.412,0.072c0.34,0.075,0.668,0.182,0.981,0.316  c0.035,0.016,0.065,0.033,0.104,0.049c0.387,0.178,0.75,0.396,1.084,0.654c1.33,1.021,2.191,2.623,2.191,4.428  c0,0.027-0.004,0.055-0.004,0.08c-0.014,0.93-0.25,1.801-0.664,2.563c-0.377,0.697-0.898,1.305-1.523,1.781  c-0.334,0.258-0.697,0.479-1.084,0.654c-0.348,0.157-0.709,0.281-1.086,0.366c-0.396,0.089-0.805,0.139-1.225,0.139  c-0.545,0-1.088-0.081-1.615-0.241c-0.688-1.416-1.924-2.475-3.424-2.938c-0.357-0.752-0.549-1.574-0.549-2.404  c0-0.975,0.254-1.893,0.695-2.689C65.875,61.752,66.25,61.281,66.686,60.877z" fill="#ffffff"/><circle r="2.064" cy="72.822" cx="49.139" fill="#ffffff"/><path d="M63.141,74.787c0.19,0.059,0.392,0.1,0.601,0.1c0.168,0,0.327-0.025,0.483-0.063c0.905-0.219,1.58-1.029,1.58-2.002  s-0.675-1.782-1.58-2.002c-0.156-0.037-0.315-0.063-0.483-0.063c-0.209,0-0.408,0.041-0.601,0.101  c-0.442,0.136-0.824,0.408-1.086,0.778c-0.236,0.337-0.38,0.744-0.38,1.188c0,0.442,0.144,0.85,0.38,1.186  C62.316,74.379,62.697,74.652,63.141,74.787z" fill="#ffffff"/><path d="M39.124,65.965h2.194v2.193c0,0.6,0.486,1.086,1.085,1.086c0.6,0,1.085-0.486,1.085-1.086v-2.193h2.194  c0.6,0,1.084-0.484,1.084-1.084s-0.484-1.086-1.084-1.086h-2.194v-2.193c0-0.6-0.485-1.086-1.085-1.086  c-0.599,0-1.085,0.486-1.085,1.086v2.193h-2.194c-0.6,0-1.085,0.486-1.085,1.086S38.524,65.965,39.124,65.965z" fill="#ffffff"/><path d="M70.506,63.383c0.529,0,0.984-0.314,1.195-0.766c0.08-0.17,0.125-0.357,0.125-0.557c0-0.201-0.045-0.388-0.125-0.557  c-0.211-0.449-0.666-0.766-1.195-0.766c-0.729,0-1.32,0.591-1.32,1.32C69.186,62.789,69.777,63.383,70.506,63.383z" fill="#ffffff"/><path d="M70.506,69.217c0.529,0,0.984-0.314,1.195-0.766c0.08-0.169,0.125-0.355,0.125-0.555c0-0.201-0.045-0.389-0.125-0.559  c-0.211-0.449-0.666-0.766-1.195-0.766c-0.729,0-1.32,0.592-1.32,1.32C69.186,68.625,69.777,69.217,70.506,69.217z" fill="#ffffff"/><circle r="1.322" cy="64.979" cx="67.588" fill="#ffffff"/><path d="M72.787,66.129c0.189,0.105,0.404,0.172,0.637,0.172c0.158,0,0.307-0.033,0.447-0.084c0.51-0.184,0.873-0.667,0.873-1.238  c0-0.57-0.363-1.055-0.873-1.236c-0.141-0.053-0.289-0.084-0.447-0.084c-0.232,0-0.447,0.064-0.637,0.171  c-0.408,0.228-0.684,0.651-0.684,1.149S72.379,65.904,72.787,66.129z" fill="#ffffff"/><path d="M55.361,65.393c0-0.6-0.486-1.086-1.084-1.086h-2.176c-0.601,0-1.086,0.486-1.086,1.086c0,0.601,0.485,1.084,1.086,1.084  h2.176C54.875,66.477,55.361,65.991,55.361,65.393z" fill="#ffffff"/><path d="M60.416,66.477c0.385,0,0.723-0.203,0.916-0.506c0.105-0.168,0.17-0.365,0.17-0.578c0-0.215-0.064-0.412-0.17-0.58  c-0.193-0.303-0.531-0.506-0.916-0.506h-0.17h-1.084h-0.92c-0.6,0-1.086,0.486-1.086,1.086c0,0.601,0.486,1.084,1.086,1.084h0.92  h1.084H60.416z" fill="#ffffff"/><circle r="1.321" cy="69.14" cx="56.32" fill="#ffffff"/><text font-family="'Helvetica Neue', Helvetica, Arial-Unicode, Arial, Sans-serif" font-weight="bold" font-size="5px" fill="#ffffff" y="115" x="0">Created by Mr. Minuvi</text><text font-family="'Helvetica Neue', Helvetica, Arial-Unicode, Arial, Sans-serif" font-weight="bold" font-size="5px" fill="#ffffff" y="120" x="0">from the Noun Project</text></svg>