<svg xmlns="http://www.w3.org/2000/svg" viewBox="0 0 69.15 318.9" x="0px" y="0px"><title>GameAsset 23</title><g data-name="Layer 2"><g data-name="Layer 1"><path d="M54.53,255.12a40.51,40.51,0,0,0,9.12-.92c3.65-.88,5.5-2.42,5.5-4.57V162c0-22-2.9-36.62-5.71-50.8-2.94-14.8-6-30.12-6-54.32,0-14.76,3.85-54.3,3.88-54.69A2,2,0,0,0,57.74.79c-1.56,2-9.37,12.5-9.37,18a.91.91,0,0,0,0,.17c0,.12,0,.25,0,.39a8.93,8.93,0,0,0-6.58-2.9H23.92A8.92,8.92,0,0,0,18,18.69C17,12.9,9,2.83,7.35.75A2,2,0,0,0,3.78,2.3c.05.34,4.78,34.25,4.78,53.64C8.56,162.24,2.4,231.6,0,249.36A3.69,3.69,0,0,0,1.8,253c2.08,1.46,6.19,2.13,10.3,2.13,3.94,0,7.88-.61,10-1.73,2-1,2.41-2.39,2.41-3.35s-.05-2.82-.13-5.84H40.74c-.1,3-.16,5-.16,5.84C40.58,254.46,49.32,255.12,54.53,255.12ZM56.61,9.5c-1.13,12.36-3.18,36.34-3.18,47.41,0,24.6,3.07,40.11,6,55.11,2.89,14.62,5.63,28.44,5.63,50v87.33c-.64.51-3.28,1.46-8.53,1.68-6.37.26-10.85-.71-12-1.43.07-4.52,1-28.53,2.19-58.66,2.53-64.7,6.36-162.35,5.6-172.26C52.46,16.73,54.38,13.05,56.61,9.5ZM10.78,251c-4.06-.15-6.15-.94-6.71-1.38C6.48,231.41,12.6,162,12.6,55.94,12.6,42,10.21,20.78,8.79,9.47c2.8,4.09,5.21,8.31,5.27,10.29-.78,10.07,2.52,109.29,4.71,175,.94,28.2,1.68,50.66,1.73,54.89C19.57,250.31,15.92,251.23,10.78,251Zm42.85-9.86V159.09a2,2,0,0,1,4,0v82.07a2,2,0,0,1-4,0Z"/></g></g><text x="0" y="270.12" fill="#000000" font-size="5px" font-weight="bold" font-family="'Helvetica Neue', Helvetica, Arial-Unicode, Arial, Sans-serif">Created by Hamed Mirhashemi</text><text x="0" y="275.12" fill="#000000" font-size="5px" font-weight="bold" font-family="'Helvetica Neue', Helvetica, Arial-Unicode, Arial, Sans-serif">from the Noun Project</text></svg>