<svg xml:space="preserve" viewBox="0 0 103 99.25" y="0px" x="0px" version="1.1" xmlns:xlink="http://www.w3.org/1999/xlink" xmlns="http://www.w3.org/2000/svg" style="max-height: 500px" width="103" height="99.25"><g><g><path d="M12.3,51.9c1.3,2.4,2.5,4.8,4.4,6.9c0.2-0.7-0.2-0.9-0.4-1.2c-7.9-11.8-7.5-27.2,1.1-38.5c0.7-1,1.6-1.4,2.8-1.4    c19.8,0,39.7,0,59.5,0c1.3,0,2.2,0.4,3,1.5c8.5,11,9,26.6,1.1,38.2c-0.2,0.3-0.6,0.6-0.5,1.4c1.9-2.2,3.1-4.5,4.4-7    c1.1,2.9,1.5,5.8,1.6,8.7c0.3,7.3-1.6,14-5.7,20.1c-0.7,1.1-1.6,1.6-2.9,1.6c-20.5,0-41,0-61.5,0c-1.2,0-2.1-0.4-2.8-1.4    c-5.8-8.7-7.3-18.1-4.5-28.2C12.1,52.5,12.1,52.3,12.3,51.9z M50,52.8c8.4,0,16.9,0,25.3,0c1.2,0,1.6-0.4,1.6-1.6    c0-9.2,0-18.5,0-27.7c0-1.6,0-1.7-1.7-1.7c-16.8,0-33.5,0-50.3,0c-1.6,0-1.7,0.1-1.7,1.7c0,9.1,0,18.3,0,27.4c0,1.8,0,1.8,1.7,1.8    C33.2,52.8,41.6,52.8,50,52.8z M46.2,74.5c0-1.7-1.4-3.2-3.2-3.1c-1.8,0-3.2,1.5-3.2,3.3c0,1.7,1.5,3.1,3.2,3.1    C44.9,77.7,46.2,76.3,46.2,74.5z M25.5,65.4c0,1.8,0.3,2.4,1.6,3.4c0.3,0.3,0.7,0.5,1.1,0.2c0.6-0.6,1.3-1.2,1.8-1.9    c0.5-0.6,0.2-3.3-0.2-3.5c-1.2-0.6-2.5-0.5-3.7-0.1C25,63.8,25.7,64.8,25.5,65.4z M25.5,75.9c0,2.3,0.2,2.6,2.4,2.5    c0.5,0,1-0.1,1.4-0.2c0.3,0,0.6-0.2,0.7-0.5c0.8-1.4-0.4-4.6-1.9-5.2c-0.3-0.1-0.6-0.1-0.8,0.1C26.4,73.7,25,74.4,25.5,75.9z     M22.3,73.1c1.6,0,3.5-1,3.7-2.1c0.2-1.2-0.9-1.6-1.5-2.2c-0.5-0.6-3.5-0.6-3.8-0.1c-0.7,1.2-0.5,2.5-0.2,3.7    C20.7,73.5,21.7,72.9,22.3,73.1z M33.2,68.5c-1.7-0.6-2.5,0.8-3.4,1.7c-0.4,0.4-0.4,0.8,0,1.3c1.1,1.5,3,2.1,4.7,1.7    c0.2-0.1,0.5-0.2,0.5-0.3c0.5-1.2,0.5-2.5,0.1-3.7C34.9,68.1,33.9,68.6,33.2,68.5z M18.6,48.3c0-2-1.9-3.5-3.9-3.1    c-0.9,0.2-1.2,0.6-0.9,1.5c0.4,1.1,0.7,2.2,1.1,3.2c0.7,1.7,1.7,1.9,2.9,0.4C18.3,49.8,18.6,49.1,18.6,48.3z M74.7,65.7    c0-1.4-1.1-2.5-2.5-2.5c-1.3,0-2.5,1.1-2.5,2.5c0,1.4,1.1,2.5,2.5,2.5C73.5,68.2,74.7,67,74.7,65.7z M72.3,78.4    c1.4,0,2.5-1.2,2.4-2.6c0-1.4-1.2-2.5-2.5-2.4c-1.4,0-2.5,1.2-2.4,2.6C69.8,77.3,70.9,78.4,72.3,78.4z M69.6,70.8    c0-1.3-1.1-2.5-2.5-2.5c-1.4,0-2.5,1.1-2.5,2.5c0,1.4,1.1,2.5,2.5,2.5C68.5,73.3,69.6,72.1,69.6,70.8z M77.3,68.3    c-1.4,0-2.4,1.2-2.4,2.6c0,1.4,1.1,2.5,2.5,2.4c1.4,0,2.4-1.2,2.4-2.6C79.8,69.3,78.6,68.2,77.3,68.3z M57.3,77.7    c1-0.1,1.9-0.6,2.5-1.7c0.4-0.6,0.2-1-0.6-1c-1.1,0-2.3,0-3.4,0c-0.6,0-1.6-0.4-1.8,0.3c-0.2,0.8,0.6,1.4,1.2,1.8    C55.8,77.6,56.4,77.7,57.3,77.7z M56.9,74c0.7,0,1.5,0,2.2,0c1.1,0,1-0.5,0.6-1.2c-1.2-2-4.3-2-5.4,0c-0.5,0.8-0.3,1.2,0.7,1.2    C55.6,74,56.2,74,56.9,74z"/></g></g><text font-family="'Helvetica Neue', Helvetica, Arial-Unicode, Arial, Sans-serif" font-weight="bold" font-size="5px" fill="#000000" y="115" x="0">Created by O R I M Λ T</text><text font-family="'Helvetica Neue', Helvetica, Arial-Unicode, Arial, Sans-serif" font-weight="bold" font-size="5px" fill="#000000" y="120" x="0">from the Noun Project</text></svg>