<svg xmlns="http://www.w3.org/2000/svg" viewBox="0 0 32 40" x="0px" y="0px"><title>18 Xbox</title><path d="M29.91,24.88,28,17.74A1,1,0,0,0,27,17H24a1,1,0,0,0-.71.29l-.7.71H19.41l-.7-.71A1,1,0,0,0,18,17H15a1,1,0,0,0-1,.74l-1.95,7.14A4.05,4.05,0,0,0,16,30a1,1,0,0,0,.86-.49L19.57,25h2.86l2.71,4.51A1,1,0,0,0,26,30a4.05,4.05,0,0,0,3.91-5.12ZM17,26a2,2,0,1,1,2-2A2,2,0,0,1,17,26Zm8,0a2,2,0,1,1,2-2A2,2,0,0,1,25,26ZM11.19,29.62a6,6,0,0,1-1-5.27l1.95-7.14A3,3,0,0,1,15,15h3V3a1,1,0,0,0-1-1H3A1,1,0,0,0,2,3V29a1,1,0,0,0,1,1h8.51C11.4,29.88,11.29,29.75,11.19,29.62ZM6,25a1,1,0,0,1-2,0V17a1,1,0,0,1,2,0ZM5,8A1,1,0,1,1,6,7,1,1,0,0,1,5,8Z" fill="#ffffff"/><text x="0" y="47" fill="#ffffff" font-size="5px" font-weight="bold" font-family="'Helvetica Neue', Helvetica, Arial-Unicode, Arial, Sans-serif">Created by Icon Everywhere</text><text x="0" y="52" fill="#ffffff" font-size="5px" font-weight="bold" font-family="'Helvetica Neue', Helvetica, Arial-Unicode, Arial, Sans-serif">from the Noun Project</text></svg>