<svg xmlns="http://www.w3.org/2000/svg" data-name="Layer 1" viewBox="0 0 100 125" x="0px" y="0px"><path d="M94.38965,35.96924l-34.35254,2.0249L5.60156,35.978,4,37.57861V61.40723l1.60107,1.60205,54.37354-2.01416L94.377,64.03076,96,62.40771V37.57861ZM60.669,44.16333a5.49207,5.49207,0,0,0,0,10.66064l-1.39868,4.19617L10.09814,60.84106V38.14594l49.17059,1.81659ZM62,52.99365a3.5,3.5,0,1,1,3.5-3.5A3.50425,3.50425,0,0,1,62,52.99365Zm.73944,1.94434a5.49344,5.49344,0,0,0,0-10.88867L61.36133,39.915l28.73682-1.69037V61.64551l-28.749-2.53668ZM6,60.5791V38.40771l.39844-.39844,1.69971.06281v22.843L6.39893,60.978Zm88,1.00049-.377.377-1.5249-.13452V38.107l1.51221-.08893L94,38.40771Z"/><path d="M16.5,48.99365h31a3.5,3.5,0,0,0,0-7h-31a3.5,3.5,0,0,0,0,7Zm0-5h31a1.5,1.5,0,0,1,0,3h-31a1.5,1.5,0,0,1,0-3Z"/><path d="M84.5,51.99365h-5a3.5,3.5,0,0,0,0,7h5a3.5,3.5,0,0,0,0-7Zm0,5h-5a1.5,1.5,0,0,1,0-3h5a1.5,1.5,0,0,1,0,3Z"/><text x="0" y="115" fill="#000000" font-size="5px" font-weight="bold" font-family="'Helvetica Neue', Helvetica, Arial-Unicode, Arial, Sans-serif">Created by Aidan Cooke</text><text x="0" y="120" fill="#000000" font-size="5px" font-weight="bold" font-family="'Helvetica Neue', Helvetica, Arial-Unicode, Arial, Sans-serif">from the Noun Project</text></svg>