<svg xmlns="http://www.w3.org/2000/svg" xmlns:xlink="http://www.w3.org/1999/xlink" xmlns:serif="http://www.serif.com/" viewBox="0 0 100 125" version="1.1" xml:space="preserve" style="" x="0px" y="0px" fill-rule="evenodd" clip-rule="evenodd" stroke-linejoin="round" stroke-miterlimit="2"><g transform="matrix(1,0,0,1,-2733.77,-9992.81)"><path d="M2768.94,10022.7C2768.94,10022.7 2768.94,10022.7 2768.94,10022.8L2768.94,10061.7C2768.94,10061.8 2769.01,10061.9 2769.1,10061.9L2783.76,10066.4C2783.78,10066.4 2783.8,10066.4 2783.83,10066.4L2783.83,10066.4C2783.86,10066.4 2783.88,10066.4 2783.9,10066.4L2798.56,10061.6C2798.65,10061.6 2798.71,10061.5 2798.71,10061.4L2798.71,10022.8C2798.71,10022.7 2798.66,10022.7 2798.59,10022.6C2798.6,10022.6 2798.6,10022.6 2798.6,10022.6C2798.6,10022.5 2798.53,10022.4 2798.43,10022.3L2783.76,10019.2C2783.73,10019.2 2783.7,10019.2 2783.67,10019.2L2769,10022.3C2768.9,10022.4 2768.83,10022.5 2768.83,10022.6C2768.83,10022.6 2768.88,10022.7 2768.94,10022.7ZM2798.28,10022.8L2783.76,10025.8C2783.73,10025.8 2783.7,10025.8 2783.67,10025.8L2769.38,10022.8L2769.38,10061.5L2783.61,10065.9L2783.61,10026.1C2783.61,10025.9 2783.71,10025.8 2783.83,10025.8C2783.95,10025.8 2784.05,10025.9 2784.05,10026.1L2784.05,10065.9L2785.46,10065.5L2785.46,10046.1C2785.46,10046 2785.55,10045.9 2785.68,10045.9C2785.8,10045.9 2785.89,10046 2785.89,10046.1L2785.89,10065.3L2798.28,10061.3L2798.28,10022.8C2798.28,10022.8 2798.28,10022.8 2798.28,10022.8ZM2785.89,10044.5L2785.89,10044.2C2785.89,10044.1 2785.8,10044 2785.68,10044C2785.55,10044 2785.46,10044.1 2785.46,10044.2L2785.46,10044.5C2785.46,10044.6 2785.55,10044.7 2785.68,10044.7C2785.8,10044.7 2785.89,10044.6 2785.89,10044.5ZM2770.1,10022.6L2783.72,10019.6C2784.47,10019.8 2794.15,10021.9 2797.33,10022.6C2797.33,10022.6 2783.72,10025.4 2783.72,10025.4L2770.1,10022.6ZM2782.82,10023.7L2783.38,10023.8L2784.21,10023.6L2783.65,10023.5L2782.82,10023.7ZM2780.25,10023.1L2780.94,10023.3L2781.78,10023.1L2781.1,10022.9L2780.25,10023.1ZM2785.54,10023.1L2786.12,10023.2L2786.86,10023.1L2786.26,10023L2785.54,10023.1ZM2788.17,10022.6L2788.79,10022.7L2789.41,10022.6L2788.79,10022.4L2788.17,10022.6ZM2783.01,10022.5L2783.66,10022.7L2784.36,10022.5L2783.71,10022.4L2783.01,10022.5ZM2777.81,10022.6L2778.34,10022.7L2779.2,10022.5L2778.66,10022.4L2777.81,10022.6ZM2785.64,10022L2786.27,10022.1L2786.91,10022L2786.31,10021.9L2785.64,10022ZM2780.55,10022L2781.11,10022.1L2781.79,10022L2781.21,10021.8L2780.55,10022ZM2783.12,10021.4L2783.72,10021.6L2784.41,10021.4L2783.8,10021.3L2783.12,10021.4Z"/></g><text x="0" y="115" fill="#000000" font-size="5px" font-weight="bold" font-family="'Helvetica Neue', Helvetica, Arial-Unicode, Arial, Sans-serif">Created by Nick Taras</text><text x="0" y="120" fill="#000000" font-size="5px" font-weight="bold" font-family="'Helvetica Neue', Helvetica, Arial-Unicode, Arial, Sans-serif">from the Noun Project</text></svg>